999
FreeCAD v0.21 33771 (Git)
  0
SECTION
  2
HEADER
  9
$ACADVER
  1
AC1014
  9
$ACADMAINTVER
 70
     9
  9
$DWGCODEPAGE
  3
ANSI_1252
  9
$TEXTSTYLE
  7
STANDARD
  9
$DIMSTYLE
  2
STANDARD
  9
$DIMTXSTY
  7
STANDARD
  9
$CMLSTYLE
  2
STANDARD
  9
$LUNITS
 70
2
  9
$INSUNITS
 70
4
  9
$PEXTMAX
 10
50
 20
50
 30
50
  9
$PEXTMIN
 10
0
 20
0
 30
0
  9
$HANDSEED
  5
FFFF
  0
ENDSEC
  0
SECTION
  2
CLASSES
  0
CLASS
  1
ACDBDICTIONARYWDFLT
  2
AcDbDictionaryWithDefault
  3
ObjectDBX Classes
 90
        0
280
     0
281
     0
  0
CLASS
  1
XRECORD
  2
AcDbXrecord
  3
ObjectDBX Classes
 90
        0
280
     0
281
     0
  0
CLASS
  1
LWPOLYLINE
  2
AcDbPolyline
  3
ObjectDBX Classes
 90
        0
280
     0
281
     1
  0
ENDSEC
  0
SECTION
  2
TABLES
  0
TABLE
  2
VPORT
  5
20
330
0
100
AcDbSymbolTable
 70
     1
  0
VPORT
  5
21
330
20
100
AcDbSymbolTableRecord
100
AcDbViewportTableRecord
  2
*ACTIVE
 70
     0
  0
ENDTAB
  0
TABLE
  2
LTYPE
  5
22
330
0
100
AcDbSymbolTable
 70
     1
  0
LTYPE
  5
23
330
21
100
AcDbSymbolTableRecord
100
AcDbLinetypeTableRecord
  2
BYBLOCK
 70
     0
  3

 72
    65
 73
     0
 40
0.0
  0
LTYPE
  5
24
330
21
100
AcDbSymbolTableRecord
100
AcDbLinetypeTableRecord
  2
BYLAYER
 70
     0
  3

 72
    65
 73
     0
 40
0.0
  0
LTYPE
  5
25
330
21
100
AcDbSymbolTableRecord
100
AcDbLinetypeTableRecord
  2
CONTINUOUS
 70
     0
  3
Solid line
 72
    65
 73
     0
 40
0.0
  0
ENDTAB
  0
TABLE
  2
LAYER
  5
AB6
330
0
100
AcDbSymbolTable
 70
3
  0
LAYER
  5
AB7
330
AB6
100
AcDbSymbolTableRecord
100
AcDbLayerTableRecord
  2
0
 70
   0
 62
   7
  6
CONTINUOUS
  0
LAYER
  5
AB8
330
AB6
100
AcDbSymbolTableRecord
100
AcDbLayerTableRecord
  2
none
 70
    0
 62
    7
  6
CONTINUOUS
  0
LAYER
  5
AB9
330
AB6
100
AcDbSymbolTableRecord
100
AcDbLayerTableRecord
  2
Shape2DView002
 70
    0
 62
    7
  6
CONTINUOUS
  0
ENDTAB
  0
TABLE
  2
STYLE
  5
70
330
0
100
AcDbSymbolTable
 70
     2
  0
STYLE
  5
71
330
70
100
AcDbSymbolTableRecord
100
AcDbTextStyleTableRecord
  2
STANDARD
 70
     0
 40
0.0
 41
1.0
 50
0.0
 71
     0
 42
2.5
  3
arial.ttf
  4

  0
STYLE
  5
72
330
70
100
AcDbSymbolTableRecord
100
AcDbTextStyleTableRecord
  2
ANNOTATIVE
 70
     0
 40
0.0
 41
1.0
 50
0.0
 71
     0
 42
2.5
  3
arial.ttf
  4

  0
ENDTAB
  0
TABLE
  2
VIEW
  5
73
330
0
100
AcDbSymbolTable
 70
     0
  0
ENDTAB
  0
TABLE
  2
UCS
  5
74
330
0
100
AcDbSymbolTable
 70
     0
  0
ENDTAB
  0
TABLE
  2
APPID
  5
75
330
0
100
AcDbSymbolTable
 70
     2
  0
APPID
  5
76
330
75
100
AcDbSymbolTableRecord
100
AcDbRegAppTableRecord
  2
ACAD
 70
     0
  0
APPID
  5
77
330
75
100
AcDbSymbolTableRecord
100
AcDbRegAppTableRecord
  2
ACADANNOTATIVE
 70
     0
  0
ENDTAB
  0
TABLE
  2
DIMSTYLE
  5
78
330
0
100
AcDbSymbolTable
 70
     2
  0
DIMSTYLE
105
79
330
78
100
AcDbSymbolTableRecord
100
AcDbDimStyleTableRecord
  2
STANDARD
 70
     0
  3

  4

  5

  6

  7

 40
0.0
 41
2.5
 42
0.625
 43
3.75
 44
1.25
 45
0.0
 46
0.0
 47
0.0
 48
0.0
140
2.5
141
2.5
142
0.0
143
0.03937007874016
144
1.0
145
0.0
146
1.0
147
0.625
 71
     0
 72
     0
 73
     0
 74
     0
 75
     0
 76
     0
 77
     1
 78
     8
170
     0
171
     3
172
     1
173
     0
174
     0
175
     0
176
     0
177
     0
178
     0
270
     2
271
     2
272
     2
273
     2
274
     3
340
71
275
     0
280
     0
281
     0
282
     0
283
     0
284
     8
285
     0
286
     0
287
     3
288
     0
  0
ENDTAB
  0
TABLE
  2
BLOCK_RECORD
  5
A01
330
0
100
AcDbSymbolTable
  70
5
  0
BLOCK_RECORD
  5
A02
330
A01
100
AcDbSymbolTableRecord
100
AcDbBlockTableRecord
  2
*MODEL_SPACE
  0
BLOCK_RECORD
  5
A03
330
A01
100
AcDbSymbolTableRecord
100
AcDbBlockTableRecord
  2
*PAPER_SPACE
  0
ENDTAB
  0
ENDSEC
  0
SECTION
  2
BLOCKS
  0
BLOCK
  5
A04
330
A02
100
AcDbEntity
  8
0
100
AcDbBlockBegin
  2
*MODEL_SPACE
 70
   0
 10
0
 20
0
 30
0
  3
*MODEL_SPACE
  1
 
  0
ENDBLK
  5
A05
330
A02
100
AcDbEntity
  8
0
100
AcDbBlockEnd
  0
BLOCK
  5
A06
330
A03
100
AcDbEntity
 67
1
  8
0
100
AcDbBlockBegin
  2
*PAPER_SPACE
 70
   0
 10
0
 20
0
 30
0
  3
*PAPER_SPACE
  1
 
  0
ENDBLK
  5
A07
330
A03
100
AcDbEntity
 67
    1
  8
0
100
AcDbBlockEnd
  0
ENDSEC
  0
SECTION
  2
ENTITIES
  0
LINE
  5
A08
330
A02
100
AcDbEntity
  8
Shape2DView002
100
AcDbLine
 10
-37
 20
12.5
 30
0
 11
-37
 21
0
 31
0
  0
LINE
  5
A09
330
A02
100
AcDbEntity
  8
Shape2DView002
100
AcDbLine
 10
-37
 20
12.5
 30
0
 11
-39.5
 21
14.5
 31
0
  0
LINE
  5
A0A
330
A02
100
AcDbEntity
  8
Shape2DView002
100
AcDbLine
 10
-37
 20
0
 30
0
 11
0
 21
0
 31
0
  0
LINE
  5
A0B
330
A02
100
AcDbEntity
  8
Shape2DView002
100
AcDbLine
 10
-39.5
 20
14.5
 30
0
 11
-37
 21
16.5
 31
0
  0
LINE
  5
A0C
330
A02
100
AcDbEntity
  8
Shape2DView002
100
AcDbLine
 10
8.88178e-16
 20
0
 30
0
 11
8.88178e-16
 21
12.5
 31
0
  0
LINE
  5
A0D
330
A02
100
AcDbEntity
  8
Shape2DView002
100
AcDbLine
 10
-37
 20
29
 30
0
 11
-37
 21
16.5
 31
0
  0
LINE
  5
A0E
330
A02
100
AcDbEntity
  8
Shape2DView002
100
AcDbLine
 10
8.88178e-16
 20
12.5
 30
0
 11
2.5
 21
14.5
 31
0
  0
LINE
  5
A0F
330
A02
100
AcDbEntity
  8
Shape2DView002
100
AcDbLine
 10
-37
 20
29
 30
0
 11
-39.5
 21
31
 31
0
  0
LINE
  5
A10
330
A02
100
AcDbEntity
  8
Shape2DView002
100
AcDbLine
 10
2.5
 20
14.5
 30
0
 11
8.88178e-16
 21
16.5
 31
0
  0
LINE
  5
A11
330
A02
100
AcDbEntity
  8
Shape2DView002
100
AcDbLine
 10
-39.5
 20
31
 30
0
 11
-37
 21
33
 31
0
  0
LINE
  5
A12
330
A02
100
AcDbEntity
  8
Shape2DView002
100
AcDbLine
 10
8.88178e-16
 20
16.5
 30
0
 11
8.88178e-16
 21
29
 31
0
  0
LINE
  5
A13
330
A02
100
AcDbEntity
  8
Shape2DView002
100
AcDbLine
 10
-37
 20
45.5
 30
0
 11
-37
 21
33
 31
0
  0
LINE
  5
A14
330
A02
100
AcDbEntity
  8
Shape2DView002
100
AcDbLine
 10
8.88178e-16
 20
29
 30
0
 11
2.5
 21
31
 31
0
  0
LINE
  5
A15
330
A02
100
AcDbEntity
  8
Shape2DView002
100
AcDbLine
 10
8.88178e-16
 20
45.5
 30
0
 11
-37
 21
45.5
 31
0
  0
LINE
  5
A16
330
A02
100
AcDbEntity
  8
Shape2DView002
100
AcDbLine
 10
2.5
 20
31
 30
0
 11
8.88178e-16
 21
33
 31
0
  0
LINE
  5
A17
330
A02
100
AcDbEntity
  8
Shape2DView002
100
AcDbLine
 10
8.88178e-16
 20
33
 30
0
 11
8.88178e-16
 21
45.5
 31
0
  0
CIRCLE
  5
A18
330
A02
100
AcDbEntity
  8
Shape2DView002
100
AcDbCircle
 10
-7
 20
10.78
 40
2.35
  0
SPLINE
  5
A19
330
A02
100
AcDbEntity
  8
Shape2DView002
100
AcDbSpline
210
0
220
0
230
1
 70
8
 71
2
 72
6
 73
3
 74
0
 40
0
 40
0
 40
0
 40
1
 40
1
 40
1
 10
-10.9965
 20
14.8378
 30
0
 10
-10.9965
 20
14.4523
 30
0
 10
-11.1466
 20
14.1821
 30
0
  0
SPLINE
  5
A1A
330
A02
100
AcDbEntity
  8
Shape2DView002
100
AcDbSpline
210
0
220
0
230
1
 70
8
 71
2
 72
6
 73
3
 74
0
 40
0
 40
0
 40
0
 40
1
 40
1
 40
1
 10
-11.1466
 20
14.1821
 30
0
 10
-11.2983
 20
13.9136
 30
0
 10
-11.5511
 20
13.7477
 30
0
  0
SPLINE
  5
A1B
330
A02
100
AcDbEntity
  8
Shape2DView002
100
AcDbSpline
210
0
220
0
230
1
 70
8
 71
2
 72
6
 73
3
 74
0
 40
0
 40
0
 40
0
 40
1
 40
1
 40
1
 10
-11.5511
 20
13.7477
 30
0
 10
-11.8054
 20
13.5834
 30
0
 10
-12.1182
 20
13.506
 30
0
  0
SPLINE
  5
A1C
330
A02
100
AcDbEntity
  8
Shape2DView002
100
AcDbSpline
210
0
220
0
230
1
 70
8
 71
2
 72
6
 73
3
 74
0
 40
0
 40
0
 40
0
 40
1
 40
1
 40
1
 10
-12.1182
 20
13.506
 30
0
 10
-12.431
 20
13.4302
 30
0
 10
-12.7533
 20
13.4302
 30
0
  0
SPLINE
  5
A1D
330
A02
100
AcDbEntity
  8
Shape2DView002
100
AcDbSpline
210
0
220
0
230
1
 70
8
 71
2
 72
6
 73
3
 74
0
 40
0
 40
0
 40
0
 40
1
 40
1
 40
1
 10
-12.7533
 20
13.4302
 30
0
 10
-13.074
 20
13.4302
 30
0
 10
-13.3852
 20
13.5092
 30
0
  0
SPLINE
  5
A1E
330
A02
100
AcDbEntity
  8
Shape2DView002
100
AcDbSpline
210
0
220
0
230
1
 70
8
 71
2
 72
6
 73
3
 74
0
 40
0
 40
0
 40
0
 40
1
 40
1
 40
1
 10
-13.3852
 20
13.5092
 30
0
 10
-13.698
 20
13.5882
 30
0
 10
-13.9523
 20
13.7556
 30
0
  0
SPLINE
  5
A1F
330
A02
100
AcDbEntity
  8
Shape2DView002
100
AcDbSpline
210
0
220
0
230
1
 70
8
 71
2
 72
6
 73
3
 74
0
 40
0
 40
0
 40
0
 40
1
 40
1
 40
1
 10
-13.9523
 20
13.7556
 30
0
 10
-14.2067
 20
13.9231
 30
0
 10
-14.3583
 20
14.19
 30
0
  0
SPLINE
  5
A20
330
A02
100
AcDbEntity
  8
Shape2DView002
100
AcDbSpline
210
0
220
0
230
1
 70
8
 71
2
 72
6
 73
3
 74
0
 40
0
 40
0
 40
0
 40
1
 40
1
 40
1
 10
-14.3583
 20
14.19
 30
0
 10
-14.51
 20
14.4586
 30
0
 10
-14.51
 20
14.8378
 30
0
  0
SPLINE
  5
A21
330
A02
100
AcDbEntity
  8
Shape2DView002
100
AcDbSpline
210
0
220
0
230
1
 70
8
 71
2
 72
6
 73
3
 74
0
 40
0
 40
0
 40
0
 40
1
 40
1
 40
1
 10
-14.51
 20
14.8378
 30
0
 10
-14.51
 20
15.1506
 30
0
 10
-14.4199
 20
15.367
 30
0
  0
SPLINE
  5
A22
330
A02
100
AcDbEntity
  8
Shape2DView002
100
AcDbSpline
210
0
220
0
230
1
 70
8
 71
2
 72
6
 73
3
 74
0
 40
0
 40
0
 40
0
 40
1
 40
1
 40
1
 10
-14.4199
 20
15.367
 30
0
 10
-14.3315
 20
15.585
 30
0
 10
-14.1909
 20
15.7209
 30
0
  0
SPLINE
  5
A23
330
A02
100
AcDbEntity
  8
Shape2DView002
100
AcDbSpline
210
0
220
0
230
1
 70
8
 71
2
 72
6
 73
3
 74
0
 40
0
 40
0
 40
0
 40
1
 40
1
 40
1
 10
-14.1909
 20
15.7209
 30
0
 10
-14.0518
 20
15.8583
 30
0
 10
-13.8986
 20
15.9341
 30
0
  0
LINE
  5
A24
330
A02
100
AcDbEntity
  8
Shape2DView002
100
AcDbLine
 10
-13.8986
 20
15.9341
 30
0
 11
-13.7043
 21
15.555
 31
0
  0
SPLINE
  5
A25
330
A02
100
AcDbEntity
  8
Shape2DView002
100
AcDbSpline
210
0
220
0
230
1
 70
8
 71
2
 72
6
 73
3
 74
0
 40
0
 40
0
 40
0
 40
1
 40
1
 40
1
 10
-13.7043
 20
15.555
 30
0
 10
-13.8244
 20
15.476
 30
0
 10
-13.9176
 20
15.3812
 30
0
  0
SPLINE
  5
A26
330
A02
100
AcDbEntity
  8
Shape2DView002
100
AcDbSpline
210
0
220
0
230
1
 70
8
 71
2
 72
6
 73
3
 74
0
 40
0
 40
0
 40
0
 40
1
 40
1
 40
1
 10
-13.9176
 20
15.3812
 30
0
 10
-14.0108
 20
15.2864
 30
0
 10
-14.0629
 20
15.1553
 30
0
  0
SPLINE
  5
A27
330
A02
100
AcDbEntity
  8
Shape2DView002
100
AcDbSpline
210
0
220
0
230
1
 70
8
 71
2
 72
6
 73
3
 74
0
 40
0
 40
0
 40
0
 40
1
 40
1
 40
1
 10
-14.0629
 20
15.1553
 30
0
 10
-14.1166
 20
15.0242
 30
0
 10
-14.1166
 20
14.8378
 30
0
  0
SPLINE
  5
A28
330
A02
100
AcDbEntity
  8
Shape2DView002
100
AcDbSpline
210
0
220
0
230
1
 70
8
 71
2
 72
6
 73
3
 74
0
 40
0
 40
0
 40
0
 40
1
 40
1
 40
1
 10
-14.1166
 20
14.8378
 30
0
 10
-14.1166
 20
14.566
 30
0
 10
-13.9934
 20
14.378
 30
0
  0
SPLINE
  5
A29
330
A02
100
AcDbEntity
  8
Shape2DView002
100
AcDbSpline
210
0
220
0
230
1
 70
8
 71
2
 72
6
 73
3
 74
0
 40
0
 40
0
 40
0
 40
1
 40
1
 40
1
 10
-13.9934
 20
14.378
 30
0
 10
-13.8702
 20
14.1916
 30
0
 10
-13.668
 20
14.0779
 30
0
  0
SPLINE
  5
A2A
330
A02
100
AcDbEntity
  8
Shape2DView002
100
AcDbSpline
210
0
220
0
230
1
 70
8
 71
2
 72
6
 73
3
 74
0
 40
0
 40
0
 40
0
 40
1
 40
1
 40
1
 10
-13.668
 20
14.0779
 30
0
 10
-13.4673
 20
13.9657
 30
0
 10
-13.2272
 20
13.9152
 30
0
  0
SPLINE
  5
A2B
330
A02
100
AcDbEntity
  8
Shape2DView002
100
AcDbSpline
210
0
220
0
230
1
 70
8
 71
2
 72
6
 73
3
 74
0
 40
0
 40
0
 40
0
 40
1
 40
1
 40
1
 10
-13.2272
 20
13.9152
 30
0
 10
-12.9871
 20
13.8662
 30
0
 10
-12.7533
 20
13.8662
 30
0
  0
SPLINE
  5
A2C
330
A02
100
AcDbEntity
  8
Shape2DView002
100
AcDbSpline
210
0
220
0
230
1
 70
8
 71
2
 72
6
 73
3
 74
0
 40
0
 40
0
 40
0
 40
1
 40
1
 40
1
 10
-12.7533
 20
13.8662
 30
0
 10
-12.5005
 20
13.8662
 30
0
 10
-12.2572
 20
13.9215
 30
0
  0
SPLINE
  5
A2D
330
A02
100
AcDbEntity
  8
Shape2DView002
100
AcDbSpline
210
0
220
0
230
1
 70
8
 71
2
 72
6
 73
3
 74
0
 40
0
 40
0
 40
0
 40
1
 40
1
 40
1
 10
-12.2572
 20
13.9215
 30
0
 10
-12.0155
 20
13.9784
 30
0
 10
-11.8196
 20
14.0968
 30
0
  0
SPLINE
  5
A2E
330
A02
100
AcDbEntity
  8
Shape2DView002
100
AcDbSpline
210
0
220
0
230
1
 70
8
 71
2
 72
6
 73
3
 74
0
 40
0
 40
0
 40
0
 40
1
 40
1
 40
1
 10
-11.8196
 20
14.0968
 30
0
 10
-11.6253
 20
14.2169
 30
0
 10
-11.51
 20
14.3986
 30
0
  0
SPLINE
  5
A2F
330
A02
100
AcDbEntity
  8
Shape2DView002
100
AcDbSpline
210
0
220
0
230
1
 70
8
 71
2
 72
6
 73
3
 74
0
 40
0
 40
0
 40
0
 40
1
 40
1
 40
1
 10
-11.51
 20
14.3986
 30
0
 10
-11.3947
 20
14.5818
 30
0
 10
-11.3947
 20
14.8378
 30
0
  0
SPLINE
  5
A30
330
A02
100
AcDbEntity
  8
Shape2DView002
100
AcDbSpline
210
0
220
0
230
1
 70
8
 71
2
 72
6
 73
3
 74
0
 40
0
 40
0
 40
0
 40
1
 40
1
 40
1
 10
-11.3947
 20
14.8378
 30
0
 10
-11.3947
 20
15.119
 30
0
 10
-11.5147
 20
15.288
 30
0
  0
SPLINE
  5
A31
330
A02
100
AcDbEntity
  8
Shape2DView002
100
AcDbSpline
210
0
220
0
230
1
 70
8
 71
2
 72
6
 73
3
 74
0
 40
0
 40
0
 40
0
 40
1
 40
1
 40
1
 10
-11.5147
 20
15.288
 30
0
 10
-11.6348
 20
15.4586
 30
0
 10
-11.8259
 20
15.5755
 30
0
  0
LINE
  5
A32
330
A02
100
AcDbEntity
  8
Shape2DView002
100
AcDbLine
 10
-11.8259
 20
15.5755
 30
0
 11
-11.6806
 21
15.9626
 31
0
  0
SPLINE
  5
A33
330
A02
100
AcDbEntity
  8
Shape2DView002
100
AcDbSpline
210
0
220
0
230
1
 70
8
 71
2
 72
6
 73
3
 74
0
 40
0
 40
0
 40
0
 40
1
 40
1
 40
1
 10
-11.6806
 20
15.9626
 30
0
 10
-11.491
 20
15.8757
 30
0
 10
-11.3362
 20
15.7256
 30
0
  0
SPLINE
  5
A34
330
A02
100
AcDbEntity
  8
Shape2DView002
100
AcDbSpline
210
0
220
0
230
1
 70
8
 71
2
 72
6
 73
3
 74
0
 40
0
 40
0
 40
0
 40
1
 40
1
 40
1
 10
-11.3362
 20
15.7256
 30
0
 10
-11.1814
 20
15.5755
 30
0
 10
-11.0882
 20
15.3559
 30
0
  0
SPLINE
  5
A35
330
A02
100
AcDbEntity
  8
Shape2DView002
100
AcDbSpline
210
0
220
0
230
1
 70
8
 71
2
 72
6
 73
3
 74
0
 40
0
 40
0
 40
0
 40
1
 40
1
 40
1
 10
-11.0882
 20
15.3559
 30
0
 10
-10.9965
 20
15.1363
 30
0
 10
-10.9965
 20
14.8378
 30
0
  0
CIRCLE
  5
A36
330
A02
100
AcDbEntity
  8
Shape2DView002
100
AcDbCircle
 10
-7
 20
18.76
 40
2.35
  0
LINE
  5
A37
330
A02
100
AcDbEntity
  8
Shape2DView002
100
AcDbLine
 10
-11.055
 20
16.4823
 30
0
 11
-14.4515
 21
17.6861
 31
0
  0
LINE
  5
A38
330
A02
100
AcDbEntity
  8
Shape2DView002
100
AcDbLine
 10
-14.4515
 20
17.6861
 30
0
 11
-14.4515
 21
18.0779
 31
0
  0
LINE
  5
A39
330
A02
100
AcDbEntity
  8
Shape2DView002
100
AcDbLine
 10
-14.4515
 20
18.0779
 30
0
 11
-11.055
 21
19.2817
 31
0
  0
LINE
  5
A3A
330
A02
100
AcDbEntity
  8
Shape2DView002
100
AcDbLine
 10
-11.055
 20
19.2817
 30
0
 11
-11.055
 21
18.8504
 31
0
  0
LINE
  5
A3B
330
A02
100
AcDbEntity
  8
Shape2DView002
100
AcDbLine
 10
-11.055
 20
18.8504
 30
0
 11
-11.8844
 21
18.5581
 31
0
  0
LINE
  5
A3C
330
A02
100
AcDbEntity
  8
Shape2DView002
100
AcDbLine
 10
-11.8844
 20
18.5581
 30
0
 11
-11.8844
 21
17.209
 31
0
  0
LINE
  5
A3D
330
A02
100
AcDbEntity
  8
Shape2DView002
100
AcDbLine
 10
-11.8844
 20
17.209
 30
0
 11
-11.055
 21
16.9231
 31
0
  0
LINE
  5
A3E
330
A02
100
AcDbEntity
  8
Shape2DView002
100
AcDbLine
 10
-11.055
 20
16.9231
 30
0
 11
-11.055
 21
16.4823
 31
0
  0
LINE
  5
A3F
330
A02
100
AcDbEntity
  8
Shape2DView002
100
AcDbLine
 10
-10.9965
 20
21.5218
 30
0
 11
-13.1419
 21
20.5992
 31
0
  0
SPLINE
  5
A40
330
A02
100
AcDbEntity
  8
Shape2DView002
100
AcDbSpline
210
0
220
0
230
1
 70
8
 71
2
 72
6
 73
3
 74
0
 40
0
 40
0
 40
0
 40
1
 40
1
 40
1
 10
-13.1419
 20
20.5992
 30
0
 10
-13.2272
 20
20.5629
 30
0
 10
-13.3267
 20
20.5234
 30
0
  0
SPLINE
  5
A41
330
A02
100
AcDbEntity
  8
Shape2DView002
100
AcDbSpline
210
0
220
0
230
1
 70
8
 71
2
 72
6
 73
3
 74
0
 40
0
 40
0
 40
0
 40
1
 40
1
 40
1
 10
-13.3267
 20
20.5234
 30
0
 10
-13.4278
 20
20.4839
 30
0
 10
-13.51
 20
20.4539
 30
0
  0
SPLINE
  5
A42
330
A02
100
AcDbEntity
  8
Shape2DView002
100
AcDbSpline
210
0
220
0
230
1
 70
8
 71
2
 72
6
 73
3
 74
0
 40
0
 40
0
 40
0
 40
1
 40
1
 40
1
 10
-13.51
 20
20.4539
 30
0
 10
-13.4452
 20
20.4618
 30
0
 10
-13.3362
 20
20.4649
 30
0
  0
SPLINE
  5
A43
330
A02
100
AcDbEntity
  8
Shape2DView002
100
AcDbSpline
210
0
220
0
230
1
 70
8
 71
2
 72
6
 73
3
 74
0
 40
0
 40
0
 40
0
 40
1
 40
1
 40
1
 10
-13.3362
 20
20.4649
 30
0
 10
-13.2288
 20
20.4681
 30
0
 10
-13.1419
 20
20.4681
 30
0
  0
LINE
  5
A44
330
A02
100
AcDbEntity
  8
Shape2DView002
100
AcDbLine
 10
-13.1419
 20
20.4681
 30
0
 11
-11.055
 21
20.4681
 31
0
  0
LINE
  5
A45
330
A02
100
AcDbEntity
  8
Shape2DView002
100
AcDbLine
 10
-11.055
 20
20.4681
 30
0
 11
-11.055
 21
20.0463
 31
0
  0
LINE
  5
A46
330
A02
100
AcDbEntity
  8
Shape2DView002
100
AcDbLine
 10
-11.055
 20
20.0463
 30
0
 11
-14.4515
 21
20.0463
 31
0
  0
LINE
  5
A47
330
A02
100
AcDbEntity
  8
Shape2DView002
100
AcDbLine
 10
-14.4515
 20
20.0463
 30
0
 11
-14.4515
 21
20.4444
 31
0
  0
LINE
  5
A48
330
A02
100
AcDbEntity
  8
Shape2DView002
100
AcDbLine
 10
-14.4515
 20
20.4444
 30
0
 11
-12.1656
 21
21.4349
 31
0
  0
SPLINE
  5
A49
330
A02
100
AcDbEntity
  8
Shape2DView002
100
AcDbSpline
210
0
220
0
230
1
 70
8
 71
2
 72
6
 73
3
 74
0
 40
0
 40
0
 40
0
 40
1
 40
1
 40
1
 10
-12.1656
 20
21.4349
 30
0
 10
-12.1135
 20
21.4555
 30
0
 10
-12.055
 20
21.4776
 30
0
  0
SPLINE
  5
A4A
330
A02
100
AcDbEntity
  8
Shape2DView002
100
AcDbSpline
210
0
220
0
230
1
 70
8
 71
1
 72
4
 73
2
 74
0
 40
0
 40
0
 40
1
 40
1
 10
-12.055
 20
21.4776
 30
0
 10
-11.9381
 20
21.5218
 30
0
  0
SPLINE
  5
A4B
330
A02
100
AcDbEntity
  8
Shape2DView002
100
AcDbSpline
210
0
220
0
230
1
 70
8
 71
1
 72
4
 73
2
 74
0
 40
0
 40
0
 40
1
 40
1
 10
-11.9381
 20
21.5218
 30
0
 10
-12.0503
 20
21.5629
 30
0
  0
SPLINE
  5
A4C
330
A02
100
AcDbEntity
  8
Shape2DView002
100
AcDbSpline
210
0
220
0
230
1
 70
8
 71
1
 72
4
 73
2
 74
0
 40
0
 40
0
 40
1
 40
1
 10
-12.0503
 20
21.5629
 30
0
 10
-12.1656
 20
21.6087
 30
0
  0
LINE
  5
A4D
330
A02
100
AcDbEntity
  8
Shape2DView002
100
AcDbLine
 10
-12.1656
 20
21.6087
 30
0
 11
-14.4515
 21
22.5945
 31
0
  0
LINE
  5
A4E
330
A02
100
AcDbEntity
  8
Shape2DView002
100
AcDbLine
 10
-14.4515
 20
22.5945
 30
0
 11
-14.4515
 21
22.9973
 31
0
  0
LINE
  5
A4F
330
A02
100
AcDbEntity
  8
Shape2DView002
100
AcDbLine
 10
-14.4515
 20
22.9973
 30
0
 11
-11.055
 21
22.9973
 31
0
  0
LINE
  5
A50
330
A02
100
AcDbEntity
  8
Shape2DView002
100
AcDbLine
 10
-11.055
 20
22.9973
 30
0
 11
-11.055
 21
22.5755
 31
0
  0
LINE
  5
A51
330
A02
100
AcDbEntity
  8
Shape2DView002
100
AcDbLine
 10
-11.055
 20
22.5755
 30
0
 11
-13.1419
 21
22.5755
 31
0
  0
SPLINE
  5
A52
330
A02
100
AcDbEntity
  8
Shape2DView002
100
AcDbSpline
210
0
220
0
230
1
 70
8
 71
2
 72
6
 73
3
 74
0
 40
0
 40
0
 40
0
 40
1
 40
1
 40
1
 10
-13.1419
 20
22.5755
 30
0
 10
-13.2288
 20
22.5755
 30
0
 10
-13.3394
 20
22.5787
 30
0
  0
SPLINE
  5
A53
330
A02
100
AcDbEntity
  8
Shape2DView002
100
AcDbSpline
210
0
220
0
230
1
 70
8
 71
2
 72
6
 73
3
 74
0
 40
0
 40
0
 40
0
 40
1
 40
1
 40
1
 10
-13.3394
 20
22.5787
 30
0
 10
-13.4499
 20
22.5818
 30
0
 10
-13.5147
 20
22.585
 30
0
  0
SPLINE
  5
A54
330
A02
100
AcDbEntity
  8
Shape2DView002
100
AcDbSpline
210
0
220
0
230
1
 70
8
 71
2
 72
6
 73
3
 74
0
 40
0
 40
0
 40
0
 40
1
 40
1
 40
1
 10
-13.5147
 20
22.585
 30
0
 10
-13.4326
 20
22.555
 30
0
 10
-13.3251
 20
22.5123
 30
0
  0
SPLINE
  5
A55
330
A02
100
AcDbEntity
  8
Shape2DView002
100
AcDbSpline
210
0
220
0
230
1
 70
8
 71
2
 72
6
 73
3
 74
0
 40
0
 40
0
 40
0
 40
1
 40
1
 40
1
 10
-13.3251
 20
22.5123
 30
0
 10
-13.2193
 20
22.4712
 30
0
 10
-13.1324
 20
22.4333
 30
0
  0
LINE
  5
A56
330
A02
100
AcDbEntity
  8
Shape2DView002
100
AcDbLine
 10
-13.1324
 20
22.4333
 30
0
 11
-10.9965
 21
21.5218
 31
0
  0
CIRCLE
  5
A57
330
A02
100
AcDbEntity
  8
Shape2DView002
100
AcDbCircle
 10
-23.125
 20
22.75
 40
6.8
  0
CIRCLE
  5
A58
330
A02
100
AcDbEntity
  8
Shape2DView002
100
AcDbCircle
 10
-7
 20
26.74
 40
2.35
  0
LINE
  5
A59
330
A02
100
AcDbEntity
  8
Shape2DView002
100
AcDbLine
 10
-11.055
 20
23.9894
 30
0
 11
-14.4515
 21
23.9894
 31
0
  0
LINE
  5
A5A
330
A02
100
AcDbEntity
  8
Shape2DView002
100
AcDbLine
 10
-14.4515
 20
23.9894
 30
0
 11
-14.4515
 21
26.0084
 31
0
  0
LINE
  5
A5B
330
A02
100
AcDbEntity
  8
Shape2DView002
100
AcDbLine
 10
-14.4515
 20
26.0084
 30
0
 11
-14.0534
 21
26.0084
 31
0
  0
LINE
  5
A5C
330
A02
100
AcDbEntity
  8
Shape2DView002
100
AcDbLine
 10
-14.0534
 20
26.0084
 30
0
 11
-14.0534
 21
24.4112
 31
0
  0
LINE
  5
A5D
330
A02
100
AcDbEntity
  8
Shape2DView002
100
AcDbLine
 10
-14.0534
 20
24.4112
 30
0
 11
-13.0108
 21
24.4112
 31
0
  0
LINE
  5
A5E
330
A02
100
AcDbEntity
  8
Shape2DView002
100
AcDbLine
 10
-13.0108
 20
24.4112
 30
0
 11
-13.0108
 21
25.4649
 31
0
  0
LINE
  5
A5F
330
A02
100
AcDbEntity
  8
Shape2DView002
100
AcDbLine
 10
-13.0108
 20
25.4649
 30
0
 11
-12.6127
 21
25.4649
 31
0
  0
LINE
  5
A60
330
A02
100
AcDbEntity
  8
Shape2DView002
100
AcDbLine
 10
-12.6127
 20
25.4649
 30
0
 11
-12.6127
 21
24.4112
 31
0
  0
LINE
  5
A61
330
A02
100
AcDbEntity
  8
Shape2DView002
100
AcDbLine
 10
-12.6127
 20
24.4112
 30
0
 11
-11.4578
 21
24.4112
 31
0
  0
LINE
  5
A62
330
A02
100
AcDbEntity
  8
Shape2DView002
100
AcDbLine
 10
-11.4578
 20
24.4112
 30
0
 11
-11.4578
 21
26.1158
 31
0
  0
LINE
  5
A63
330
A02
100
AcDbEntity
  8
Shape2DView002
100
AcDbLine
 10
-11.4578
 20
26.1158
 30
0
 11
-11.055
 21
26.1158
 31
0
  0
LINE
  5
A64
330
A02
100
AcDbEntity
  8
Shape2DView002
100
AcDbLine
 10
-11.055
 20
26.1158
 30
0
 11
-11.055
 21
23.9894
 31
0
  0
LINE
  5
A65
330
A02
100
AcDbEntity
  8
Shape2DView002
100
AcDbLine
 10
-11.055
 20
26.9215
 30
0
 11
-14.4515
 21
26.9215
 31
0
  0
LINE
  5
A66
330
A02
100
AcDbEntity
  8
Shape2DView002
100
AcDbLine
 10
-14.4515
 20
26.9215
 30
0
 11
-14.4515
 21
28.2611
 31
0
  0
SPLINE
  5
A67
330
A02
100
AcDbEntity
  8
Shape2DView002
100
AcDbSpline
210
0
220
0
230
1
 70
8
 71
2
 72
6
 73
3
 74
0
 40
0
 40
0
 40
0
 40
1
 40
1
 40
1
 10
-14.4515
 20
28.2611
 30
0
 10
-14.4515
 20
28.6687
 30
0
 10
-14.3109
 20
28.9025
 30
0
  0
SPLINE
  5
A68
330
A02
100
AcDbEntity
  8
Shape2DView002
100
AcDbSpline
210
0
220
0
230
1
 70
8
 71
2
 72
6
 73
3
 74
0
 40
0
 40
0
 40
0
 40
1
 40
1
 40
1
 10
-14.3109
 20
28.9025
 30
0
 10
-14.1703
 20
29.1363
 30
0
 10
-13.9476
 20
29.2343
 30
0
  0
SPLINE
  5
A69
330
A02
100
AcDbEntity
  8
Shape2DView002
100
AcDbSpline
210
0
220
0
230
1
 70
8
 71
2
 72
6
 73
3
 74
0
 40
0
 40
0
 40
0
 40
1
 40
1
 40
1
 10
-13.9476
 20
29.2343
 30
0
 10
-13.7264
 20
29.3338
 30
0
 10
-13.4863
 20
29.3338
 30
0
  0
SPLINE
  5
A6A
330
A02
100
AcDbEntity
  8
Shape2DView002
100
AcDbSpline
210
0
220
0
230
1
 70
8
 71
2
 72
6
 73
3
 74
0
 40
0
 40
0
 40
0
 40
1
 40
1
 40
1
 10
-13.4863
 20
29.3338
 30
0
 10
-13.2856
 20
29.3338
 30
0
 10
-13.0898
 20
29.2548
 30
0
  0
SPLINE
  5
A6B
330
A02
100
AcDbEntity
  8
Shape2DView002
100
AcDbSpline
210
0
220
0
230
1
 70
8
 71
2
 72
6
 73
3
 74
0
 40
0
 40
0
 40
0
 40
1
 40
1
 40
1
 10
-13.0898
 20
29.2548
 30
0
 10
-12.8939
 20
29.1758
 30
0
 10
-12.7454
 20
29.0005
 30
0
  0
SPLINE
  5
A6C
330
A02
100
AcDbEntity
  8
Shape2DView002
100
AcDbSpline
210
0
220
0
230
1
 70
8
 71
2
 72
6
 73
3
 74
0
 40
0
 40
0
 40
0
 40
1
 40
1
 40
1
 10
-12.7454
 20
29.0005
 30
0
 10
-12.5984
 20
28.8267
 30
0
 10
-12.54
 20
28.5423
 30
0
  0
LINE
  5
A6D
330
A02
100
AcDbEntity
  8
Shape2DView002
100
AcDbLine
 10
-12.54
 20
28.5423
 30
0
 11
-11.055
 21
29.2706
 31
0
  0
LINE
  5
A6E
330
A02
100
AcDbEntity
  8
Shape2DView002
100
AcDbLine
 10
-11.055
 20
29.2706
 30
0
 11
-11.055
 21
28.7951
 31
0
  0
LINE
  5
A6F
330
A02
100
AcDbEntity
  8
Shape2DView002
100
AcDbLine
 10
-11.055
 20
28.7951
 30
0
 11
-12.5116
 21
28.0953
 31
0
  0
LINE
  5
A70
330
A02
100
AcDbEntity
  8
Shape2DView002
100
AcDbLine
 10
-12.5116
 20
28.0953
 30
0
 11
-12.5116
 21
27.3433
 31
0
  0
LINE
  5
A71
330
A02
100
AcDbEntity
  8
Shape2DView002
100
AcDbLine
 10
-12.5116
 20
27.3433
 30
0
 11
-11.055
 21
27.3433
 31
0
  0
LINE
  5
A72
330
A02
100
AcDbEntity
  8
Shape2DView002
100
AcDbLine
 10
-11.055
 20
27.3433
 30
0
 11
-11.055
 21
26.9215
 31
0
  0
CIRCLE
  5
A73
330
A02
100
AcDbEntity
  8
Shape2DView002
100
AcDbCircle
 10
-7
 20
34.72
 40
2.35
  0
LINE
  5
A74
330
A02
100
AcDbEntity
  8
Shape2DView002
100
AcDbLine
 10
-11.055
 20
29.9294
 30
0
 11
-14.4515
 21
31.1332
 31
0
  0
LINE
  5
A75
330
A02
100
AcDbEntity
  8
Shape2DView002
100
AcDbLine
 10
-14.4515
 20
31.1332
 30
0
 11
-14.4515
 21
31.525
 31
0
  0
LINE
  5
A76
330
A02
100
AcDbEntity
  8
Shape2DView002
100
AcDbLine
 10
-14.4515
 20
31.525
 30
0
 11
-11.055
 21
32.7288
 31
0
  0
LINE
  5
A77
330
A02
100
AcDbEntity
  8
Shape2DView002
100
AcDbLine
 10
-11.055
 20
32.7288
 30
0
 11
-11.055
 21
32.2975
 31
0
  0
LINE
  5
A78
330
A02
100
AcDbEntity
  8
Shape2DView002
100
AcDbLine
 10
-11.055
 20
32.2975
 30
0
 11
-11.8844
 21
32.0052
 31
0
  0
LINE
  5
A79
330
A02
100
AcDbEntity
  8
Shape2DView002
100
AcDbLine
 10
-11.8844
 20
32.0052
 30
0
 11
-11.8844
 21
30.6561
 31
0
  0
LINE
  5
A7A
330
A02
100
AcDbEntity
  8
Shape2DView002
100
AcDbLine
 10
-11.8844
 20
30.6561
 30
0
 11
-11.055
 21
30.3701
 31
0
  0
LINE
  5
A7B
330
A02
100
AcDbEntity
  8
Shape2DView002
100
AcDbLine
 10
-11.055
 20
30.3701
 30
0
 11
-11.055
 21
29.9294
 31
0
  0
SPLINE
  5
A7C
330
A02
100
AcDbEntity
  8
Shape2DView002
100
AcDbSpline
210
0
220
0
230
1
 70
8
 71
2
 72
6
 73
3
 74
0
 40
0
 40
0
 40
0
 40
1
 40
1
 40
1
 10
-13.3852
 20
13.5092
 30
0
 10
-13.698
 20
13.5882
 30
0
 10
-13.9523
 20
13.7556
 30
0
  0
SPLINE
  5
A7D
330
A02
100
AcDbEntity
  8
Shape2DView002
100
AcDbSpline
210
0
220
0
230
1
 70
8
 71
2
 72
6
 73
3
 74
0
 40
0
 40
0
 40
0
 40
1
 40
1
 40
1
 10
-13.9523
 20
13.7556
 30
0
 10
-14.2067
 20
13.9231
 30
0
 10
-14.3583
 20
14.19
 30
0
  0
SPLINE
  5
A7E
330
A02
100
AcDbEntity
  8
Shape2DView002
100
AcDbSpline
210
0
220
0
230
1
 70
8
 71
2
 72
6
 73
3
 74
0
 40
0
 40
0
 40
0
 40
1
 40
1
 40
1
 10
-14.3583
 20
14.19
 30
0
 10
-14.51
 20
14.4586
 30
0
 10
-14.51
 20
14.8378
 30
0
  0
SPLINE
  5
A7F
330
A02
100
AcDbEntity
  8
Shape2DView002
100
AcDbSpline
210
0
220
0
230
1
 70
8
 71
2
 72
6
 73
3
 74
0
 40
0
 40
0
 40
0
 40
1
 40
1
 40
1
 10
-14.51
 20
14.8378
 30
0
 10
-14.51
 20
15.1506
 30
0
 10
-14.4199
 20
15.367
 30
0
  0
SPLINE
  5
A80
330
A02
100
AcDbEntity
  8
Shape2DView002
100
AcDbSpline
210
0
220
0
230
1
 70
8
 71
2
 72
6
 73
3
 74
0
 40
0
 40
0
 40
0
 40
1
 40
1
 40
1
 10
-14.4199
 20
15.367
 30
0
 10
-14.3315
 20
15.585
 30
0
 10
-14.1909
 20
15.7209
 30
0
  0
SPLINE
  5
A81
330
A02
100
AcDbEntity
  8
Shape2DView002
100
AcDbSpline
210
0
220
0
230
1
 70
8
 71
2
 72
6
 73
3
 74
0
 40
0
 40
0
 40
0
 40
1
 40
1
 40
1
 10
-14.1909
 20
15.7209
 30
0
 10
-14.0518
 20
15.8583
 30
0
 10
-13.8986
 20
15.9341
 30
0
  0
SPLINE
  5
A82
330
A02
100
AcDbEntity
  8
Shape2DView002
100
AcDbSpline
210
0
220
0
230
1
 70
8
 71
2
 72
6
 73
3
 74
0
 40
0
 40
0
 40
0
 40
1
 40
1
 40
1
 10
-12.2572
 20
13.9215
 30
0
 10
-12.0155
 20
13.9784
 30
0
 10
-11.8196
 20
14.0968
 30
0
  0
SPLINE
  5
A83
330
A02
100
AcDbEntity
  8
Shape2DView002
100
AcDbSpline
210
0
220
0
230
1
 70
8
 71
2
 72
6
 73
3
 74
0
 40
0
 40
0
 40
0
 40
1
 40
1
 40
1
 10
-11.8196
 20
14.0968
 30
0
 10
-11.6253
 20
14.2169
 30
0
 10
-11.51
 20
14.3986
 30
0
  0
SPLINE
  5
A84
330
A02
100
AcDbEntity
  8
Shape2DView002
100
AcDbSpline
210
0
220
0
230
1
 70
8
 71
2
 72
6
 73
3
 74
0
 40
0
 40
0
 40
0
 40
1
 40
1
 40
1
 10
-11.51
 20
14.3986
 30
0
 10
-11.3947
 20
14.5818
 30
0
 10
-11.3947
 20
14.8378
 30
0
  0
SPLINE
  5
A85
330
A02
100
AcDbEntity
  8
Shape2DView002
100
AcDbSpline
210
0
220
0
230
1
 70
8
 71
2
 72
6
 73
3
 74
0
 40
0
 40
0
 40
0
 40
1
 40
1
 40
1
 10
-11.3947
 20
14.8378
 30
0
 10
-11.3947
 20
15.119
 30
0
 10
-11.5147
 20
15.288
 30
0
  0
SPLINE
  5
A86
330
A02
100
AcDbEntity
  8
Shape2DView002
100
AcDbSpline
210
0
220
0
230
1
 70
8
 71
2
 72
6
 73
3
 74
0
 40
0
 40
0
 40
0
 40
1
 40
1
 40
1
 10
-11.5147
 20
15.288
 30
0
 10
-11.6348
 20
15.4586
 30
0
 10
-11.8259
 20
15.5755
 30
0
  0
LINE
  5
A87
330
A02
100
AcDbEntity
  8
Shape2DView002
100
AcDbLine
 10
-11.8259
 20
15.5755
 30
0
 11
-11.6806
 21
15.9626
 31
0
  0
LINE
  5
A88
330
A02
100
AcDbEntity
  8
Shape2DView002
100
AcDbLine
 10
-14.4515
 20
17.6861
 30
0
 11
-14.4515
 21
18.0779
 31
0
  0
LINE
  5
A89
330
A02
100
AcDbEntity
  8
Shape2DView002
100
AcDbLine
 10
-14.4515
 20
20.0463
 30
0
 11
-14.4515
 21
20.4444
 31
0
  0
SPLINE
  5
A8A
330
A02
100
AcDbEntity
  8
Shape2DView002
100
AcDbSpline
210
0
220
0
230
1
 70
8
 71
2
 72
6
 73
3
 74
0
 40
0
 40
0
 40
0
 40
1
 40
1
 40
1
 10
-12.1656
 20
21.4349
 30
0
 10
-12.1135
 20
21.4555
 30
0
 10
-12.055
 20
21.4776
 30
0
  0
SPLINE
  5
A8B
330
A02
100
AcDbEntity
  8
Shape2DView002
100
AcDbSpline
210
0
220
0
230
1
 70
8
 71
1
 72
4
 73
2
 74
0
 40
0
 40
0
 40
1
 40
1
 10
-12.055
 20
21.4776
 30
0
 10
-11.9381
 20
21.5218
 30
0
  0
SPLINE
  5
A8C
330
A02
100
AcDbEntity
  8
Shape2DView002
100
AcDbSpline
210
0
220
0
230
1
 70
8
 71
1
 72
4
 73
2
 74
0
 40
0
 40
0
 40
1
 40
1
 10
-11.9381
 20
21.5218
 30
0
 10
-12.0503
 20
21.5629
 30
0
  0
SPLINE
  5
A8D
330
A02
100
AcDbEntity
  8
Shape2DView002
100
AcDbSpline
210
0
220
0
230
1
 70
8
 71
1
 72
4
 73
2
 74
0
 40
0
 40
0
 40
1
 40
1
 10
-12.0503
 20
21.5629
 30
0
 10
-12.1656
 20
21.6087
 30
0
  0
LINE
  5
A8E
330
A02
100
AcDbEntity
  8
Shape2DView002
100
AcDbLine
 10
-14.4515
 20
22.5945
 30
0
 11
-14.4515
 21
22.9973
 31
0
  0
LINE
  5
A8F
330
A02
100
AcDbEntity
  8
Shape2DView002
100
AcDbLine
 10
-14.4515
 20
23.9894
 30
0
 11
-14.4515
 21
26.0084
 31
0
  0
LINE
  5
A90
330
A02
100
AcDbEntity
  8
Shape2DView002
100
AcDbLine
 10
-13.0108
 20
24.4112
 30
0
 11
-13.0108
 21
25.4649
 31
0
  0
LINE
  5
A91
330
A02
100
AcDbEntity
  8
Shape2DView002
100
AcDbLine
 10
-11.4578
 20
24.4112
 30
0
 11
-11.4578
 21
26.1158
 31
0
  0
LINE
  5
A92
330
A02
100
AcDbEntity
  8
Shape2DView002
100
AcDbLine
 10
-14.4515
 20
26.9215
 30
0
 11
-14.4515
 21
28.2611
 31
0
  0
SPLINE
  5
A93
330
A02
100
AcDbEntity
  8
Shape2DView002
100
AcDbSpline
210
0
220
0
230
1
 70
8
 71
2
 72
6
 73
3
 74
0
 40
0
 40
0
 40
0
 40
1
 40
1
 40
1
 10
-14.4515
 20
28.2611
 30
0
 10
-14.4515
 20
28.6687
 30
0
 10
-14.3109
 20
28.9025
 30
0
  0
SPLINE
  5
A94
330
A02
100
AcDbEntity
  8
Shape2DView002
100
AcDbSpline
210
0
220
0
230
1
 70
8
 71
2
 72
6
 73
3
 74
0
 40
0
 40
0
 40
0
 40
1
 40
1
 40
1
 10
-14.3109
 20
28.9025
 30
0
 10
-14.1703
 20
29.1363
 30
0
 10
-13.9476
 20
29.2343
 30
0
  0
LINE
  5
A95
330
A02
100
AcDbEntity
  8
Shape2DView002
100
AcDbLine
 10
-14.4515
 20
31.1332
 30
0
 11
-14.4515
 21
31.525
 31
0
  0
LINE
  5
A96
330
A02
100
AcDbEntity
  8
Shape2DView002
100
AcDbLine
 10
-12.2588
 20
17.3354
 30
0
 11
-12.2588
 21
18.4286
 31
0
  0
LINE
  5
A97
330
A02
100
AcDbEntity
  8
Shape2DView002
100
AcDbLine
 10
-12.9033
 20
27.3433
 30
0
 11
-12.9033
 21
28.2706
 31
0
  0
SPLINE
  5
A98
330
A02
100
AcDbEntity
  8
Shape2DView002
100
AcDbSpline
210
0
220
0
230
1
 70
8
 71
2
 72
6
 73
3
 74
0
 40
0
 40
0
 40
0
 40
1
 40
1
 40
1
 10
-12.9886
 20
28.6482
 30
0
 10
-13.074
 20
28.7872
 30
0
 10
-13.2051
 20
28.8457
 30
0
  0
SPLINE
  5
A99
330
A02
100
AcDbEntity
  8
Shape2DView002
100
AcDbSpline
210
0
220
0
230
1
 70
8
 71
2
 72
6
 73
3
 74
0
 40
0
 40
0
 40
0
 40
1
 40
1
 40
1
 10
-12.9033
 20
28.2706
 30
0
 10
-12.9033
 20
28.5092
 30
0
 10
-12.9886
 20
28.6482
 30
0
  0
LINE
  5
A9A
330
A02
100
AcDbEntity
  8
Shape2DView002
100
AcDbLine
 10
-12.2588
 20
30.7825
 30
0
 11
-12.2588
 21
31.8757
 31
0
  0
LINE
  5
A9B
330
A02
100
AcDbEntity
  8
Shape2DView002
100
AcDbLine
 10
-12.2588
 20
17.3354
 30
0
 11
-12.2588
 21
18.4286
 31
0
  0
LINE
  5
A9C
330
A02
100
AcDbEntity
  8
Shape2DView002
100
AcDbLine
 10
-13.5147
 20
17.7777
 30
0
 11
-12.2588
 21
17.3354
 31
0
  0
SPLINE
  5
A9D
330
A02
100
AcDbEntity
  8
Shape2DView002
100
AcDbSpline
210
0
220
0
230
1
 70
8
 71
2
 72
6
 73
3
 74
0
 40
0
 40
0
 40
0
 40
1
 40
1
 40
1
 10
-13.6285
 20
17.8156
 30
0
 10
-13.5637
 20
17.7951
 30
0
 10
-13.5147
 20
17.7777
 30
0
  0
SPLINE
  5
A9E
330
A02
100
AcDbEntity
  8
Shape2DView002
100
AcDbSpline
210
0
220
0
230
1
 70
8
 71
2
 72
6
 73
3
 74
0
 40
0
 40
0
 40
0
 40
1
 40
1
 40
1
 10
-13.7548
 20
17.8536
 30
0
 10
-13.6932
 20
17.8362
 30
0
 10
-13.6285
 20
17.8156
 30
0
  0
SPLINE
  5
A9F
330
A02
100
AcDbEntity
  8
Shape2DView002
100
AcDbSpline
210
0
220
0
230
1
 70
8
 71
2
 72
6
 73
3
 74
0
 40
0
 40
0
 40
0
 40
1
 40
1
 40
1
 10
-13.8607
 20
17.8836
 30
0
 10
-13.8165
 20
17.8725
 30
0
 10
-13.7548
 20
17.8536
 30
0
  0
SPLINE
  5
AA0
330
A02
100
AcDbEntity
  8
Shape2DView002
100
AcDbSpline
210
0
220
0
230
1
 70
8
 71
2
 72
6
 73
3
 74
0
 40
0
 40
0
 40
0
 40
1
 40
1
 40
1
 10
-13.7548
 20
17.9136
 30
0
 10
-13.8165
 20
17.8946
 30
0
 10
-13.8607
 20
17.8836
 30
0
  0
SPLINE
  5
AA1
330
A02
100
AcDbEntity
  8
Shape2DView002
100
AcDbSpline
210
0
220
0
230
1
 70
8
 71
1
 72
4
 73
2
 74
0
 40
0
 40
0
 40
1
 40
1
 10
-13.6285
 20
17.9531
 30
0
 10
-13.7548
 20
17.9136
 30
0
  0
SPLINE
  5
AA2
330
A02
100
AcDbEntity
  8
Shape2DView002
100
AcDbSpline
210
0
220
0
230
1
 70
8
 71
2
 72
6
 73
3
 74
0
 40
0
 40
0
 40
0
 40
1
 40
1
 40
1
 10
-13.5147
 20
17.991
 30
0
 10
-13.5637
 20
17.9736
 30
0
 10
-13.6285
 20
17.9531
 30
0
  0
LINE
  5
AA3
330
A02
100
AcDbEntity
  8
Shape2DView002
100
AcDbLine
 10
-12.2588
 20
18.4286
 30
0
 11
-13.5147
 21
17.991
 31
0
  0
LINE
  5
AA4
330
A02
100
AcDbEntity
  8
Shape2DView002
100
AcDbLine
 10
-12.9033
 20
27.3433
 30
0
 11
-12.9033
 21
28.2706
 31
0
  0
LINE
  5
AA5
330
A02
100
AcDbEntity
  8
Shape2DView002
100
AcDbLine
 10
-14.0597
 20
27.3433
 30
0
 11
-12.9033
 21
27.3433
 31
0
  0
LINE
  5
AA6
330
A02
100
AcDbEntity
  8
Shape2DView002
100
AcDbLine
 10
-14.0597
 20
28.2706
 30
0
 11
-14.0597
 21
27.3433
 31
0
  0
SPLINE
  5
AA7
330
A02
100
AcDbEntity
  8
Shape2DView002
100
AcDbSpline
210
0
220
0
230
1
 70
8
 71
2
 72
6
 73
3
 74
0
 40
0
 40
0
 40
0
 40
1
 40
1
 40
1
 10
-13.965
 20
28.6577
 30
0
 10
-14.0597
 20
28.5202
 30
0
 10
-14.0597
 20
28.2706
 30
0
  0
SPLINE
  5
AA8
330
A02
100
AcDbEntity
  8
Shape2DView002
100
AcDbSpline
210
0
220
0
230
1
 70
8
 71
2
 72
6
 73
3
 74
0
 40
0
 40
0
 40
0
 40
1
 40
1
 40
1
 10
-13.7375
 20
28.8504
 30
0
 10
-13.8717
 20
28.7967
 30
0
 10
-13.965
 20
28.6577
 30
0
  0
SPLINE
  5
AA9
330
A02
100
AcDbEntity
  8
Shape2DView002
100
AcDbSpline
210
0
220
0
230
1
 70
8
 71
2
 72
6
 73
3
 74
0
 40
0
 40
0
 40
0
 40
1
 40
1
 40
1
 10
-13.4768
 20
28.9057
 30
0
 10
-13.6032
 20
28.9057
 30
0
 10
-13.7375
 20
28.8504
 30
0
  0
SPLINE
  5
AAA
330
A02
100
AcDbEntity
  8
Shape2DView002
100
AcDbSpline
210
0
220
0
230
1
 70
8
 71
2
 72
6
 73
3
 74
0
 40
0
 40
0
 40
0
 40
1
 40
1
 40
1
 10
-13.2051
 20
28.8457
 30
0
 10
-13.3362
 20
28.9057
 30
0
 10
-13.4768
 20
28.9057
 30
0
  0
SPLINE
  5
AAB
330
A02
100
AcDbEntity
  8
Shape2DView002
100
AcDbSpline
210
0
220
0
230
1
 70
8
 71
2
 72
6
 73
3
 74
0
 40
0
 40
0
 40
0
 40
1
 40
1
 40
1
 10
-12.9886
 20
28.6482
 30
0
 10
-13.074
 20
28.7872
 30
0
 10
-13.2051
 20
28.8457
 30
0
  0
SPLINE
  5
AAC
330
A02
100
AcDbEntity
  8
Shape2DView002
100
AcDbSpline
210
0
220
0
230
1
 70
8
 71
2
 72
6
 73
3
 74
0
 40
0
 40
0
 40
0
 40
1
 40
1
 40
1
 10
-12.9033
 20
28.2706
 30
0
 10
-12.9033
 20
28.5092
 30
0
 10
-12.9886
 20
28.6482
 30
0
  0
LINE
  5
AAD
330
A02
100
AcDbEntity
  8
Shape2DView002
100
AcDbLine
 10
-12.2588
 20
30.7825
 30
0
 11
-12.2588
 21
31.8757
 31
0
  0
LINE
  5
AAE
330
A02
100
AcDbEntity
  8
Shape2DView002
100
AcDbLine
 10
-13.5147
 20
31.2248
 30
0
 11
-12.2588
 21
30.7825
 31
0
  0
SPLINE
  5
AAF
330
A02
100
AcDbEntity
  8
Shape2DView002
100
AcDbSpline
210
0
220
0
230
1
 70
8
 71
2
 72
6
 73
3
 74
0
 40
0
 40
0
 40
0
 40
1
 40
1
 40
1
 10
-13.6285
 20
31.2627
 30
0
 10
-13.5637
 20
31.2422
 30
0
 10
-13.5147
 20
31.2248
 30
0
  0
SPLINE
  5
AB0
330
A02
100
AcDbEntity
  8
Shape2DView002
100
AcDbSpline
210
0
220
0
230
1
 70
8
 71
2
 72
6
 73
3
 74
0
 40
0
 40
0
 40
0
 40
1
 40
1
 40
1
 10
-13.7548
 20
31.3006
 30
0
 10
-13.6932
 20
31.2833
 30
0
 10
-13.6285
 20
31.2627
 30
0
  0
SPLINE
  5
AB1
330
A02
100
AcDbEntity
  8
Shape2DView002
100
AcDbSpline
210
0
220
0
230
1
 70
8
 71
2
 72
6
 73
3
 74
0
 40
0
 40
0
 40
0
 40
1
 40
1
 40
1
 10
-13.8607
 20
31.3306
 30
0
 10
-13.8165
 20
31.3196
 30
0
 10
-13.7548
 20
31.3006
 30
0
  0
SPLINE
  5
AB2
330
A02
100
AcDbEntity
  8
Shape2DView002
100
AcDbSpline
210
0
220
0
230
1
 70
8
 71
2
 72
6
 73
3
 74
0
 40
0
 40
0
 40
0
 40
1
 40
1
 40
1
 10
-13.7548
 20
31.3607
 30
0
 10
-13.8165
 20
31.3417
 30
0
 10
-13.8607
 20
31.3306
 30
0
  0
SPLINE
  5
AB3
330
A02
100
AcDbEntity
  8
Shape2DView002
100
AcDbSpline
210
0
220
0
230
1
 70
8
 71
1
 72
4
 73
2
 74
0
 40
0
 40
0
 40
1
 40
1
 10
-13.6285
 20
31.4002
 30
0
 10
-13.7548
 20
31.3607
 30
0
  0
SPLINE
  5
AB4
330
A02
100
AcDbEntity
  8
Shape2DView002
100
AcDbSpline
210
0
220
0
230
1
 70
8
 71
2
 72
6
 73
3
 74
0
 40
0
 40
0
 40
0
 40
1
 40
1
 40
1
 10
-13.5147
 20
31.4381
 30
0
 10
-13.5637
 20
31.4207
 30
0
 10
-13.6285
 20
31.4002
 30
0
  0
LINE
  5
AB5
330
A02
100
AcDbEntity
  8
Shape2DView002
100
AcDbLine
 10
-12.2588
 20
31.8757
 30
0
 11
-13.5147
 21
31.4381
 31
0
  0
ENDSEC
  0
SECTION
  2
OBJECTS
  0
DICTIONARY
  5
F000
330
0
100
AcDbDictionary
  3
ACAD_GROUP
350
F001
  0
DICTIONARY
  5
F001
330
F000
100
AcDbDictionary
  0
ENDSEC
  0
EOF