999
FreeCAD v0.21 33771 (Git)
  0
SECTION
  2
HEADER
  9
$ACADVER
  1
AC1014
  9
$ACADMAINTVER
 70
     9
  9
$DWGCODEPAGE
  3
ANSI_1252
  9
$TEXTSTYLE
  7
STANDARD
  9
$DIMSTYLE
  2
STANDARD
  9
$DIMTXSTY
  7
STANDARD
  9
$CMLSTYLE
  2
STANDARD
  9
$LUNITS
 70
2
  9
$INSUNITS
 70
4
  9
$PEXTMAX
 10
50
 20
50
 30
50
  9
$PEXTMIN
 10
0
 20
0
 30
0
  9
$HANDSEED
  5
FFFF
  0
ENDSEC
  0
SECTION
  2
CLASSES
  0
CLASS
  1
ACDBDICTIONARYWDFLT
  2
AcDbDictionaryWithDefault
  3
ObjectDBX Classes
 90
        0
280
     0
281
     0
  0
CLASS
  1
XRECORD
  2
AcDbXrecord
  3
ObjectDBX Classes
 90
        0
280
     0
281
     0
  0
CLASS
  1
LWPOLYLINE
  2
AcDbPolyline
  3
ObjectDBX Classes
 90
        0
280
     0
281
     1
  0
ENDSEC
  0
SECTION
  2
TABLES
  0
TABLE
  2
VPORT
  5
20
330
0
100
AcDbSymbolTable
 70
     1
  0
VPORT
  5
21
330
20
100
AcDbSymbolTableRecord
100
AcDbViewportTableRecord
  2
*ACTIVE
 70
     0
  0
ENDTAB
  0
TABLE
  2
LTYPE
  5
22
330
0
100
AcDbSymbolTable
 70
     1
  0
LTYPE
  5
23
330
21
100
AcDbSymbolTableRecord
100
AcDbLinetypeTableRecord
  2
BYBLOCK
 70
     0
  3

 72
    65
 73
     0
 40
0.0
  0
LTYPE
  5
24
330
21
100
AcDbSymbolTableRecord
100
AcDbLinetypeTableRecord
  2
BYLAYER
 70
     0
  3

 72
    65
 73
     0
 40
0.0
  0
LTYPE
  5
25
330
21
100
AcDbSymbolTableRecord
100
AcDbLinetypeTableRecord
  2
CONTINUOUS
 70
     0
  3
Solid line
 72
    65
 73
     0
 40
0.0
  0
ENDTAB
  0
TABLE
  2
LAYER
  5
ADA
330
0
100
AcDbSymbolTable
 70
3
  0
LAYER
  5
ADB
330
ADA
100
AcDbSymbolTableRecord
100
AcDbLayerTableRecord
  2
0
 70
   0
 62
   7
  6
CONTINUOUS
  0
LAYER
  5
ADC
330
ADA
100
AcDbSymbolTableRecord
100
AcDbLayerTableRecord
  2
none
 70
    0
 62
    7
  6
CONTINUOUS
  0
LAYER
  5
ADD
330
ADA
100
AcDbSymbolTableRecord
100
AcDbLayerTableRecord
  2
Shape2DView004
 70
    0
 62
    7
  6
CONTINUOUS
  0
ENDTAB
  0
TABLE
  2
STYLE
  5
70
330
0
100
AcDbSymbolTable
 70
     2
  0
STYLE
  5
71
330
70
100
AcDbSymbolTableRecord
100
AcDbTextStyleTableRecord
  2
STANDARD
 70
     0
 40
0.0
 41
1.0
 50
0.0
 71
     0
 42
2.5
  3
arial.ttf
  4

  0
STYLE
  5
72
330
70
100
AcDbSymbolTableRecord
100
AcDbTextStyleTableRecord
  2
ANNOTATIVE
 70
     0
 40
0.0
 41
1.0
 50
0.0
 71
     0
 42
2.5
  3
arial.ttf
  4

  0
ENDTAB
  0
TABLE
  2
VIEW
  5
73
330
0
100
AcDbSymbolTable
 70
     0
  0
ENDTAB
  0
TABLE
  2
UCS
  5
74
330
0
100
AcDbSymbolTable
 70
     0
  0
ENDTAB
  0
TABLE
  2
APPID
  5
75
330
0
100
AcDbSymbolTable
 70
     2
  0
APPID
  5
76
330
75
100
AcDbSymbolTableRecord
100
AcDbRegAppTableRecord
  2
ACAD
 70
     0
  0
APPID
  5
77
330
75
100
AcDbSymbolTableRecord
100
AcDbRegAppTableRecord
  2
ACADANNOTATIVE
 70
     0
  0
ENDTAB
  0
TABLE
  2
DIMSTYLE
  5
78
330
0
100
AcDbSymbolTable
 70
     2
  0
DIMSTYLE
105
79
330
78
100
AcDbSymbolTableRecord
100
AcDbDimStyleTableRecord
  2
STANDARD
 70
     0
  3

  4

  5

  6

  7

 40
0.0
 41
2.5
 42
0.625
 43
3.75
 44
1.25
 45
0.0
 46
0.0
 47
0.0
 48
0.0
140
2.5
141
2.5
142
0.0
143
0.03937007874016
144
1.0
145
0.0
146
1.0
147
0.625
 71
     0
 72
     0
 73
     0
 74
     0
 75
     0
 76
     0
 77
     1
 78
     8
170
     0
171
     3
172
     1
173
     0
174
     0
175
     0
176
     0
177
     0
178
     0
270
     2
271
     2
272
     2
273
     2
274
     3
340
71
275
     0
280
     0
281
     0
282
     0
283
     0
284
     8
285
     0
286
     0
287
     3
288
     0
  0
ENDTAB
  0
TABLE
  2
BLOCK_RECORD
  5
A01
330
0
100
AcDbSymbolTable
  70
5
  0
BLOCK_RECORD
  5
A02
330
A01
100
AcDbSymbolTableRecord
100
AcDbBlockTableRecord
  2
*MODEL_SPACE
  0
BLOCK_RECORD
  5
A03
330
A01
100
AcDbSymbolTableRecord
100
AcDbBlockTableRecord
  2
*PAPER_SPACE
  0
ENDTAB
  0
ENDSEC
  0
SECTION
  2
BLOCKS
  0
BLOCK
  5
A04
330
A02
100
AcDbEntity
  8
0
100
AcDbBlockBegin
  2
*MODEL_SPACE
 70
   0
 10
0
 20
0
 30
0
  3
*MODEL_SPACE
  1
 
  0
ENDBLK
  5
A05
330
A02
100
AcDbEntity
  8
0
100
AcDbBlockEnd
  0
BLOCK
  5
A06
330
A03
100
AcDbEntity
 67
1
  8
0
100
AcDbBlockBegin
  2
*PAPER_SPACE
 70
   0
 10
0
 20
0
 30
0
  3
*PAPER_SPACE
  1
 
  0
ENDBLK
  5
A07
330
A03
100
AcDbEntity
 67
    1
  8
0
100
AcDbBlockEnd
  0
ENDSEC
  0
SECTION
  2
ENTITIES
  0
LINE
  5
A08
330
A02
100
AcDbEntity
  8
Shape2DView004
100
AcDbLine
 10
-37
 20
12.5
 30
0
 11
-37
 21
0
 31
0
  0
LINE
  5
A09
330
A02
100
AcDbEntity
  8
Shape2DView004
100
AcDbLine
 10
-37
 20
12.5
 30
0
 11
-39.5
 21
14.5
 31
0
  0
LINE
  5
A0A
330
A02
100
AcDbEntity
  8
Shape2DView004
100
AcDbLine
 10
-37
 20
0
 30
0
 11
0
 21
0
 31
0
  0
LINE
  5
A0B
330
A02
100
AcDbEntity
  8
Shape2DView004
100
AcDbLine
 10
-39.5
 20
14.5
 30
0
 11
-37
 21
16.5
 31
0
  0
LINE
  5
A0C
330
A02
100
AcDbEntity
  8
Shape2DView004
100
AcDbLine
 10
8.88178e-16
 20
0
 30
0
 11
8.88178e-16
 21
12.5
 31
0
  0
LINE
  5
A0D
330
A02
100
AcDbEntity
  8
Shape2DView004
100
AcDbLine
 10
-37
 20
29
 30
0
 11
-37
 21
16.5
 31
0
  0
LINE
  5
A0E
330
A02
100
AcDbEntity
  8
Shape2DView004
100
AcDbLine
 10
8.88178e-16
 20
12.5
 30
0
 11
2.5
 21
14.5
 31
0
  0
LINE
  5
A0F
330
A02
100
AcDbEntity
  8
Shape2DView004
100
AcDbLine
 10
-37
 20
29
 30
0
 11
-39.5
 21
31
 31
0
  0
LINE
  5
A10
330
A02
100
AcDbEntity
  8
Shape2DView004
100
AcDbLine
 10
2.5
 20
14.5
 30
0
 11
8.88178e-16
 21
16.5
 31
0
  0
LINE
  5
A11
330
A02
100
AcDbEntity
  8
Shape2DView004
100
AcDbLine
 10
-39.5
 20
31
 30
0
 11
-37
 21
33
 31
0
  0
LINE
  5
A12
330
A02
100
AcDbEntity
  8
Shape2DView004
100
AcDbLine
 10
8.88178e-16
 20
16.5
 30
0
 11
8.88178e-16
 21
29
 31
0
  0
LINE
  5
A13
330
A02
100
AcDbEntity
  8
Shape2DView004
100
AcDbLine
 10
-37
 20
45.5
 30
0
 11
-37
 21
33
 31
0
  0
LINE
  5
A14
330
A02
100
AcDbEntity
  8
Shape2DView004
100
AcDbLine
 10
8.88178e-16
 20
29
 30
0
 11
2.5
 21
31
 31
0
  0
LINE
  5
A15
330
A02
100
AcDbEntity
  8
Shape2DView004
100
AcDbLine
 10
8.88178e-16
 20
45.5
 30
0
 11
-37
 21
45.5
 31
0
  0
LINE
  5
A16
330
A02
100
AcDbEntity
  8
Shape2DView004
100
AcDbLine
 10
2.5
 20
31
 30
0
 11
8.88178e-16
 21
33
 31
0
  0
LINE
  5
A17
330
A02
100
AcDbEntity
  8
Shape2DView004
100
AcDbLine
 10
8.88178e-16
 20
33
 30
0
 11
8.88178e-16
 21
45.5
 31
0
  0
CIRCLE
  5
A18
330
A02
100
AcDbEntity
  8
Shape2DView004
100
AcDbCircle
 10
-7
 20
10.78
 40
3
  0
CIRCLE
  5
A19
330
A02
100
AcDbEntity
  8
Shape2DView004
100
AcDbCircle
 10
-12.25
 20
4.25
 40
1.6
  0
CIRCLE
  5
A1A
330
A02
100
AcDbEntity
  8
Shape2DView004
100
AcDbCircle
 10
-7
 20
18.76
 40
3
  0
SPLINE
  5
A1B
330
A02
100
AcDbEntity
  8
Shape2DView004
100
AcDbSpline
210
0
220
0
230
1
 70
8
 71
2
 72
6
 73
3
 74
0
 40
0
 40
0
 40
0
 40
1
 40
1
 40
1
 10
-10.9965
 20
14.566
 30
0
 10
-10.9965
 20
14.269
 30
0
 10
-11.0945
 20
14.0289
 30
0
  0
SPLINE
  5
A1C
330
A02
100
AcDbEntity
  8
Shape2DView004
100
AcDbSpline
210
0
220
0
230
1
 70
8
 71
2
 72
6
 73
3
 74
0
 40
0
 40
0
 40
0
 40
1
 40
1
 40
1
 10
-11.0945
 20
14.0289
 30
0
 10
-11.194
 20
13.7888
 30
0
 10
-11.3646
 20
13.6229
 30
0
  0
SPLINE
  5
A1D
330
A02
100
AcDbEntity
  8
Shape2DView004
100
AcDbSpline
210
0
220
0
230
1
 70
8
 71
2
 72
6
 73
3
 74
0
 40
0
 40
0
 40
0
 40
1
 40
1
 40
1
 10
-11.3646
 20
13.6229
 30
0
 10
-11.5353
 20
13.457
 30
0
 10
-11.7533
 20
13.3812
 30
0
  0
LINE
  5
A1E
330
A02
100
AcDbEntity
  8
Shape2DView004
100
AcDbLine
 10
-11.7533
 20
13.3812
 30
0
 11
-11.9002
 21
13.7793
 31
0
  0
SPLINE
  5
A1F
330
A02
100
AcDbEntity
  8
Shape2DView004
100
AcDbSpline
210
0
220
0
230
1
 70
8
 71
2
 72
6
 73
3
 74
0
 40
0
 40
0
 40
0
 40
1
 40
1
 40
1
 10
-11.9002
 20
13.7793
 30
0
 10
-11.6743
 20
13.882
 30
0
 10
-11.5337
 20
14.0889
 30
0
  0
SPLINE
  5
A20
330
A02
100
AcDbEntity
  8
Shape2DView004
100
AcDbSpline
210
0
220
0
230
1
 70
8
 71
2
 72
6
 73
3
 74
0
 40
0
 40
0
 40
0
 40
1
 40
1
 40
1
 10
-11.5337
 20
14.0889
 30
0
 10
-11.3947
 20
14.2959
 30
0
 10
-11.3947
 20
14.5755
 30
0
  0
SPLINE
  5
A21
330
A02
100
AcDbEntity
  8
Shape2DView004
100
AcDbSpline
210
0
220
0
230
1
 70
8
 71
2
 72
6
 73
3
 74
0
 40
0
 40
0
 40
0
 40
1
 40
1
 40
1
 10
-11.3947
 20
14.5755
 30
0
 10
-11.3947
 20
14.8804
 30
0
 10
-11.5416
 20
15.0621
 30
0
  0
SPLINE
  5
A22
330
A02
100
AcDbEntity
  8
Shape2DView004
100
AcDbSpline
210
0
220
0
230
1
 70
8
 71
2
 72
6
 73
3
 74
0
 40
0
 40
0
 40
0
 40
1
 40
1
 40
1
 10
-11.5416
 20
15.0621
 30
0
 10
-11.6885
 20
15.2453
 30
0
 10
-11.9681
 20
15.2453
 30
0
  0
SPLINE
  5
A23
330
A02
100
AcDbEntity
  8
Shape2DView004
100
AcDbSpline
210
0
220
0
230
1
 70
8
 71
2
 72
6
 73
3
 74
0
 40
0
 40
0
 40
0
 40
1
 40
1
 40
1
 10
-11.9681
 20
15.2453
 30
0
 10
-12.164
 20
15.2453
 30
0
 10
-12.2967
 20
15.1363
 30
0
  0
SPLINE
  5
A24
330
A02
100
AcDbEntity
  8
Shape2DView004
100
AcDbSpline
210
0
220
0
230
1
 70
8
 71
2
 72
6
 73
3
 74
0
 40
0
 40
0
 40
0
 40
1
 40
1
 40
1
 10
-12.2967
 20
15.1363
 30
0
 10
-12.431
 20
15.0273
 30
0
 10
-12.521
 20
14.852
 30
0
  0
SPLINE
  5
A25
330
A02
100
AcDbEntity
  8
Shape2DView004
100
AcDbSpline
210
0
220
0
230
1
 70
8
 71
2
 72
6
 73
3
 74
0
 40
0
 40
0
 40
0
 40
1
 40
1
 40
1
 10
-12.521
 20
14.852
 30
0
 10
-12.6127
 20
14.6766
 30
0
 10
-12.6853
 20
14.4776
 30
0
  0
SPLINE
  5
A26
330
A02
100
AcDbEntity
  8
Shape2DView004
100
AcDbSpline
210
0
220
0
230
1
 70
8
 71
2
 72
6
 73
3
 74
0
 40
0
 40
0
 40
0
 40
1
 40
1
 40
1
 10
-12.6853
 20
14.4776
 30
0
 10
-12.7517
 20
14.3006
 30
0
 10
-12.8307
 20
14.1237
 30
0
  0
SPLINE
  5
A27
330
A02
100
AcDbEntity
  8
Shape2DView004
100
AcDbSpline
210
0
220
0
230
1
 70
8
 71
2
 72
6
 73
3
 74
0
 40
0
 40
0
 40
0
 40
1
 40
1
 40
1
 10
-12.8307
 20
14.1237
 30
0
 10
-12.9112
 20
13.9468
 30
0
 10
-13.0218
 20
13.8014
 30
0
  0
SPLINE
  5
A28
330
A02
100
AcDbEntity
  8
Shape2DView004
100
AcDbSpline
210
0
220
0
230
1
 70
8
 71
2
 72
6
 73
3
 74
0
 40
0
 40
0
 40
0
 40
1
 40
1
 40
1
 10
-13.0218
 20
13.8014
 30
0
 10
-13.1324
 20
13.6577
 30
0
 10
-13.2904
 20
13.5708
 30
0
  0
SPLINE
  5
A29
330
A02
100
AcDbEntity
  8
Shape2DView004
100
AcDbSpline
210
0
220
0
230
1
 70
8
 71
2
 72
6
 73
3
 74
0
 40
0
 40
0
 40
0
 40
1
 40
1
 40
1
 10
-13.2904
 20
13.5708
 30
0
 10
-13.4499
 20
13.4839
 30
0
 10
-13.6711
 20
13.4839
 30
0
  0
SPLINE
  5
A2A
330
A02
100
AcDbEntity
  8
Shape2DView004
100
AcDbSpline
210
0
220
0
230
1
 70
8
 71
2
 72
6
 73
3
 74
0
 40
0
 40
0
 40
0
 40
1
 40
1
 40
1
 10
-13.6711
 20
13.4839
 30
0
 10
-13.8986
 20
13.4839
 30
0
 10
-14.0882
 20
13.6071
 30
0
  0
SPLINE
  5
A2B
330
A02
100
AcDbEntity
  8
Shape2DView004
100
AcDbSpline
210
0
220
0
230
1
 70
8
 71
2
 72
6
 73
3
 74
0
 40
0
 40
0
 40
0
 40
1
 40
1
 40
1
 10
-14.0882
 20
13.6071
 30
0
 10
-14.2793
 20
13.7303
 30
0
 10
-14.3947
 20
13.9626
 30
0
  0
SPLINE
  5
A2C
330
A02
100
AcDbEntity
  8
Shape2DView004
100
AcDbSpline
210
0
220
0
230
1
 70
8
 71
2
 72
6
 73
3
 74
0
 40
0
 40
0
 40
0
 40
1
 40
1
 40
1
 10
-14.3947
 20
13.9626
 30
0
 10
-14.51
 20
14.1964
 30
0
 10
-14.51
 20
14.5265
 30
0
  0
SPLINE
  5
A2D
330
A02
100
AcDbEntity
  8
Shape2DView004
100
AcDbSpline
210
0
220
0
230
1
 70
8
 71
2
 72
6
 73
3
 74
0
 40
0
 40
0
 40
0
 40
1
 40
1
 40
1
 10
-14.51
 20
14.5265
 30
0
 10
-14.51
 20
14.7967
 30
0
 10
-14.431
 20
15.0005
 30
0
  0
SPLINE
  5
A2E
330
A02
100
AcDbEntity
  8
Shape2DView004
100
AcDbSpline
210
0
220
0
230
1
 70
8
 71
2
 72
6
 73
3
 74
0
 40
0
 40
0
 40
0
 40
1
 40
1
 40
1
 10
-14.431
 20
15.0005
 30
0
 10
-14.352
 20
15.2058
 30
0
 10
-14.2146
 20
15.3385
 30
0
  0
SPLINE
  5
A2F
330
A02
100
AcDbEntity
  8
Shape2DView004
100
AcDbSpline
210
0
220
0
230
1
 70
8
 71
2
 72
6
 73
3
 74
0
 40
0
 40
0
 40
0
 40
1
 40
1
 40
1
 10
-14.2146
 20
15.3385
 30
0
 10
-14.0787
 20
15.4712
 30
0
 10
-13.9033
 20
15.5218
 30
0
  0
LINE
  5
A30
330
A02
100
AcDbEntity
  8
Shape2DView004
100
AcDbLine
 10
-13.9033
 20
15.5218
 30
0
 11
-13.7722
 21
15.1332
 31
0
  0
SPLINE
  5
A31
330
A02
100
AcDbEntity
  8
Shape2DView004
100
AcDbSpline
210
0
220
0
230
1
 70
8
 71
2
 72
6
 73
3
 74
0
 40
0
 40
0
 40
0
 40
1
 40
1
 40
1
 10
-13.7722
 20
15.1332
 30
0
 10
-13.916
 20
15.0731
 30
0
 10
-14.0155
 20
14.9104
 30
0
  0
SPLINE
  5
A32
330
A02
100
AcDbEntity
  8
Shape2DView004
100
AcDbSpline
210
0
220
0
230
1
 70
8
 71
2
 72
6
 73
3
 74
0
 40
0
 40
0
 40
0
 40
1
 40
1
 40
1
 10
-14.0155
 20
14.9104
 30
0
 10
-14.1166
 20
14.7493
 30
0
 10
-14.1166
 20
14.4981
 30
0
  0
SPLINE
  5
A33
330
A02
100
AcDbEntity
  8
Shape2DView004
100
AcDbSpline
210
0
220
0
230
1
 70
8
 71
2
 72
6
 73
3
 74
0
 40
0
 40
0
 40
0
 40
1
 40
1
 40
1
 10
-14.1166
 20
14.4981
 30
0
 10
-14.1166
 20
14.228
 30
0
 10
-13.9981
 20
14.0731
 30
0
  0
SPLINE
  5
A34
330
A02
100
AcDbEntity
  8
Shape2DView004
100
AcDbSpline
210
0
220
0
230
1
 70
8
 71
2
 72
6
 73
3
 74
0
 40
0
 40
0
 40
0
 40
1
 40
1
 40
1
 10
-13.9981
 20
14.0731
 30
0
 10
-13.8796
 20
13.9199
 30
0
 10
-13.6711
 20
13.9199
 30
0
  0
SPLINE
  5
A35
330
A02
100
AcDbEntity
  8
Shape2DView004
100
AcDbSpline
210
0
220
0
230
1
 70
8
 71
2
 72
6
 73
3
 74
0
 40
0
 40
0
 40
0
 40
1
 40
1
 40
1
 10
-13.6711
 20
13.9199
 30
0
 10
-13.5131
 20
13.9199
 30
0
 10
-13.4073
 20
14.0226
 30
0
  0
SPLINE
  5
A36
330
A02
100
AcDbEntity
  8
Shape2DView004
100
AcDbSpline
210
0
220
0
230
1
 70
8
 71
2
 72
6
 73
3
 74
0
 40
0
 40
0
 40
0
 40
1
 40
1
 40
1
 10
-13.4073
 20
14.0226
 30
0
 10
-13.3014
 20
14.1269
 30
0
 10
-13.224
 20
14.2943
 30
0
  0
SPLINE
  5
A37
330
A02
100
AcDbEntity
  8
Shape2DView004
100
AcDbSpline
210
0
220
0
230
1
 70
8
 71
2
 72
6
 73
3
 74
0
 40
0
 40
0
 40
0
 40
1
 40
1
 40
1
 10
-13.224
 20
14.2943
 30
0
 10
-13.1466
 20
14.4618
 30
0
 10
-13.074
 20
14.6529
 30
0
  0
SPLINE
  5
A38
330
A02
100
AcDbEntity
  8
Shape2DView004
100
AcDbSpline
210
0
220
0
230
1
 70
8
 71
2
 72
6
 73
3
 74
0
 40
0
 40
0
 40
0
 40
1
 40
1
 40
1
 10
-13.074
 20
14.6529
 30
0
 10
-13.006
 20
14.833
 30
0
 10
-12.9191
 20
15.0131
 30
0
  0
SPLINE
  5
A39
330
A02
100
AcDbEntity
  8
Shape2DView004
100
AcDbSpline
210
0
220
0
230
1
 70
8
 71
2
 72
6
 73
3
 74
0
 40
0
 40
0
 40
0
 40
1
 40
1
 40
1
 10
-12.9191
 20
15.0131
 30
0
 10
-12.8338
 20
15.1948
 30
0
 10
-12.709
 20
15.3464
 30
0
  0
SPLINE
  5
A3A
330
A02
100
AcDbEntity
  8
Shape2DView004
100
AcDbSpline
210
0
220
0
230
1
 70
8
 71
2
 72
6
 73
3
 74
0
 40
0
 40
0
 40
0
 40
1
 40
1
 40
1
 10
-12.709
 20
15.3464
 30
0
 10
-12.5858
 20
15.4981
 30
0
 10
-12.4073
 20
15.5897
 30
0
  0
SPLINE
  5
A3B
330
A02
100
AcDbEntity
  8
Shape2DView004
100
AcDbSpline
210
0
220
0
230
1
 70
8
 71
2
 72
6
 73
3
 74
0
 40
0
 40
0
 40
0
 40
1
 40
1
 40
1
 10
-12.4073
 20
15.5897
 30
0
 10
-12.2288
 20
15.6814
 30
0
 10
-11.9776
 20
15.6814
 30
0
  0
SPLINE
  5
A3C
330
A02
100
AcDbEntity
  8
Shape2DView004
100
AcDbSpline
210
0
220
0
230
1
 70
8
 71
2
 72
6
 73
3
 74
0
 40
0
 40
0
 40
0
 40
1
 40
1
 40
1
 10
-11.9776
 20
15.6814
 30
0
 10
-11.6648
 20
15.6814
 30
0
 10
-11.4452
 20
15.536
 30
0
  0
SPLINE
  5
A3D
330
A02
100
AcDbEntity
  8
Shape2DView004
100
AcDbSpline
210
0
220
0
230
1
 70
8
 71
2
 72
6
 73
3
 74
0
 40
0
 40
0
 40
0
 40
1
 40
1
 40
1
 10
-11.4452
 20
15.536
 30
0
 10
-11.2272
 20
15.3907
 30
0
 10
-11.1119
 20
15.1379
 30
0
  0
SPLINE
  5
A3E
330
A02
100
AcDbEntity
  8
Shape2DView004
100
AcDbSpline
210
0
220
0
230
1
 70
8
 71
2
 72
6
 73
3
 74
0
 40
0
 40
0
 40
0
 40
1
 40
1
 40
1
 10
-11.1119
 20
15.1379
 30
0
 10
-10.9965
 20
14.8852
 30
0
 10
-10.9965
 20
14.566
 30
0
  0
SPLINE
  5
A3F
330
A02
100
AcDbEntity
  8
Shape2DView004
100
AcDbSpline
210
0
220
0
230
1
 70
8
 71
2
 72
6
 73
3
 74
0
 40
0
 40
0
 40
0
 40
1
 40
1
 40
1
 10
-10.9965
 20
17.7698
 30
0
 10
-10.9965
 20
17.3844
 30
0
 10
-11.1466
 20
17.1142
 30
0
  0
SPLINE
  5
A40
330
A02
100
AcDbEntity
  8
Shape2DView004
100
AcDbSpline
210
0
220
0
230
1
 70
8
 71
2
 72
6
 73
3
 74
0
 40
0
 40
0
 40
0
 40
1
 40
1
 40
1
 10
-11.1466
 20
17.1142
 30
0
 10
-11.2983
 20
16.8457
 30
0
 10
-11.5511
 20
16.6798
 30
0
  0
SPLINE
  5
A41
330
A02
100
AcDbEntity
  8
Shape2DView004
100
AcDbSpline
210
0
220
0
230
1
 70
8
 71
2
 72
6
 73
3
 74
0
 40
0
 40
0
 40
0
 40
1
 40
1
 40
1
 10
-11.5511
 20
16.6798
 30
0
 10
-11.8054
 20
16.5155
 30
0
 10
-12.1182
 20
16.4381
 30
0
  0
SPLINE
  5
A42
330
A02
100
AcDbEntity
  8
Shape2DView004
100
AcDbSpline
210
0
220
0
230
1
 70
8
 71
2
 72
6
 73
3
 74
0
 40
0
 40
0
 40
0
 40
1
 40
1
 40
1
 10
-12.1182
 20
16.4381
 30
0
 10
-12.431
 20
16.3622
 30
0
 10
-12.7533
 20
16.3622
 30
0
  0
SPLINE
  5
A43
330
A02
100
AcDbEntity
  8
Shape2DView004
100
AcDbSpline
210
0
220
0
230
1
 70
8
 71
2
 72
6
 73
3
 74
0
 40
0
 40
0
 40
0
 40
1
 40
1
 40
1
 10
-12.7533
 20
16.3622
 30
0
 10
-13.074
 20
16.3622
 30
0
 10
-13.3852
 20
16.4412
 30
0
  0
SPLINE
  5
A44
330
A02
100
AcDbEntity
  8
Shape2DView004
100
AcDbSpline
210
0
220
0
230
1
 70
8
 71
2
 72
6
 73
3
 74
0
 40
0
 40
0
 40
0
 40
1
 40
1
 40
1
 10
-13.3852
 20
16.4412
 30
0
 10
-13.698
 20
16.5202
 30
0
 10
-13.9523
 20
16.6877
 30
0
  0
SPLINE
  5
A45
330
A02
100
AcDbEntity
  8
Shape2DView004
100
AcDbSpline
210
0
220
0
230
1
 70
8
 71
2
 72
6
 73
3
 74
0
 40
0
 40
0
 40
0
 40
1
 40
1
 40
1
 10
-13.9523
 20
16.6877
 30
0
 10
-14.2067
 20
16.8551
 30
0
 10
-14.3583
 20
17.1221
 30
0
  0
SPLINE
  5
A46
330
A02
100
AcDbEntity
  8
Shape2DView004
100
AcDbSpline
210
0
220
0
230
1
 70
8
 71
2
 72
6
 73
3
 74
0
 40
0
 40
0
 40
0
 40
1
 40
1
 40
1
 10
-14.3583
 20
17.1221
 30
0
 10
-14.51
 20
17.3907
 30
0
 10
-14.51
 20
17.7698
 30
0
  0
SPLINE
  5
A47
330
A02
100
AcDbEntity
  8
Shape2DView004
100
AcDbSpline
210
0
220
0
230
1
 70
8
 71
2
 72
6
 73
3
 74
0
 40
0
 40
0
 40
0
 40
1
 40
1
 40
1
 10
-14.51
 20
17.7698
 30
0
 10
-14.51
 20
18.0826
 30
0
 10
-14.4199
 20
18.2991
 30
0
  0
SPLINE
  5
A48
330
A02
100
AcDbEntity
  8
Shape2DView004
100
AcDbSpline
210
0
220
0
230
1
 70
8
 71
2
 72
6
 73
3
 74
0
 40
0
 40
0
 40
0
 40
1
 40
1
 40
1
 10
-14.4199
 20
18.2991
 30
0
 10
-14.3315
 20
18.5171
 30
0
 10
-14.1909
 20
18.6529
 30
0
  0
SPLINE
  5
A49
330
A02
100
AcDbEntity
  8
Shape2DView004
100
AcDbSpline
210
0
220
0
230
1
 70
8
 71
2
 72
6
 73
3
 74
0
 40
0
 40
0
 40
0
 40
1
 40
1
 40
1
 10
-14.1909
 20
18.6529
 30
0
 10
-14.0518
 20
18.7904
 30
0
 10
-13.8986
 20
18.8662
 30
0
  0
LINE
  5
A4A
330
A02
100
AcDbEntity
  8
Shape2DView004
100
AcDbLine
 10
-13.8986
 20
18.8662
 30
0
 11
-13.7043
 21
18.487
 31
0
  0
SPLINE
  5
A4B
330
A02
100
AcDbEntity
  8
Shape2DView004
100
AcDbSpline
210
0
220
0
230
1
 70
8
 71
2
 72
6
 73
3
 74
0
 40
0
 40
0
 40
0
 40
1
 40
1
 40
1
 10
-13.7043
 20
18.487
 30
0
 10
-13.8244
 20
18.4081
 30
0
 10
-13.9176
 20
18.3133
 30
0
  0
SPLINE
  5
A4C
330
A02
100
AcDbEntity
  8
Shape2DView004
100
AcDbSpline
210
0
220
0
230
1
 70
8
 71
2
 72
6
 73
3
 74
0
 40
0
 40
0
 40
0
 40
1
 40
1
 40
1
 10
-13.9176
 20
18.3133
 30
0
 10
-14.0108
 20
18.2185
 30
0
 10
-14.0629
 20
18.0874
 30
0
  0
SPLINE
  5
A4D
330
A02
100
AcDbEntity
  8
Shape2DView004
100
AcDbSpline
210
0
220
0
230
1
 70
8
 71
2
 72
6
 73
3
 74
0
 40
0
 40
0
 40
0
 40
1
 40
1
 40
1
 10
-14.0629
 20
18.0874
 30
0
 10
-14.1166
 20
17.9562
 30
0
 10
-14.1166
 20
17.7698
 30
0
  0
SPLINE
  5
A4E
330
A02
100
AcDbEntity
  8
Shape2DView004
100
AcDbSpline
210
0
220
0
230
1
 70
8
 71
2
 72
6
 73
3
 74
0
 40
0
 40
0
 40
0
 40
1
 40
1
 40
1
 10
-14.1166
 20
17.7698
 30
0
 10
-14.1166
 20
17.4981
 30
0
 10
-13.9934
 20
17.3101
 30
0
  0
SPLINE
  5
A4F
330
A02
100
AcDbEntity
  8
Shape2DView004
100
AcDbSpline
210
0
220
0
230
1
 70
8
 71
2
 72
6
 73
3
 74
0
 40
0
 40
0
 40
0
 40
1
 40
1
 40
1
 10
-13.9934
 20
17.3101
 30
0
 10
-13.8702
 20
17.1237
 30
0
 10
-13.668
 20
17.01
 30
0
  0
SPLINE
  5
A50
330
A02
100
AcDbEntity
  8
Shape2DView004
100
AcDbSpline
210
0
220
0
230
1
 70
8
 71
2
 72
6
 73
3
 74
0
 40
0
 40
0
 40
0
 40
1
 40
1
 40
1
 10
-13.668
 20
17.01
 30
0
 10
-13.4673
 20
16.8978
 30
0
 10
-13.2272
 20
16.8472
 30
0
  0
SPLINE
  5
A51
330
A02
100
AcDbEntity
  8
Shape2DView004
100
AcDbSpline
210
0
220
0
230
1
 70
8
 71
2
 72
6
 73
3
 74
0
 40
0
 40
0
 40
0
 40
1
 40
1
 40
1
 10
-13.2272
 20
16.8472
 30
0
 10
-12.9871
 20
16.7983
 30
0
 10
-12.7533
 20
16.7983
 30
0
  0
SPLINE
  5
A52
330
A02
100
AcDbEntity
  8
Shape2DView004
100
AcDbSpline
210
0
220
0
230
1
 70
8
 71
2
 72
6
 73
3
 74
0
 40
0
 40
0
 40
0
 40
1
 40
1
 40
1
 10
-12.7533
 20
16.7983
 30
0
 10
-12.5005
 20
16.7983
 30
0
 10
-12.2572
 20
16.8536
 30
0
  0
SPLINE
  5
A53
330
A02
100
AcDbEntity
  8
Shape2DView004
100
AcDbSpline
210
0
220
0
230
1
 70
8
 71
2
 72
6
 73
3
 74
0
 40
0
 40
0
 40
0
 40
1
 40
1
 40
1
 10
-12.2572
 20
16.8536
 30
0
 10
-12.0155
 20
16.9104
 30
0
 10
-11.8196
 20
17.0289
 30
0
  0
SPLINE
  5
A54
330
A02
100
AcDbEntity
  8
Shape2DView004
100
AcDbSpline
210
0
220
0
230
1
 70
8
 71
2
 72
6
 73
3
 74
0
 40
0
 40
0
 40
0
 40
1
 40
1
 40
1
 10
-11.8196
 20
17.0289
 30
0
 10
-11.6253
 20
17.149
 30
0
 10
-11.51
 20
17.3306
 30
0
  0
SPLINE
  5
A55
330
A02
100
AcDbEntity
  8
Shape2DView004
100
AcDbSpline
210
0
220
0
230
1
 70
8
 71
2
 72
6
 73
3
 74
0
 40
0
 40
0
 40
0
 40
1
 40
1
 40
1
 10
-11.51
 20
17.3306
 30
0
 10
-11.3947
 20
17.5139
 30
0
 10
-11.3947
 20
17.7698
 30
0
  0
SPLINE
  5
A56
330
A02
100
AcDbEntity
  8
Shape2DView004
100
AcDbSpline
210
0
220
0
230
1
 70
8
 71
2
 72
6
 73
3
 74
0
 40
0
 40
0
 40
0
 40
1
 40
1
 40
1
 10
-11.3947
 20
17.7698
 30
0
 10
-11.3947
 20
18.051
 30
0
 10
-11.5147
 20
18.2201
 30
0
  0
SPLINE
  5
A57
330
A02
100
AcDbEntity
  8
Shape2DView004
100
AcDbSpline
210
0
220
0
230
1
 70
8
 71
2
 72
6
 73
3
 74
0
 40
0
 40
0
 40
0
 40
1
 40
1
 40
1
 10
-11.5147
 20
18.2201
 30
0
 10
-11.6348
 20
18.3907
 30
0
 10
-11.8259
 20
18.5076
 30
0
  0
LINE
  5
A58
330
A02
100
AcDbEntity
  8
Shape2DView004
100
AcDbLine
 10
-11.8259
 20
18.5076
 30
0
 11
-11.6806
 21
18.8946
 31
0
  0
SPLINE
  5
A59
330
A02
100
AcDbEntity
  8
Shape2DView004
100
AcDbSpline
210
0
220
0
230
1
 70
8
 71
2
 72
6
 73
3
 74
0
 40
0
 40
0
 40
0
 40
1
 40
1
 40
1
 10
-11.6806
 20
18.8946
 30
0
 10
-11.491
 20
18.8077
 30
0
 10
-11.3362
 20
18.6577
 30
0
  0
SPLINE
  5
A5A
330
A02
100
AcDbEntity
  8
Shape2DView004
100
AcDbSpline
210
0
220
0
230
1
 70
8
 71
2
 72
6
 73
3
 74
0
 40
0
 40
0
 40
0
 40
1
 40
1
 40
1
 10
-11.3362
 20
18.6577
 30
0
 10
-11.1814
 20
18.5076
 30
0
 10
-11.0882
 20
18.288
 30
0
  0
SPLINE
  5
A5B
330
A02
100
AcDbEntity
  8
Shape2DView004
100
AcDbSpline
210
0
220
0
230
1
 70
8
 71
2
 72
6
 73
3
 74
0
 40
0
 40
0
 40
0
 40
1
 40
1
 40
1
 10
-11.0882
 20
18.288
 30
0
 10
-10.9965
 20
18.0684
 30
0
 10
-10.9965
 20
17.7698
 30
0
  0
LINE
  5
A5C
330
A02
100
AcDbEntity
  8
Shape2DView004
100
AcDbLine
 10
-11.055
 20
19.6419
 30
0
 11
-14.4515
 21
19.6419
 31
0
  0
LINE
  5
A5D
330
A02
100
AcDbEntity
  8
Shape2DView004
100
AcDbLine
 10
-14.4515
 20
19.6419
 30
0
 11
-14.4515
 21
20.0637
 31
0
  0
LINE
  5
A5E
330
A02
100
AcDbEntity
  8
Shape2DView004
100
AcDbLine
 10
-14.4515
 20
20.0637
 30
0
 11
-13.0155
 21
20.0637
 31
0
  0
LINE
  5
A5F
330
A02
100
AcDbEntity
  8
Shape2DView004
100
AcDbLine
 10
-13.0155
 20
20.0637
 30
0
 11
-13.0155
 21
21.6656
 31
0
  0
LINE
  5
A60
330
A02
100
AcDbEntity
  8
Shape2DView004
100
AcDbLine
 10
-13.0155
 20
21.6656
 30
0
 11
-14.4515
 21
21.6656
 31
0
  0
LINE
  5
A61
330
A02
100
AcDbEntity
  8
Shape2DView004
100
AcDbLine
 10
-14.4515
 20
21.6656
 30
0
 11
-14.4515
 21
22.0874
 31
0
  0
LINE
  5
A62
330
A02
100
AcDbEntity
  8
Shape2DView004
100
AcDbLine
 10
-14.4515
 20
22.0874
 30
0
 11
-11.055
 21
22.0874
 31
0
  0
LINE
  5
A63
330
A02
100
AcDbEntity
  8
Shape2DView004
100
AcDbLine
 10
-11.055
 20
22.0874
 30
0
 11
-11.055
 21
21.6656
 31
0
  0
LINE
  5
A64
330
A02
100
AcDbEntity
  8
Shape2DView004
100
AcDbLine
 10
-11.055
 20
21.6656
 30
0
 11
-12.6174
 21
21.6656
 31
0
  0
LINE
  5
A65
330
A02
100
AcDbEntity
  8
Shape2DView004
100
AcDbLine
 10
-12.6174
 20
21.6656
 30
0
 11
-12.6174
 21
20.0637
 31
0
  0
LINE
  5
A66
330
A02
100
AcDbEntity
  8
Shape2DView004
100
AcDbLine
 10
-12.6174
 20
20.0637
 30
0
 11
-11.055
 21
20.0637
 31
0
  0
LINE
  5
A67
330
A02
100
AcDbEntity
  8
Shape2DView004
100
AcDbLine
 10
-11.055
 20
20.0637
 30
0
 11
-11.055
 21
19.6419
 31
0
  0
CIRCLE
  5
A68
330
A02
100
AcDbEntity
  8
Shape2DView004
100
AcDbCircle
 10
-32.25
 20
4.25
 40
1.6
  0
LINE
  5
A69
330
A02
100
AcDbEntity
  8
Shape2DView004
100
AcDbLine
 10
-30.14
 20
9.1
 30
0
 11
-30.14
 21
36.4
 31
0
  0
LINE
  5
A6A
330
A02
100
AcDbEntity
  8
Shape2DView004
100
AcDbLine
 10
-14.66
 20
9.1
 30
0
 11
-30.14
 21
9.1
 31
0
  0
LINE
  5
A6B
330
A02
100
AcDbEntity
  8
Shape2DView004
100
AcDbLine
 10
-30.14
 20
36.4
 30
0
 11
-14.66
 21
36.4
 31
0
  0
LINE
  5
A6C
330
A02
100
AcDbEntity
  8
Shape2DView004
100
AcDbLine
 10
-14.66
 20
36.4
 30
0
 11
-14.66
 21
9.1
 31
0
  0
CIRCLE
  5
A6D
330
A02
100
AcDbEntity
  8
Shape2DView004
100
AcDbCircle
 10
-7
 20
26.74
 40
3
  0
LINE
  5
A6E
330
A02
100
AcDbEntity
  8
Shape2DView004
100
AcDbLine
 10
-11.055
 20
23.0795
 30
0
 11
-14.4515
 21
23.0795
 31
0
  0
LINE
  5
A6F
330
A02
100
AcDbEntity
  8
Shape2DView004
100
AcDbLine
 10
-14.4515
 20
23.0795
 30
0
 11
-14.4515
 21
25.0984
 31
0
  0
LINE
  5
A70
330
A02
100
AcDbEntity
  8
Shape2DView004
100
AcDbLine
 10
-14.4515
 20
25.0984
 30
0
 11
-14.0534
 21
25.0984
 31
0
  0
LINE
  5
A71
330
A02
100
AcDbEntity
  8
Shape2DView004
100
AcDbLine
 10
-14.0534
 20
25.0984
 30
0
 11
-14.0534
 21
23.5013
 31
0
  0
LINE
  5
A72
330
A02
100
AcDbEntity
  8
Shape2DView004
100
AcDbLine
 10
-14.0534
 20
23.5013
 30
0
 11
-13.0108
 21
23.5013
 31
0
  0
LINE
  5
A73
330
A02
100
AcDbEntity
  8
Shape2DView004
100
AcDbLine
 10
-13.0108
 20
23.5013
 30
0
 11
-13.0108
 21
24.555
 31
0
  0
LINE
  5
A74
330
A02
100
AcDbEntity
  8
Shape2DView004
100
AcDbLine
 10
-13.0108
 20
24.555
 30
0
 11
-12.6127
 21
24.555
 31
0
  0
LINE
  5
A75
330
A02
100
AcDbEntity
  8
Shape2DView004
100
AcDbLine
 10
-12.6127
 20
24.555
 30
0
 11
-12.6127
 21
23.5013
 31
0
  0
LINE
  5
A76
330
A02
100
AcDbEntity
  8
Shape2DView004
100
AcDbLine
 10
-12.6127
 20
23.5013
 30
0
 11
-11.4578
 21
23.5013
 31
0
  0
LINE
  5
A77
330
A02
100
AcDbEntity
  8
Shape2DView004
100
AcDbLine
 10
-11.4578
 20
23.5013
 30
0
 11
-11.4578
 21
25.2058
 31
0
  0
LINE
  5
A78
330
A02
100
AcDbEntity
  8
Shape2DView004
100
AcDbLine
 10
-11.4578
 20
25.2058
 30
0
 11
-11.055
 21
25.2058
 31
0
  0
LINE
  5
A79
330
A02
100
AcDbEntity
  8
Shape2DView004
100
AcDbLine
 10
-11.055
 20
25.2058
 30
0
 11
-11.055
 21
23.0795
 31
0
  0
LINE
  5
A7A
330
A02
100
AcDbEntity
  8
Shape2DView004
100
AcDbLine
 10
-11.055
 20
26.0115
 30
0
 11
-14.4515
 21
26.0115
 31
0
  0
LINE
  5
A7B
330
A02
100
AcDbEntity
  8
Shape2DView004
100
AcDbLine
 10
-14.4515
 20
26.0115
 30
0
 11
-14.4515
 21
27.3512
 31
0
  0
SPLINE
  5
A7C
330
A02
100
AcDbEntity
  8
Shape2DView004
100
AcDbSpline
210
0
220
0
230
1
 70
8
 71
2
 72
6
 73
3
 74
0
 40
0
 40
0
 40
0
 40
1
 40
1
 40
1
 10
-14.4515
 20
27.3512
 30
0
 10
-14.4515
 20
27.7588
 30
0
 10
-14.3109
 20
27.9926
 30
0
  0
SPLINE
  5
A7D
330
A02
100
AcDbEntity
  8
Shape2DView004
100
AcDbSpline
210
0
220
0
230
1
 70
8
 71
2
 72
6
 73
3
 74
0
 40
0
 40
0
 40
0
 40
1
 40
1
 40
1
 10
-14.3109
 20
27.9926
 30
0
 10
-14.1703
 20
28.2264
 30
0
 10
-13.9476
 20
28.3243
 30
0
  0
SPLINE
  5
A7E
330
A02
100
AcDbEntity
  8
Shape2DView004
100
AcDbSpline
210
0
220
0
230
1
 70
8
 71
2
 72
6
 73
3
 74
0
 40
0
 40
0
 40
0
 40
1
 40
1
 40
1
 10
-13.9476
 20
28.3243
 30
0
 10
-13.7264
 20
28.4239
 30
0
 10
-13.4863
 20
28.4239
 30
0
  0
SPLINE
  5
A7F
330
A02
100
AcDbEntity
  8
Shape2DView004
100
AcDbSpline
210
0
220
0
230
1
 70
8
 71
2
 72
6
 73
3
 74
0
 40
0
 40
0
 40
0
 40
1
 40
1
 40
1
 10
-13.4863
 20
28.4239
 30
0
 10
-13.2856
 20
28.4239
 30
0
 10
-13.0898
 20
28.3449
 30
0
  0
SPLINE
  5
A80
330
A02
100
AcDbEntity
  8
Shape2DView004
100
AcDbSpline
210
0
220
0
230
1
 70
8
 71
2
 72
6
 73
3
 74
0
 40
0
 40
0
 40
0
 40
1
 40
1
 40
1
 10
-13.0898
 20
28.3449
 30
0
 10
-12.8939
 20
28.2659
 30
0
 10
-12.7454
 20
28.0905
 30
0
  0
SPLINE
  5
A81
330
A02
100
AcDbEntity
  8
Shape2DView004
100
AcDbSpline
210
0
220
0
230
1
 70
8
 71
2
 72
6
 73
3
 74
0
 40
0
 40
0
 40
0
 40
1
 40
1
 40
1
 10
-12.7454
 20
28.0905
 30
0
 10
-12.5984
 20
27.9167
 30
0
 10
-12.54
 20
27.6324
 30
0
  0
LINE
  5
A82
330
A02
100
AcDbEntity
  8
Shape2DView004
100
AcDbLine
 10
-12.54
 20
27.6324
 30
0
 11
-11.055
 21
28.3607
 31
0
  0
LINE
  5
A83
330
A02
100
AcDbEntity
  8
Shape2DView004
100
AcDbLine
 10
-11.055
 20
28.3607
 30
0
 11
-11.055
 21
27.8852
 31
0
  0
LINE
  5
A84
330
A02
100
AcDbEntity
  8
Shape2DView004
100
AcDbLine
 10
-11.055
 20
27.8852
 30
0
 11
-12.5116
 21
27.1853
 31
0
  0
LINE
  5
A85
330
A02
100
AcDbEntity
  8
Shape2DView004
100
AcDbLine
 10
-12.5116
 20
27.1853
 30
0
 11
-12.5116
 21
26.4333
 31
0
  0
LINE
  5
A86
330
A02
100
AcDbEntity
  8
Shape2DView004
100
AcDbLine
 10
-12.5116
 20
26.4333
 30
0
 11
-11.055
 21
26.4333
 31
0
  0
LINE
  5
A87
330
A02
100
AcDbEntity
  8
Shape2DView004
100
AcDbLine
 10
-11.055
 20
26.4333
 30
0
 11
-11.055
 21
26.0115
 31
0
  0
LINE
  5
A88
330
A02
100
AcDbEntity
  8
Shape2DView004
100
AcDbLine
 10
-10.9965
 20
30.7224
 30
0
 11
-13.1419
 21
29.7998
 31
0
  0
SPLINE
  5
A89
330
A02
100
AcDbEntity
  8
Shape2DView004
100
AcDbSpline
210
0
220
0
230
1
 70
8
 71
2
 72
6
 73
3
 74
0
 40
0
 40
0
 40
0
 40
1
 40
1
 40
1
 10
-13.1419
 20
29.7998
 30
0
 10
-13.2272
 20
29.7635
 30
0
 10
-13.3267
 20
29.724
 30
0
  0
SPLINE
  5
A8A
330
A02
100
AcDbEntity
  8
Shape2DView004
100
AcDbSpline
210
0
220
0
230
1
 70
8
 71
2
 72
6
 73
3
 74
0
 40
0
 40
0
 40
0
 40
1
 40
1
 40
1
 10
-13.3267
 20
29.724
 30
0
 10
-13.4278
 20
29.6845
 30
0
 10
-13.51
 20
29.6545
 30
0
  0
SPLINE
  5
A8B
330
A02
100
AcDbEntity
  8
Shape2DView004
100
AcDbSpline
210
0
220
0
230
1
 70
8
 71
2
 72
6
 73
3
 74
0
 40
0
 40
0
 40
0
 40
1
 40
1
 40
1
 10
-13.51
 20
29.6545
 30
0
 10
-13.4452
 20
29.6624
 30
0
 10
-13.3362
 20
29.6656
 30
0
  0
SPLINE
  5
A8C
330
A02
100
AcDbEntity
  8
Shape2DView004
100
AcDbSpline
210
0
220
0
230
1
 70
8
 71
2
 72
6
 73
3
 74
0
 40
0
 40
0
 40
0
 40
1
 40
1
 40
1
 10
-13.3362
 20
29.6656
 30
0
 10
-13.2288
 20
29.6687
 30
0
 10
-13.1419
 20
29.6687
 30
0
  0
LINE
  5
A8D
330
A02
100
AcDbEntity
  8
Shape2DView004
100
AcDbLine
 10
-13.1419
 20
29.6687
 30
0
 11
-11.055
 21
29.6687
 31
0
  0
LINE
  5
A8E
330
A02
100
AcDbEntity
  8
Shape2DView004
100
AcDbLine
 10
-11.055
 20
29.6687
 30
0
 11
-11.055
 21
29.2469
 31
0
  0
LINE
  5
A8F
330
A02
100
AcDbEntity
  8
Shape2DView004
100
AcDbLine
 10
-11.055
 20
29.2469
 30
0
 11
-14.4515
 21
29.2469
 31
0
  0
LINE
  5
A90
330
A02
100
AcDbEntity
  8
Shape2DView004
100
AcDbLine
 10
-14.4515
 20
29.2469
 30
0
 11
-14.4515
 21
29.645
 31
0
  0
LINE
  5
A91
330
A02
100
AcDbEntity
  8
Shape2DView004
100
AcDbLine
 10
-14.4515
 20
29.645
 30
0
 11
-12.1656
 21
30.6355
 31
0
  0
SPLINE
  5
A92
330
A02
100
AcDbEntity
  8
Shape2DView004
100
AcDbSpline
210
0
220
0
230
1
 70
8
 71
2
 72
6
 73
3
 74
0
 40
0
 40
0
 40
0
 40
1
 40
1
 40
1
 10
-12.1656
 20
30.6355
 30
0
 10
-12.1135
 20
30.6561
 30
0
 10
-12.055
 20
30.6782
 30
0
  0
SPLINE
  5
A93
330
A02
100
AcDbEntity
  8
Shape2DView004
100
AcDbSpline
210
0
220
0
230
1
 70
8
 71
1
 72
4
 73
2
 74
0
 40
0
 40
0
 40
1
 40
1
 10
-12.055
 20
30.6782
 30
0
 10
-11.9381
 20
30.7224
 30
0
  0
SPLINE
  5
A94
330
A02
100
AcDbEntity
  8
Shape2DView004
100
AcDbSpline
210
0
220
0
230
1
 70
8
 71
1
 72
4
 73
2
 74
0
 40
0
 40
0
 40
1
 40
1
 10
-11.9381
 20
30.7224
 30
0
 10
-12.0503
 20
30.7635
 30
0
  0
SPLINE
  5
A95
330
A02
100
AcDbEntity
  8
Shape2DView004
100
AcDbSpline
210
0
220
0
230
1
 70
8
 71
1
 72
4
 73
2
 74
0
 40
0
 40
0
 40
1
 40
1
 10
-12.0503
 20
30.7635
 30
0
 10
-12.1656
 20
30.8093
 30
0
  0
LINE
  5
A96
330
A02
100
AcDbEntity
  8
Shape2DView004
100
AcDbLine
 10
-12.1656
 20
30.8093
 30
0
 11
-14.4515
 21
31.7951
 31
0
  0
LINE
  5
A97
330
A02
100
AcDbEntity
  8
Shape2DView004
100
AcDbLine
 10
-14.4515
 20
31.7951
 30
0
 11
-14.4515
 21
32.1979
 31
0
  0
LINE
  5
A98
330
A02
100
AcDbEntity
  8
Shape2DView004
100
AcDbLine
 10
-14.4515
 20
32.1979
 30
0
 11
-11.055
 21
32.1979
 31
0
  0
LINE
  5
A99
330
A02
100
AcDbEntity
  8
Shape2DView004
100
AcDbLine
 10
-11.055
 20
32.1979
 30
0
 11
-11.055
 21
31.7761
 31
0
  0
LINE
  5
A9A
330
A02
100
AcDbEntity
  8
Shape2DView004
100
AcDbLine
 10
-11.055
 20
31.7761
 30
0
 11
-13.1419
 21
31.7761
 31
0
  0
SPLINE
  5
A9B
330
A02
100
AcDbEntity
  8
Shape2DView004
100
AcDbSpline
210
0
220
0
230
1
 70
8
 71
2
 72
6
 73
3
 74
0
 40
0
 40
0
 40
0
 40
1
 40
1
 40
1
 10
-13.1419
 20
31.7761
 30
0
 10
-13.2288
 20
31.7761
 30
0
 10
-13.3394
 20
31.7793
 30
0
  0
SPLINE
  5
A9C
330
A02
100
AcDbEntity
  8
Shape2DView004
100
AcDbSpline
210
0
220
0
230
1
 70
8
 71
2
 72
6
 73
3
 74
0
 40
0
 40
0
 40
0
 40
1
 40
1
 40
1
 10
-13.3394
 20
31.7793
 30
0
 10
-13.4499
 20
31.7825
 30
0
 10
-13.5147
 20
31.7856
 30
0
  0
SPLINE
  5
A9D
330
A02
100
AcDbEntity
  8
Shape2DView004
100
AcDbSpline
210
0
220
0
230
1
 70
8
 71
2
 72
6
 73
3
 74
0
 40
0
 40
0
 40
0
 40
1
 40
1
 40
1
 10
-13.5147
 20
31.7856
 30
0
 10
-13.4326
 20
31.7556
 30
0
 10
-13.3251
 20
31.713
 30
0
  0
SPLINE
  5
A9E
330
A02
100
AcDbEntity
  8
Shape2DView004
100
AcDbSpline
210
0
220
0
230
1
 70
8
 71
2
 72
6
 73
3
 74
0
 40
0
 40
0
 40
0
 40
1
 40
1
 40
1
 10
-13.3251
 20
31.713
 30
0
 10
-13.2193
 20
31.6719
 30
0
 10
-13.1324
 20
31.634
 30
0
  0
LINE
  5
A9F
330
A02
100
AcDbEntity
  8
Shape2DView004
100
AcDbLine
 10
-13.1324
 20
31.634
 30
0
 11
-10.9965
 21
30.7224
 31
0
  0
CIRCLE
  5
AA0
330
A02
100
AcDbEntity
  8
Shape2DView004
100
AcDbCircle
 10
-7
 20
34.72
 40
3
  0
CIRCLE
  5
AA1
330
A02
100
AcDbEntity
  8
Shape2DView004
100
AcDbCircle
 10
-12.25
 20
41.25
 40
1.6
  0
CIRCLE
  5
AA2
330
A02
100
AcDbEntity
  8
Shape2DView004
100
AcDbCircle
 10
-32.25
 20
41.25
 40
1.6
  0
LINE
  5
AA3
330
A02
100
AcDbEntity
  8
Shape2DView004
100
AcDbLine
 10
-11.7533
 20
13.3812
 30
0
 11
-11.9002
 21
13.7793
 31
0
  0
SPLINE
  5
AA4
330
A02
100
AcDbEntity
  8
Shape2DView004
100
AcDbSpline
210
0
220
0
230
1
 70
8
 71
2
 72
6
 73
3
 74
0
 40
0
 40
0
 40
0
 40
1
 40
1
 40
1
 10
-11.9002
 20
13.7793
 30
0
 10
-11.6743
 20
13.882
 30
0
 10
-11.5337
 20
14.0889
 30
0
  0
SPLINE
  5
AA5
330
A02
100
AcDbEntity
  8
Shape2DView004
100
AcDbSpline
210
0
220
0
230
1
 70
8
 71
2
 72
6
 73
3
 74
0
 40
0
 40
0
 40
0
 40
1
 40
1
 40
1
 10
-11.5337
 20
14.0889
 30
0
 10
-11.3947
 20
14.2959
 30
0
 10
-11.3947
 20
14.5755
 30
0
  0
SPLINE
  5
AA6
330
A02
100
AcDbEntity
  8
Shape2DView004
100
AcDbSpline
210
0
220
0
230
1
 70
8
 71
2
 72
6
 73
3
 74
0
 40
0
 40
0
 40
0
 40
1
 40
1
 40
1
 10
-11.3947
 20
14.5755
 30
0
 10
-11.3947
 20
14.8804
 30
0
 10
-11.5416
 20
15.0621
 30
0
  0
SPLINE
  5
AA7
330
A02
100
AcDbEntity
  8
Shape2DView004
100
AcDbSpline
210
0
220
0
230
1
 70
8
 71
2
 72
6
 73
3
 74
0
 40
0
 40
0
 40
0
 40
1
 40
1
 40
1
 10
-13.6711
 20
13.4839
 30
0
 10
-13.8986
 20
13.4839
 30
0
 10
-14.0882
 20
13.6071
 30
0
  0
SPLINE
  5
AA8
330
A02
100
AcDbEntity
  8
Shape2DView004
100
AcDbSpline
210
0
220
0
230
1
 70
8
 71
2
 72
6
 73
3
 74
0
 40
0
 40
0
 40
0
 40
1
 40
1
 40
1
 10
-14.0882
 20
13.6071
 30
0
 10
-14.2793
 20
13.7303
 30
0
 10
-14.3947
 20
13.9626
 30
0
  0
SPLINE
  5
AA9
330
A02
100
AcDbEntity
  8
Shape2DView004
100
AcDbSpline
210
0
220
0
230
1
 70
8
 71
2
 72
6
 73
3
 74
0
 40
0
 40
0
 40
0
 40
1
 40
1
 40
1
 10
-14.3947
 20
13.9626
 30
0
 10
-14.51
 20
14.1964
 30
0
 10
-14.51
 20
14.5265
 30
0
  0
SPLINE
  5
AAA
330
A02
100
AcDbEntity
  8
Shape2DView004
100
AcDbSpline
210
0
220
0
230
1
 70
8
 71
2
 72
6
 73
3
 74
0
 40
0
 40
0
 40
0
 40
1
 40
1
 40
1
 10
-14.51
 20
14.5265
 30
0
 10
-14.51
 20
14.7967
 30
0
 10
-14.431
 20
15.0005
 30
0
  0
SPLINE
  5
AAB
330
A02
100
AcDbEntity
  8
Shape2DView004
100
AcDbSpline
210
0
220
0
230
1
 70
8
 71
2
 72
6
 73
3
 74
0
 40
0
 40
0
 40
0
 40
1
 40
1
 40
1
 10
-14.431
 20
15.0005
 30
0
 10
-14.352
 20
15.2058
 30
0
 10
-14.2146
 20
15.3385
 30
0
  0
SPLINE
  5
AAC
330
A02
100
AcDbEntity
  8
Shape2DView004
100
AcDbSpline
210
0
220
0
230
1
 70
8
 71
2
 72
6
 73
3
 74
0
 40
0
 40
0
 40
0
 40
1
 40
1
 40
1
 10
-14.2146
 20
15.3385
 30
0
 10
-14.0787
 20
15.4712
 30
0
 10
-13.9033
 20
15.5218
 30
0
  0
SPLINE
  5
AAD
330
A02
100
AcDbEntity
  8
Shape2DView004
100
AcDbSpline
210
0
220
0
230
1
 70
8
 71
2
 72
6
 73
3
 74
0
 40
0
 40
0
 40
0
 40
1
 40
1
 40
1
 10
-13.6711
 20
13.9199
 30
0
 10
-13.5131
 20
13.9199
 30
0
 10
-13.4073
 20
14.0226
 30
0
  0
SPLINE
  5
AAE
330
A02
100
AcDbEntity
  8
Shape2DView004
100
AcDbSpline
210
0
220
0
230
1
 70
8
 71
2
 72
6
 73
3
 74
0
 40
0
 40
0
 40
0
 40
1
 40
1
 40
1
 10
-13.4073
 20
14.0226
 30
0
 10
-13.3014
 20
14.1269
 30
0
 10
-13.224
 20
14.2943
 30
0
  0
SPLINE
  5
AAF
330
A02
100
AcDbEntity
  8
Shape2DView004
100
AcDbSpline
210
0
220
0
230
1
 70
8
 71
2
 72
6
 73
3
 74
0
 40
0
 40
0
 40
0
 40
1
 40
1
 40
1
 10
-13.224
 20
14.2943
 30
0
 10
-13.1466
 20
14.4618
 30
0
 10
-13.074
 20
14.6529
 30
0
  0
SPLINE
  5
AB0
330
A02
100
AcDbEntity
  8
Shape2DView004
100
AcDbSpline
210
0
220
0
230
1
 70
8
 71
2
 72
6
 73
3
 74
0
 40
0
 40
0
 40
0
 40
1
 40
1
 40
1
 10
-13.074
 20
14.6529
 30
0
 10
-13.006
 20
14.833
 30
0
 10
-12.9191
 20
15.0131
 30
0
  0
SPLINE
  5
AB1
330
A02
100
AcDbEntity
  8
Shape2DView004
100
AcDbSpline
210
0
220
0
230
1
 70
8
 71
2
 72
6
 73
3
 74
0
 40
0
 40
0
 40
0
 40
1
 40
1
 40
1
 10
-12.9191
 20
15.0131
 30
0
 10
-12.8338
 20
15.1948
 30
0
 10
-12.709
 20
15.3464
 30
0
  0
SPLINE
  5
AB2
330
A02
100
AcDbEntity
  8
Shape2DView004
100
AcDbSpline
210
0
220
0
230
1
 70
8
 71
2
 72
6
 73
3
 74
0
 40
0
 40
0
 40
0
 40
1
 40
1
 40
1
 10
-12.709
 20
15.3464
 30
0
 10
-12.5858
 20
15.4981
 30
0
 10
-12.4073
 20
15.5897
 30
0
  0
SPLINE
  5
AB3
330
A02
100
AcDbEntity
  8
Shape2DView004
100
AcDbSpline
210
0
220
0
230
1
 70
8
 71
2
 72
6
 73
3
 74
0
 40
0
 40
0
 40
0
 40
1
 40
1
 40
1
 10
-13.3852
 20
16.4412
 30
0
 10
-13.698
 20
16.5202
 30
0
 10
-13.9523
 20
16.6877
 30
0
  0
SPLINE
  5
AB4
330
A02
100
AcDbEntity
  8
Shape2DView004
100
AcDbSpline
210
0
220
0
230
1
 70
8
 71
2
 72
6
 73
3
 74
0
 40
0
 40
0
 40
0
 40
1
 40
1
 40
1
 10
-13.9523
 20
16.6877
 30
0
 10
-14.2067
 20
16.8551
 30
0
 10
-14.3583
 20
17.1221
 30
0
  0
SPLINE
  5
AB5
330
A02
100
AcDbEntity
  8
Shape2DView004
100
AcDbSpline
210
0
220
0
230
1
 70
8
 71
2
 72
6
 73
3
 74
0
 40
0
 40
0
 40
0
 40
1
 40
1
 40
1
 10
-14.3583
 20
17.1221
 30
0
 10
-14.51
 20
17.3907
 30
0
 10
-14.51
 20
17.7698
 30
0
  0
SPLINE
  5
AB6
330
A02
100
AcDbEntity
  8
Shape2DView004
100
AcDbSpline
210
0
220
0
230
1
 70
8
 71
2
 72
6
 73
3
 74
0
 40
0
 40
0
 40
0
 40
1
 40
1
 40
1
 10
-14.51
 20
17.7698
 30
0
 10
-14.51
 20
18.0826
 30
0
 10
-14.4199
 20
18.2991
 30
0
  0
SPLINE
  5
AB7
330
A02
100
AcDbEntity
  8
Shape2DView004
100
AcDbSpline
210
0
220
0
230
1
 70
8
 71
2
 72
6
 73
3
 74
0
 40
0
 40
0
 40
0
 40
1
 40
1
 40
1
 10
-14.4199
 20
18.2991
 30
0
 10
-14.3315
 20
18.5171
 30
0
 10
-14.1909
 20
18.6529
 30
0
  0
SPLINE
  5
AB8
330
A02
100
AcDbEntity
  8
Shape2DView004
100
AcDbSpline
210
0
220
0
230
1
 70
8
 71
2
 72
6
 73
3
 74
0
 40
0
 40
0
 40
0
 40
1
 40
1
 40
1
 10
-14.1909
 20
18.6529
 30
0
 10
-14.0518
 20
18.7904
 30
0
 10
-13.8986
 20
18.8662
 30
0
  0
SPLINE
  5
AB9
330
A02
100
AcDbEntity
  8
Shape2DView004
100
AcDbSpline
210
0
220
0
230
1
 70
8
 71
2
 72
6
 73
3
 74
0
 40
0
 40
0
 40
0
 40
1
 40
1
 40
1
 10
-12.2572
 20
16.8536
 30
0
 10
-12.0155
 20
16.9104
 30
0
 10
-11.8196
 20
17.0289
 30
0
  0
SPLINE
  5
ABA
330
A02
100
AcDbEntity
  8
Shape2DView004
100
AcDbSpline
210
0
220
0
230
1
 70
8
 71
2
 72
6
 73
3
 74
0
 40
0
 40
0
 40
0
 40
1
 40
1
 40
1
 10
-11.8196
 20
17.0289
 30
0
 10
-11.6253
 20
17.149
 30
0
 10
-11.51
 20
17.3306
 30
0
  0
SPLINE
  5
ABB
330
A02
100
AcDbEntity
  8
Shape2DView004
100
AcDbSpline
210
0
220
0
230
1
 70
8
 71
2
 72
6
 73
3
 74
0
 40
0
 40
0
 40
0
 40
1
 40
1
 40
1
 10
-11.51
 20
17.3306
 30
0
 10
-11.3947
 20
17.5139
 30
0
 10
-11.3947
 20
17.7698
 30
0
  0
SPLINE
  5
ABC
330
A02
100
AcDbEntity
  8
Shape2DView004
100
AcDbSpline
210
0
220
0
230
1
 70
8
 71
2
 72
6
 73
3
 74
0
 40
0
 40
0
 40
0
 40
1
 40
1
 40
1
 10
-11.3947
 20
17.7698
 30
0
 10
-11.3947
 20
18.051
 30
0
 10
-11.5147
 20
18.2201
 30
0
  0
SPLINE
  5
ABD
330
A02
100
AcDbEntity
  8
Shape2DView004
100
AcDbSpline
210
0
220
0
230
1
 70
8
 71
2
 72
6
 73
3
 74
0
 40
0
 40
0
 40
0
 40
1
 40
1
 40
1
 10
-11.5147
 20
18.2201
 30
0
 10
-11.6348
 20
18.3907
 30
0
 10
-11.8259
 20
18.5076
 30
0
  0
LINE
  5
ABE
330
A02
100
AcDbEntity
  8
Shape2DView004
100
AcDbLine
 10
-11.8259
 20
18.5076
 30
0
 11
-11.6806
 21
18.8946
 31
0
  0
LINE
  5
ABF
330
A02
100
AcDbEntity
  8
Shape2DView004
100
AcDbLine
 10
-14.4515
 20
19.6419
 30
0
 11
-14.4515
 21
20.0637
 31
0
  0
LINE
  5
AC0
330
A02
100
AcDbEntity
  8
Shape2DView004
100
AcDbLine
 10
-13.0155
 20
20.0637
 30
0
 11
-13.0155
 21
21.6656
 31
0
  0
LINE
  5
AC1
330
A02
100
AcDbEntity
  8
Shape2DView004
100
AcDbLine
 10
-14.4515
 20
21.6656
 30
0
 11
-14.4515
 21
22.0874
 31
0
  0
LINE
  5
AC2
330
A02
100
AcDbEntity
  8
Shape2DView004
100
AcDbLine
 10
-14.4515
 20
23.0795
 30
0
 11
-14.4515
 21
25.0984
 31
0
  0
LINE
  5
AC3
330
A02
100
AcDbEntity
  8
Shape2DView004
100
AcDbLine
 10
-13.0108
 20
23.5013
 30
0
 11
-13.0108
 21
24.555
 31
0
  0
LINE
  5
AC4
330
A02
100
AcDbEntity
  8
Shape2DView004
100
AcDbLine
 10
-11.4578
 20
23.5013
 30
0
 11
-11.4578
 21
25.2058
 31
0
  0
LINE
  5
AC5
330
A02
100
AcDbEntity
  8
Shape2DView004
100
AcDbLine
 10
-14.4515
 20
26.0115
 30
0
 11
-14.4515
 21
27.3512
 31
0
  0
SPLINE
  5
AC6
330
A02
100
AcDbEntity
  8
Shape2DView004
100
AcDbSpline
210
0
220
0
230
1
 70
8
 71
2
 72
6
 73
3
 74
0
 40
0
 40
0
 40
0
 40
1
 40
1
 40
1
 10
-14.4515
 20
27.3512
 30
0
 10
-14.4515
 20
27.7588
 30
0
 10
-14.3109
 20
27.9926
 30
0
  0
SPLINE
  5
AC7
330
A02
100
AcDbEntity
  8
Shape2DView004
100
AcDbSpline
210
0
220
0
230
1
 70
8
 71
2
 72
6
 73
3
 74
0
 40
0
 40
0
 40
0
 40
1
 40
1
 40
1
 10
-14.3109
 20
27.9926
 30
0
 10
-14.1703
 20
28.2264
 30
0
 10
-13.9476
 20
28.3243
 30
0
  0
LINE
  5
AC8
330
A02
100
AcDbEntity
  8
Shape2DView004
100
AcDbLine
 10
-14.4515
 20
29.2469
 30
0
 11
-14.4515
 21
29.645
 31
0
  0
SPLINE
  5
AC9
330
A02
100
AcDbEntity
  8
Shape2DView004
100
AcDbSpline
210
0
220
0
230
1
 70
8
 71
2
 72
6
 73
3
 74
0
 40
0
 40
0
 40
0
 40
1
 40
1
 40
1
 10
-12.1656
 20
30.6355
 30
0
 10
-12.1135
 20
30.6561
 30
0
 10
-12.055
 20
30.6782
 30
0
  0
SPLINE
  5
ACA
330
A02
100
AcDbEntity
  8
Shape2DView004
100
AcDbSpline
210
0
220
0
230
1
 70
8
 71
1
 72
4
 73
2
 74
0
 40
0
 40
0
 40
1
 40
1
 10
-12.055
 20
30.6782
 30
0
 10
-11.9381
 20
30.7224
 30
0
  0
SPLINE
  5
ACB
330
A02
100
AcDbEntity
  8
Shape2DView004
100
AcDbSpline
210
0
220
0
230
1
 70
8
 71
1
 72
4
 73
2
 74
0
 40
0
 40
0
 40
1
 40
1
 10
-11.9381
 20
30.7224
 30
0
 10
-12.0503
 20
30.7635
 30
0
  0
SPLINE
  5
ACC
330
A02
100
AcDbEntity
  8
Shape2DView004
100
AcDbSpline
210
0
220
0
230
1
 70
8
 71
1
 72
4
 73
2
 74
0
 40
0
 40
0
 40
1
 40
1
 10
-12.0503
 20
30.7635
 30
0
 10
-12.1656
 20
30.8093
 30
0
  0
LINE
  5
ACD
330
A02
100
AcDbEntity
  8
Shape2DView004
100
AcDbLine
 10
-14.4515
 20
31.7951
 30
0
 11
-14.4515
 21
32.1979
 31
0
  0
LINE
  5
ACE
330
A02
100
AcDbEntity
  8
Shape2DView004
100
AcDbLine
 10
-12.9033
 20
26.4333
 30
0
 11
-12.9033
 21
27.3607
 31
0
  0
SPLINE
  5
ACF
330
A02
100
AcDbEntity
  8
Shape2DView004
100
AcDbSpline
210
0
220
0
230
1
 70
8
 71
2
 72
6
 73
3
 74
0
 40
0
 40
0
 40
0
 40
1
 40
1
 40
1
 10
-12.9886
 20
27.7382
 30
0
 10
-13.074
 20
27.8773
 30
0
 10
-13.2051
 20
27.9357
 30
0
  0
SPLINE
  5
AD0
330
A02
100
AcDbEntity
  8
Shape2DView004
100
AcDbSpline
210
0
220
0
230
1
 70
8
 71
2
 72
6
 73
3
 74
0
 40
0
 40
0
 40
0
 40
1
 40
1
 40
1
 10
-12.9033
 20
27.3607
 30
0
 10
-12.9033
 20
27.5992
 30
0
 10
-12.9886
 20
27.7382
 30
0
  0
LINE
  5
AD1
330
A02
100
AcDbEntity
  8
Shape2DView004
100
AcDbLine
 10
-12.9033
 20
26.4333
 30
0
 11
-12.9033
 21
27.3607
 31
0
  0
LINE
  5
AD2
330
A02
100
AcDbEntity
  8
Shape2DView004
100
AcDbLine
 10
-14.0597
 20
26.4333
 30
0
 11
-12.9033
 21
26.4333
 31
0
  0
LINE
  5
AD3
330
A02
100
AcDbEntity
  8
Shape2DView004
100
AcDbLine
 10
-14.0597
 20
27.3607
 30
0
 11
-14.0597
 21
26.4333
 31
0
  0
SPLINE
  5
AD4
330
A02
100
AcDbEntity
  8
Shape2DView004
100
AcDbSpline
210
0
220
0
230
1
 70
8
 71
2
 72
6
 73
3
 74
0
 40
0
 40
0
 40
0
 40
1
 40
1
 40
1
 10
-13.965
 20
27.7477
 30
0
 10
-14.0597
 20
27.6103
 30
0
 10
-14.0597
 20
27.3607
 30
0
  0
SPLINE
  5
AD5
330
A02
100
AcDbEntity
  8
Shape2DView004
100
AcDbSpline
210
0
220
0
230
1
 70
8
 71
2
 72
6
 73
3
 74
0
 40
0
 40
0
 40
0
 40
1
 40
1
 40
1
 10
-13.7375
 20
27.9404
 30
0
 10
-13.8717
 20
27.8867
 30
0
 10
-13.965
 20
27.7477
 30
0
  0
SPLINE
  5
AD6
330
A02
100
AcDbEntity
  8
Shape2DView004
100
AcDbSpline
210
0
220
0
230
1
 70
8
 71
2
 72
6
 73
3
 74
0
 40
0
 40
0
 40
0
 40
1
 40
1
 40
1
 10
-13.4768
 20
27.9957
 30
0
 10
-13.6032
 20
27.9957
 30
0
 10
-13.7375
 20
27.9404
 30
0
  0
SPLINE
  5
AD7
330
A02
100
AcDbEntity
  8
Shape2DView004
100
AcDbSpline
210
0
220
0
230
1
 70
8
 71
2
 72
6
 73
3
 74
0
 40
0
 40
0
 40
0
 40
1
 40
1
 40
1
 10
-13.2051
 20
27.9357
 30
0
 10
-13.3362
 20
27.9957
 30
0
 10
-13.4768
 20
27.9957
 30
0
  0
SPLINE
  5
AD8
330
A02
100
AcDbEntity
  8
Shape2DView004
100
AcDbSpline
210
0
220
0
230
1
 70
8
 71
2
 72
6
 73
3
 74
0
 40
0
 40
0
 40
0
 40
1
 40
1
 40
1
 10
-12.9886
 20
27.7382
 30
0
 10
-13.074
 20
27.8773
 30
0
 10
-13.2051
 20
27.9357
 30
0
  0
SPLINE
  5
AD9
330
A02
100
AcDbEntity
  8
Shape2DView004
100
AcDbSpline
210
0
220
0
230
1
 70
8
 71
2
 72
6
 73
3
 74
0
 40
0
 40
0
 40
0
 40
1
 40
1
 40
1
 10
-12.9033
 20
27.3607
 30
0
 10
-12.9033
 20
27.5992
 30
0
 10
-12.9886
 20
27.7382
 30
0
  0
ENDSEC
  0
SECTION
  2
OBJECTS
  0
DICTIONARY
  5
F000
330
0
100
AcDbDictionary
  3
ACAD_GROUP
350
F001
  0
DICTIONARY
  5
F001
330
F000
100
AcDbDictionary
  0
ENDSEC
  0
EOF