999
FreeCAD v0.21 33771 (Git)
  0
SECTION
  2
HEADER
  9
$ACADVER
  1
AC1014
  9
$ACADMAINTVER
 70
     9
  9
$DWGCODEPAGE
  3
ANSI_1252
  9
$TEXTSTYLE
  7
STANDARD
  9
$DIMSTYLE
  2
STANDARD
  9
$DIMTXSTY
  7
STANDARD
  9
$CMLSTYLE
  2
STANDARD
  9
$LUNITS
 70
2
  9
$INSUNITS
 70
4
  9
$PEXTMAX
 10
50
 20
50
 30
50
  9
$PEXTMIN
 10
0
 20
0
 30
0
  9
$HANDSEED
  5
FFFF
  0
ENDSEC
  0
SECTION
  2
CLASSES
  0
CLASS
  1
ACDBDICTIONARYWDFLT
  2
AcDbDictionaryWithDefault
  3
ObjectDBX Classes
 90
        0
280
     0
281
     0
  0
CLASS
  1
XRECORD
  2
AcDbXrecord
  3
ObjectDBX Classes
 90
        0
280
     0
281
     0
  0
CLASS
  1
LWPOLYLINE
  2
AcDbPolyline
  3
ObjectDBX Classes
 90
        0
280
     0
281
     1
  0
ENDSEC
  0
SECTION
  2
TABLES
  0
TABLE
  2
VPORT
  5
20
330
0
100
AcDbSymbolTable
 70
     1
  0
VPORT
  5
21
330
20
100
AcDbSymbolTableRecord
100
AcDbViewportTableRecord
  2
*ACTIVE
 70
     0
  0
ENDTAB
  0
TABLE
  2
LTYPE
  5
22
330
0
100
AcDbSymbolTable
 70
     1
  0
LTYPE
  5
23
330
21
100
AcDbSymbolTableRecord
100
AcDbLinetypeTableRecord
  2
BYBLOCK
 70
     0
  3

 72
    65
 73
     0
 40
0.0
  0
LTYPE
  5
24
330
21
100
AcDbSymbolTableRecord
100
AcDbLinetypeTableRecord
  2
BYLAYER
 70
     0
  3

 72
    65
 73
     0
 40
0.0
  0
LTYPE
  5
25
330
21
100
AcDbSymbolTableRecord
100
AcDbLinetypeTableRecord
  2
CONTINUOUS
 70
     0
  3
Solid line
 72
    65
 73
     0
 40
0.0
  0
ENDTAB
  0
TABLE
  2
LAYER
  5
B98
330
0
100
AcDbSymbolTable
 70
3
  0
LAYER
  5
B99
330
B98
100
AcDbSymbolTableRecord
100
AcDbLayerTableRecord
  2
0
 70
   0
 62
   7
  6
CONTINUOUS
  0
LAYER
  5
B9A
330
B98
100
AcDbSymbolTableRecord
100
AcDbLayerTableRecord
  2
none
 70
    0
 62
    7
  6
CONTINUOUS
  0
LAYER
  5
B9B
330
B98
100
AcDbSymbolTableRecord
100
AcDbLayerTableRecord
  2
Shape2DView008
 70
    0
 62
    7
  6
CONTINUOUS
  0
ENDTAB
  0
TABLE
  2
STYLE
  5
70
330
0
100
AcDbSymbolTable
 70
     2
  0
STYLE
  5
71
330
70
100
AcDbSymbolTableRecord
100
AcDbTextStyleTableRecord
  2
STANDARD
 70
     0
 40
0.0
 41
1.0
 50
0.0
 71
     0
 42
2.5
  3
arial.ttf
  4

  0
STYLE
  5
72
330
70
100
AcDbSymbolTableRecord
100
AcDbTextStyleTableRecord
  2
ANNOTATIVE
 70
     0
 40
0.0
 41
1.0
 50
0.0
 71
     0
 42
2.5
  3
arial.ttf
  4

  0
ENDTAB
  0
TABLE
  2
VIEW
  5
73
330
0
100
AcDbSymbolTable
 70
     0
  0
ENDTAB
  0
TABLE
  2
UCS
  5
74
330
0
100
AcDbSymbolTable
 70
     0
  0
ENDTAB
  0
TABLE
  2
APPID
  5
75
330
0
100
AcDbSymbolTable
 70
     2
  0
APPID
  5
76
330
75
100
AcDbSymbolTableRecord
100
AcDbRegAppTableRecord
  2
ACAD
 70
     0
  0
APPID
  5
77
330
75
100
AcDbSymbolTableRecord
100
AcDbRegAppTableRecord
  2
ACADANNOTATIVE
 70
     0
  0
ENDTAB
  0
TABLE
  2
DIMSTYLE
  5
78
330
0
100
AcDbSymbolTable
 70
     2
  0
DIMSTYLE
105
79
330
78
100
AcDbSymbolTableRecord
100
AcDbDimStyleTableRecord
  2
STANDARD
 70
     0
  3

  4

  5

  6

  7

 40
0.0
 41
2.5
 42
0.625
 43
3.75
 44
1.25
 45
0.0
 46
0.0
 47
0.0
 48
0.0
140
2.5
141
2.5
142
0.0
143
0.03937007874016
144
1.0
145
0.0
146
1.0
147
0.625
 71
     0
 72
     0
 73
     0
 74
     0
 75
     0
 76
     0
 77
     1
 78
     8
170
     0
171
     3
172
     1
173
     0
174
     0
175
     0
176
     0
177
     0
178
     0
270
     2
271
     2
272
     2
273
     2
274
     3
340
71
275
     0
280
     0
281
     0
282
     0
283
     0
284
     8
285
     0
286
     0
287
     3
288
     0
  0
ENDTAB
  0
TABLE
  2
BLOCK_RECORD
  5
A01
330
0
100
AcDbSymbolTable
  70
5
  0
BLOCK_RECORD
  5
A02
330
A01
100
AcDbSymbolTableRecord
100
AcDbBlockTableRecord
  2
*MODEL_SPACE
  0
BLOCK_RECORD
  5
A03
330
A01
100
AcDbSymbolTableRecord
100
AcDbBlockTableRecord
  2
*PAPER_SPACE
  0
ENDTAB
  0
ENDSEC
  0
SECTION
  2
BLOCKS
  0
BLOCK
  5
A04
330
A02
100
AcDbEntity
  8
0
100
AcDbBlockBegin
  2
*MODEL_SPACE
 70
   0
 10
0
 20
0
 30
0
  3
*MODEL_SPACE
  1
 
  0
ENDBLK
  5
A05
330
A02
100
AcDbEntity
  8
0
100
AcDbBlockEnd
  0
BLOCK
  5
A06
330
A03
100
AcDbEntity
 67
1
  8
0
100
AcDbBlockBegin
  2
*PAPER_SPACE
 70
   0
 10
0
 20
0
 30
0
  3
*PAPER_SPACE
  1
 
  0
ENDBLK
  5
A07
330
A03
100
AcDbEntity
 67
    1
  8
0
100
AcDbBlockEnd
  0
ENDSEC
  0
SECTION
  2
ENTITIES
  0
LINE
  5
A08
330
A02
100
AcDbEntity
  8
Shape2DView008
100
AcDbLine
 10
-37
 20
12.5
 30
0
 11
-37
 21
0
 31
0
  0
LINE
  5
A09
330
A02
100
AcDbEntity
  8
Shape2DView008
100
AcDbLine
 10
-37
 20
12.5
 30
0
 11
-39.5
 21
14.5
 31
0
  0
LINE
  5
A0A
330
A02
100
AcDbEntity
  8
Shape2DView008
100
AcDbLine
 10
-37
 20
0
 30
0
 11
0
 21
0
 31
0
  0
LINE
  5
A0B
330
A02
100
AcDbEntity
  8
Shape2DView008
100
AcDbLine
 10
-39.5
 20
14.5
 30
0
 11
-37
 21
16.5
 31
0
  0
LINE
  5
A0C
330
A02
100
AcDbEntity
  8
Shape2DView008
100
AcDbLine
 10
8.88178e-16
 20
0
 30
0
 11
8.88178e-16
 21
12.5
 31
0
  0
LINE
  5
A0D
330
A02
100
AcDbEntity
  8
Shape2DView008
100
AcDbLine
 10
-37
 20
29
 30
0
 11
-37
 21
16.5
 31
0
  0
LINE
  5
A0E
330
A02
100
AcDbEntity
  8
Shape2DView008
100
AcDbLine
 10
8.88178e-16
 20
12.5
 30
0
 11
2.5
 21
14.5
 31
0
  0
LINE
  5
A0F
330
A02
100
AcDbEntity
  8
Shape2DView008
100
AcDbLine
 10
-37
 20
29
 30
0
 11
-39.5
 21
31
 31
0
  0
LINE
  5
A10
330
A02
100
AcDbEntity
  8
Shape2DView008
100
AcDbLine
 10
2.5
 20
14.5
 30
0
 11
8.88178e-16
 21
16.5
 31
0
  0
LINE
  5
A11
330
A02
100
AcDbEntity
  8
Shape2DView008
100
AcDbLine
 10
-39.5
 20
31
 30
0
 11
-37
 21
33
 31
0
  0
LINE
  5
A12
330
A02
100
AcDbEntity
  8
Shape2DView008
100
AcDbLine
 10
8.88178e-16
 20
16.5
 30
0
 11
8.88178e-16
 21
29
 31
0
  0
LINE
  5
A13
330
A02
100
AcDbEntity
  8
Shape2DView008
100
AcDbLine
 10
-37
 20
45.5
 30
0
 11
-37
 21
33
 31
0
  0
LINE
  5
A14
330
A02
100
AcDbEntity
  8
Shape2DView008
100
AcDbLine
 10
8.88178e-16
 20
29
 30
0
 11
2.5
 21
31
 31
0
  0
LINE
  5
A15
330
A02
100
AcDbEntity
  8
Shape2DView008
100
AcDbLine
 10
8.88178e-16
 20
45.5
 30
0
 11
-37
 21
45.5
 31
0
  0
LINE
  5
A16
330
A02
100
AcDbEntity
  8
Shape2DView008
100
AcDbLine
 10
2.5
 20
31
 30
0
 11
8.88178e-16
 21
33
 31
0
  0
LINE
  5
A17
330
A02
100
AcDbEntity
  8
Shape2DView008
100
AcDbLine
 10
8.88178e-16
 20
33
 30
0
 11
8.88178e-16
 21
45.5
 31
0
  0
CIRCLE
  5
A18
330
A02
100
AcDbEntity
  8
Shape2DView008
100
AcDbCircle
 10
-7
 20
10.78
 40
2.35
  0
LINE
  5
A19
330
A02
100
AcDbEntity
  8
Shape2DView008
100
AcDbLine
 10
-11.055
 20
2.82303
 30
0
 11
-14.4515
 21
4.02682
 31
0
  0
LINE
  5
A1A
330
A02
100
AcDbEntity
  8
Shape2DView008
100
AcDbLine
 10
-14.4515
 20
4.02682
 30
0
 11
-14.4515
 21
4.4186
 31
0
  0
LINE
  5
A1B
330
A02
100
AcDbEntity
  8
Shape2DView008
100
AcDbLine
 10
-14.4515
 20
4.4186
 30
0
 11
-11.055
 21
5.62239
 31
0
  0
LINE
  5
A1C
330
A02
100
AcDbEntity
  8
Shape2DView008
100
AcDbLine
 10
-11.055
 20
5.62239
 30
0
 11
-11.055
 21
5.19111
 31
0
  0
LINE
  5
A1D
330
A02
100
AcDbEntity
  8
Shape2DView008
100
AcDbLine
 10
-11.055
 20
5.19111
 30
0
 11
-11.8844
 21
4.89885
 31
0
  0
LINE
  5
A1E
330
A02
100
AcDbEntity
  8
Shape2DView008
100
AcDbLine
 10
-11.8844
 20
4.89885
 30
0
 11
-11.8844
 21
3.54972
 31
0
  0
LINE
  5
A1F
330
A02
100
AcDbEntity
  8
Shape2DView008
100
AcDbLine
 10
-11.8844
 20
3.54972
 30
0
 11
-11.055
 21
3.26378
 31
0
  0
LINE
  5
A20
330
A02
100
AcDbEntity
  8
Shape2DView008
100
AcDbLine
 10
-11.055
 20
3.26378
 30
0
 11
-11.055
 21
2.82303
 31
0
  0
LINE
  5
A21
330
A02
100
AcDbEntity
  8
Shape2DView008
100
AcDbLine
 10
-11.055
 20
6.38701
 30
0
 11
-14.4515
 21
6.38701
 31
0
  0
LINE
  5
A22
330
A02
100
AcDbEntity
  8
Shape2DView008
100
AcDbLine
 10
-14.4515
 20
6.38701
 30
0
 11
-14.4515
 21
8.42966
 31
0
  0
LINE
  5
A23
330
A02
100
AcDbEntity
  8
Shape2DView008
100
AcDbLine
 10
-14.4515
 20
8.42966
 30
0
 11
-14.0534
 21
8.42966
 31
0
  0
LINE
  5
A24
330
A02
100
AcDbEntity
  8
Shape2DView008
100
AcDbLine
 10
-14.0534
 20
8.42966
 30
0
 11
-14.0534
 21
6.80881
 31
0
  0
LINE
  5
A25
330
A02
100
AcDbEntity
  8
Shape2DView008
100
AcDbLine
 10
-14.0534
 20
6.80881
 30
0
 11
-13.0108
 21
6.80881
 31
0
  0
LINE
  5
A26
330
A02
100
AcDbEntity
  8
Shape2DView008
100
AcDbLine
 10
-13.0108
 20
6.80881
 30
0
 11
-13.0108
 21
7.88148
 31
0
  0
LINE
  5
A27
330
A02
100
AcDbEntity
  8
Shape2DView008
100
AcDbLine
 10
-13.0108
 20
7.88148
 30
0
 11
-12.6127
 21
7.88148
 31
0
  0
LINE
  5
A28
330
A02
100
AcDbEntity
  8
Shape2DView008
100
AcDbLine
 10
-12.6127
 20
7.88148
 30
0
 11
-12.6127
 21
6.80881
 31
0
  0
LINE
  5
A29
330
A02
100
AcDbEntity
  8
Shape2DView008
100
AcDbLine
 10
-12.6127
 20
6.80881
 30
0
 11
-11.055
 21
6.80881
 31
0
  0
LINE
  5
A2A
330
A02
100
AcDbEntity
  8
Shape2DView008
100
AcDbLine
 10
-11.055
 20
6.80881
 30
0
 11
-11.055
 21
6.38701
 31
0
  0
SPLINE
  5
A2B
330
A02
100
AcDbEntity
  8
Shape2DView008
100
AcDbSpline
210
0
220
0
230
1
 70
8
 71
2
 72
6
 73
3
 74
0
 40
0
 40
0
 40
0
 40
1
 40
1
 40
1
 10
-10.9965
 20
10.1074
 30
0
 10
-10.9965
 20
9.81039
 30
0
 10
-11.0945
 20
9.57026
 30
0
  0
SPLINE
  5
A2C
330
A02
100
AcDbEntity
  8
Shape2DView008
100
AcDbSpline
210
0
220
0
230
1
 70
8
 71
2
 72
6
 73
3
 74
0
 40
0
 40
0
 40
0
 40
1
 40
1
 40
1
 10
-11.0945
 20
9.57026
 30
0
 10
-11.194
 20
9.33013
 30
0
 10
-11.3646
 20
9.16426
 30
0
  0
SPLINE
  5
A2D
330
A02
100
AcDbEntity
  8
Shape2DView008
100
AcDbSpline
210
0
220
0
230
1
 70
8
 71
2
 72
6
 73
3
 74
0
 40
0
 40
0
 40
0
 40
1
 40
1
 40
1
 10
-11.3646
 20
9.16426
 30
0
 10
-11.5353
 20
8.99838
 30
0
 10
-11.7533
 20
8.92255
 30
0
  0
LINE
  5
A2E
330
A02
100
AcDbEntity
  8
Shape2DView008
100
AcDbLine
 10
-11.7533
 20
8.92255
 30
0
 11
-11.9002
 21
9.32066
 31
0
  0
SPLINE
  5
A2F
330
A02
100
AcDbEntity
  8
Shape2DView008
100
AcDbSpline
210
0
220
0
230
1
 70
8
 71
2
 72
6
 73
3
 74
0
 40
0
 40
0
 40
0
 40
1
 40
1
 40
1
 10
-11.9002
 20
9.32066
 30
0
 10
-11.6743
 20
9.42334
 30
0
 10
-11.5337
 20
9.63029
 30
0
  0
SPLINE
  5
A30
330
A02
100
AcDbEntity
  8
Shape2DView008
100
AcDbSpline
210
0
220
0
230
1
 70
8
 71
2
 72
6
 73
3
 74
0
 40
0
 40
0
 40
0
 40
1
 40
1
 40
1
 10
-11.5337
 20
9.63029
 30
0
 10
-11.3947
 20
9.83724
 30
0
 10
-11.3947
 20
10.1169
 30
0
  0
SPLINE
  5
A31
330
A02
100
AcDbEntity
  8
Shape2DView008
100
AcDbSpline
210
0
220
0
230
1
 70
8
 71
2
 72
6
 73
3
 74
0
 40
0
 40
0
 40
0
 40
1
 40
1
 40
1
 10
-11.3947
 20
10.1169
 30
0
 10
-11.3947
 20
10.4218
 30
0
 10
-11.5416
 20
10.6034
 30
0
  0
SPLINE
  5
A32
330
A02
100
AcDbEntity
  8
Shape2DView008
100
AcDbSpline
210
0
220
0
230
1
 70
8
 71
2
 72
6
 73
3
 74
0
 40
0
 40
0
 40
0
 40
1
 40
1
 40
1
 10
-11.5416
 20
10.6034
 30
0
 10
-11.6885
 20
10.7867
 30
0
 10
-11.9681
 20
10.7867
 30
0
  0
SPLINE
  5
A33
330
A02
100
AcDbEntity
  8
Shape2DView008
100
AcDbSpline
210
0
220
0
230
1
 70
8
 71
2
 72
6
 73
3
 74
0
 40
0
 40
0
 40
0
 40
1
 40
1
 40
1
 10
-11.9681
 20
10.7867
 30
0
 10
-12.164
 20
10.7867
 30
0
 10
-12.2967
 20
10.6777
 30
0
  0
SPLINE
  5
A34
330
A02
100
AcDbEntity
  8
Shape2DView008
100
AcDbSpline
210
0
220
0
230
1
 70
8
 71
2
 72
6
 73
3
 74
0
 40
0
 40
0
 40
0
 40
1
 40
1
 40
1
 10
-12.2967
 20
10.6777
 30
0
 10
-12.431
 20
10.5687
 30
0
 10
-12.521
 20
10.3933
 30
0
  0
SPLINE
  5
A35
330
A02
100
AcDbEntity
  8
Shape2DView008
100
AcDbSpline
210
0
220
0
230
1
 70
8
 71
2
 72
6
 73
3
 74
0
 40
0
 40
0
 40
0
 40
1
 40
1
 40
1
 10
-12.521
 20
10.3933
 30
0
 10
-12.6127
 20
10.218
 30
0
 10
-12.6853
 20
10.0189
 30
0
  0
SPLINE
  5
A36
330
A02
100
AcDbEntity
  8
Shape2DView008
100
AcDbSpline
210
0
220
0
230
1
 70
8
 71
2
 72
6
 73
3
 74
0
 40
0
 40
0
 40
0
 40
1
 40
1
 40
1
 10
-12.6853
 20
10.0189
 30
0
 10
-12.7517
 20
9.84198
 30
0
 10
-12.8307
 20
9.66505
 30
0
  0
SPLINE
  5
A37
330
A02
100
AcDbEntity
  8
Shape2DView008
100
AcDbSpline
210
0
220
0
230
1
 70
8
 71
2
 72
6
 73
3
 74
0
 40
0
 40
0
 40
0
 40
1
 40
1
 40
1
 10
-12.8307
 20
9.66505
 30
0
 10
-12.9112
 20
9.48811
 30
0
 10
-13.0218
 20
9.34277
 30
0
  0
SPLINE
  5
A38
330
A02
100
AcDbEntity
  8
Shape2DView008
100
AcDbSpline
210
0
220
0
230
1
 70
8
 71
2
 72
6
 73
3
 74
0
 40
0
 40
0
 40
0
 40
1
 40
1
 40
1
 10
-13.0218
 20
9.34277
 30
0
 10
-13.1324
 20
9.19901
 30
0
 10
-13.2904
 20
9.11212
 30
0
  0
SPLINE
  5
A39
330
A02
100
AcDbEntity
  8
Shape2DView008
100
AcDbSpline
210
0
220
0
230
1
 70
8
 71
2
 72
6
 73
3
 74
0
 40
0
 40
0
 40
0
 40
1
 40
1
 40
1
 10
-13.2904
 20
9.11212
 30
0
 10
-13.4499
 20
9.02524
 30
0
 10
-13.6711
 20
9.02524
 30
0
  0
SPLINE
  5
A3A
330
A02
100
AcDbEntity
  8
Shape2DView008
100
AcDbSpline
210
0
220
0
230
1
 70
8
 71
2
 72
6
 73
3
 74
0
 40
0
 40
0
 40
0
 40
1
 40
1
 40
1
 10
-13.6711
 20
9.02524
 30
0
 10
-13.8986
 20
9.02524
 30
0
 10
-14.0882
 20
9.14846
 30
0
  0
SPLINE
  5
A3B
330
A02
100
AcDbEntity
  8
Shape2DView008
100
AcDbSpline
210
0
220
0
230
1
 70
8
 71
2
 72
6
 73
3
 74
0
 40
0
 40
0
 40
0
 40
1
 40
1
 40
1
 10
-14.0882
 20
9.14846
 30
0
 10
-14.2793
 20
9.27168
 30
0
 10
-14.3947
 20
9.50391
 30
0
  0
SPLINE
  5
A3C
330
A02
100
AcDbEntity
  8
Shape2DView008
100
AcDbSpline
210
0
220
0
230
1
 70
8
 71
2
 72
6
 73
3
 74
0
 40
0
 40
0
 40
0
 40
1
 40
1
 40
1
 10
-14.3947
 20
9.50391
 30
0
 10
-14.51
 20
9.73772
 30
0
 10
-14.51
 20
10.0679
 30
0
  0
SPLINE
  5
A3D
330
A02
100
AcDbEntity
  8
Shape2DView008
100
AcDbSpline
210
0
220
0
230
1
 70
8
 71
2
 72
6
 73
3
 74
0
 40
0
 40
0
 40
0
 40
1
 40
1
 40
1
 10
-14.51
 20
10.0679
 30
0
 10
-14.51
 20
10.338
 30
0
 10
-14.431
 20
10.5418
 30
0
  0
SPLINE
  5
A3E
330
A02
100
AcDbEntity
  8
Shape2DView008
100
AcDbSpline
210
0
220
0
230
1
 70
8
 71
2
 72
6
 73
3
 74
0
 40
0
 40
0
 40
0
 40
1
 40
1
 40
1
 10
-14.431
 20
10.5418
 30
0
 10
-14.352
 20
10.7472
 30
0
 10
-14.2146
 20
10.8799
 30
0
  0
SPLINE
  5
A3F
330
A02
100
AcDbEntity
  8
Shape2DView008
100
AcDbSpline
210
0
220
0
230
1
 70
8
 71
2
 72
6
 73
3
 74
0
 40
0
 40
0
 40
0
 40
1
 40
1
 40
1
 10
-14.2146
 20
10.8799
 30
0
 10
-14.0787
 20
11.0126
 30
0
 10
-13.9033
 20
11.0632
 30
0
  0
LINE
  5
A40
330
A02
100
AcDbEntity
  8
Shape2DView008
100
AcDbLine
 10
-13.9033
 20
11.0632
 30
0
 11
-13.7722
 21
10.6745
 31
0
  0
SPLINE
  5
A41
330
A02
100
AcDbEntity
  8
Shape2DView008
100
AcDbSpline
210
0
220
0
230
1
 70
8
 71
2
 72
6
 73
3
 74
0
 40
0
 40
0
 40
0
 40
1
 40
1
 40
1
 10
-13.7722
 20
10.6745
 30
0
 10
-13.916
 20
10.6145
 30
0
 10
-14.0155
 20
10.4518
 30
0
  0
SPLINE
  5
A42
330
A02
100
AcDbEntity
  8
Shape2DView008
100
AcDbSpline
210
0
220
0
230
1
 70
8
 71
2
 72
6
 73
3
 74
0
 40
0
 40
0
 40
0
 40
1
 40
1
 40
1
 10
-14.0155
 20
10.4518
 30
0
 10
-14.1166
 20
10.2906
 30
0
 10
-14.1166
 20
10.0395
 30
0
  0
SPLINE
  5
A43
330
A02
100
AcDbEntity
  8
Shape2DView008
100
AcDbSpline
210
0
220
0
230
1
 70
8
 71
2
 72
6
 73
3
 74
0
 40
0
 40
0
 40
0
 40
1
 40
1
 40
1
 10
-14.1166
 20
10.0395
 30
0
 10
-14.1166
 20
9.76931
 30
0
 10
-13.9981
 20
9.61449
 30
0
  0
SPLINE
  5
A44
330
A02
100
AcDbEntity
  8
Shape2DView008
100
AcDbSpline
210
0
220
0
230
1
 70
8
 71
2
 72
6
 73
3
 74
0
 40
0
 40
0
 40
0
 40
1
 40
1
 40
1
 10
-13.9981
 20
9.61449
 30
0
 10
-13.8796
 20
9.46126
 30
0
 10
-13.6711
 20
9.46126
 30
0
  0
SPLINE
  5
A45
330
A02
100
AcDbEntity
  8
Shape2DView008
100
AcDbSpline
210
0
220
0
230
1
 70
8
 71
2
 72
6
 73
3
 74
0
 40
0
 40
0
 40
0
 40
1
 40
1
 40
1
 10
-13.6711
 20
9.46126
 30
0
 10
-13.5131
 20
9.46126
 30
0
 10
-13.4073
 20
9.56394
 30
0
  0
SPLINE
  5
A46
330
A02
100
AcDbEntity
  8
Shape2DView008
100
AcDbSpline
210
0
220
0
230
1
 70
8
 71
2
 72
6
 73
3
 74
0
 40
0
 40
0
 40
0
 40
1
 40
1
 40
1
 10
-13.4073
 20
9.56394
 30
0
 10
-13.3014
 20
9.66821
 30
0
 10
-13.224
 20
9.83566
 30
0
  0
SPLINE
  5
A47
330
A02
100
AcDbEntity
  8
Shape2DView008
100
AcDbSpline
210
0
220
0
230
1
 70
8
 71
2
 72
6
 73
3
 74
0
 40
0
 40
0
 40
0
 40
1
 40
1
 40
1
 10
-13.224
 20
9.83566
 30
0
 10
-13.1466
 20
10.0031
 30
0
 10
-13.074
 20
10.1943
 30
0
  0
SPLINE
  5
A48
330
A02
100
AcDbEntity
  8
Shape2DView008
100
AcDbSpline
210
0
220
0
230
1
 70
8
 71
2
 72
6
 73
3
 74
0
 40
0
 40
0
 40
0
 40
1
 40
1
 40
1
 10
-13.074
 20
10.1943
 30
0
 10
-13.006
 20
10.3744
 30
0
 10
-12.9191
 20
10.5545
 30
0
  0
SPLINE
  5
A49
330
A02
100
AcDbEntity
  8
Shape2DView008
100
AcDbSpline
210
0
220
0
230
1
 70
8
 71
2
 72
6
 73
3
 74
0
 40
0
 40
0
 40
0
 40
1
 40
1
 40
1
 10
-12.9191
 20
10.5545
 30
0
 10
-12.8338
 20
10.7361
 30
0
 10
-12.709
 20
10.8878
 30
0
  0
SPLINE
  5
A4A
330
A02
100
AcDbEntity
  8
Shape2DView008
100
AcDbSpline
210
0
220
0
230
1
 70
8
 71
2
 72
6
 73
3
 74
0
 40
0
 40
0
 40
0
 40
1
 40
1
 40
1
 10
-12.709
 20
10.8878
 30
0
 10
-12.5858
 20
11.0395
 30
0
 10
-12.4073
 20
11.1311
 30
0
  0
SPLINE
  5
A4B
330
A02
100
AcDbEntity
  8
Shape2DView008
100
AcDbSpline
210
0
220
0
230
1
 70
8
 71
2
 72
6
 73
3
 74
0
 40
0
 40
0
 40
0
 40
1
 40
1
 40
1
 10
-12.4073
 20
11.1311
 30
0
 10
-12.2288
 20
11.2227
 30
0
 10
-11.9776
 20
11.2227
 30
0
  0
SPLINE
  5
A4C
330
A02
100
AcDbEntity
  8
Shape2DView008
100
AcDbSpline
210
0
220
0
230
1
 70
8
 71
2
 72
6
 73
3
 74
0
 40
0
 40
0
 40
0
 40
1
 40
1
 40
1
 10
-11.9776
 20
11.2227
 30
0
 10
-11.6648
 20
11.2227
 30
0
 10
-11.4452
 20
11.0774
 30
0
  0
SPLINE
  5
A4D
330
A02
100
AcDbEntity
  8
Shape2DView008
100
AcDbSpline
210
0
220
0
230
1
 70
8
 71
2
 72
6
 73
3
 74
0
 40
0
 40
0
 40
0
 40
1
 40
1
 40
1
 10
-11.4452
 20
11.0774
 30
0
 10
-11.2272
 20
10.932
 30
0
 10
-11.1119
 20
10.6793
 30
0
  0
SPLINE
  5
A4E
330
A02
100
AcDbEntity
  8
Shape2DView008
100
AcDbSpline
210
0
220
0
230
1
 70
8
 71
2
 72
6
 73
3
 74
0
 40
0
 40
0
 40
0
 40
1
 40
1
 40
1
 10
-11.1119
 20
10.6793
 30
0
 10
-10.9965
 20
10.4265
 30
0
 10
-10.9965
 20
10.1074
 30
0
  0
CIRCLE
  5
A4F
330
A02
100
AcDbEntity
  8
Shape2DView008
100
AcDbCircle
 10
-7
 20
18.76
 40
2.35
  0
LINE
  5
A50
330
A02
100
AcDbEntity
  8
Shape2DView008
100
AcDbLine
 10
-11.055
 20
12.7772
 30
0
 11
-14.0487
 21
12.7772
 31
0
  0
LINE
  5
A51
330
A02
100
AcDbEntity
  8
Shape2DView008
100
AcDbLine
 10
-14.0487
 20
12.7772
 30
0
 11
-14.0487
 21
11.8309
 31
0
  0
LINE
  5
A52
330
A02
100
AcDbEntity
  8
Shape2DView008
100
AcDbLine
 10
-14.0487
 20
11.8309
 30
0
 11
-14.4515
 21
11.8309
 31
0
  0
LINE
  5
A53
330
A02
100
AcDbEntity
  8
Shape2DView008
100
AcDbLine
 10
-14.4515
 20
11.8309
 30
0
 11
-14.4515
 21
14.1453
 31
0
  0
LINE
  5
A54
330
A02
100
AcDbEntity
  8
Shape2DView008
100
AcDbLine
 10
-14.4515
 20
14.1453
 30
0
 11
-14.0487
 21
14.1453
 31
0
  0
LINE
  5
A55
330
A02
100
AcDbEntity
  8
Shape2DView008
100
AcDbLine
 10
-14.0487
 20
14.1453
 30
0
 11
-14.0487
 21
13.199
 31
0
  0
LINE
  5
A56
330
A02
100
AcDbEntity
  8
Shape2DView008
100
AcDbLine
 10
-14.0487
 20
13.199
 30
0
 11
-11.055
 21
13.199
 31
0
  0
LINE
  5
A57
330
A02
100
AcDbEntity
  8
Shape2DView008
100
AcDbLine
 10
-11.055
 20
13.199
 30
0
 11
-11.055
 21
12.7772
 31
0
  0
LINE
  5
A58
330
A02
100
AcDbEntity
  8
Shape2DView008
100
AcDbLine
 10
-11.055
 20
14.6524
 30
0
 11
-14.4515
 21
15.8562
 31
0
  0
LINE
  5
A59
330
A02
100
AcDbEntity
  8
Shape2DView008
100
AcDbLine
 10
-14.4515
 20
15.8562
 30
0
 11
-14.4515
 21
16.248
 31
0
  0
LINE
  5
A5A
330
A02
100
AcDbEntity
  8
Shape2DView008
100
AcDbLine
 10
-14.4515
 20
16.248
 30
0
 11
-11.055
 21
17.4518
 31
0
  0
LINE
  5
A5B
330
A02
100
AcDbEntity
  8
Shape2DView008
100
AcDbLine
 10
-11.055
 20
17.4518
 30
0
 11
-11.055
 21
17.0205
 31
0
  0
LINE
  5
A5C
330
A02
100
AcDbEntity
  8
Shape2DView008
100
AcDbLine
 10
-11.055
 20
17.0205
 30
0
 11
-11.8844
 21
16.7282
 31
0
  0
LINE
  5
A5D
330
A02
100
AcDbEntity
  8
Shape2DView008
100
AcDbLine
 10
-11.8844
 20
16.7282
 30
0
 11
-11.8844
 21
15.3791
 31
0
  0
LINE
  5
A5E
330
A02
100
AcDbEntity
  8
Shape2DView008
100
AcDbLine
 10
-11.8844
 20
15.3791
 30
0
 11
-11.055
 21
15.0932
 31
0
  0
LINE
  5
A5F
330
A02
100
AcDbEntity
  8
Shape2DView008
100
AcDbLine
 10
-11.055
 20
15.0932
 30
0
 11
-11.055
 21
14.6524
 31
0
  0
LINE
  5
A60
330
A02
100
AcDbEntity
  8
Shape2DView008
100
AcDbLine
 10
-11.055
 20
18.2164
 30
0
 11
-14.4515
 21
18.2164
 31
0
  0
LINE
  5
A61
330
A02
100
AcDbEntity
  8
Shape2DView008
100
AcDbLine
 10
-14.4515
 20
18.2164
 30
0
 11
-14.4515
 21
18.6429
 31
0
  0
LINE
  5
A62
330
A02
100
AcDbEntity
  8
Shape2DView008
100
AcDbLine
 10
-14.4515
 20
18.6429
 30
0
 11
-12.036
 21
20.1485
 31
0
  0
SPLINE
  5
A63
330
A02
100
AcDbEntity
  8
Shape2DView008
100
AcDbSpline
210
0
220
0
230
1
 70
8
 71
1
 72
4
 73
2
 74
0
 40
0
 40
0
 40
1
 40
1
 10
-12.036
 20
20.1485
 30
0
 10
-11.9128
 20
20.218
 30
0
  0
SPLINE
  5
A64
330
A02
100
AcDbEntity
  8
Shape2DView008
100
AcDbSpline
210
0
220
0
230
1
 70
8
 71
2
 72
6
 73
3
 74
0
 40
0
 40
0
 40
0
 40
1
 40
1
 40
1
 10
-11.9128
 20
20.218
 30
0
 10
-11.8528
 20
20.2527
 30
0
 10
-11.7833
 20
20.2891
 30
0
  0
SPLINE
  5
A65
330
A02
100
AcDbEntity
  8
Shape2DView008
100
AcDbSpline
210
0
220
0
230
1
 70
8
 71
1
 72
4
 73
2
 74
0
 40
0
 40
0
 40
1
 40
1
 10
-11.7833
 20
20.2891
 30
0
 10
-11.9097
 20
20.2827
 30
0
  0
SPLINE
  5
A66
330
A02
100
AcDbEntity
  8
Shape2DView008
100
AcDbSpline
210
0
220
0
230
1
 70
8
 71
2
 72
6
 73
3
 74
0
 40
0
 40
0
 40
0
 40
1
 40
1
 40
1
 10
-11.9097
 20
20.2827
 30
0
 10
-11.9729
 20
20.2796
 30
0
 10
-12.0297
 20
20.2796
 30
0
  0
LINE
  5
A67
330
A02
100
AcDbEntity
  8
Shape2DView008
100
AcDbLine
 10
-12.0297
 20
20.2796
 30
0
 11
-14.4515
 21
20.2796
 31
0
  0
LINE
  5
A68
330
A02
100
AcDbEntity
  8
Shape2DView008
100
AcDbLine
 10
-14.4515
 20
20.2796
 30
0
 11
-14.4515
 21
20.7014
 31
0
  0
LINE
  5
A69
330
A02
100
AcDbEntity
  8
Shape2DView008
100
AcDbLine
 10
-14.4515
 20
20.7014
 30
0
 11
-11.055
 21
20.7014
 31
0
  0
LINE
  5
A6A
330
A02
100
AcDbEntity
  8
Shape2DView008
100
AcDbLine
 10
-11.055
 20
20.7014
 30
0
 11
-11.055
 21
20.2938
 31
0
  0
LINE
  5
A6B
330
A02
100
AcDbEntity
  8
Shape2DView008
100
AcDbLine
 10
-11.055
 20
20.2938
 30
0
 11
-13.4815
 21
18.7646
 31
0
  0
SPLINE
  5
A6C
330
A02
100
AcDbEntity
  8
Shape2DView008
100
AcDbSpline
210
0
220
0
230
1
 70
8
 71
2
 72
6
 73
3
 74
0
 40
0
 40
0
 40
0
 40
1
 40
1
 40
1
 10
-13.4815
 20
18.7646
 30
0
 10
-13.5368
 20
18.733
 30
0
 10
-13.5969
 20
18.6982
 30
0
  0
SPLINE
  5
A6D
330
A02
100
AcDbEntity
  8
Shape2DView008
100
AcDbSpline
210
0
220
0
230
1
 70
8
 71
1
 72
4
 73
2
 74
0
 40
0
 40
0
 40
1
 40
1
 10
-13.5969
 20
18.6982
 30
0
 10
-13.7201
 20
18.6287
 30
0
  0
SPLINE
  5
A6E
330
A02
100
AcDbEntity
  8
Shape2DView008
100
AcDbSpline
210
0
220
0
230
1
 70
8
 71
2
 72
6
 73
3
 74
0
 40
0
 40
0
 40
0
 40
1
 40
1
 40
1
 10
-13.7201
 20
18.6287
 30
0
 10
-13.6664
 20
18.6335
 30
0
 10
-13.6032
 20
18.635
 30
0
  0
SPLINE
  5
A6F
330
A02
100
AcDbEntity
  8
Shape2DView008
100
AcDbSpline
210
0
220
0
230
1
 70
8
 71
2
 72
6
 73
3
 74
0
 40
0
 40
0
 40
0
 40
1
 40
1
 40
1
 10
-13.6032
 20
18.635
 30
0
 10
-13.54
 20
18.6382
 30
0
 10
-13.4815
 20
18.6382
 30
0
  0
LINE
  5
A70
330
A02
100
AcDbEntity
  8
Shape2DView008
100
AcDbLine
 10
-13.4815
 20
18.6382
 30
0
 11
-11.055
 21
18.6382
 31
0
  0
LINE
  5
A71
330
A02
100
AcDbEntity
  8
Shape2DView008
100
AcDbLine
 10
-11.055
 20
18.6382
 30
0
 11
-11.055
 21
18.2164
 31
0
  0
CIRCLE
  5
A72
330
A02
100
AcDbEntity
  8
Shape2DView008
100
AcDbCircle
 10
-25.6
 20
9.8
 40
8
  0
CIRCLE
  5
A73
330
A02
100
AcDbEntity
  8
Shape2DView008
100
AcDbCircle
 10
-7
 20
26.74
 40
2.35
  0
LINE
  5
A74
330
A02
100
AcDbEntity
  8
Shape2DView008
100
AcDbLine
 10
-11.055
 20
21.654
 30
0
 11
-14.4515
 21
21.654
 31
0
  0
LINE
  5
A75
330
A02
100
AcDbEntity
  8
Shape2DView008
100
AcDbLine
 10
-14.4515
 20
21.654
 30
0
 11
-14.4515
 21
22.5813
 31
0
  0
SPLINE
  5
A76
330
A02
100
AcDbEntity
  8
Shape2DView008
100
AcDbSpline
210
0
220
0
230
1
 70
8
 71
2
 72
6
 73
3
 74
0
 40
0
 40
0
 40
0
 40
1
 40
1
 40
1
 10
-14.4515
 20
22.5813
 30
0
 10
-14.4515
 20
23.0173
 30
0
 10
-14.3062
 20
23.3191
 30
0
  0
SPLINE
  5
A77
330
A02
100
AcDbEntity
  8
Shape2DView008
100
AcDbSpline
210
0
220
0
230
1
 70
8
 71
2
 72
6
 73
3
 74
0
 40
0
 40
0
 40
0
 40
1
 40
1
 40
1
 10
-14.3062
 20
23.3191
 30
0
 10
-14.1608
 20
23.6224
 30
0
 10
-13.916
 20
23.8056
 30
0
  0
SPLINE
  5
A78
330
A02
100
AcDbEntity
  8
Shape2DView008
100
AcDbSpline
210
0
220
0
230
1
 70
8
 71
2
 72
6
 73
3
 74
0
 40
0
 40
0
 40
0
 40
1
 40
1
 40
1
 10
-13.916
 20
23.8056
 30
0
 10
-13.6727
 20
23.9905
 30
0
 10
-13.371
 20
24.0742
 30
0
  0
SPLINE
  5
A79
330
A02
100
AcDbEntity
  8
Shape2DView008
100
AcDbSpline
210
0
220
0
230
1
 70
8
 71
2
 72
6
 73
3
 74
0
 40
0
 40
0
 40
0
 40
1
 40
1
 40
1
 10
-13.371
 20
24.0742
 30
0
 10
-13.0692
 20
24.1579
 30
0
 10
-12.7533
 20
24.1579
 30
0
  0
SPLINE
  5
A7A
330
A02
100
AcDbEntity
  8
Shape2DView008
100
AcDbSpline
210
0
220
0
230
1
 70
8
 71
2
 72
6
 73
3
 74
0
 40
0
 40
0
 40
0
 40
1
 40
1
 40
1
 10
-12.7533
 20
24.1579
 30
0
 10
-12.4594
 20
24.1579
 30
0
 10
-12.1608
 20
24.0805
 30
0
  0
SPLINE
  5
A7B
330
A02
100
AcDbEntity
  8
Shape2DView008
100
AcDbSpline
210
0
220
0
230
1
 70
8
 71
2
 72
6
 73
3
 74
0
 40
0
 40
0
 40
0
 40
1
 40
1
 40
1
 10
-12.1608
 20
24.0805
 30
0
 10
-11.8623
 20
24.0031
 30
0
 10
-11.6111
 20
23.8214
 30
0
  0
SPLINE
  5
A7C
330
A02
100
AcDbEntity
  8
Shape2DView008
100
AcDbSpline
210
0
220
0
230
1
 70
8
 71
2
 72
6
 73
3
 74
0
 40
0
 40
0
 40
0
 40
1
 40
1
 40
1
 10
-11.6111
 20
23.8214
 30
0
 10
-11.3615
 20
23.6414
 30
0
 10
-11.2082
 20
23.3333
 30
0
  0
SPLINE
  5
A7D
330
A02
100
AcDbEntity
  8
Shape2DView008
100
AcDbSpline
210
0
220
0
230
1
 70
8
 71
2
 72
6
 73
3
 74
0
 40
0
 40
0
 40
0
 40
1
 40
1
 40
1
 10
-11.2082
 20
23.3333
 30
0
 10
-11.055
 20
23.0252
 30
0
 10
-11.055
 20
22.5624
 30
0
  0
LINE
  5
A7E
330
A02
100
AcDbEntity
  8
Shape2DView008
100
AcDbLine
 10
-11.055
 20
22.5624
 30
0
 11
-11.055
 21
21.654
 31
0
  0
SPLINE
  5
A7F
330
A02
100
AcDbEntity
  8
Shape2DView008
100
AcDbSpline
210
0
220
0
230
1
 70
8
 71
2
 72
6
 73
3
 74
0
 40
0
 40
0
 40
0
 40
1
 40
1
 40
1
 10
-10.9965
 20
25.981
 30
0
 10
-10.9965
 20
25.684
 30
0
 10
-11.0945
 20
25.4439
 30
0
  0
SPLINE
  5
A80
330
A02
100
AcDbEntity
  8
Shape2DView008
100
AcDbSpline
210
0
220
0
230
1
 70
8
 71
2
 72
6
 73
3
 74
0
 40
0
 40
0
 40
0
 40
1
 40
1
 40
1
 10
-11.0945
 20
25.4439
 30
0
 10
-11.194
 20
25.2038
 30
0
 10
-11.3646
 20
25.0379
 30
0
  0
SPLINE
  5
A81
330
A02
100
AcDbEntity
  8
Shape2DView008
100
AcDbSpline
210
0
220
0
230
1
 70
8
 71
2
 72
6
 73
3
 74
0
 40
0
 40
0
 40
0
 40
1
 40
1
 40
1
 10
-11.3646
 20
25.0379
 30
0
 10
-11.5353
 20
24.872
 30
0
 10
-11.7533
 20
24.7962
 30
0
  0
LINE
  5
A82
330
A02
100
AcDbEntity
  8
Shape2DView008
100
AcDbLine
 10
-11.7533
 20
24.7962
 30
0
 11
-11.9002
 21
25.1943
 31
0
  0
SPLINE
  5
A83
330
A02
100
AcDbEntity
  8
Shape2DView008
100
AcDbSpline
210
0
220
0
230
1
 70
8
 71
2
 72
6
 73
3
 74
0
 40
0
 40
0
 40
0
 40
1
 40
1
 40
1
 10
-11.9002
 20
25.1943
 30
0
 10
-11.6743
 20
25.297
 30
0
 10
-11.5337
 20
25.5039
 30
0
  0
SPLINE
  5
A84
330
A02
100
AcDbEntity
  8
Shape2DView008
100
AcDbSpline
210
0
220
0
230
1
 70
8
 71
2
 72
6
 73
3
 74
0
 40
0
 40
0
 40
0
 40
1
 40
1
 40
1
 10
-11.5337
 20
25.5039
 30
0
 10
-11.3947
 20
25.7109
 30
0
 10
-11.3947
 20
25.9905
 30
0
  0
SPLINE
  5
A85
330
A02
100
AcDbEntity
  8
Shape2DView008
100
AcDbSpline
210
0
220
0
230
1
 70
8
 71
2
 72
6
 73
3
 74
0
 40
0
 40
0
 40
0
 40
1
 40
1
 40
1
 10
-11.3947
 20
25.9905
 30
0
 10
-11.3947
 20
26.2954
 30
0
 10
-11.5416
 20
26.4771
 30
0
  0
SPLINE
  5
A86
330
A02
100
AcDbEntity
  8
Shape2DView008
100
AcDbSpline
210
0
220
0
230
1
 70
8
 71
2
 72
6
 73
3
 74
0
 40
0
 40
0
 40
0
 40
1
 40
1
 40
1
 10
-11.5416
 20
26.4771
 30
0
 10
-11.6885
 20
26.6603
 30
0
 10
-11.9681
 20
26.6603
 30
0
  0
SPLINE
  5
A87
330
A02
100
AcDbEntity
  8
Shape2DView008
100
AcDbSpline
210
0
220
0
230
1
 70
8
 71
2
 72
6
 73
3
 74
0
 40
0
 40
0
 40
0
 40
1
 40
1
 40
1
 10
-11.9681
 20
26.6603
 30
0
 10
-12.164
 20
26.6603
 30
0
 10
-12.2967
 20
26.5513
 30
0
  0
SPLINE
  5
A88
330
A02
100
AcDbEntity
  8
Shape2DView008
100
AcDbSpline
210
0
220
0
230
1
 70
8
 71
2
 72
6
 73
3
 74
0
 40
0
 40
0
 40
0
 40
1
 40
1
 40
1
 10
-12.2967
 20
26.5513
 30
0
 10
-12.431
 20
26.4423
 30
0
 10
-12.521
 20
26.2669
 30
0
  0
SPLINE
  5
A89
330
A02
100
AcDbEntity
  8
Shape2DView008
100
AcDbSpline
210
0
220
0
230
1
 70
8
 71
2
 72
6
 73
3
 74
0
 40
0
 40
0
 40
0
 40
1
 40
1
 40
1
 10
-12.521
 20
26.2669
 30
0
 10
-12.6127
 20
26.0916
 30
0
 10
-12.6853
 20
25.8925
 30
0
  0
SPLINE
  5
A8A
330
A02
100
AcDbEntity
  8
Shape2DView008
100
AcDbSpline
210
0
220
0
230
1
 70
8
 71
2
 72
6
 73
3
 74
0
 40
0
 40
0
 40
0
 40
1
 40
1
 40
1
 10
-12.6853
 20
25.8925
 30
0
 10
-12.7517
 20
25.7156
 30
0
 10
-12.8307
 20
25.5387
 30
0
  0
SPLINE
  5
A8B
330
A02
100
AcDbEntity
  8
Shape2DView008
100
AcDbSpline
210
0
220
0
230
1
 70
8
 71
2
 72
6
 73
3
 74
0
 40
0
 40
0
 40
0
 40
1
 40
1
 40
1
 10
-12.8307
 20
25.5387
 30
0
 10
-12.9112
 20
25.3617
 30
0
 10
-13.0218
 20
25.2164
 30
0
  0
SPLINE
  5
A8C
330
A02
100
AcDbEntity
  8
Shape2DView008
100
AcDbSpline
210
0
220
0
230
1
 70
8
 71
2
 72
6
 73
3
 74
0
 40
0
 40
0
 40
0
 40
1
 40
1
 40
1
 10
-13.0218
 20
25.2164
 30
0
 10
-13.1324
 20
25.0726
 30
0
 10
-13.2904
 20
24.9857
 30
0
  0
SPLINE
  5
A8D
330
A02
100
AcDbEntity
  8
Shape2DView008
100
AcDbSpline
210
0
220
0
230
1
 70
8
 71
2
 72
6
 73
3
 74
0
 40
0
 40
0
 40
0
 40
1
 40
1
 40
1
 10
-13.2904
 20
24.9857
 30
0
 10
-13.4499
 20
24.8989
 30
0
 10
-13.6711
 20
24.8989
 30
0
  0
SPLINE
  5
A8E
330
A02
100
AcDbEntity
  8
Shape2DView008
100
AcDbSpline
210
0
220
0
230
1
 70
8
 71
2
 72
6
 73
3
 74
0
 40
0
 40
0
 40
0
 40
1
 40
1
 40
1
 10
-13.6711
 20
24.8989
 30
0
 10
-13.8986
 20
24.8989
 30
0
 10
-14.0882
 20
25.0221
 30
0
  0
SPLINE
  5
A8F
330
A02
100
AcDbEntity
  8
Shape2DView008
100
AcDbSpline
210
0
220
0
230
1
 70
8
 71
2
 72
6
 73
3
 74
0
 40
0
 40
0
 40
0
 40
1
 40
1
 40
1
 10
-14.0882
 20
25.0221
 30
0
 10
-14.2793
 20
25.1453
 30
0
 10
-14.3947
 20
25.3775
 30
0
  0
SPLINE
  5
A90
330
A02
100
AcDbEntity
  8
Shape2DView008
100
AcDbSpline
210
0
220
0
230
1
 70
8
 71
2
 72
6
 73
3
 74
0
 40
0
 40
0
 40
0
 40
1
 40
1
 40
1
 10
-14.3947
 20
25.3775
 30
0
 10
-14.51
 20
25.6113
 30
0
 10
-14.51
 20
25.9415
 30
0
  0
SPLINE
  5
A91
330
A02
100
AcDbEntity
  8
Shape2DView008
100
AcDbSpline
210
0
220
0
230
1
 70
8
 71
2
 72
6
 73
3
 74
0
 40
0
 40
0
 40
0
 40
1
 40
1
 40
1
 10
-14.51
 20
25.9415
 30
0
 10
-14.51
 20
26.2117
 30
0
 10
-14.431
 20
26.4154
 30
0
  0
SPLINE
  5
A92
330
A02
100
AcDbEntity
  8
Shape2DView008
100
AcDbSpline
210
0
220
0
230
1
 70
8
 71
2
 72
6
 73
3
 74
0
 40
0
 40
0
 40
0
 40
1
 40
1
 40
1
 10
-14.431
 20
26.4154
 30
0
 10
-14.352
 20
26.6208
 30
0
 10
-14.2146
 20
26.7535
 30
0
  0
SPLINE
  5
A93
330
A02
100
AcDbEntity
  8
Shape2DView008
100
AcDbSpline
210
0
220
0
230
1
 70
8
 71
2
 72
6
 73
3
 74
0
 40
0
 40
0
 40
0
 40
1
 40
1
 40
1
 10
-14.2146
 20
26.7535
 30
0
 10
-14.0787
 20
26.8862
 30
0
 10
-13.9033
 20
26.9368
 30
0
  0
LINE
  5
A94
330
A02
100
AcDbEntity
  8
Shape2DView008
100
AcDbLine
 10
-13.9033
 20
26.9368
 30
0
 11
-13.7722
 21
26.5481
 31
0
  0
SPLINE
  5
A95
330
A02
100
AcDbEntity
  8
Shape2DView008
100
AcDbSpline
210
0
220
0
230
1
 70
8
 71
2
 72
6
 73
3
 74
0
 40
0
 40
0
 40
0
 40
1
 40
1
 40
1
 10
-13.7722
 20
26.5481
 30
0
 10
-13.916
 20
26.4881
 30
0
 10
-14.0155
 20
26.3254
 30
0
  0
SPLINE
  5
A96
330
A02
100
AcDbEntity
  8
Shape2DView008
100
AcDbSpline
210
0
220
0
230
1
 70
8
 71
2
 72
6
 73
3
 74
0
 40
0
 40
0
 40
0
 40
1
 40
1
 40
1
 10
-14.0155
 20
26.3254
 30
0
 10
-14.1166
 20
26.1643
 30
0
 10
-14.1166
 20
25.9131
 30
0
  0
SPLINE
  5
A97
330
A02
100
AcDbEntity
  8
Shape2DView008
100
AcDbSpline
210
0
220
0
230
1
 70
8
 71
2
 72
6
 73
3
 74
0
 40
0
 40
0
 40
0
 40
1
 40
1
 40
1
 10
-14.1166
 20
25.9131
 30
0
 10
-14.1166
 20
25.6429
 30
0
 10
-13.9981
 20
25.4881
 30
0
  0
SPLINE
  5
A98
330
A02
100
AcDbEntity
  8
Shape2DView008
100
AcDbSpline
210
0
220
0
230
1
 70
8
 71
2
 72
6
 73
3
 74
0
 40
0
 40
0
 40
0
 40
1
 40
1
 40
1
 10
-13.9981
 20
25.4881
 30
0
 10
-13.8796
 20
25.3349
 30
0
 10
-13.6711
 20
25.3349
 30
0
  0
SPLINE
  5
A99
330
A02
100
AcDbEntity
  8
Shape2DView008
100
AcDbSpline
210
0
220
0
230
1
 70
8
 71
2
 72
6
 73
3
 74
0
 40
0
 40
0
 40
0
 40
1
 40
1
 40
1
 10
-13.6711
 20
25.3349
 30
0
 10
-13.5131
 20
25.3349
 30
0
 10
-13.4073
 20
25.4376
 30
0
  0
SPLINE
  5
A9A
330
A02
100
AcDbEntity
  8
Shape2DView008
100
AcDbSpline
210
0
220
0
230
1
 70
8
 71
2
 72
6
 73
3
 74
0
 40
0
 40
0
 40
0
 40
1
 40
1
 40
1
 10
-13.4073
 20
25.4376
 30
0
 10
-13.3014
 20
25.5418
 30
0
 10
-13.224
 20
25.7093
 30
0
  0
SPLINE
  5
A9B
330
A02
100
AcDbEntity
  8
Shape2DView008
100
AcDbSpline
210
0
220
0
230
1
 70
8
 71
2
 72
6
 73
3
 74
0
 40
0
 40
0
 40
0
 40
1
 40
1
 40
1
 10
-13.224
 20
25.7093
 30
0
 10
-13.1466
 20
25.8767
 30
0
 10
-13.074
 20
26.0679
 30
0
  0
SPLINE
  5
A9C
330
A02
100
AcDbEntity
  8
Shape2DView008
100
AcDbSpline
210
0
220
0
230
1
 70
8
 71
2
 72
6
 73
3
 74
0
 40
0
 40
0
 40
0
 40
1
 40
1
 40
1
 10
-13.074
 20
26.0679
 30
0
 10
-13.006
 20
26.248
 30
0
 10
-12.9191
 20
26.4281
 30
0
  0
SPLINE
  5
A9D
330
A02
100
AcDbEntity
  8
Shape2DView008
100
AcDbSpline
210
0
220
0
230
1
 70
8
 71
2
 72
6
 73
3
 74
0
 40
0
 40
0
 40
0
 40
1
 40
1
 40
1
 10
-12.9191
 20
26.4281
 30
0
 10
-12.8338
 20
26.6098
 30
0
 10
-12.709
 20
26.7614
 30
0
  0
SPLINE
  5
A9E
330
A02
100
AcDbEntity
  8
Shape2DView008
100
AcDbSpline
210
0
220
0
230
1
 70
8
 71
2
 72
6
 73
3
 74
0
 40
0
 40
0
 40
0
 40
1
 40
1
 40
1
 10
-12.709
 20
26.7614
 30
0
 10
-12.5858
 20
26.9131
 30
0
 10
-12.4073
 20
27.0047
 30
0
  0
SPLINE
  5
A9F
330
A02
100
AcDbEntity
  8
Shape2DView008
100
AcDbSpline
210
0
220
0
230
1
 70
8
 71
2
 72
6
 73
3
 74
0
 40
0
 40
0
 40
0
 40
1
 40
1
 40
1
 10
-12.4073
 20
27.0047
 30
0
 10
-12.2288
 20
27.0963
 30
0
 10
-11.9776
 20
27.0963
 30
0
  0
SPLINE
  5
AA0
330
A02
100
AcDbEntity
  8
Shape2DView008
100
AcDbSpline
210
0
220
0
230
1
 70
8
 71
2
 72
6
 73
3
 74
0
 40
0
 40
0
 40
0
 40
1
 40
1
 40
1
 10
-11.9776
 20
27.0963
 30
0
 10
-11.6648
 20
27.0963
 30
0
 10
-11.4452
 20
26.951
 30
0
  0
SPLINE
  5
AA1
330
A02
100
AcDbEntity
  8
Shape2DView008
100
AcDbSpline
210
0
220
0
230
1
 70
8
 71
2
 72
6
 73
3
 74
0
 40
0
 40
0
 40
0
 40
1
 40
1
 40
1
 10
-11.4452
 20
26.951
 30
0
 10
-11.2272
 20
26.8056
 30
0
 10
-11.1119
 20
26.5529
 30
0
  0
SPLINE
  5
AA2
330
A02
100
AcDbEntity
  8
Shape2DView008
100
AcDbSpline
210
0
220
0
230
1
 70
8
 71
2
 72
6
 73
3
 74
0
 40
0
 40
0
 40
0
 40
1
 40
1
 40
1
 10
-11.1119
 20
26.5529
 30
0
 10
-10.9965
 20
26.3001
 30
0
 10
-10.9965
 20
25.981
 30
0
  0
LINE
  5
AA3
330
A02
100
AcDbEntity
  8
Shape2DView008
100
AcDbLine
 10
-11.055
 20
27.9226
 30
0
 11
-14.4515
 21
27.9226
 31
0
  0
LINE
  5
AA4
330
A02
100
AcDbEntity
  8
Shape2DView008
100
AcDbLine
 10
-14.4515
 20
27.9226
 30
0
 11
-14.4515
 21
29.9415
 31
0
  0
LINE
  5
AA5
330
A02
100
AcDbEntity
  8
Shape2DView008
100
AcDbLine
 10
-14.4515
 20
29.9415
 30
0
 11
-14.0534
 21
29.9415
 31
0
  0
LINE
  5
AA6
330
A02
100
AcDbEntity
  8
Shape2DView008
100
AcDbLine
 10
-14.0534
 20
29.9415
 30
0
 11
-14.0534
 21
28.3444
 31
0
  0
LINE
  5
AA7
330
A02
100
AcDbEntity
  8
Shape2DView008
100
AcDbLine
 10
-14.0534
 20
28.3444
 30
0
 11
-13.0108
 21
28.3444
 31
0
  0
LINE
  5
AA8
330
A02
100
AcDbEntity
  8
Shape2DView008
100
AcDbLine
 10
-13.0108
 20
28.3444
 30
0
 11
-13.0108
 21
29.3981
 31
0
  0
LINE
  5
AA9
330
A02
100
AcDbEntity
  8
Shape2DView008
100
AcDbLine
 10
-13.0108
 20
29.3981
 30
0
 11
-12.6127
 21
29.3981
 31
0
  0
LINE
  5
AAA
330
A02
100
AcDbEntity
  8
Shape2DView008
100
AcDbLine
 10
-12.6127
 20
29.3981
 30
0
 11
-12.6127
 21
28.3444
 31
0
  0
LINE
  5
AAB
330
A02
100
AcDbEntity
  8
Shape2DView008
100
AcDbLine
 10
-12.6127
 20
28.3444
 30
0
 11
-11.4578
 21
28.3444
 31
0
  0
LINE
  5
AAC
330
A02
100
AcDbEntity
  8
Shape2DView008
100
AcDbLine
 10
-11.4578
 20
28.3444
 30
0
 11
-11.4578
 21
30.0489
 31
0
  0
LINE
  5
AAD
330
A02
100
AcDbEntity
  8
Shape2DView008
100
AcDbLine
 10
-11.4578
 20
30.0489
 30
0
 11
-11.055
 21
30.0489
 31
0
  0
LINE
  5
AAE
330
A02
100
AcDbEntity
  8
Shape2DView008
100
AcDbLine
 10
-11.055
 20
30.0489
 30
0
 11
-11.055
 21
27.9226
 31
0
  0
LINE
  5
AAF
330
A02
100
AcDbEntity
  8
Shape2DView008
100
AcDbLine
 10
-11.055
 20
30.8546
 30
0
 11
-14.4515
 21
30.8546
 31
0
  0
LINE
  5
AB0
330
A02
100
AcDbEntity
  8
Shape2DView008
100
AcDbLine
 10
-14.4515
 20
30.8546
 30
0
 11
-14.4515
 21
31.2812
 31
0
  0
LINE
  5
AB1
330
A02
100
AcDbEntity
  8
Shape2DView008
100
AcDbLine
 10
-14.4515
 20
31.2812
 30
0
 11
-12.036
 21
32.7867
 31
0
  0
SPLINE
  5
AB2
330
A02
100
AcDbEntity
  8
Shape2DView008
100
AcDbSpline
210
0
220
0
230
1
 70
8
 71
1
 72
4
 73
2
 74
0
 40
0
 40
0
 40
1
 40
1
 10
-12.036
 20
32.7867
 30
0
 10
-11.9128
 20
32.8562
 30
0
  0
SPLINE
  5
AB3
330
A02
100
AcDbEntity
  8
Shape2DView008
100
AcDbSpline
210
0
220
0
230
1
 70
8
 71
2
 72
6
 73
3
 74
0
 40
0
 40
0
 40
0
 40
1
 40
1
 40
1
 10
-11.9128
 20
32.8562
 30
0
 10
-11.8528
 20
32.891
 30
0
 10
-11.7833
 20
32.9273
 30
0
  0
SPLINE
  5
AB4
330
A02
100
AcDbEntity
  8
Shape2DView008
100
AcDbSpline
210
0
220
0
230
1
 70
8
 71
1
 72
4
 73
2
 74
0
 40
0
 40
0
 40
1
 40
1
 10
-11.7833
 20
32.9273
 30
0
 10
-11.9097
 20
32.921
 30
0
  0
SPLINE
  5
AB5
330
A02
100
AcDbEntity
  8
Shape2DView008
100
AcDbSpline
210
0
220
0
230
1
 70
8
 71
2
 72
6
 73
3
 74
0
 40
0
 40
0
 40
0
 40
1
 40
1
 40
1
 10
-11.9097
 20
32.921
 30
0
 10
-11.9729
 20
32.9178
 30
0
 10
-12.0297
 20
32.9178
 30
0
  0
LINE
  5
AB6
330
A02
100
AcDbEntity
  8
Shape2DView008
100
AcDbLine
 10
-12.0297
 20
32.9178
 30
0
 11
-14.4515
 21
32.9178
 31
0
  0
LINE
  5
AB7
330
A02
100
AcDbEntity
  8
Shape2DView008
100
AcDbLine
 10
-14.4515
 20
32.9178
 30
0
 11
-14.4515
 21
33.3396
 31
0
  0
LINE
  5
AB8
330
A02
100
AcDbEntity
  8
Shape2DView008
100
AcDbLine
 10
-14.4515
 20
33.3396
 30
0
 11
-11.055
 21
33.3396
 31
0
  0
LINE
  5
AB9
330
A02
100
AcDbEntity
  8
Shape2DView008
100
AcDbLine
 10
-11.055
 20
33.3396
 30
0
 11
-11.055
 21
32.932
 31
0
  0
LINE
  5
ABA
330
A02
100
AcDbEntity
  8
Shape2DView008
100
AcDbLine
 10
-11.055
 20
32.932
 30
0
 11
-13.4815
 21
31.4028
 31
0
  0
SPLINE
  5
ABB
330
A02
100
AcDbEntity
  8
Shape2DView008
100
AcDbSpline
210
0
220
0
230
1
 70
8
 71
2
 72
6
 73
3
 74
0
 40
0
 40
0
 40
0
 40
1
 40
1
 40
1
 10
-13.4815
 20
31.4028
 30
0
 10
-13.5368
 20
31.3712
 30
0
 10
-13.5969
 20
31.3365
 30
0
  0
SPLINE
  5
ABC
330
A02
100
AcDbEntity
  8
Shape2DView008
100
AcDbSpline
210
0
220
0
230
1
 70
8
 71
1
 72
4
 73
2
 74
0
 40
0
 40
0
 40
1
 40
1
 10
-13.5969
 20
31.3365
 30
0
 10
-13.7201
 20
31.2669
 30
0
  0
SPLINE
  5
ABD
330
A02
100
AcDbEntity
  8
Shape2DView008
100
AcDbSpline
210
0
220
0
230
1
 70
8
 71
2
 72
6
 73
3
 74
0
 40
0
 40
0
 40
0
 40
1
 40
1
 40
1
 10
-13.7201
 20
31.2669
 30
0
 10
-13.6664
 20
31.2717
 30
0
 10
-13.6032
 20
31.2733
 30
0
  0
SPLINE
  5
ABE
330
A02
100
AcDbEntity
  8
Shape2DView008
100
AcDbSpline
210
0
220
0
230
1
 70
8
 71
2
 72
6
 73
3
 74
0
 40
0
 40
0
 40
0
 40
1
 40
1
 40
1
 10
-13.6032
 20
31.2733
 30
0
 10
-13.54
 20
31.2764
 30
0
 10
-13.4815
 20
31.2764
 30
0
  0
LINE
  5
ABF
330
A02
100
AcDbEntity
  8
Shape2DView008
100
AcDbLine
 10
-13.4815
 20
31.2764
 30
0
 11
-11.055
 21
31.2764
 31
0
  0
LINE
  5
AC0
330
A02
100
AcDbEntity
  8
Shape2DView008
100
AcDbLine
 10
-11.055
 20
31.2764
 30
0
 11
-11.055
 21
30.8546
 31
0
  0
CIRCLE
  5
AC1
330
A02
100
AcDbEntity
  8
Shape2DView008
100
AcDbCircle
 10
-7
 20
34.72
 40
2.35
  0
SPLINE
  5
AC2
330
A02
100
AcDbEntity
  8
Shape2DView008
100
AcDbSpline
210
0
220
0
230
1
 70
8
 71
2
 72
6
 73
3
 74
0
 40
0
 40
0
 40
0
 40
1
 40
1
 40
1
 10
-10.9965
 20
35.2827
 30
0
 10
-10.9965
 20
34.9857
 30
0
 10
-11.0945
 20
34.7456
 30
0
  0
SPLINE
  5
AC3
330
A02
100
AcDbEntity
  8
Shape2DView008
100
AcDbSpline
210
0
220
0
230
1
 70
8
 71
2
 72
6
 73
3
 74
0
 40
0
 40
0
 40
0
 40
1
 40
1
 40
1
 10
-11.0945
 20
34.7456
 30
0
 10
-11.194
 20
34.5055
 30
0
 10
-11.3646
 20
34.3396
 30
0
  0
SPLINE
  5
AC4
330
A02
100
AcDbEntity
  8
Shape2DView008
100
AcDbSpline
210
0
220
0
230
1
 70
8
 71
2
 72
6
 73
3
 74
0
 40
0
 40
0
 40
0
 40
1
 40
1
 40
1
 10
-11.3646
 20
34.3396
 30
0
 10
-11.5353
 20
34.1737
 30
0
 10
-11.7533
 20
34.0979
 30
0
  0
LINE
  5
AC5
330
A02
100
AcDbEntity
  8
Shape2DView008
100
AcDbLine
 10
-11.7533
 20
34.0979
 30
0
 11
-11.9002
 21
34.496
 31
0
  0
SPLINE
  5
AC6
330
A02
100
AcDbEntity
  8
Shape2DView008
100
AcDbSpline
210
0
220
0
230
1
 70
8
 71
2
 72
6
 73
3
 74
0
 40
0
 40
0
 40
0
 40
1
 40
1
 40
1
 10
-11.9002
 20
34.496
 30
0
 10
-11.6743
 20
34.5987
 30
0
 10
-11.5337
 20
34.8056
 30
0
  0
SPLINE
  5
AC7
330
A02
100
AcDbEntity
  8
Shape2DView008
100
AcDbSpline
210
0
220
0
230
1
 70
8
 71
2
 72
6
 73
3
 74
0
 40
0
 40
0
 40
0
 40
1
 40
1
 40
1
 10
-11.5337
 20
34.8056
 30
0
 10
-11.3947
 20
35.0126
 30
0
 10
-11.3947
 20
35.2922
 30
0
  0
SPLINE
  5
AC8
330
A02
100
AcDbEntity
  8
Shape2DView008
100
AcDbSpline
210
0
220
0
230
1
 70
8
 71
2
 72
6
 73
3
 74
0
 40
0
 40
0
 40
0
 40
1
 40
1
 40
1
 10
-11.3947
 20
35.2922
 30
0
 10
-11.3947
 20
35.5971
 30
0
 10
-11.5416
 20
35.7788
 30
0
  0
SPLINE
  5
AC9
330
A02
100
AcDbEntity
  8
Shape2DView008
100
AcDbSpline
210
0
220
0
230
1
 70
8
 71
2
 72
6
 73
3
 74
0
 40
0
 40
0
 40
0
 40
1
 40
1
 40
1
 10
-11.5416
 20
35.7788
 30
0
 10
-11.6885
 20
35.962
 30
0
 10
-11.9681
 20
35.962
 30
0
  0
SPLINE
  5
ACA
330
A02
100
AcDbEntity
  8
Shape2DView008
100
AcDbSpline
210
0
220
0
230
1
 70
8
 71
2
 72
6
 73
3
 74
0
 40
0
 40
0
 40
0
 40
1
 40
1
 40
1
 10
-11.9681
 20
35.962
 30
0
 10
-12.164
 20
35.962
 30
0
 10
-12.2967
 20
35.853
 30
0
  0
SPLINE
  5
ACB
330
A02
100
AcDbEntity
  8
Shape2DView008
100
AcDbSpline
210
0
220
0
230
1
 70
8
 71
2
 72
6
 73
3
 74
0
 40
0
 40
0
 40
0
 40
1
 40
1
 40
1
 10
-12.2967
 20
35.853
 30
0
 10
-12.431
 20
35.744
 30
0
 10
-12.521
 20
35.5687
 30
0
  0
SPLINE
  5
ACC
330
A02
100
AcDbEntity
  8
Shape2DView008
100
AcDbSpline
210
0
220
0
230
1
 70
8
 71
2
 72
6
 73
3
 74
0
 40
0
 40
0
 40
0
 40
1
 40
1
 40
1
 10
-12.521
 20
35.5687
 30
0
 10
-12.6127
 20
35.3933
 30
0
 10
-12.6853
 20
35.1943
 30
0
  0
SPLINE
  5
ACD
330
A02
100
AcDbEntity
  8
Shape2DView008
100
AcDbSpline
210
0
220
0
230
1
 70
8
 71
2
 72
6
 73
3
 74
0
 40
0
 40
0
 40
0
 40
1
 40
1
 40
1
 10
-12.6853
 20
35.1943
 30
0
 10
-12.7517
 20
35.0173
 30
0
 10
-12.8307
 20
34.8404
 30
0
  0
SPLINE
  5
ACE
330
A02
100
AcDbEntity
  8
Shape2DView008
100
AcDbSpline
210
0
220
0
230
1
 70
8
 71
2
 72
6
 73
3
 74
0
 40
0
 40
0
 40
0
 40
1
 40
1
 40
1
 10
-12.8307
 20
34.8404
 30
0
 10
-12.9112
 20
34.6635
 30
0
 10
-13.0218
 20
34.5181
 30
0
  0
SPLINE
  5
ACF
330
A02
100
AcDbEntity
  8
Shape2DView008
100
AcDbSpline
210
0
220
0
230
1
 70
8
 71
2
 72
6
 73
3
 74
0
 40
0
 40
0
 40
0
 40
1
 40
1
 40
1
 10
-13.0218
 20
34.5181
 30
0
 10
-13.1324
 20
34.3744
 30
0
 10
-13.2904
 20
34.2875
 30
0
  0
SPLINE
  5
AD0
330
A02
100
AcDbEntity
  8
Shape2DView008
100
AcDbSpline
210
0
220
0
230
1
 70
8
 71
2
 72
6
 73
3
 74
0
 40
0
 40
0
 40
0
 40
1
 40
1
 40
1
 10
-13.2904
 20
34.2875
 30
0
 10
-13.4499
 20
34.2006
 30
0
 10
-13.6711
 20
34.2006
 30
0
  0
SPLINE
  5
AD1
330
A02
100
AcDbEntity
  8
Shape2DView008
100
AcDbSpline
210
0
220
0
230
1
 70
8
 71
2
 72
6
 73
3
 74
0
 40
0
 40
0
 40
0
 40
1
 40
1
 40
1
 10
-13.6711
 20
34.2006
 30
0
 10
-13.8986
 20
34.2006
 30
0
 10
-14.0882
 20
34.3238
 30
0
  0
SPLINE
  5
AD2
330
A02
100
AcDbEntity
  8
Shape2DView008
100
AcDbSpline
210
0
220
0
230
1
 70
8
 71
2
 72
6
 73
3
 74
0
 40
0
 40
0
 40
0
 40
1
 40
1
 40
1
 10
-14.0882
 20
34.3238
 30
0
 10
-14.2793
 20
34.447
 30
0
 10
-14.3947
 20
34.6793
 30
0
  0
SPLINE
  5
AD3
330
A02
100
AcDbEntity
  8
Shape2DView008
100
AcDbSpline
210
0
220
0
230
1
 70
8
 71
2
 72
6
 73
3
 74
0
 40
0
 40
0
 40
0
 40
1
 40
1
 40
1
 10
-14.3947
 20
34.6793
 30
0
 10
-14.51
 20
34.9131
 30
0
 10
-14.51
 20
35.2432
 30
0
  0
SPLINE
  5
AD4
330
A02
100
AcDbEntity
  8
Shape2DView008
100
AcDbSpline
210
0
220
0
230
1
 70
8
 71
2
 72
6
 73
3
 74
0
 40
0
 40
0
 40
0
 40
1
 40
1
 40
1
 10
-14.51
 20
35.2432
 30
0
 10
-14.51
 20
35.5134
 30
0
 10
-14.431
 20
35.7172
 30
0
  0
SPLINE
  5
AD5
330
A02
100
AcDbEntity
  8
Shape2DView008
100
AcDbSpline
210
0
220
0
230
1
 70
8
 71
2
 72
6
 73
3
 74
0
 40
0
 40
0
 40
0
 40
1
 40
1
 40
1
 10
-14.431
 20
35.7172
 30
0
 10
-14.352
 20
35.9226
 30
0
 10
-14.2146
 20
36.0553
 30
0
  0
SPLINE
  5
AD6
330
A02
100
AcDbEntity
  8
Shape2DView008
100
AcDbSpline
210
0
220
0
230
1
 70
8
 71
2
 72
6
 73
3
 74
0
 40
0
 40
0
 40
0
 40
1
 40
1
 40
1
 10
-14.2146
 20
36.0553
 30
0
 10
-14.0787
 20
36.188
 30
0
 10
-13.9033
 20
36.2385
 30
0
  0
LINE
  5
AD7
330
A02
100
AcDbEntity
  8
Shape2DView008
100
AcDbLine
 10
-13.9033
 20
36.2385
 30
0
 11
-13.7722
 21
35.8499
 31
0
  0
SPLINE
  5
AD8
330
A02
100
AcDbEntity
  8
Shape2DView008
100
AcDbSpline
210
0
220
0
230
1
 70
8
 71
2
 72
6
 73
3
 74
0
 40
0
 40
0
 40
0
 40
1
 40
1
 40
1
 10
-13.7722
 20
35.8499
 30
0
 10
-13.916
 20
35.7898
 30
0
 10
-14.0155
 20
35.6271
 30
0
  0
SPLINE
  5
AD9
330
A02
100
AcDbEntity
  8
Shape2DView008
100
AcDbSpline
210
0
220
0
230
1
 70
8
 71
2
 72
6
 73
3
 74
0
 40
0
 40
0
 40
0
 40
1
 40
1
 40
1
 10
-14.0155
 20
35.6271
 30
0
 10
-14.1166
 20
35.466
 30
0
 10
-14.1166
 20
35.2148
 30
0
  0
SPLINE
  5
ADA
330
A02
100
AcDbEntity
  8
Shape2DView008
100
AcDbSpline
210
0
220
0
230
1
 70
8
 71
2
 72
6
 73
3
 74
0
 40
0
 40
0
 40
0
 40
1
 40
1
 40
1
 10
-14.1166
 20
35.2148
 30
0
 10
-14.1166
 20
34.9447
 30
0
 10
-13.9981
 20
34.7898
 30
0
  0
SPLINE
  5
ADB
330
A02
100
AcDbEntity
  8
Shape2DView008
100
AcDbSpline
210
0
220
0
230
1
 70
8
 71
2
 72
6
 73
3
 74
0
 40
0
 40
0
 40
0
 40
1
 40
1
 40
1
 10
-13.9981
 20
34.7898
 30
0
 10
-13.8796
 20
34.6366
 30
0
 10
-13.6711
 20
34.6366
 30
0
  0
SPLINE
  5
ADC
330
A02
100
AcDbEntity
  8
Shape2DView008
100
AcDbSpline
210
0
220
0
230
1
 70
8
 71
2
 72
6
 73
3
 74
0
 40
0
 40
0
 40
0
 40
1
 40
1
 40
1
 10
-13.6711
 20
34.6366
 30
0
 10
-13.5131
 20
34.6366
 30
0
 10
-13.4073
 20
34.7393
 30
0
  0
SPLINE
  5
ADD
330
A02
100
AcDbEntity
  8
Shape2DView008
100
AcDbSpline
210
0
220
0
230
1
 70
8
 71
2
 72
6
 73
3
 74
0
 40
0
 40
0
 40
0
 40
1
 40
1
 40
1
 10
-13.4073
 20
34.7393
 30
0
 10
-13.3014
 20
34.8436
 30
0
 10
-13.224
 20
35.011
 30
0
  0
SPLINE
  5
ADE
330
A02
100
AcDbEntity
  8
Shape2DView008
100
AcDbSpline
210
0
220
0
230
1
 70
8
 71
2
 72
6
 73
3
 74
0
 40
0
 40
0
 40
0
 40
1
 40
1
 40
1
 10
-13.224
 20
35.011
 30
0
 10
-13.1466
 20
35.1785
 30
0
 10
-13.074
 20
35.3696
 30
0
  0
SPLINE
  5
ADF
330
A02
100
AcDbEntity
  8
Shape2DView008
100
AcDbSpline
210
0
220
0
230
1
 70
8
 71
2
 72
6
 73
3
 74
0
 40
0
 40
0
 40
0
 40
1
 40
1
 40
1
 10
-13.074
 20
35.3696
 30
0
 10
-13.006
 20
35.5497
 30
0
 10
-12.9191
 20
35.7298
 30
0
  0
SPLINE
  5
AE0
330
A02
100
AcDbEntity
  8
Shape2DView008
100
AcDbSpline
210
0
220
0
230
1
 70
8
 71
2
 72
6
 73
3
 74
0
 40
0
 40
0
 40
0
 40
1
 40
1
 40
1
 10
-12.9191
 20
35.7298
 30
0
 10
-12.8338
 20
35.9115
 30
0
 10
-12.709
 20
36.0632
 30
0
  0
SPLINE
  5
AE1
330
A02
100
AcDbEntity
  8
Shape2DView008
100
AcDbSpline
210
0
220
0
230
1
 70
8
 71
2
 72
6
 73
3
 74
0
 40
0
 40
0
 40
0
 40
1
 40
1
 40
1
 10
-12.709
 20
36.0632
 30
0
 10
-12.5858
 20
36.2148
 30
0
 10
-12.4073
 20
36.3064
 30
0
  0
SPLINE
  5
AE2
330
A02
100
AcDbEntity
  8
Shape2DView008
100
AcDbSpline
210
0
220
0
230
1
 70
8
 71
2
 72
6
 73
3
 74
0
 40
0
 40
0
 40
0
 40
1
 40
1
 40
1
 10
-12.4073
 20
36.3064
 30
0
 10
-12.2288
 20
36.3981
 30
0
 10
-11.9776
 20
36.3981
 30
0
  0
SPLINE
  5
AE3
330
A02
100
AcDbEntity
  8
Shape2DView008
100
AcDbSpline
210
0
220
0
230
1
 70
8
 71
2
 72
6
 73
3
 74
0
 40
0
 40
0
 40
0
 40
1
 40
1
 40
1
 10
-11.9776
 20
36.3981
 30
0
 10
-11.6648
 20
36.3981
 30
0
 10
-11.4452
 20
36.2527
 30
0
  0
SPLINE
  5
AE4
330
A02
100
AcDbEntity
  8
Shape2DView008
100
AcDbSpline
210
0
220
0
230
1
 70
8
 71
2
 72
6
 73
3
 74
0
 40
0
 40
0
 40
0
 40
1
 40
1
 40
1
 10
-11.4452
 20
36.2527
 30
0
 10
-11.2272
 20
36.1074
 30
0
 10
-11.1119
 20
35.8546
 30
0
  0
SPLINE
  5
AE5
330
A02
100
AcDbEntity
  8
Shape2DView008
100
AcDbSpline
210
0
220
0
230
1
 70
8
 71
2
 72
6
 73
3
 74
0
 40
0
 40
0
 40
0
 40
1
 40
1
 40
1
 10
-11.1119
 20
35.8546
 30
0
 10
-10.9965
 20
35.6019
 30
0
 10
-10.9965
 20
35.2827
 30
0
  0
SPLINE
  5
AE6
330
A02
100
AcDbEntity
  8
Shape2DView008
100
AcDbSpline
210
0
220
0
230
1
 70
8
 71
2
 72
6
 73
3
 74
0
 40
0
 40
0
 40
0
 40
1
 40
1
 40
1
 10
-10.9965
 20
38.5197
 30
0
 10
-10.9965
 20
38.12
 30
0
 10
-11.1498
 20
37.8436
 30
0
  0
SPLINE
  5
AE7
330
A02
100
AcDbEntity
  8
Shape2DView008
100
AcDbSpline
210
0
220
0
230
1
 70
8
 71
2
 72
6
 73
3
 74
0
 40
0
 40
0
 40
0
 40
1
 40
1
 40
1
 10
-11.1498
 20
37.8436
 30
0
 10
-11.3046
 20
37.5671
 30
0
 10
-11.5605
 20
37.3996
 30
0
  0
SPLINE
  5
AE8
330
A02
100
AcDbEntity
  8
Shape2DView008
100
AcDbSpline
210
0
220
0
230
1
 70
8
 71
2
 72
6
 73
3
 74
0
 40
0
 40
0
 40
0
 40
1
 40
1
 40
1
 10
-11.5605
 20
37.3996
 30
0
 10
-11.8165
 20
37.2322
 30
0
 10
-12.1277
 20
37.1548
 30
0
  0
SPLINE
  5
AE9
330
A02
100
AcDbEntity
  8
Shape2DView008
100
AcDbSpline
210
0
220
0
230
1
 70
8
 71
2
 72
6
 73
3
 74
0
 40
0
 40
0
 40
0
 40
1
 40
1
 40
1
 10
-12.1277
 20
37.1548
 30
0
 10
-12.4389
 20
37.0789
 30
0
 10
-12.7533
 20
37.0789
 30
0
  0
SPLINE
  5
AEA
330
A02
100
AcDbEntity
  8
Shape2DView008
100
AcDbSpline
210
0
220
0
230
1
 70
8
 71
2
 72
6
 73
3
 74
0
 40
0
 40
0
 40
0
 40
1
 40
1
 40
1
 10
-12.7533
 20
37.0789
 30
0
 10
-13.0692
 20
37.0789
 30
0
 10
-13.3789
 20
37.1548
 30
0
  0
SPLINE
  5
AEB
330
A02
100
AcDbEntity
  8
Shape2DView008
100
AcDbSpline
210
0
220
0
230
1
 70
8
 71
2
 72
6
 73
3
 74
0
 40
0
 40
0
 40
0
 40
1
 40
1
 40
1
 10
-13.3789
 20
37.1548
 30
0
 10
-13.6901
 20
37.2322
 30
0
 10
-13.946
 20
37.3996
 30
0
  0
SPLINE
  5
AEC
330
A02
100
AcDbEntity
  8
Shape2DView008
100
AcDbSpline
210
0
220
0
230
1
 70
8
 71
2
 72
6
 73
3
 74
0
 40
0
 40
0
 40
0
 40
1
 40
1
 40
1
 10
-13.946
 20
37.3996
 30
0
 10
-14.2019
 20
37.5671
 30
0
 10
-14.3552
 20
37.8436
 30
0
  0
SPLINE
  5
AED
330
A02
100
AcDbEntity
  8
Shape2DView008
100
AcDbSpline
210
0
220
0
230
1
 70
8
 71
2
 72
6
 73
3
 74
0
 40
0
 40
0
 40
0
 40
1
 40
1
 40
1
 10
-14.3552
 20
37.8436
 30
0
 10
-14.51
 20
38.12
 30
0
 10
-14.51
 20
38.5197
 30
0
  0
SPLINE
  5
AEE
330
A02
100
AcDbEntity
  8
Shape2DView008
100
AcDbSpline
210
0
220
0
230
1
 70
8
 71
2
 72
6
 73
3
 74
0
 40
0
 40
0
 40
0
 40
1
 40
1
 40
1
 10
-14.51
 20
38.5197
 30
0
 10
-14.51
 20
38.9226
 30
0
 10
-14.3552
 20
39.199
 30
0
  0
SPLINE
  5
AEF
330
A02
100
AcDbEntity
  8
Shape2DView008
100
AcDbSpline
210
0
220
0
230
1
 70
8
 71
2
 72
6
 73
3
 74
0
 40
0
 40
0
 40
0
 40
1
 40
1
 40
1
 10
-14.3552
 20
39.199
 30
0
 10
-14.2019
 20
39.4755
 30
0
 10
-13.946
 20
39.6429
 30
0
  0
SPLINE
  5
AF0
330
A02
100
AcDbEntity
  8
Shape2DView008
100
AcDbSpline
210
0
220
0
230
1
 70
8
 71
2
 72
6
 73
3
 74
0
 40
0
 40
0
 40
0
 40
1
 40
1
 40
1
 10
-13.946
 20
39.6429
 30
0
 10
-13.6901
 20
39.8104
 30
0
 10
-13.3789
 20
39.8862
 30
0
  0
SPLINE
  5
AF1
330
A02
100
AcDbEntity
  8
Shape2DView008
100
AcDbSpline
210
0
220
0
230
1
 70
8
 71
2
 72
6
 73
3
 74
0
 40
0
 40
0
 40
0
 40
1
 40
1
 40
1
 10
-13.3789
 20
39.8862
 30
0
 10
-13.0692
 20
39.962
 30
0
 10
-12.7533
 20
39.962
 30
0
  0
SPLINE
  5
AF2
330
A02
100
AcDbEntity
  8
Shape2DView008
100
AcDbSpline
210
0
220
0
230
1
 70
8
 71
2
 72
6
 73
3
 74
0
 40
0
 40
0
 40
0
 40
1
 40
1
 40
1
 10
-12.7533
 20
39.962
 30
0
 10
-12.4389
 20
39.962
 30
0
 10
-12.1277
 20
39.8862
 30
0
  0
SPLINE
  5
AF3
330
A02
100
AcDbEntity
  8
Shape2DView008
100
AcDbSpline
210
0
220
0
230
1
 70
8
 71
2
 72
6
 73
3
 74
0
 40
0
 40
0
 40
0
 40
1
 40
1
 40
1
 10
-12.1277
 20
39.8862
 30
0
 10
-11.8165
 20
39.8104
 30
0
 10
-11.5605
 20
39.6429
 30
0
  0
SPLINE
  5
AF4
330
A02
100
AcDbEntity
  8
Shape2DView008
100
AcDbSpline
210
0
220
0
230
1
 70
8
 71
2
 72
6
 73
3
 74
0
 40
0
 40
0
 40
0
 40
1
 40
1
 40
1
 10
-11.5605
 20
39.6429
 30
0
 10
-11.3046
 20
39.4755
 30
0
 10
-11.1498
 20
39.199
 30
0
  0
SPLINE
  5
AF5
330
A02
100
AcDbEntity
  8
Shape2DView008
100
AcDbSpline
210
0
220
0
230
1
 70
8
 71
2
 72
6
 73
3
 74
0
 40
0
 40
0
 40
0
 40
1
 40
1
 40
1
 10
-11.1498
 20
39.199
 30
0
 10
-10.9965
 20
38.9226
 30
0
 10
-10.9965
 20
38.5197
 30
0
  0
LINE
  5
AF6
330
A02
100
AcDbEntity
  8
Shape2DView008
100
AcDbLine
 10
-11.055
 20
40.763
 30
0
 11
-14.4515
 21
40.763
 31
0
  0
LINE
  5
AF7
330
A02
100
AcDbEntity
  8
Shape2DView008
100
AcDbLine
 10
-14.4515
 20
40.763
 30
0
 11
-14.4515
 21
42.1026
 31
0
  0
SPLINE
  5
AF8
330
A02
100
AcDbEntity
  8
Shape2DView008
100
AcDbSpline
210
0
220
0
230
1
 70
8
 71
2
 72
6
 73
3
 74
0
 40
0
 40
0
 40
0
 40
1
 40
1
 40
1
 10
-14.4515
 20
42.1026
 30
0
 10
-14.4515
 20
42.5102
 30
0
 10
-14.3109
 20
42.744
 30
0
  0
SPLINE
  5
AF9
330
A02
100
AcDbEntity
  8
Shape2DView008
100
AcDbSpline
210
0
220
0
230
1
 70
8
 71
2
 72
6
 73
3
 74
0
 40
0
 40
0
 40
0
 40
1
 40
1
 40
1
 10
-14.3109
 20
42.744
 30
0
 10
-14.1703
 20
42.9778
 30
0
 10
-13.9476
 20
43.0758
 30
0
  0
SPLINE
  5
AFA
330
A02
100
AcDbEntity
  8
Shape2DView008
100
AcDbSpline
210
0
220
0
230
1
 70
8
 71
2
 72
6
 73
3
 74
0
 40
0
 40
0
 40
0
 40
1
 40
1
 40
1
 10
-13.9476
 20
43.0758
 30
0
 10
-13.7264
 20
43.1753
 30
0
 10
-13.4863
 20
43.1753
 30
0
  0
SPLINE
  5
AFB
330
A02
100
AcDbEntity
  8
Shape2DView008
100
AcDbSpline
210
0
220
0
230
1
 70
8
 71
2
 72
6
 73
3
 74
0
 40
0
 40
0
 40
0
 40
1
 40
1
 40
1
 10
-13.4863
 20
43.1753
 30
0
 10
-13.2856
 20
43.1753
 30
0
 10
-13.0898
 20
43.0963
 30
0
  0
SPLINE
  5
AFC
330
A02
100
AcDbEntity
  8
Shape2DView008
100
AcDbSpline
210
0
220
0
230
1
 70
8
 71
2
 72
6
 73
3
 74
0
 40
0
 40
0
 40
0
 40
1
 40
1
 40
1
 10
-13.0898
 20
43.0963
 30
0
 10
-12.8939
 20
43.0173
 30
0
 10
-12.7454
 20
42.842
 30
0
  0
SPLINE
  5
AFD
330
A02
100
AcDbEntity
  8
Shape2DView008
100
AcDbSpline
210
0
220
0
230
1
 70
8
 71
2
 72
6
 73
3
 74
0
 40
0
 40
0
 40
0
 40
1
 40
1
 40
1
 10
-12.7454
 20
42.842
 30
0
 10
-12.5984
 20
42.6682
 30
0
 10
-12.54
 20
42.3838
 30
0
  0
LINE
  5
AFE
330
A02
100
AcDbEntity
  8
Shape2DView008
100
AcDbLine
 10
-12.54
 20
42.3838
 30
0
 11
-11.055
 21
43.1121
 31
0
  0
LINE
  5
AFF
330
A02
100
AcDbEntity
  8
Shape2DView008
100
AcDbLine
 10
-11.055
 20
43.1121
 30
0
 11
-11.055
 21
42.6366
 31
0
  0
LINE
  5
B00
330
A02
100
AcDbEntity
  8
Shape2DView008
100
AcDbLine
 10
-11.055
 20
42.6366
 30
0
 11
-12.5116
 21
41.9368
 31
0
  0
LINE
  5
B01
330
A02
100
AcDbEntity
  8
Shape2DView008
100
AcDbLine
 10
-12.5116
 20
41.9368
 30
0
 11
-12.5116
 21
41.1848
 31
0
  0
LINE
  5
B02
330
A02
100
AcDbEntity
  8
Shape2DView008
100
AcDbLine
 10
-12.5116
 20
41.1848
 30
0
 11
-11.055
 21
41.1848
 31
0
  0
LINE
  5
B03
330
A02
100
AcDbEntity
  8
Shape2DView008
100
AcDbLine
 10
-11.055
 20
41.1848
 30
0
 11
-11.055
 21
40.763
 31
0
  0
CIRCLE
  5
B04
330
A02
100
AcDbEntity
  8
Shape2DView008
100
AcDbCircle
 10
-25.6
 20
35.7
 40
8
  0
LINE
  5
B05
330
A02
100
AcDbEntity
  8
Shape2DView008
100
AcDbLine
 10
-14.4515
 20
4.02682
 30
0
 11
-14.4515
 21
4.4186
 31
0
  0
LINE
  5
B06
330
A02
100
AcDbEntity
  8
Shape2DView008
100
AcDbLine
 10
-14.4515
 20
6.38701
 30
0
 11
-14.4515
 21
8.42966
 31
0
  0
LINE
  5
B07
330
A02
100
AcDbEntity
  8
Shape2DView008
100
AcDbLine
 10
-13.0108
 20
6.80881
 30
0
 11
-13.0108
 21
7.88148
 31
0
  0
LINE
  5
B08
330
A02
100
AcDbEntity
  8
Shape2DView008
100
AcDbLine
 10
-11.7533
 20
8.92255
 30
0
 11
-11.9002
 21
9.32066
 31
0
  0
SPLINE
  5
B09
330
A02
100
AcDbEntity
  8
Shape2DView008
100
AcDbSpline
210
0
220
0
230
1
 70
8
 71
2
 72
6
 73
3
 74
0
 40
0
 40
0
 40
0
 40
1
 40
1
 40
1
 10
-11.9002
 20
9.32066
 30
0
 10
-11.6743
 20
9.42334
 30
0
 10
-11.5337
 20
9.63029
 30
0
  0
SPLINE
  5
B0A
330
A02
100
AcDbEntity
  8
Shape2DView008
100
AcDbSpline
210
0
220
0
230
1
 70
8
 71
2
 72
6
 73
3
 74
0
 40
0
 40
0
 40
0
 40
1
 40
1
 40
1
 10
-11.5337
 20
9.63029
 30
0
 10
-11.3947
 20
9.83724
 30
0
 10
-11.3947
 20
10.1169
 30
0
  0
SPLINE
  5
B0B
330
A02
100
AcDbEntity
  8
Shape2DView008
100
AcDbSpline
210
0
220
0
230
1
 70
8
 71
2
 72
6
 73
3
 74
0
 40
0
 40
0
 40
0
 40
1
 40
1
 40
1
 10
-11.3947
 20
10.1169
 30
0
 10
-11.3947
 20
10.4218
 30
0
 10
-11.5416
 20
10.6034
 30
0
  0
SPLINE
  5
B0C
330
A02
100
AcDbEntity
  8
Shape2DView008
100
AcDbSpline
210
0
220
0
230
1
 70
8
 71
2
 72
6
 73
3
 74
0
 40
0
 40
0
 40
0
 40
1
 40
1
 40
1
 10
-13.6711
 20
9.02524
 30
0
 10
-13.8986
 20
9.02524
 30
0
 10
-14.0882
 20
9.14846
 30
0
  0
SPLINE
  5
B0D
330
A02
100
AcDbEntity
  8
Shape2DView008
100
AcDbSpline
210
0
220
0
230
1
 70
8
 71
2
 72
6
 73
3
 74
0
 40
0
 40
0
 40
0
 40
1
 40
1
 40
1
 10
-14.0882
 20
9.14846
 30
0
 10
-14.2793
 20
9.27168
 30
0
 10
-14.3947
 20
9.50391
 30
0
  0
SPLINE
  5
B0E
330
A02
100
AcDbEntity
  8
Shape2DView008
100
AcDbSpline
210
0
220
0
230
1
 70
8
 71
2
 72
6
 73
3
 74
0
 40
0
 40
0
 40
0
 40
1
 40
1
 40
1
 10
-14.3947
 20
9.50391
 30
0
 10
-14.51
 20
9.73772
 30
0
 10
-14.51
 20
10.0679
 30
0
  0
SPLINE
  5
B0F
330
A02
100
AcDbEntity
  8
Shape2DView008
100
AcDbSpline
210
0
220
0
230
1
 70
8
 71
2
 72
6
 73
3
 74
0
 40
0
 40
0
 40
0
 40
1
 40
1
 40
1
 10
-14.51
 20
10.0679
 30
0
 10
-14.51
 20
10.338
 30
0
 10
-14.431
 20
10.5418
 30
0
  0
SPLINE
  5
B10
330
A02
100
AcDbEntity
  8
Shape2DView008
100
AcDbSpline
210
0
220
0
230
1
 70
8
 71
2
 72
6
 73
3
 74
0
 40
0
 40
0
 40
0
 40
1
 40
1
 40
1
 10
-14.431
 20
10.5418
 30
0
 10
-14.352
 20
10.7472
 30
0
 10
-14.2146
 20
10.8799
 30
0
  0
SPLINE
  5
B11
330
A02
100
AcDbEntity
  8
Shape2DView008
100
AcDbSpline
210
0
220
0
230
1
 70
8
 71
2
 72
6
 73
3
 74
0
 40
0
 40
0
 40
0
 40
1
 40
1
 40
1
 10
-14.2146
 20
10.8799
 30
0
 10
-14.0787
 20
11.0126
 30
0
 10
-13.9033
 20
11.0632
 30
0
  0
SPLINE
  5
B12
330
A02
100
AcDbEntity
  8
Shape2DView008
100
AcDbSpline
210
0
220
0
230
1
 70
8
 71
2
 72
6
 73
3
 74
0
 40
0
 40
0
 40
0
 40
1
 40
1
 40
1
 10
-13.6711
 20
9.46126
 30
0
 10
-13.5131
 20
9.46126
 30
0
 10
-13.4073
 20
9.56394
 30
0
  0
SPLINE
  5
B13
330
A02
100
AcDbEntity
  8
Shape2DView008
100
AcDbSpline
210
0
220
0
230
1
 70
8
 71
2
 72
6
 73
3
 74
0
 40
0
 40
0
 40
0
 40
1
 40
1
 40
1
 10
-13.4073
 20
9.56394
 30
0
 10
-13.3014
 20
9.66821
 30
0
 10
-13.224
 20
9.83566
 30
0
  0
SPLINE
  5
B14
330
A02
100
AcDbEntity
  8
Shape2DView008
100
AcDbSpline
210
0
220
0
230
1
 70
8
 71
2
 72
6
 73
3
 74
0
 40
0
 40
0
 40
0
 40
1
 40
1
 40
1
 10
-13.224
 20
9.83566
 30
0
 10
-13.1466
 20
10.0031
 30
0
 10
-13.074
 20
10.1943
 30
0
  0
SPLINE
  5
B15
330
A02
100
AcDbEntity
  8
Shape2DView008
100
AcDbSpline
210
0
220
0
230
1
 70
8
 71
2
 72
6
 73
3
 74
0
 40
0
 40
0
 40
0
 40
1
 40
1
 40
1
 10
-13.074
 20
10.1943
 30
0
 10
-13.006
 20
10.3744
 30
0
 10
-12.9191
 20
10.5545
 30
0
  0
SPLINE
  5
B16
330
A02
100
AcDbEntity
  8
Shape2DView008
100
AcDbSpline
210
0
220
0
230
1
 70
8
 71
2
 72
6
 73
3
 74
0
 40
0
 40
0
 40
0
 40
1
 40
1
 40
1
 10
-12.9191
 20
10.5545
 30
0
 10
-12.8338
 20
10.7361
 30
0
 10
-12.709
 20
10.8878
 30
0
  0
SPLINE
  5
B17
330
A02
100
AcDbEntity
  8
Shape2DView008
100
AcDbSpline
210
0
220
0
230
1
 70
8
 71
2
 72
6
 73
3
 74
0
 40
0
 40
0
 40
0
 40
1
 40
1
 40
1
 10
-12.709
 20
10.8878
 30
0
 10
-12.5858
 20
11.0395
 30
0
 10
-12.4073
 20
11.1311
 30
0
  0
LINE
  5
B18
330
A02
100
AcDbEntity
  8
Shape2DView008
100
AcDbLine
 10
-14.4515
 20
11.8309
 30
0
 11
-14.4515
 21
14.1453
 31
0
  0
LINE
  5
B19
330
A02
100
AcDbEntity
  8
Shape2DView008
100
AcDbLine
 10
-14.4515
 20
15.8562
 30
0
 11
-14.4515
 21
16.248
 31
0
  0
LINE
  5
B1A
330
A02
100
AcDbEntity
  8
Shape2DView008
100
AcDbLine
 10
-14.4515
 20
18.2164
 30
0
 11
-14.4515
 21
18.6429
 31
0
  0
LINE
  5
B1B
330
A02
100
AcDbEntity
  8
Shape2DView008
100
AcDbLine
 10
-14.4515
 20
18.6429
 30
0
 11
-12.036
 21
20.1485
 31
0
  0
SPLINE
  5
B1C
330
A02
100
AcDbEntity
  8
Shape2DView008
100
AcDbSpline
210
0
220
0
230
1
 70
8
 71
1
 72
4
 73
2
 74
0
 40
0
 40
0
 40
1
 40
1
 10
-12.036
 20
20.1485
 30
0
 10
-11.9128
 20
20.218
 30
0
  0
SPLINE
  5
B1D
330
A02
100
AcDbEntity
  8
Shape2DView008
100
AcDbSpline
210
0
220
0
230
1
 70
8
 71
2
 72
6
 73
3
 74
0
 40
0
 40
0
 40
0
 40
1
 40
1
 40
1
 10
-11.9128
 20
20.218
 30
0
 10
-11.8528
 20
20.2527
 30
0
 10
-11.7833
 20
20.2891
 30
0
  0
LINE
  5
B1E
330
A02
100
AcDbEntity
  8
Shape2DView008
100
AcDbLine
 10
-14.4515
 20
20.2796
 30
0
 11
-14.4515
 21
20.7014
 31
0
  0
LINE
  5
B1F
330
A02
100
AcDbEntity
  8
Shape2DView008
100
AcDbLine
 10
-14.4515
 20
21.654
 30
0
 11
-14.4515
 21
22.5813
 31
0
  0
SPLINE
  5
B20
330
A02
100
AcDbEntity
  8
Shape2DView008
100
AcDbSpline
210
0
220
0
230
1
 70
8
 71
2
 72
6
 73
3
 74
0
 40
0
 40
0
 40
0
 40
1
 40
1
 40
1
 10
-14.4515
 20
22.5813
 30
0
 10
-14.4515
 20
23.0173
 30
0
 10
-14.3062
 20
23.3191
 30
0
  0
SPLINE
  5
B21
330
A02
100
AcDbEntity
  8
Shape2DView008
100
AcDbSpline
210
0
220
0
230
1
 70
8
 71
2
 72
6
 73
3
 74
0
 40
0
 40
0
 40
0
 40
1
 40
1
 40
1
 10
-14.3062
 20
23.3191
 30
0
 10
-14.1608
 20
23.6224
 30
0
 10
-13.916
 20
23.8056
 30
0
  0
SPLINE
  5
B22
330
A02
100
AcDbEntity
  8
Shape2DView008
100
AcDbSpline
210
0
220
0
230
1
 70
8
 71
2
 72
6
 73
3
 74
0
 40
0
 40
0
 40
0
 40
1
 40
1
 40
1
 10
-13.916
 20
23.8056
 30
0
 10
-13.6727
 20
23.9905
 30
0
 10
-13.371
 20
24.0742
 30
0
  0
LINE
  5
B23
330
A02
100
AcDbEntity
  8
Shape2DView008
100
AcDbLine
 10
-11.7533
 20
24.7962
 30
0
 11
-11.9002
 21
25.1943
 31
0
  0
SPLINE
  5
B24
330
A02
100
AcDbEntity
  8
Shape2DView008
100
AcDbSpline
210
0
220
0
230
1
 70
8
 71
2
 72
6
 73
3
 74
0
 40
0
 40
0
 40
0
 40
1
 40
1
 40
1
 10
-11.9002
 20
25.1943
 30
0
 10
-11.6743
 20
25.297
 30
0
 10
-11.5337
 20
25.5039
 30
0
  0
SPLINE
  5
B25
330
A02
100
AcDbEntity
  8
Shape2DView008
100
AcDbSpline
210
0
220
0
230
1
 70
8
 71
2
 72
6
 73
3
 74
0
 40
0
 40
0
 40
0
 40
1
 40
1
 40
1
 10
-11.5337
 20
25.5039
 30
0
 10
-11.3947
 20
25.7109
 30
0
 10
-11.3947
 20
25.9905
 30
0
  0
SPLINE
  5
B26
330
A02
100
AcDbEntity
  8
Shape2DView008
100
AcDbSpline
210
0
220
0
230
1
 70
8
 71
2
 72
6
 73
3
 74
0
 40
0
 40
0
 40
0
 40
1
 40
1
 40
1
 10
-11.3947
 20
25.9905
 30
0
 10
-11.3947
 20
26.2954
 30
0
 10
-11.5416
 20
26.4771
 30
0
  0
SPLINE
  5
B27
330
A02
100
AcDbEntity
  8
Shape2DView008
100
AcDbSpline
210
0
220
0
230
1
 70
8
 71
2
 72
6
 73
3
 74
0
 40
0
 40
0
 40
0
 40
1
 40
1
 40
1
 10
-13.6711
 20
24.8989
 30
0
 10
-13.8986
 20
24.8989
 30
0
 10
-14.0882
 20
25.0221
 30
0
  0
SPLINE
  5
B28
330
A02
100
AcDbEntity
  8
Shape2DView008
100
AcDbSpline
210
0
220
0
230
1
 70
8
 71
2
 72
6
 73
3
 74
0
 40
0
 40
0
 40
0
 40
1
 40
1
 40
1
 10
-14.0882
 20
25.0221
 30
0
 10
-14.2793
 20
25.1453
 30
0
 10
-14.3947
 20
25.3775
 30
0
  0
SPLINE
  5
B29
330
A02
100
AcDbEntity
  8
Shape2DView008
100
AcDbSpline
210
0
220
0
230
1
 70
8
 71
2
 72
6
 73
3
 74
0
 40
0
 40
0
 40
0
 40
1
 40
1
 40
1
 10
-14.3947
 20
25.3775
 30
0
 10
-14.51
 20
25.6113
 30
0
 10
-14.51
 20
25.9415
 30
0
  0
SPLINE
  5
B2A
330
A02
100
AcDbEntity
  8
Shape2DView008
100
AcDbSpline
210
0
220
0
230
1
 70
8
 71
2
 72
6
 73
3
 74
0
 40
0
 40
0
 40
0
 40
1
 40
1
 40
1
 10
-14.51
 20
25.9415
 30
0
 10
-14.51
 20
26.2117
 30
0
 10
-14.431
 20
26.4154
 30
0
  0
SPLINE
  5
B2B
330
A02
100
AcDbEntity
  8
Shape2DView008
100
AcDbSpline
210
0
220
0
230
1
 70
8
 71
2
 72
6
 73
3
 74
0
 40
0
 40
0
 40
0
 40
1
 40
1
 40
1
 10
-14.431
 20
26.4154
 30
0
 10
-14.352
 20
26.6208
 30
0
 10
-14.2146
 20
26.7535
 30
0
  0
SPLINE
  5
B2C
330
A02
100
AcDbEntity
  8
Shape2DView008
100
AcDbSpline
210
0
220
0
230
1
 70
8
 71
2
 72
6
 73
3
 74
0
 40
0
 40
0
 40
0
 40
1
 40
1
 40
1
 10
-14.2146
 20
26.7535
 30
0
 10
-14.0787
 20
26.8862
 30
0
 10
-13.9033
 20
26.9368
 30
0
  0
SPLINE
  5
B2D
330
A02
100
AcDbEntity
  8
Shape2DView008
100
AcDbSpline
210
0
220
0
230
1
 70
8
 71
2
 72
6
 73
3
 74
0
 40
0
 40
0
 40
0
 40
1
 40
1
 40
1
 10
-13.6711
 20
25.3349
 30
0
 10
-13.5131
 20
25.3349
 30
0
 10
-13.4073
 20
25.4376
 30
0
  0
SPLINE
  5
B2E
330
A02
100
AcDbEntity
  8
Shape2DView008
100
AcDbSpline
210
0
220
0
230
1
 70
8
 71
2
 72
6
 73
3
 74
0
 40
0
 40
0
 40
0
 40
1
 40
1
 40
1
 10
-13.4073
 20
25.4376
 30
0
 10
-13.3014
 20
25.5418
 30
0
 10
-13.224
 20
25.7093
 30
0
  0
SPLINE
  5
B2F
330
A02
100
AcDbEntity
  8
Shape2DView008
100
AcDbSpline
210
0
220
0
230
1
 70
8
 71
2
 72
6
 73
3
 74
0
 40
0
 40
0
 40
0
 40
1
 40
1
 40
1
 10
-13.224
 20
25.7093
 30
0
 10
-13.1466
 20
25.8767
 30
0
 10
-13.074
 20
26.0679
 30
0
  0
SPLINE
  5
B30
330
A02
100
AcDbEntity
  8
Shape2DView008
100
AcDbSpline
210
0
220
0
230
1
 70
8
 71
2
 72
6
 73
3
 74
0
 40
0
 40
0
 40
0
 40
1
 40
1
 40
1
 10
-13.074
 20
26.0679
 30
0
 10
-13.006
 20
26.248
 30
0
 10
-12.9191
 20
26.4281
 30
0
  0
SPLINE
  5
B31
330
A02
100
AcDbEntity
  8
Shape2DView008
100
AcDbSpline
210
0
220
0
230
1
 70
8
 71
2
 72
6
 73
3
 74
0
 40
0
 40
0
 40
0
 40
1
 40
1
 40
1
 10
-12.9191
 20
26.4281
 30
0
 10
-12.8338
 20
26.6098
 30
0
 10
-12.709
 20
26.7614
 30
0
  0
SPLINE
  5
B32
330
A02
100
AcDbEntity
  8
Shape2DView008
100
AcDbSpline
210
0
220
0
230
1
 70
8
 71
2
 72
6
 73
3
 74
0
 40
0
 40
0
 40
0
 40
1
 40
1
 40
1
 10
-12.709
 20
26.7614
 30
0
 10
-12.5858
 20
26.9131
 30
0
 10
-12.4073
 20
27.0047
 30
0
  0
LINE
  5
B33
330
A02
100
AcDbEntity
  8
Shape2DView008
100
AcDbLine
 10
-14.4515
 20
27.9226
 30
0
 11
-14.4515
 21
29.9415
 31
0
  0
LINE
  5
B34
330
A02
100
AcDbEntity
  8
Shape2DView008
100
AcDbLine
 10
-13.0108
 20
28.3444
 30
0
 11
-13.0108
 21
29.3981
 31
0
  0
LINE
  5
B35
330
A02
100
AcDbEntity
  8
Shape2DView008
100
AcDbLine
 10
-11.4578
 20
28.3444
 30
0
 11
-11.4578
 21
30.0489
 31
0
  0
LINE
  5
B36
330
A02
100
AcDbEntity
  8
Shape2DView008
100
AcDbLine
 10
-14.4515
 20
30.8546
 30
0
 11
-14.4515
 21
31.2812
 31
0
  0
LINE
  5
B37
330
A02
100
AcDbEntity
  8
Shape2DView008
100
AcDbLine
 10
-14.4515
 20
31.2812
 30
0
 11
-12.036
 21
32.7867
 31
0
  0
SPLINE
  5
B38
330
A02
100
AcDbEntity
  8
Shape2DView008
100
AcDbSpline
210
0
220
0
230
1
 70
8
 71
1
 72
4
 73
2
 74
0
 40
0
 40
0
 40
1
 40
1
 10
-12.036
 20
32.7867
 30
0
 10
-11.9128
 20
32.8562
 30
0
  0
SPLINE
  5
B39
330
A02
100
AcDbEntity
  8
Shape2DView008
100
AcDbSpline
210
0
220
0
230
1
 70
8
 71
2
 72
6
 73
3
 74
0
 40
0
 40
0
 40
0
 40
1
 40
1
 40
1
 10
-11.9128
 20
32.8562
 30
0
 10
-11.8528
 20
32.891
 30
0
 10
-11.7833
 20
32.9273
 30
0
  0
LINE
  5
B3A
330
A02
100
AcDbEntity
  8
Shape2DView008
100
AcDbLine
 10
-14.4515
 20
32.9178
 30
0
 11
-14.4515
 21
33.3396
 31
0
  0
LINE
  5
B3B
330
A02
100
AcDbEntity
  8
Shape2DView008
100
AcDbLine
 10
-11.7533
 20
34.0979
 30
0
 11
-11.9002
 21
34.496
 31
0
  0
SPLINE
  5
B3C
330
A02
100
AcDbEntity
  8
Shape2DView008
100
AcDbSpline
210
0
220
0
230
1
 70
8
 71
2
 72
6
 73
3
 74
0
 40
0
 40
0
 40
0
 40
1
 40
1
 40
1
 10
-11.9002
 20
34.496
 30
0
 10
-11.6743
 20
34.5987
 30
0
 10
-11.5337
 20
34.8056
 30
0
  0
SPLINE
  5
B3D
330
A02
100
AcDbEntity
  8
Shape2DView008
100
AcDbSpline
210
0
220
0
230
1
 70
8
 71
2
 72
6
 73
3
 74
0
 40
0
 40
0
 40
0
 40
1
 40
1
 40
1
 10
-11.5337
 20
34.8056
 30
0
 10
-11.3947
 20
35.0126
 30
0
 10
-11.3947
 20
35.2922
 30
0
  0
SPLINE
  5
B3E
330
A02
100
AcDbEntity
  8
Shape2DView008
100
AcDbSpline
210
0
220
0
230
1
 70
8
 71
2
 72
6
 73
3
 74
0
 40
0
 40
0
 40
0
 40
1
 40
1
 40
1
 10
-11.3947
 20
35.2922
 30
0
 10
-11.3947
 20
35.5971
 30
0
 10
-11.5416
 20
35.7788
 30
0
  0
SPLINE
  5
B3F
330
A02
100
AcDbEntity
  8
Shape2DView008
100
AcDbSpline
210
0
220
0
230
1
 70
8
 71
2
 72
6
 73
3
 74
0
 40
0
 40
0
 40
0
 40
1
 40
1
 40
1
 10
-13.6711
 20
34.2006
 30
0
 10
-13.8986
 20
34.2006
 30
0
 10
-14.0882
 20
34.3238
 30
0
  0
SPLINE
  5
B40
330
A02
100
AcDbEntity
  8
Shape2DView008
100
AcDbSpline
210
0
220
0
230
1
 70
8
 71
2
 72
6
 73
3
 74
0
 40
0
 40
0
 40
0
 40
1
 40
1
 40
1
 10
-14.0882
 20
34.3238
 30
0
 10
-14.2793
 20
34.447
 30
0
 10
-14.3947
 20
34.6793
 30
0
  0
SPLINE
  5
B41
330
A02
100
AcDbEntity
  8
Shape2DView008
100
AcDbSpline
210
0
220
0
230
1
 70
8
 71
2
 72
6
 73
3
 74
0
 40
0
 40
0
 40
0
 40
1
 40
1
 40
1
 10
-14.3947
 20
34.6793
 30
0
 10
-14.51
 20
34.9131
 30
0
 10
-14.51
 20
35.2432
 30
0
  0
SPLINE
  5
B42
330
A02
100
AcDbEntity
  8
Shape2DView008
100
AcDbSpline
210
0
220
0
230
1
 70
8
 71
2
 72
6
 73
3
 74
0
 40
0
 40
0
 40
0
 40
1
 40
1
 40
1
 10
-14.51
 20
35.2432
 30
0
 10
-14.51
 20
35.5134
 30
0
 10
-14.431
 20
35.7172
 30
0
  0
SPLINE
  5
B43
330
A02
100
AcDbEntity
  8
Shape2DView008
100
AcDbSpline
210
0
220
0
230
1
 70
8
 71
2
 72
6
 73
3
 74
0
 40
0
 40
0
 40
0
 40
1
 40
1
 40
1
 10
-14.431
 20
35.7172
 30
0
 10
-14.352
 20
35.9226
 30
0
 10
-14.2146
 20
36.0553
 30
0
  0
SPLINE
  5
B44
330
A02
100
AcDbEntity
  8
Shape2DView008
100
AcDbSpline
210
0
220
0
230
1
 70
8
 71
2
 72
6
 73
3
 74
0
 40
0
 40
0
 40
0
 40
1
 40
1
 40
1
 10
-14.2146
 20
36.0553
 30
0
 10
-14.0787
 20
36.188
 30
0
 10
-13.9033
 20
36.2385
 30
0
  0
SPLINE
  5
B45
330
A02
100
AcDbEntity
  8
Shape2DView008
100
AcDbSpline
210
0
220
0
230
1
 70
8
 71
2
 72
6
 73
3
 74
0
 40
0
 40
0
 40
0
 40
1
 40
1
 40
1
 10
-13.6711
 20
34.6366
 30
0
 10
-13.5131
 20
34.6366
 30
0
 10
-13.4073
 20
34.7393
 30
0
  0
SPLINE
  5
B46
330
A02
100
AcDbEntity
  8
Shape2DView008
100
AcDbSpline
210
0
220
0
230
1
 70
8
 71
2
 72
6
 73
3
 74
0
 40
0
 40
0
 40
0
 40
1
 40
1
 40
1
 10
-13.4073
 20
34.7393
 30
0
 10
-13.3014
 20
34.8436
 30
0
 10
-13.224
 20
35.011
 30
0
  0
SPLINE
  5
B47
330
A02
100
AcDbEntity
  8
Shape2DView008
100
AcDbSpline
210
0
220
0
230
1
 70
8
 71
2
 72
6
 73
3
 74
0
 40
0
 40
0
 40
0
 40
1
 40
1
 40
1
 10
-13.224
 20
35.011
 30
0
 10
-13.1466
 20
35.1785
 30
0
 10
-13.074
 20
35.3696
 30
0
  0
SPLINE
  5
B48
330
A02
100
AcDbEntity
  8
Shape2DView008
100
AcDbSpline
210
0
220
0
230
1
 70
8
 71
2
 72
6
 73
3
 74
0
 40
0
 40
0
 40
0
 40
1
 40
1
 40
1
 10
-13.074
 20
35.3696
 30
0
 10
-13.006
 20
35.5497
 30
0
 10
-12.9191
 20
35.7298
 30
0
  0
SPLINE
  5
B49
330
A02
100
AcDbEntity
  8
Shape2DView008
100
AcDbSpline
210
0
220
0
230
1
 70
8
 71
2
 72
6
 73
3
 74
0
 40
0
 40
0
 40
0
 40
1
 40
1
 40
1
 10
-12.9191
 20
35.7298
 30
0
 10
-12.8338
 20
35.9115
 30
0
 10
-12.709
 20
36.0632
 30
0
  0
SPLINE
  5
B4A
330
A02
100
AcDbEntity
  8
Shape2DView008
100
AcDbSpline
210
0
220
0
230
1
 70
8
 71
2
 72
6
 73
3
 74
0
 40
0
 40
0
 40
0
 40
1
 40
1
 40
1
 10
-12.709
 20
36.0632
 30
0
 10
-12.5858
 20
36.2148
 30
0
 10
-12.4073
 20
36.3064
 30
0
  0
SPLINE
  5
B4B
330
A02
100
AcDbEntity
  8
Shape2DView008
100
AcDbSpline
210
0
220
0
230
1
 70
8
 71
2
 72
6
 73
3
 74
0
 40
0
 40
0
 40
0
 40
1
 40
1
 40
1
 10
-13.3789
 20
37.1548
 30
0
 10
-13.6901
 20
37.2322
 30
0
 10
-13.946
 20
37.3996
 30
0
  0
SPLINE
  5
B4C
330
A02
100
AcDbEntity
  8
Shape2DView008
100
AcDbSpline
210
0
220
0
230
1
 70
8
 71
2
 72
6
 73
3
 74
0
 40
0
 40
0
 40
0
 40
1
 40
1
 40
1
 10
-13.946
 20
37.3996
 30
0
 10
-14.2019
 20
37.5671
 30
0
 10
-14.3552
 20
37.8436
 30
0
  0
SPLINE
  5
B4D
330
A02
100
AcDbEntity
  8
Shape2DView008
100
AcDbSpline
210
0
220
0
230
1
 70
8
 71
2
 72
6
 73
3
 74
0
 40
0
 40
0
 40
0
 40
1
 40
1
 40
1
 10
-14.3552
 20
37.8436
 30
0
 10
-14.51
 20
38.12
 30
0
 10
-14.51
 20
38.5197
 30
0
  0
SPLINE
  5
B4E
330
A02
100
AcDbEntity
  8
Shape2DView008
100
AcDbSpline
210
0
220
0
230
1
 70
8
 71
2
 72
6
 73
3
 74
0
 40
0
 40
0
 40
0
 40
1
 40
1
 40
1
 10
-14.51
 20
38.5197
 30
0
 10
-14.51
 20
38.9226
 30
0
 10
-14.3552
 20
39.199
 30
0
  0
SPLINE
  5
B4F
330
A02
100
AcDbEntity
  8
Shape2DView008
100
AcDbSpline
210
0
220
0
230
1
 70
8
 71
2
 72
6
 73
3
 74
0
 40
0
 40
0
 40
0
 40
1
 40
1
 40
1
 10
-14.3552
 20
39.199
 30
0
 10
-14.2019
 20
39.4755
 30
0
 10
-13.946
 20
39.6429
 30
0
  0
SPLINE
  5
B50
330
A02
100
AcDbEntity
  8
Shape2DView008
100
AcDbSpline
210
0
220
0
230
1
 70
8
 71
2
 72
6
 73
3
 74
0
 40
0
 40
0
 40
0
 40
1
 40
1
 40
1
 10
-13.946
 20
39.6429
 30
0
 10
-13.6901
 20
39.8104
 30
0
 10
-13.3789
 20
39.8862
 30
0
  0
LINE
  5
B51
330
A02
100
AcDbEntity
  8
Shape2DView008
100
AcDbLine
 10
-14.4515
 20
40.763
 30
0
 11
-14.4515
 21
42.1026
 31
0
  0
SPLINE
  5
B52
330
A02
100
AcDbEntity
  8
Shape2DView008
100
AcDbSpline
210
0
220
0
230
1
 70
8
 71
2
 72
6
 73
3
 74
0
 40
0
 40
0
 40
0
 40
1
 40
1
 40
1
 10
-14.4515
 20
42.1026
 30
0
 10
-14.4515
 20
42.5102
 30
0
 10
-14.3109
 20
42.744
 30
0
  0
SPLINE
  5
B53
330
A02
100
AcDbEntity
  8
Shape2DView008
100
AcDbSpline
210
0
220
0
230
1
 70
8
 71
2
 72
6
 73
3
 74
0
 40
0
 40
0
 40
0
 40
1
 40
1
 40
1
 10
-14.3109
 20
42.744
 30
0
 10
-14.1703
 20
42.9778
 30
0
 10
-13.9476
 20
43.0758
 30
0
  0
LINE
  5
B54
330
A02
100
AcDbEntity
  8
Shape2DView008
100
AcDbLine
 10
-12.2588
 20
3.67611
 30
0
 11
-12.2588
 21
4.76931
 31
0
  0
LINE
  5
B55
330
A02
100
AcDbEntity
  8
Shape2DView008
100
AcDbLine
 10
-12.2588
 20
15.5055
 30
0
 11
-12.2588
 21
16.5987
 31
0
  0
LINE
  5
B56
330
A02
100
AcDbEntity
  8
Shape2DView008
100
AcDbLine
 10
-11.4484
 20
22.0758
 30
0
 11
-11.4484
 21
22.6145
 31
0
  0
SPLINE
  5
B57
330
A02
100
AcDbEntity
  8
Shape2DView008
100
AcDbSpline
210
0
220
0
230
1
 70
8
 71
2
 72
6
 73
3
 74
0
 40
0
 40
0
 40
0
 40
1
 40
1
 40
1
 10
-11.8686
 20
23.485
 30
0
 10
-12.0597
 20
23.6129
 30
0
 10
-12.2904
 20
23.6666
 30
0
  0
SPLINE
  5
B58
330
A02
100
AcDbEntity
  8
Shape2DView008
100
AcDbSpline
210
0
220
0
230
1
 70
8
 71
2
 72
6
 73
3
 74
0
 40
0
 40
0
 40
0
 40
1
 40
1
 40
1
 10
-11.5637
 20
23.1453
 30
0
 10
-11.679
 20
23.357
 30
0
 10
-11.8686
 20
23.485
 30
0
  0
SPLINE
  5
B59
330
A02
100
AcDbEntity
  8
Shape2DView008
100
AcDbSpline
210
0
220
0
230
1
 70
8
 71
2
 72
6
 73
3
 74
0
 40
0
 40
0
 40
0
 40
1
 40
1
 40
1
 10
-11.4484
 20
22.6145
 30
0
 10
-11.4484
 20
22.9336
 30
0
 10
-11.5637
 20
23.1453
 30
0
  0
SPLINE
  5
B5A
330
A02
100
AcDbEntity
  8
Shape2DView008
100
AcDbSpline
210
0
220
0
230
1
 70
8
 71
2
 72
6
 73
3
 74
0
 40
0
 40
0
 40
0
 40
1
 40
1
 40
1
 10
-11.3947
 20
38.5197
 30
0
 10
-11.3947
 20
38.8009
 30
0
 10
-11.5179
 20
38.9921
 30
0
  0
SPLINE
  5
B5B
330
A02
100
AcDbEntity
  8
Shape2DView008
100
AcDbSpline
210
0
220
0
230
1
 70
8
 71
2
 72
6
 73
3
 74
0
 40
0
 40
0
 40
0
 40
1
 40
1
 40
1
 10
-11.51
 20
38.0489
 30
0
 10
-11.3947
 20
38.2417
 30
0
 10
-11.3947
 20
38.5197
 30
0
  0
SPLINE
  5
B5C
330
A02
100
AcDbEntity
  8
Shape2DView008
100
AcDbSpline
210
0
220
0
230
1
 70
8
 71
2
 72
6
 73
3
 74
0
 40
0
 40
0
 40
0
 40
1
 40
1
 40
1
 10
-11.8228
 20
37.7393
 30
0
 10
-11.6269
 20
37.8578
 30
0
 10
-11.51
 20
38.0489
 30
0
  0
SPLINE
  5
B5D
330
A02
100
AcDbEntity
  8
Shape2DView008
100
AcDbSpline
210
0
220
0
230
1
 70
8
 71
2
 72
6
 73
3
 74
0
 40
0
 40
0
 40
0
 40
1
 40
1
 40
1
 10
-12.262
 20
37.5687
 30
0
 10
-12.0202
 20
37.6224
 30
0
 10
-11.8228
 20
37.7393
 30
0
  0
SPLINE
  5
B5E
330
A02
100
AcDbEntity
  8
Shape2DView008
100
AcDbSpline
210
0
220
0
230
1
 70
8
 71
2
 72
6
 73
3
 74
0
 40
0
 40
0
 40
0
 40
1
 40
1
 40
1
 10
-11.5179
 20
38.9921
 30
0
 10
-11.6427
 20
39.1848
 30
0
 10
-11.8449
 20
39.3017
 30
0
  0
LINE
  5
B5F
330
A02
100
AcDbEntity
  8
Shape2DView008
100
AcDbLine
 10
-12.9033
 20
41.1848
 30
0
 11
-12.9033
 21
42.1121
 31
0
  0
SPLINE
  5
B60
330
A02
100
AcDbEntity
  8
Shape2DView008
100
AcDbSpline
210
0
220
0
230
1
 70
8
 71
2
 72
6
 73
3
 74
0
 40
0
 40
0
 40
0
 40
1
 40
1
 40
1
 10
-12.9886
 20
42.4897
 30
0
 10
-13.074
 20
42.6287
 30
0
 10
-13.2051
 20
42.6872
 30
0
  0
SPLINE
  5
B61
330
A02
100
AcDbEntity
  8
Shape2DView008
100
AcDbSpline
210
0
220
0
230
1
 70
8
 71
2
 72
6
 73
3
 74
0
 40
0
 40
0
 40
0
 40
1
 40
1
 40
1
 10
-12.9033
 20
42.1121
 30
0
 10
-12.9033
 20
42.3507
 30
0
 10
-12.9886
 20
42.4897
 30
0
  0
LINE
  5
B62
330
A02
100
AcDbEntity
  8
Shape2DView008
100
AcDbLine
 10
-12.2588
 20
3.67611
 30
0
 11
-12.2588
 21
4.76931
 31
0
  0
LINE
  5
B63
330
A02
100
AcDbEntity
  8
Shape2DView008
100
AcDbLine
 10
-13.5147
 20
4.11844
 30
0
 11
-12.2588
 21
3.67611
 31
0
  0
SPLINE
  5
B64
330
A02
100
AcDbEntity
  8
Shape2DView008
100
AcDbSpline
210
0
220
0
230
1
 70
8
 71
2
 72
6
 73
3
 74
0
 40
0
 40
0
 40
0
 40
1
 40
1
 40
1
 10
-13.6285
 20
4.15636
 30
0
 10
-13.5637
 20
4.13582
 30
0
 10
-13.5147
 20
4.11844
 30
0
  0
SPLINE
  5
B65
330
A02
100
AcDbEntity
  8
Shape2DView008
100
AcDbSpline
210
0
220
0
230
1
 70
8
 71
2
 72
6
 73
3
 74
0
 40
0
 40
0
 40
0
 40
1
 40
1
 40
1
 10
-13.7548
 20
4.19427
 30
0
 10
-13.6932
 20
4.1769
 30
0
 10
-13.6285
 20
4.15636
 30
0
  0
SPLINE
  5
B66
330
A02
100
AcDbEntity
  8
Shape2DView008
100
AcDbSpline
210
0
220
0
230
1
 70
8
 71
2
 72
6
 73
3
 74
0
 40
0
 40
0
 40
0
 40
1
 40
1
 40
1
 10
-13.8607
 20
4.22429
 30
0
 10
-13.8165
 20
4.21323
 30
0
 10
-13.7548
 20
4.19427
 30
0
  0
SPLINE
  5
B67
330
A02
100
AcDbEntity
  8
Shape2DView008
100
AcDbSpline
210
0
220
0
230
1
 70
8
 71
2
 72
6
 73
3
 74
0
 40
0
 40
0
 40
0
 40
1
 40
1
 40
1
 10
-13.7548
 20
4.2543
 30
0
 10
-13.8165
 20
4.23535
 30
0
 10
-13.8607
 20
4.22429
 30
0
  0
SPLINE
  5
B68
330
A02
100
AcDbEntity
  8
Shape2DView008
100
AcDbSpline
210
0
220
0
230
1
 70
8
 71
1
 72
4
 73
2
 74
0
 40
0
 40
0
 40
1
 40
1
 10
-13.6285
 20
4.2938
 30
0
 10
-13.7548
 20
4.2543
 30
0
  0
SPLINE
  5
B69
330
A02
100
AcDbEntity
  8
Shape2DView008
100
AcDbSpline
210
0
220
0
230
1
 70
8
 71
2
 72
6
 73
3
 74
0
 40
0
 40
0
 40
0
 40
1
 40
1
 40
1
 10
-13.5147
 20
4.33171
 30
0
 10
-13.5637
 20
4.31434
 30
0
 10
-13.6285
 20
4.2938
 30
0
  0
LINE
  5
B6A
330
A02
100
AcDbEntity
  8
Shape2DView008
100
AcDbLine
 10
-12.2588
 20
4.76931
 30
0
 11
-13.5147
 21
4.33171
 31
0
  0
LINE
  5
B6B
330
A02
100
AcDbEntity
  8
Shape2DView008
100
AcDbLine
 10
-12.2588
 20
15.5055
 30
0
 11
-12.2588
 21
16.5987
 31
0
  0
LINE
  5
B6C
330
A02
100
AcDbEntity
  8
Shape2DView008
100
AcDbLine
 10
-13.5147
 20
15.9478
 30
0
 11
-12.2588
 21
15.5055
 31
0
  0
SPLINE
  5
B6D
330
A02
100
AcDbEntity
  8
Shape2DView008
100
AcDbSpline
210
0
220
0
230
1
 70
8
 71
2
 72
6
 73
3
 74
0
 40
0
 40
0
 40
0
 40
1
 40
1
 40
1
 10
-13.6285
 20
15.9857
 30
0
 10
-13.5637
 20
15.9652
 30
0
 10
-13.5147
 20
15.9478
 30
0
  0
SPLINE
  5
B6E
330
A02
100
AcDbEntity
  8
Shape2DView008
100
AcDbSpline
210
0
220
0
230
1
 70
8
 71
2
 72
6
 73
3
 74
0
 40
0
 40
0
 40
0
 40
1
 40
1
 40
1
 10
-13.7548
 20
16.0237
 30
0
 10
-13.6932
 20
16.0063
 30
0
 10
-13.6285
 20
15.9857
 30
0
  0
SPLINE
  5
B6F
330
A02
100
AcDbEntity
  8
Shape2DView008
100
AcDbSpline
210
0
220
0
230
1
 70
8
 71
2
 72
6
 73
3
 74
0
 40
0
 40
0
 40
0
 40
1
 40
1
 40
1
 10
-13.8607
 20
16.0537
 30
0
 10
-13.8165
 20
16.0426
 30
0
 10
-13.7548
 20
16.0237
 30
0
  0
SPLINE
  5
B70
330
A02
100
AcDbEntity
  8
Shape2DView008
100
AcDbSpline
210
0
220
0
230
1
 70
8
 71
2
 72
6
 73
3
 74
0
 40
0
 40
0
 40
0
 40
1
 40
1
 40
1
 10
-13.7548
 20
16.0837
 30
0
 10
-13.8165
 20
16.0647
 30
0
 10
-13.8607
 20
16.0537
 30
0
  0
SPLINE
  5
B71
330
A02
100
AcDbEntity
  8
Shape2DView008
100
AcDbSpline
210
0
220
0
230
1
 70
8
 71
1
 72
4
 73
2
 74
0
 40
0
 40
0
 40
1
 40
1
 10
-13.6285
 20
16.1232
 30
0
 10
-13.7548
 20
16.0837
 30
0
  0
SPLINE
  5
B72
330
A02
100
AcDbEntity
  8
Shape2DView008
100
AcDbSpline
210
0
220
0
230
1
 70
8
 71
2
 72
6
 73
3
 74
0
 40
0
 40
0
 40
0
 40
1
 40
1
 40
1
 10
-13.5147
 20
16.1611
 30
0
 10
-13.5637
 20
16.1437
 30
0
 10
-13.6285
 20
16.1232
 30
0
  0
LINE
  5
B73
330
A02
100
AcDbEntity
  8
Shape2DView008
100
AcDbLine
 10
-12.2588
 20
16.5987
 30
0
 11
-13.5147
 21
16.1611
 31
0
  0
LINE
  5
B74
330
A02
100
AcDbEntity
  8
Shape2DView008
100
AcDbLine
 10
-11.4484
 20
22.0758
 30
0
 11
-11.4484
 21
22.6145
 31
0
  0
LINE
  5
B75
330
A02
100
AcDbEntity
  8
Shape2DView008
100
AcDbLine
 10
-14.0645
 20
22.0758
 30
0
 11
-11.4484
 21
22.0758
 31
0
  0
LINE
  5
B76
330
A02
100
AcDbEntity
  8
Shape2DView008
100
AcDbLine
 10
-14.0645
 20
22.6682
 30
0
 11
-14.0645
 21
22.0758
 31
0
  0
SPLINE
  5
B77
330
A02
100
AcDbEntity
  8
Shape2DView008
100
AcDbSpline
210
0
220
0
230
1
 70
8
 71
2
 72
6
 73
3
 74
0
 40
0
 40
0
 40
0
 40
1
 40
1
 40
1
 10
-13.9539
 20
23.1485
 30
0
 10
-14.0645
 20
22.9494
 30
0
 10
-14.0645
 20
22.6682
 30
0
  0
SPLINE
  5
B78
330
A02
100
AcDbEntity
  8
Shape2DView008
100
AcDbSpline
210
0
220
0
230
1
 70
8
 71
2
 72
6
 73
3
 74
0
 40
0
 40
0
 40
0
 40
1
 40
1
 40
1
 10
-13.6553
 20
23.4739
 30
0
 10
-13.8433
 20
23.3475
 30
0
 10
-13.9539
 20
23.1485
 30
0
  0
SPLINE
  5
B79
330
A02
100
AcDbEntity
  8
Shape2DView008
100
AcDbSpline
210
0
220
0
230
1
 70
8
 71
2
 72
6
 73
3
 74
0
 40
0
 40
0
 40
0
 40
1
 40
1
 40
1
 10
-13.2351
 20
23.6619
 30
0
 10
-13.4689
 20
23.6019
 30
0
 10
-13.6553
 20
23.4739
 30
0
  0
SPLINE
  5
B7A
330
A02
100
AcDbEntity
  8
Shape2DView008
100
AcDbSpline
210
0
220
0
230
1
 70
8
 71
2
 72
6
 73
3
 74
0
 40
0
 40
0
 40
0
 40
1
 40
1
 40
1
 10
-12.7533
 20
23.7219
 30
0
 10
-13.0013
 20
23.7219
 30
0
 10
-13.2351
 20
23.6619
 30
0
  0
SPLINE
  5
B7B
330
A02
100
AcDbEntity
  8
Shape2DView008
100
AcDbSpline
210
0
220
0
230
1
 70
8
 71
2
 72
6
 73
3
 74
0
 40
0
 40
0
 40
0
 40
1
 40
1
 40
1
 10
-12.2904
 20
23.6666
 30
0
 10
-12.5226
 20
23.7219
 30
0
 10
-12.7533
 20
23.7219
 30
0
  0
SPLINE
  5
B7C
330
A02
100
AcDbEntity
  8
Shape2DView008
100
AcDbSpline
210
0
220
0
230
1
 70
8
 71
2
 72
6
 73
3
 74
0
 40
0
 40
0
 40
0
 40
1
 40
1
 40
1
 10
-11.8686
 20
23.485
 30
0
 10
-12.0597
 20
23.6129
 30
0
 10
-12.2904
 20
23.6666
 30
0
  0
SPLINE
  5
B7D
330
A02
100
AcDbEntity
  8
Shape2DView008
100
AcDbSpline
210
0
220
0
230
1
 70
8
 71
2
 72
6
 73
3
 74
0
 40
0
 40
0
 40
0
 40
1
 40
1
 40
1
 10
-11.5637
 20
23.1453
 30
0
 10
-11.679
 20
23.357
 30
0
 10
-11.8686
 20
23.485
 30
0
  0
SPLINE
  5
B7E
330
A02
100
AcDbEntity
  8
Shape2DView008
100
AcDbSpline
210
0
220
0
230
1
 70
8
 71
2
 72
6
 73
3
 74
0
 40
0
 40
0
 40
0
 40
1
 40
1
 40
1
 10
-11.4484
 20
22.6145
 30
0
 10
-11.4484
 20
22.9336
 30
0
 10
-11.5637
 20
23.1453
 30
0
  0
SPLINE
  5
B7F
330
A02
100
AcDbEntity
  8
Shape2DView008
100
AcDbSpline
210
0
220
0
230
1
 70
8
 71
2
 72
6
 73
3
 74
0
 40
0
 40
0
 40
0
 40
1
 40
1
 40
1
 10
-11.3947
 20
38.5197
 30
0
 10
-11.3947
 20
38.8009
 30
0
 10
-11.5179
 20
38.9921
 30
0
  0
SPLINE
  5
B80
330
A02
100
AcDbEntity
  8
Shape2DView008
100
AcDbSpline
210
0
220
0
230
1
 70
8
 71
2
 72
6
 73
3
 74
0
 40
0
 40
0
 40
0
 40
1
 40
1
 40
1
 10
-11.51
 20
38.0489
 30
0
 10
-11.3947
 20
38.2417
 30
0
 10
-11.3947
 20
38.5197
 30
0
  0
SPLINE
  5
B81
330
A02
100
AcDbEntity
  8
Shape2DView008
100
AcDbSpline
210
0
220
0
230
1
 70
8
 71
2
 72
6
 73
3
 74
0
 40
0
 40
0
 40
0
 40
1
 40
1
 40
1
 10
-11.8228
 20
37.7393
 30
0
 10
-11.6269
 20
37.8578
 30
0
 10
-11.51
 20
38.0489
 30
0
  0
SPLINE
  5
B82
330
A02
100
AcDbEntity
  8
Shape2DView008
100
AcDbSpline
210
0
220
0
230
1
 70
8
 71
2
 72
6
 73
3
 74
0
 40
0
 40
0
 40
0
 40
1
 40
1
 40
1
 10
-12.262
 20
37.5687
 30
0
 10
-12.0202
 20
37.6224
 30
0
 10
-11.8228
 20
37.7393
 30
0
  0
SPLINE
  5
B83
330
A02
100
AcDbEntity
  8
Shape2DView008
100
AcDbSpline
210
0
220
0
230
1
 70
8
 71
2
 72
6
 73
3
 74
0
 40
0
 40
0
 40
0
 40
1
 40
1
 40
1
 10
-12.7533
 20
37.515
 30
0
 10
-12.5037
 20
37.515
 30
0
 10
-12.262
 20
37.5687
 30
0
  0
SPLINE
  5
B84
330
A02
100
AcDbEntity
  8
Shape2DView008
100
AcDbSpline
210
0
220
0
230
1
 70
8
 71
2
 72
6
 73
3
 74
0
 40
0
 40
0
 40
0
 40
1
 40
1
 40
1
 10
-13.224
 20
37.5687
 30
0
 10
-12.9839
 20
37.515
 30
0
 10
-12.7533
 20
37.515
 30
0
  0
SPLINE
  5
B85
330
A02
100
AcDbEntity
  8
Shape2DView008
100
AcDbSpline
210
0
220
0
230
1
 70
8
 71
2
 72
6
 73
3
 74
0
 40
0
 40
0
 40
0
 40
1
 40
1
 40
1
 10
-13.6664
 20
37.7393
 30
0
 10
-13.4642
 20
37.6224
 30
0
 10
-13.224
 20
37.5687
 30
0
  0
SPLINE
  5
B86
330
A02
100
AcDbEntity
  8
Shape2DView008
100
AcDbSpline
210
0
220
0
230
1
 70
8
 71
2
 72
6
 73
3
 74
0
 40
0
 40
0
 40
0
 40
1
 40
1
 40
1
 10
-13.9934
 20
38.0489
 30
0
 10
-13.8702
 20
37.8578
 30
0
 10
-13.6664
 20
37.7393
 30
0
  0
SPLINE
  5
B87
330
A02
100
AcDbEntity
  8
Shape2DView008
100
AcDbSpline
210
0
220
0
230
1
 70
8
 71
2
 72
6
 73
3
 74
0
 40
0
 40
0
 40
0
 40
1
 40
1
 40
1
 10
-14.1166
 20
38.5197
 30
0
 10
-14.1166
 20
38.2417
 30
0
 10
-13.9934
 20
38.0489
 30
0
  0
SPLINE
  5
B88
330
A02
100
AcDbEntity
  8
Shape2DView008
100
AcDbSpline
210
0
220
0
230
1
 70
8
 71
2
 72
6
 73
3
 74
0
 40
0
 40
0
 40
0
 40
1
 40
1
 40
1
 10
-13.9981
 20
38.9921
 30
0
 10
-14.1166
 20
38.8009
 30
0
 10
-14.1166
 20
38.5197
 30
0
  0
SPLINE
  5
B89
330
A02
100
AcDbEntity
  8
Shape2DView008
100
AcDbSpline
210
0
220
0
230
1
 70
8
 71
2
 72
6
 73
3
 74
0
 40
0
 40
0
 40
0
 40
1
 40
1
 40
1
 10
-13.6838
 20
39.3017
 30
0
 10
-13.8812
 20
39.1848
 30
0
 10
-13.9981
 20
38.9921
 30
0
  0
SPLINE
  5
B8A
330
A02
100
AcDbEntity
  8
Shape2DView008
100
AcDbSpline
210
0
220
0
230
1
 70
8
 71
2
 72
6
 73
3
 74
0
 40
0
 40
0
 40
0
 40
1
 40
1
 40
1
 10
-13.2446
 20
39.4723
 30
0
 10
-13.4863
 20
39.4202
 30
0
 10
-13.6838
 20
39.3017
 30
0
  0
SPLINE
  5
B8B
330
A02
100
AcDbEntity
  8
Shape2DView008
100
AcDbSpline
210
0
220
0
230
1
 70
8
 71
2
 72
6
 73
3
 74
0
 40
0
 40
0
 40
0
 40
1
 40
1
 40
1
 10
-12.7533
 20
39.5244
 30
0
 10
-13.0029
 20
39.5244
 30
0
 10
-13.2446
 20
39.4723
 30
0
  0
SPLINE
  5
B8C
330
A02
100
AcDbEntity
  8
Shape2DView008
100
AcDbSpline
210
0
220
0
230
1
 70
8
 71
2
 72
6
 73
3
 74
0
 40
0
 40
0
 40
0
 40
1
 40
1
 40
1
 10
-12.2856
 20
39.4723
 30
0
 10
-12.5258
 20
39.5244
 30
0
 10
-12.7533
 20
39.5244
 30
0
  0
SPLINE
  5
B8D
330
A02
100
AcDbEntity
  8
Shape2DView008
100
AcDbSpline
210
0
220
0
230
1
 70
8
 71
2
 72
6
 73
3
 74
0
 40
0
 40
0
 40
0
 40
1
 40
1
 40
1
 10
-11.8449
 20
39.3017
 30
0
 10
-12.0471
 20
39.4202
 30
0
 10
-12.2856
 20
39.4723
 30
0
  0
SPLINE
  5
B8E
330
A02
100
AcDbEntity
  8
Shape2DView008
100
AcDbSpline
210
0
220
0
230
1
 70
8
 71
2
 72
6
 73
3
 74
0
 40
0
 40
0
 40
0
 40
1
 40
1
 40
1
 10
-11.5179
 20
38.9921
 30
0
 10
-11.6427
 20
39.1848
 30
0
 10
-11.8449
 20
39.3017
 30
0
  0
LINE
  5
B8F
330
A02
100
AcDbEntity
  8
Shape2DView008
100
AcDbLine
 10
-12.9033
 20
41.1848
 30
0
 11
-12.9033
 21
42.1121
 31
0
  0
LINE
  5
B90
330
A02
100
AcDbEntity
  8
Shape2DView008
100
AcDbLine
 10
-14.0597
 20
41.1848
 30
0
 11
-12.9033
 21
41.1848
 31
0
  0
LINE
  5
B91
330
A02
100
AcDbEntity
  8
Shape2DView008
100
AcDbLine
 10
-14.0597
 20
42.1121
 30
0
 11
-14.0597
 21
41.1848
 31
0
  0
SPLINE
  5
B92
330
A02
100
AcDbEntity
  8
Shape2DView008
100
AcDbSpline
210
0
220
0
230
1
 70
8
 71
2
 72
6
 73
3
 74
0
 40
0
 40
0
 40
0
 40
1
 40
1
 40
1
 10
-13.965
 20
42.4992
 30
0
 10
-14.0597
 20
42.3617
 30
0
 10
-14.0597
 20
42.1121
 30
0
  0
SPLINE
  5
B93
330
A02
100
AcDbEntity
  8
Shape2DView008
100
AcDbSpline
210
0
220
0
230
1
 70
8
 71
2
 72
6
 73
3
 74
0
 40
0
 40
0
 40
0
 40
1
 40
1
 40
1
 10
-13.7375
 20
42.6919
 30
0
 10
-13.8717
 20
42.6382
 30
0
 10
-13.965
 20
42.4992
 30
0
  0
SPLINE
  5
B94
330
A02
100
AcDbEntity
  8
Shape2DView008
100
AcDbSpline
210
0
220
0
230
1
 70
8
 71
2
 72
6
 73
3
 74
0
 40
0
 40
0
 40
0
 40
1
 40
1
 40
1
 10
-13.4768
 20
42.7472
 30
0
 10
-13.6032
 20
42.7472
 30
0
 10
-13.7375
 20
42.6919
 30
0
  0
SPLINE
  5
B95
330
A02
100
AcDbEntity
  8
Shape2DView008
100
AcDbSpline
210
0
220
0
230
1
 70
8
 71
2
 72
6
 73
3
 74
0
 40
0
 40
0
 40
0
 40
1
 40
1
 40
1
 10
-13.2051
 20
42.6872
 30
0
 10
-13.3362
 20
42.7472
 30
0
 10
-13.4768
 20
42.7472
 30
0
  0
SPLINE
  5
B96
330
A02
100
AcDbEntity
  8
Shape2DView008
100
AcDbSpline
210
0
220
0
230
1
 70
8
 71
2
 72
6
 73
3
 74
0
 40
0
 40
0
 40
0
 40
1
 40
1
 40
1
 10
-12.9886
 20
42.4897
 30
0
 10
-13.074
 20
42.6287
 30
0
 10
-13.2051
 20
42.6872
 30
0
  0
SPLINE
  5
B97
330
A02
100
AcDbEntity
  8
Shape2DView008
100
AcDbSpline
210
0
220
0
230
1
 70
8
 71
2
 72
6
 73
3
 74
0
 40
0
 40
0
 40
0
 40
1
 40
1
 40
1
 10
-12.9033
 20
42.1121
 30
0
 10
-12.9033
 20
42.3507
 30
0
 10
-12.9886
 20
42.4897
 30
0
  0
ENDSEC
  0
SECTION
  2
OBJECTS
  0
DICTIONARY
  5
F000
330
0
100
AcDbDictionary
  3
ACAD_GROUP
350
F001
  0
DICTIONARY
  5
F001
330
F000
100
AcDbDictionary
  0
ENDSEC
  0
EOF