999
FreeCAD v0.21 33771 (Git)
  0
SECTION
  2
HEADER
  9
$ACADVER
  1
AC1014
  9
$ACADMAINTVER
 70
     9
  9
$DWGCODEPAGE
  3
ANSI_1252
  9
$TEXTSTYLE
  7
STANDARD
  9
$DIMSTYLE
  2
STANDARD
  9
$DIMTXSTY
  7
STANDARD
  9
$CMLSTYLE
  2
STANDARD
  9
$LUNITS
 70
2
  9
$INSUNITS
 70
4
  9
$PEXTMAX
 10
50
 20
50
 30
50
  9
$PEXTMIN
 10
0
 20
0
 30
0
  9
$HANDSEED
  5
FFFF
  0
ENDSEC
  0
SECTION
  2
CLASSES
  0
CLASS
  1
ACDBDICTIONARYWDFLT
  2
AcDbDictionaryWithDefault
  3
ObjectDBX Classes
 90
        0
280
     0
281
     0
  0
CLASS
  1
XRECORD
  2
AcDbXrecord
  3
ObjectDBX Classes
 90
        0
280
     0
281
     0
  0
CLASS
  1
LWPOLYLINE
  2
AcDbPolyline
  3
ObjectDBX Classes
 90
        0
280
     0
281
     1
  0
ENDSEC
  0
SECTION
  2
TABLES
  0
TABLE
  2
VPORT
  5
20
330
0
100
AcDbSymbolTable
 70
     1
  0
VPORT
  5
21
330
20
100
AcDbSymbolTableRecord
100
AcDbViewportTableRecord
  2
*ACTIVE
 70
     0
  0
ENDTAB
  0
TABLE
  2
LTYPE
  5
22
330
0
100
AcDbSymbolTable
 70
     1
  0
LTYPE
  5
23
330
21
100
AcDbSymbolTableRecord
100
AcDbLinetypeTableRecord
  2
BYBLOCK
 70
     0
  3

 72
    65
 73
     0
 40
0.0
  0
LTYPE
  5
24
330
21
100
AcDbSymbolTableRecord
100
AcDbLinetypeTableRecord
  2
BYLAYER
 70
     0
  3

 72
    65
 73
     0
 40
0.0
  0
LTYPE
  5
25
330
21
100
AcDbSymbolTableRecord
100
AcDbLinetypeTableRecord
  2
CONTINUOUS
 70
     0
  3
Solid line
 72
    65
 73
     0
 40
0.0
  0
ENDTAB
  0
TABLE
  2
LAYER
  5
D4E
330
0
100
AcDbSymbolTable
 70
3
  0
LAYER
  5
D4F
330
D4E
100
AcDbSymbolTableRecord
100
AcDbLayerTableRecord
  2
0
 70
   0
 62
   7
  6
CONTINUOUS
  0
LAYER
  5
D50
330
D4E
100
AcDbSymbolTableRecord
100
AcDbLayerTableRecord
  2
none
 70
    0
 62
    7
  6
CONTINUOUS
  0
LAYER
  5
D51
330
D4E
100
AcDbSymbolTableRecord
100
AcDbLayerTableRecord
  2
Shape2DView002
 70
    0
 62
    7
  6
CONTINUOUS
  0
ENDTAB
  0
TABLE
  2
STYLE
  5
70
330
0
100
AcDbSymbolTable
 70
     2
  0
STYLE
  5
71
330
70
100
AcDbSymbolTableRecord
100
AcDbTextStyleTableRecord
  2
STANDARD
 70
     0
 40
0.0
 41
1.0
 50
0.0
 71
     0
 42
2.5
  3
arial.ttf
  4

  0
STYLE
  5
72
330
70
100
AcDbSymbolTableRecord
100
AcDbTextStyleTableRecord
  2
ANNOTATIVE
 70
     0
 40
0.0
 41
1.0
 50
0.0
 71
     0
 42
2.5
  3
arial.ttf
  4

  0
ENDTAB
  0
TABLE
  2
VIEW
  5
73
330
0
100
AcDbSymbolTable
 70
     0
  0
ENDTAB
  0
TABLE
  2
UCS
  5
74
330
0
100
AcDbSymbolTable
 70
     0
  0
ENDTAB
  0
TABLE
  2
APPID
  5
75
330
0
100
AcDbSymbolTable
 70
     2
  0
APPID
  5
76
330
75
100
AcDbSymbolTableRecord
100
AcDbRegAppTableRecord
  2
ACAD
 70
     0
  0
APPID
  5
77
330
75
100
AcDbSymbolTableRecord
100
AcDbRegAppTableRecord
  2
ACADANNOTATIVE
 70
     0
  0
ENDTAB
  0
TABLE
  2
DIMSTYLE
  5
78
330
0
100
AcDbSymbolTable
 70
     2
  0
DIMSTYLE
105
79
330
78
100
AcDbSymbolTableRecord
100
AcDbDimStyleTableRecord
  2
STANDARD
 70
     0
  3

  4

  5

  6

  7

 40
0.0
 41
2.5
 42
0.625
 43
3.75
 44
1.25
 45
0.0
 46
0.0
 47
0.0
 48
0.0
140
2.5
141
2.5
142
0.0
143
0.03937007874016
144
1.0
145
0.0
146
1.0
147
0.625
 71
     0
 72
     0
 73
     0
 74
     0
 75
     0
 76
     0
 77
     1
 78
     8
170
     0
171
     3
172
     1
173
     0
174
     0
175
     0
176
     0
177
     0
178
     0
270
     2
271
     2
272
     2
273
     2
274
     3
340
71
275
     0
280
     0
281
     0
282
     0
283
     0
284
     8
285
     0
286
     0
287
     3
288
     0
  0
ENDTAB
  0
TABLE
  2
BLOCK_RECORD
  5
A01
330
0
100
AcDbSymbolTable
  70
5
  0
BLOCK_RECORD
  5
A02
330
A01
100
AcDbSymbolTableRecord
100
AcDbBlockTableRecord
  2
*MODEL_SPACE
  0
BLOCK_RECORD
  5
A03
330
A01
100
AcDbSymbolTableRecord
100
AcDbBlockTableRecord
  2
*PAPER_SPACE
  0
ENDTAB
  0
ENDSEC
  0
SECTION
  2
BLOCKS
  0
BLOCK
  5
A04
330
A02
100
AcDbEntity
  8
0
100
AcDbBlockBegin
  2
*MODEL_SPACE
 70
   0
 10
0
 20
0
 30
0
  3
*MODEL_SPACE
  1
 
  0
ENDBLK
  5
A05
330
A02
100
AcDbEntity
  8
0
100
AcDbBlockEnd
  0
BLOCK
  5
A06
330
A03
100
AcDbEntity
 67
1
  8
0
100
AcDbBlockBegin
  2
*PAPER_SPACE
 70
   0
 10
0
 20
0
 30
0
  3
*PAPER_SPACE
  1
 
  0
ENDBLK
  5
A07
330
A03
100
AcDbEntity
 67
    1
  8
0
100
AcDbBlockEnd
  0
ENDSEC
  0
SECTION
  2
ENTITIES
  0
LINE
  5
A08
330
A02
100
AcDbEntity
  8
Shape2DView002
100
AcDbLine
 10
47
 20
26.3044
 30
0
 11
47
 21
39.3044
 31
0
  0
LINE
  5
A09
330
A02
100
AcDbEntity
  8
Shape2DView002
100
AcDbLine
 10
47
 20
26.3044
 30
0
 11
33.64
 21
26.3044
 31
0
  0
LINE
  5
A0A
330
A02
100
AcDbEntity
  8
Shape2DView002
100
AcDbLine
 10
47
 20
39.3044
 30
0
 11
77
 21
39.3044
 31
0
  0
LINE
  5
A0B
330
A02
100
AcDbEntity
  8
Shape2DView002
100
AcDbLine
 10
33.64
 20
26.3044
 30
0
 11
33.64
 21
22.3044
 31
0
  0
LINE
  5
A0C
330
A02
100
AcDbEntity
  8
Shape2DView002
100
AcDbLine
 10
77
 20
39.3044
 30
0
 11
77
 21
63.8044
 31
0
  0
ARC
  5
A0D
330
A02
100
AcDbEntity
  8
Shape2DView002
100
AcDbCircle
 10
37.6262
 20
11.3044
 30
0
 40
11.7
100
AcDbArc
 50
109.92
 51
170.158
  0
ARC
  5
A0E
330
A02
100
AcDbEntity
  8
Shape2DView002
100
AcDbCircle
 10
-8.88178e-16
 20
0
 30
0
 40
100
100
AcDbArc
 50
39.6461
 51
140.354
  0
LINE
  5
A0F
330
A02
100
AcDbEntity
  8
Shape2DView002
100
AcDbLine
 10
26.0984
 20
13.3044
 30
0
 11
21.9262
 21
13.3044
 31
0
  0
LINE
  5
A10
330
A02
100
AcDbEntity
  8
Shape2DView002
100
AcDbLine
 10
-77
 20
39.3044
 30
0
 11
-77
 21
63.8044
 31
0
  0
LINE
  5
A11
330
A02
100
AcDbEntity
  8
Shape2DView002
100
AcDbLine
 10
21.9262
 20
13.3044
 30
0
 11
21.9262
 21
9.30439
 31
0
  0
LINE
  5
A12
330
A02
100
AcDbEntity
  8
Shape2DView002
100
AcDbLine
 10
-47
 20
39.3044
 30
0
 11
-77
 21
39.3044
 31
0
  0
LINE
  5
A13
330
A02
100
AcDbEntity
  8
Shape2DView002
100
AcDbLine
 10
21.9262
 20
9.30439
 30
0
 11
26.0984
 21
9.30439
 31
0
  0
LINE
  5
A14
330
A02
100
AcDbEntity
  8
Shape2DView002
100
AcDbLine
 10
-47
 20
26.3044
 30
0
 11
-47
 21
39.3044
 31
0
  0
ARC
  5
A15
330
A02
100
AcDbEntity
  8
Shape2DView002
100
AcDbCircle
 10
37.6262
 20
11.3044
 30
0
 40
11.7
100
AcDbArc
 50
-170.158
 51
-109.92
  0
LINE
  5
A16
330
A02
100
AcDbEntity
  8
Shape2DView002
100
AcDbLine
 10
-47
 20
26.3044
 30
0
 11
-33.64
 21
26.3044
 31
0
  0
LINE
  5
A17
330
A02
100
AcDbEntity
  8
Shape2DView002
100
AcDbLine
 10
33.64
 20
-3.69561
 30
0
 11
33.64
 21
0.304389
 31
0
  0
LINE
  5
A18
330
A02
100
AcDbEntity
  8
Shape2DView002
100
AcDbLine
 10
-33.64
 20
26.3044
 30
0
 11
-33.64
 21
22.3044
 31
0
  0
LINE
  5
A19
330
A02
100
AcDbEntity
  8
Shape2DView002
100
AcDbLine
 10
47
 20
-3.69561
 30
0
 11
33.64
 21
-3.69561
 31
0
  0
ARC
  5
A1A
330
A02
100
AcDbEntity
  8
Shape2DView002
100
AcDbCircle
 10
-37.6262
 20
11.3044
 30
0
 40
11.7
100
AcDbArc
 50
9.84249
 51
70.0803
  0
LINE
  5
A1B
330
A02
100
AcDbEntity
  8
Shape2DView002
100
AcDbLine
 10
47
 20
-16.6956
 30
0
 11
47
 21
-3.69561
 31
0
  0
LINE
  5
A1C
330
A02
100
AcDbEntity
  8
Shape2DView002
100
AcDbLine
 10
-21.9262
 20
13.3044
 30
0
 11
-26.0984
 21
13.3044
 31
0
  0
LINE
  5
A1D
330
A02
100
AcDbEntity
  8
Shape2DView002
100
AcDbLine
 10
77
 20
-16.6956
 30
0
 11
47
 21
-16.6956
 31
0
  0
LINE
  5
A1E
330
A02
100
AcDbEntity
  8
Shape2DView002
100
AcDbLine
 10
-21.9262
 20
9.30439
 30
0
 11
-21.9262
 21
13.3044
 31
0
  0
LINE
  5
A1F
330
A02
100
AcDbEntity
  8
Shape2DView002
100
AcDbLine
 10
77
 20
-63.8044
 30
0
 11
77
 21
-16.6956
 31
0
  0
LINE
  5
A20
330
A02
100
AcDbEntity
  8
Shape2DView002
100
AcDbLine
 10
-26.0984
 20
9.30439
 30
0
 11
-21.9262
 21
9.30439
 31
0
  0
ARC
  5
A21
330
A02
100
AcDbEntity
  8
Shape2DView002
100
AcDbCircle
 10
-8.88178e-16
 20
0
 30
0
 40
100
100
AcDbArc
 50
-140.354
 51
-39.6461
  0
ARC
  5
A22
330
A02
100
AcDbEntity
  8
Shape2DView002
100
AcDbCircle
 10
-37.6262
 20
11.3044
 30
0
 40
11.7
100
AcDbArc
 50
-70.0803
 51
-9.84249
  0
LINE
  5
A23
330
A02
100
AcDbEntity
  8
Shape2DView002
100
AcDbLine
 10
-77
 20
-63.8044
 30
0
 11
-77
 21
-16.6956
 31
0
  0
LINE
  5
A24
330
A02
100
AcDbEntity
  8
Shape2DView002
100
AcDbLine
 10
-33.64
 20
-3.69561
 30
0
 11
-33.64
 21
0.304389
 31
0
  0
LINE
  5
A25
330
A02
100
AcDbEntity
  8
Shape2DView002
100
AcDbLine
 10
-77
 20
-16.6956
 30
0
 11
-47
 21
-16.6956
 31
0
  0
LINE
  5
A26
330
A02
100
AcDbEntity
  8
Shape2DView002
100
AcDbLine
 10
-47
 20
-3.69561
 30
0
 11
-33.64
 21
-3.69561
 31
0
  0
LINE
  5
A27
330
A02
100
AcDbEntity
  8
Shape2DView002
100
AcDbLine
 10
-47
 20
-16.6956
 30
0
 11
-47
 21
-3.69561
 31
0
  0
LINE
  5
A28
330
A02
100
AcDbEntity
  8
Shape2DView002
100
AcDbLine
 10
67.4166
 20
-66.9328
 30
0
 11
64.5392
 21
-69.7115
 31
0
  0
LINE
  5
A29
330
A02
100
AcDbEntity
  8
Shape2DView002
100
AcDbLine
 10
60.47
 20
-59.7394
 30
0
 11
67.4166
 21
-66.9328
 31
0
  0
LINE
  5
A2A
330
A02
100
AcDbEntity
  8
Shape2DView002
100
AcDbLine
 10
64.5392
 20
-69.7115
 30
0
 11
57.5927
 21
-62.5181
 31
0
  0
LINE
  5
A2B
330
A02
100
AcDbEntity
  8
Shape2DView002
100
AcDbLine
 10
57.5927
 20
-62.5181
 30
0
 11
60.47
 21
-59.7394
 31
0
  0
CIRCLE
  5
A2C
330
A02
100
AcDbEntity
  8
Shape2DView002
100
AcDbCircle
 10
72.5
 20
-58.42
 40
2.35
  0
CIRCLE
  5
A2D
330
A02
100
AcDbEntity
  8
Shape2DView002
100
AcDbCircle
 10
72.5
 20
-50.44
 40
1.6
  0
LINE
  5
A2E
330
A02
100
AcDbEntity
  8
Shape2DView002
100
AcDbLine
 10
67.6095
 20
-51.2936
 30
0
 11
65.1292
 21
-51.2936
 31
0
  0
LINE
  5
A2F
330
A02
100
AcDbEntity
  8
Shape2DView002
100
AcDbLine
 10
67.6095
 20
-50.8718
 30
0
 11
67.6095
 21
-51.2936
 31
0
  0
LINE
  5
A30
330
A02
100
AcDbEntity
  8
Shape2DView002
100
AcDbLine
 10
65.1292
 20
-51.2936
 30
0
 11
65.1292
 21
-50.8718
 31
0
  0
LINE
  5
A31
330
A02
100
AcDbEntity
  8
Shape2DView002
100
AcDbLine
 10
66.1008
 20
-50.8718
 30
0
 11
67.6095
 21
-50.8718
 31
0
  0
LINE
  5
A32
330
A02
100
AcDbEntity
  8
Shape2DView002
100
AcDbLine
 10
65.1292
 20
-50.8718
 30
0
 11
65.3631
 21
-50.8718
 31
0
  0
SPLINE
  5
A33
330
A02
100
AcDbEntity
  8
Shape2DView002
100
AcDbSpline
210
0
220
0
230
1
 70
8
 71
2
 72
6
 73
3
 74
0
 40
0
 40
0
 40
0
 40
1
 40
1
 40
1
 10
65.6316
 20
-50.7296
 30
0
 10
65.8038
 20
-50.8718
 30
0
 10
66.1008
 20
-50.8718
 30
0
  0
SPLINE
  5
A34
330
A02
100
AcDbEntity
  8
Shape2DView002
100
AcDbSpline
210
0
220
0
230
1
 70
8
 71
2
 72
6
 73
3
 74
0
 40
0
 40
0
 40
0
 40
1
 40
1
 40
1
 10
65.3631
 20
-50.8718
 30
0
 10
65.2193
 20
-50.7644
 30
0
 10
65.145
 20
-50.5969
 30
0
  0
SPLINE
  5
A35
330
A02
100
AcDbEntity
  8
Shape2DView002
100
AcDbSpline
210
0
220
0
230
1
 70
8
 71
2
 72
6
 73
3
 74
0
 40
0
 40
0
 40
0
 40
1
 40
1
 40
1
 10
65.4594
 20
-50.3378
 30
0
 10
65.4594
 20
-50.5858
 30
0
 10
65.6316
 20
-50.7296
 30
0
  0
SPLINE
  5
A36
330
A02
100
AcDbEntity
  8
Shape2DView002
100
AcDbSpline
210
0
220
0
230
1
 70
8
 71
2
 72
6
 73
3
 74
0
 40
0
 40
0
 40
0
 40
1
 40
1
 40
1
 10
65.145
 20
-50.5969
 30
0
 10
65.0708
 20
-50.4279
 30
0
 10
65.0708
 20
-50.2209
 30
0
  0
SPLINE
  5
A37
330
A02
100
AcDbEntity
  8
Shape2DView002
100
AcDbSpline
210
0
220
0
230
1
 70
8
 71
2
 72
6
 73
3
 74
0
 40
0
 40
0
 40
0
 40
1
 40
1
 40
1
 10
65.6237
 20
-49.9682
 30
0
 10
65.4594
 20
-50.093
 30
0
 10
65.4594
 20
-50.3378
 30
0
  0
SPLINE
  5
A38
330
A02
100
AcDbEntity
  8
Shape2DView002
100
AcDbSpline
210
0
220
0
230
1
 70
8
 71
2
 72
6
 73
3
 74
0
 40
0
 40
0
 40
0
 40
1
 40
1
 40
1
 10
65.0708
 20
-50.2209
 30
0
 10
65.0708
 20
-50.0045
 30
0
 10
65.1672
 20
-49.8291
 30
0
  0
SPLINE
  5
A39
330
A02
100
AcDbEntity
  8
Shape2DView002
100
AcDbSpline
210
0
220
0
230
1
 70
8
 71
2
 72
6
 73
3
 74
0
 40
0
 40
0
 40
0
 40
1
 40
1
 40
1
 10
66.1055
 20
-49.8418
 30
0
 10
65.7864
 20
-49.8418
 30
0
 10
65.6237
 20
-49.9682
 30
0
  0
SPLINE
  5
A3A
330
A02
100
AcDbEntity
  8
Shape2DView002
100
AcDbSpline
210
0
220
0
230
1
 70
8
 71
2
 72
6
 73
3
 74
0
 40
0
 40
0
 40
0
 40
1
 40
1
 40
1
 10
65.1672
 20
-49.8291
 30
0
 10
65.2635
 20
-49.6538
 30
0
 10
65.4357
 20
-49.5558
 30
0
  0
LINE
  5
A3B
330
A02
100
AcDbEntity
  8
Shape2DView002
100
AcDbLine
 10
67.6095
 20
-49.8418
 30
0
 11
66.1055
 21
-49.8418
 31
0
  0
SPLINE
  5
A3C
330
A02
100
AcDbEntity
  8
Shape2DView002
100
AcDbSpline
210
0
220
0
230
1
 70
8
 71
2
 72
6
 73
3
 74
0
 40
0
 40
0
 40
0
 40
1
 40
1
 40
1
 10
65.4357
 20
-49.5558
 30
0
 10
65.2604
 20
-49.4421
 30
0
 10
65.1656
 20
-49.2541
 30
0
  0
LINE
  5
A3D
330
A02
100
AcDbEntity
  8
Shape2DView002
100
AcDbLine
 10
67.6095
 20
-49.42
 30
0
 11
67.6095
 21
-49.8418
 31
0
  0
SPLINE
  5
A3E
330
A02
100
AcDbEntity
  8
Shape2DView002
100
AcDbSpline
210
0
220
0
230
1
 70
8
 71
2
 72
6
 73
3
 74
0
 40
0
 40
0
 40
0
 40
1
 40
1
 40
1
 10
65.1656
 20
-49.2541
 30
0
 10
65.0708
 20
-49.0661
 30
0
 10
65.0708
 20
-48.8386
 30
0
  0
LINE
  5
A3F
330
A02
100
AcDbEntity
  8
Shape2DView002
100
AcDbLine
 10
66.1198
 20
-49.42
 30
0
 11
67.6095
 21
-49.42
 31
0
  0
SPLINE
  5
A40
330
A02
100
AcDbEntity
  8
Shape2DView002
100
AcDbSpline
210
0
220
0
230
1
 70
8
 71
2
 72
6
 73
3
 74
0
 40
0
 40
0
 40
0
 40
1
 40
1
 40
1
 10
65.0708
 20
-48.8386
 30
0
 10
65.0708
 20
-48.4373
 30
0
 10
65.3172
 20
-48.202
 30
0
  0
SPLINE
  5
A41
330
A02
100
AcDbEntity
  8
Shape2DView002
100
AcDbSpline
210
0
220
0
230
1
 70
8
 71
2
 72
6
 73
3
 74
0
 40
0
 40
0
 40
0
 40
1
 40
1
 40
1
 10
65.7738
 20
-49.3536
 30
0
 10
65.9223
 20
-49.42
 30
0
 10
66.1198
 20
-49.42
 30
0
  0
SPLINE
  5
A42
330
A02
100
AcDbEntity
  8
Shape2DView002
100
AcDbSpline
210
0
220
0
230
1
 70
8
 71
2
 72
6
 73
3
 74
0
 40
0
 40
0
 40
0
 40
1
 40
1
 40
1
 10
65.3172
 20
-48.202
 30
0
 10
65.5637
 20
-47.965
 30
0
 10
65.9839
 20
-47.965
 30
0
  0
SPLINE
  5
A43
330
A02
100
AcDbEntity
  8
Shape2DView002
100
AcDbSpline
210
0
220
0
230
1
 70
8
 71
2
 72
6
 73
3
 74
0
 40
0
 40
0
 40
0
 40
1
 40
1
 40
1
 10
65.5431
 20
-49.1672
 30
0
 10
65.6253
 20
-49.2873
 30
0
 10
65.7738
 20
-49.3536
 30
0
  0
LINE
  5
A44
330
A02
100
AcDbEntity
  8
Shape2DView002
100
AcDbLine
 10
65.9839
 20
-47.965
 30
0
 11
67.6095
 21
-47.965
 31
0
  0
SPLINE
  5
A45
330
A02
100
AcDbEntity
  8
Shape2DView002
100
AcDbSpline
210
0
220
0
230
1
 70
8
 71
2
 72
6
 73
3
 74
0
 40
0
 40
0
 40
0
 40
1
 40
1
 40
1
 10
65.4594
 20
-48.886
 30
0
 10
65.4594
 20
-49.0471
 30
0
 10
65.5431
 20
-49.1672
 30
0
  0
LINE
  5
A46
330
A02
100
AcDbEntity
  8
Shape2DView002
100
AcDbLine
 10
67.6095
 20
-47.965
 30
0
 11
67.6095
 21
-48.3868
 31
0
  0
SPLINE
  5
A47
330
A02
100
AcDbEntity
  8
Shape2DView002
100
AcDbSpline
210
0
220
0
230
1
 70
8
 71
2
 72
6
 73
3
 74
0
 40
0
 40
0
 40
0
 40
1
 40
1
 40
1
 10
65.6269
 20
-48.5163
 30
0
 10
65.4594
 20
-48.6459
 30
0
 10
65.4594
 20
-48.886
 30
0
  0
LINE
  5
A48
330
A02
100
AcDbEntity
  8
Shape2DView002
100
AcDbLine
 10
67.6095
 20
-48.3868
 30
0
 11
66.1055
 21
-48.3868
 31
0
  0
SPLINE
  5
A49
330
A02
100
AcDbEntity
  8
Shape2DView002
100
AcDbSpline
210
0
220
0
230
1
 70
8
 71
2
 72
6
 73
3
 74
0
 40
0
 40
0
 40
0
 40
1
 40
1
 40
1
 10
66.1055
 20
-48.3868
 30
0
 10
65.7943
 20
-48.3868
 30
0
 10
65.6269
 20
-48.5163
 30
0
  0
LINE
  5
A4A
330
A02
100
AcDbEntity
  8
Shape2DView002
100
AcDbLine
 10
67.6095
 20
-47.1435
 30
0
 11
65.1292
 21
-47.1435
 31
0
  0
LINE
  5
A4B
330
A02
100
AcDbEntity
  8
Shape2DView002
100
AcDbLine
 10
67.6095
 20
-46.7217
 30
0
 11
67.6095
 21
-47.1435
 31
0
  0
LINE
  5
A4C
330
A02
100
AcDbEntity
  8
Shape2DView002
100
AcDbLine
 10
65.1292
 20
-47.1435
 30
0
 11
65.1292
 21
-46.7217
 31
0
  0
LINE
  5
A4D
330
A02
100
AcDbEntity
  8
Shape2DView002
100
AcDbLine
 10
65.1292
 20
-46.7217
 30
0
 11
67.6095
 21
-46.7217
 31
0
  0
CIRCLE
  5
A4E
330
A02
100
AcDbEntity
  8
Shape2DView002
100
AcDbCircle
 10
72.5
 20
-42.46
 40
2.35
  0
LINE
  5
A4F
330
A02
100
AcDbEntity
  8
Shape2DView002
100
AcDbLine
 10
67.6095
 20
-45.935
 30
0
 11
65.1292
 21
-45.935
 31
0
  0
LINE
  5
A50
330
A02
100
AcDbEntity
  8
Shape2DView002
100
AcDbLine
 10
67.6095
 20
-45.5132
 30
0
 11
67.6095
 21
-45.935
 31
0
  0
LINE
  5
A51
330
A02
100
AcDbEntity
  8
Shape2DView002
100
AcDbLine
 10
65.1292
 20
-45.935
 30
0
 11
65.1292
 21
-45.5132
 31
0
  0
LINE
  5
A52
330
A02
100
AcDbEntity
  8
Shape2DView002
100
AcDbLine
 10
66.2114
 20
-45.5132
 30
0
 11
67.6095
 21
-45.5132
 31
0
  0
LINE
  5
A53
330
A02
100
AcDbEntity
  8
Shape2DView002
100
AcDbLine
 10
65.1292
 20
-45.5132
 30
0
 11
65.4547
 21
-45.5132
 31
0
  0
SPLINE
  5
A54
330
A02
100
AcDbEntity
  8
Shape2DView002
100
AcDbSpline
210
0
220
0
230
1
 70
8
 71
2
 72
6
 73
3
 74
0
 40
0
 40
0
 40
0
 40
1
 40
1
 40
1
 10
65.8307
 20
-45.4437
 30
0
 10
65.9934
 20
-45.5132
 30
0
 10
66.2114
 20
-45.5132
 30
0
  0
SPLINE
  5
A55
330
A02
100
AcDbEntity
  8
Shape2DView002
100
AcDbSpline
210
0
220
0
230
1
 70
8
 71
2
 72
6
 73
3
 74
0
 40
0
 40
0
 40
0
 40
1
 40
1
 40
1
 10
65.4547
 20
-45.5132
 30
0
 10
65.2651
 20
-45.4279
 30
0
 10
65.1687
 20
-45.2794
 30
0
  0
SPLINE
  5
A56
330
A02
100
AcDbEntity
  8
Shape2DView002
100
AcDbSpline
210
0
220
0
230
1
 70
8
 71
2
 72
6
 73
3
 74
0
 40
0
 40
0
 40
0
 40
1
 40
1
 40
1
 10
65.5795
 20
-45.2509
 30
0
 10
65.668
 20
-45.3742
 30
0
 10
65.8307
 20
-45.4437
 30
0
  0
SPLINE
  5
A57
330
A02
100
AcDbEntity
  8
Shape2DView002
100
AcDbSpline
210
0
220
0
230
1
 70
8
 71
2
 72
6
 73
3
 74
0
 40
0
 40
0
 40
0
 40
1
 40
1
 40
1
 10
65.1687
 20
-45.2794
 30
0
 10
65.0708
 20
-45.1293
 30
0
 10
65.0708
 20
-44.9255
 30
0
  0
SPLINE
  5
A58
330
A02
100
AcDbEntity
  8
Shape2DView002
100
AcDbSpline
210
0
220
0
230
1
 70
8
 71
2
 72
6
 73
3
 74
0
 40
0
 40
0
 40
0
 40
1
 40
1
 40
1
 10
65.4894
 20
-44.9603
 30
0
 10
65.4894
 20
-45.1277
 30
0
 10
65.5795
 20
-45.2509
 30
0
  0
SPLINE
  5
A59
330
A02
100
AcDbEntity
  8
Shape2DView002
100
AcDbSpline
210
0
220
0
230
1
 70
8
 71
2
 72
6
 73
3
 74
0
 40
0
 40
0
 40
0
 40
1
 40
1
 40
1
 10
65.0708
 20
-44.9255
 30
0
 10
65.0708
 20
-44.6996
 30
0
 10
65.1972
 20
-44.5416
 30
0
  0
SPLINE
  5
A5A
330
A02
100
AcDbEntity
  8
Shape2DView002
100
AcDbSpline
210
0
220
0
230
1
 70
8
 71
2
 72
6
 73
3
 74
0
 40
0
 40
0
 40
0
 40
1
 40
1
 40
1
 10
65.5147
 20
-44.7723
 30
0
 10
65.4894
 20
-44.8576
 30
0
 10
65.4894
 20
-44.9603
 30
0
  0
LINE
  5
A5B
330
A02
100
AcDbEntity
  8
Shape2DView002
100
AcDbLine
 10
65.1972
 20
-44.5416
 30
0
 11
65.5953
 21
-44.6048
 31
0
  0
SPLINE
  5
A5C
330
A02
100
AcDbEntity
  8
Shape2DView002
100
AcDbSpline
210
0
220
0
230
1
 70
8
 71
2
 72
6
 73
3
 74
0
 40
0
 40
0
 40
0
 40
1
 40
1
 40
1
 10
65.5953
 20
-44.6048
 30
0
 10
65.54
 20
-44.6854
 30
0
 10
65.5147
 20
-44.7723
 30
0
  0
SPLINE
  5
A5D
330
A02
100
AcDbEntity
  8
Shape2DView002
100
AcDbSpline
210
0
220
0
230
1
 70
8
 71
2
 72
6
 73
3
 74
0
 40
0
 40
0
 40
0
 40
1
 40
1
 40
1
 10
67.668
 20
-43.3252
 30
0
 10
67.668
 20
-43.5795
 30
0
 10
67.5147
 20
-43.7154
 30
0
  0
SPLINE
  5
A5E
330
A02
100
AcDbEntity
  8
Shape2DView002
100
AcDbSpline
210
0
220
0
230
1
 70
8
 71
2
 72
6
 73
3
 74
0
 40
0
 40
0
 40
0
 40
1
 40
1
 40
1
 10
67.6411
 20
-43.0772
 30
0
 10
67.668
 20
-43.1941
 30
0
 10
67.668
 20
-43.3252
 30
0
  0
SPLINE
  5
A5F
330
A02
100
AcDbEntity
  8
Shape2DView002
100
AcDbSpline
210
0
220
0
230
1
 70
8
 71
2
 72
6
 73
3
 74
0
 40
0
 40
0
 40
0
 40
1
 40
1
 40
1
 10
67.5147
 20
-43.7154
 30
0
 10
67.3615
 20
-43.8497
 30
0
 10
67.0755
 20
-43.8497
 30
0
  0
SPLINE
  5
A60
330
A02
100
AcDbEntity
  8
Shape2DView002
100
AcDbSpline
210
0
220
0
230
1
 70
8
 71
2
 72
6
 73
3
 74
0
 40
0
 40
0
 40
0
 40
1
 40
1
 40
1
 10
67.5558
 20
-42.8497
 30
0
 10
67.6142
 20
-42.9587
 30
0
 10
67.6411
 20
-43.0772
 30
0
  0
LINE
  5
A61
330
A02
100
AcDbEntity
  8
Shape2DView002
100
AcDbLine
 10
67.0755
 20
-43.8497
 30
0
 11
65.4989
 21
-43.8497
 31
0
  0
LINE
  5
A62
330
A02
100
AcDbEntity
  8
Shape2DView002
100
AcDbLine
 10
67.1435
 20
-42.8007
 30
0
 11
67.5558
 21
-42.8497
 31
0
  0
LINE
  5
A63
330
A02
100
AcDbEntity
  8
Shape2DView002
100
AcDbLine
 10
65.4989
 20
-43.8497
 30
0
 11
65.4989
 21
-44.2525
 31
0
  0
SPLINE
  5
A64
330
A02
100
AcDbEntity
  8
Shape2DView002
100
AcDbSpline
210
0
220
0
230
1
 70
8
 71
2
 72
6
 73
3
 74
0
 40
0
 40
0
 40
0
 40
1
 40
1
 40
1
 10
67.2746
 20
-43.1688
 30
0
 10
67.2746
 20
-42.9997
 30
0
 10
67.1435
 20
-42.8007
 30
0
  0
LINE
  5
A65
330
A02
100
AcDbEntity
  8
Shape2DView002
100
AcDbLine
 10
65.4989
 20
-44.2525
 30
0
 11
65.1292
 21
-44.2525
 31
0
  0
SPLINE
  5
A66
330
A02
100
AcDbEntity
  8
Shape2DView002
100
AcDbSpline
210
0
220
0
230
1
 70
8
 71
2
 72
6
 73
3
 74
0
 40
0
 40
0
 40
0
 40
1
 40
1
 40
1
 10
67.194
 20
-43.3647
 30
0
 10
67.2746
 20
-43.3031
 30
0
 10
67.2746
 20
-43.1688
 30
0
  0
LINE
  5
A67
330
A02
100
AcDbEntity
  8
Shape2DView002
100
AcDbLine
 10
65.1292
 20
-44.2525
 30
0
 11
65.1292
 21
-43.8497
 31
0
  0
SPLINE
  5
A68
330
A02
100
AcDbEntity
  8
Shape2DView002
100
AcDbSpline
210
0
220
0
230
1
 70
8
 71
2
 72
6
 73
3
 74
0
 40
0
 40
0
 40
0
 40
1
 40
1
 40
1
 10
66.9349
 20
-43.4263
 30
0
 10
67.1119
 20
-43.4263
 30
0
 10
67.194
 20
-43.3647
 30
0
  0
LINE
  5
A69
330
A02
100
AcDbEntity
  8
Shape2DView002
100
AcDbLine
 10
65.1292
 20
-43.8497
 30
0
 11
64.3093
 21
-43.8497
 31
0
  0
LINE
  5
A6A
330
A02
100
AcDbEntity
  8
Shape2DView002
100
AcDbLine
 10
65.4989
 20
-43.4263
 30
0
 11
66.9349
 21
-43.4263
 31
0
  0
LINE
  5
A6B
330
A02
100
AcDbEntity
  8
Shape2DView002
100
AcDbLine
 10
64.3093
 20
-43.8497
 30
0
 11
64.1055
 21
-43.4263
 31
0
  0
LINE
  5
A6C
330
A02
100
AcDbEntity
  8
Shape2DView002
100
AcDbLine
 10
65.4989
 20
-42.8149
 30
0
 11
65.4989
 21
-43.4263
 31
0
  0
LINE
  5
A6D
330
A02
100
AcDbEntity
  8
Shape2DView002
100
AcDbLine
 10
64.1055
 20
-43.4263
 30
0
 11
65.1292
 21
-43.4263
 31
0
  0
LINE
  5
A6E
330
A02
100
AcDbEntity
  8
Shape2DView002
100
AcDbLine
 10
65.1292
 20
-42.8149
 30
0
 11
65.4989
 21
-42.8149
 31
0
  0
LINE
  5
A6F
330
A02
100
AcDbEntity
  8
Shape2DView002
100
AcDbLine
 10
65.1292
 20
-43.4263
 30
0
 11
65.1292
 21
-42.8149
 31
0
  0
SPLINE
  5
A70
330
A02
100
AcDbEntity
  8
Shape2DView002
100
AcDbSpline
210
0
220
0
230
1
 70
8
 71
2
 72
6
 73
3
 74
0
 40
0
 40
0
 40
0
 40
1
 40
1
 40
1
 10
67.668
 20
-41.2383
 30
0
 10
67.668
 20
-41.5779
 30
0
 10
67.5005
 20
-41.826
 30
0
  0
SPLINE
  5
A71
330
A02
100
AcDbEntity
  8
Shape2DView002
100
AcDbSpline
210
0
220
0
230
1
 70
8
 71
2
 72
6
 73
3
 74
0
 40
0
 40
0
 40
0
 40
1
 40
1
 40
1
 10
67.5779
 20
-40.7817
 30
0
 10
67.668
 20
-40.9855
 30
0
 10
67.668
 20
-41.2383
 30
0
  0
SPLINE
  5
A72
330
A02
100
AcDbEntity
  8
Shape2DView002
100
AcDbSpline
210
0
220
0
230
1
 70
8
 71
2
 72
6
 73
3
 74
0
 40
0
 40
0
 40
0
 40
1
 40
1
 40
1
 10
67.5005
 20
-41.826
 30
0
 10
67.333
 20
-42.0724
 30
0
 10
67.0392
 20
-42.2067
 30
0
  0
SPLINE
  5
A73
330
A02
100
AcDbEntity
  8
Shape2DView002
100
AcDbSpline
210
0
220
0
230
1
 70
8
 71
2
 72
6
 73
3
 74
0
 40
0
 40
0
 40
0
 40
1
 40
1
 40
1
 10
67.3473
 20
-40.4373
 30
0
 10
67.4863
 20
-40.5764
 30
0
 10
67.5779
 20
-40.7817
 30
0
  0
SPLINE
  5
A74
330
A02
100
AcDbEntity
  8
Shape2DView002
100
AcDbSpline
210
0
220
0
230
1
 70
8
 71
2
 72
6
 73
3
 74
0
 40
0
 40
0
 40
0
 40
1
 40
1
 40
1
 10
67.0392
 20
-42.2067
 30
0
 10
66.7454
 20
-42.3394
 30
0
 10
66.3678
 20
-42.3394
 30
0
  0
LINE
  5
A75
330
A02
100
AcDbEntity
  8
Shape2DView002
100
AcDbLine
 10
67.0708
 20
-40.6854
 30
0
 11
67.3473
 21
-40.4373
 31
0
  0
SPLINE
  5
A76
330
A02
100
AcDbEntity
  8
Shape2DView002
100
AcDbSpline
210
0
220
0
230
1
 70
8
 71
2
 72
6
 73
3
 74
0
 40
0
 40
0
 40
0
 40
1
 40
1
 40
1
 10
66.3678
 20
-42.3394
 30
0
 10
65.9571
 20
-42.3394
 30
0
 10
65.668
 20
-42.202
 30
0
  0
SPLINE
  5
A77
330
A02
100
AcDbEntity
  8
Shape2DView002
100
AcDbSpline
210
0
220
0
230
1
 70
8
 71
2
 72
6
 73
3
 74
0
 40
0
 40
0
 40
0
 40
1
 40
1
 40
1
 10
67.243
 20
-40.9366
 30
0
 10
67.1877
 20
-40.8007
 30
0
 10
67.0708
 20
-40.6854
 30
0
  0
SPLINE
  5
A78
330
A02
100
AcDbEntity
  8
Shape2DView002
100
AcDbSpline
210
0
220
0
230
1
 70
8
 71
2
 72
6
 73
3
 74
0
 40
0
 40
0
 40
0
 40
1
 40
1
 40
1
 10
65.668
 20
-42.202
 30
0
 10
65.3773
 20
-42.0629
 30
0
 10
65.224
 20
-41.8165
 30
0
  0
SPLINE
  5
A79
330
A02
100
AcDbEntity
  8
Shape2DView002
100
AcDbSpline
210
0
220
0
230
1
 70
8
 71
2
 72
6
 73
3
 74
0
 40
0
 40
0
 40
0
 40
1
 40
1
 40
1
 10
67.2983
 20
-41.2288
 30
0
 10
67.2983
 20
-41.0708
 30
0
 10
67.243
 20
-40.9366
 30
0
  0
SPLINE
  5
A7A
330
A02
100
AcDbEntity
  8
Shape2DView002
100
AcDbSpline
210
0
220
0
230
1
 70
8
 71
2
 72
6
 73
3
 74
0
 40
0
 40
0
 40
0
 40
1
 40
1
 40
1
 10
65.224
 20
-41.8165
 30
0
 10
65.0708
 20
-41.5685
 30
0
 10
65.0708
 20
-41.2383
 30
0
  0
SPLINE
  5
A7B
330
A02
100
AcDbEntity
  8
Shape2DView002
100
AcDbSpline
210
0
220
0
230
1
 70
8
 71
2
 72
6
 73
3
 74
0
 40
0
 40
0
 40
0
 40
1
 40
1
 40
1
 10
67.2035
 20
-41.5669
 30
0
 10
67.2983
 20
-41.4231
 30
0
 10
67.2983
 20
-41.2288
 30
0
  0
SPLINE
  5
A7C
330
A02
100
AcDbEntity
  8
Shape2DView002
100
AcDbSpline
210
0
220
0
230
1
 70
8
 71
2
 72
6
 73
3
 74
0
 40
0
 40
0
 40
0
 40
1
 40
1
 40
1
 10
65.0708
 20
-41.2383
 30
0
 10
65.0708
 20
-40.9587
 30
0
 10
65.1972
 20
-40.7264
 30
0
  0
SPLINE
  5
A7D
330
A02
100
AcDbEntity
  8
Shape2DView002
100
AcDbSpline
210
0
220
0
230
1
 70
8
 71
2
 72
6
 73
3
 74
0
 40
0
 40
0
 40
0
 40
1
 40
1
 40
1
 10
66.9381
 20
-41.796
 30
0
 10
67.1071
 20
-41.7091
 30
0
 10
67.2035
 20
-41.5669
 30
0
  0
SPLINE
  5
A7E
330
A02
100
AcDbEntity
  8
Shape2DView002
100
AcDbSpline
210
0
220
0
230
1
 70
8
 71
2
 72
6
 73
3
 74
0
 40
0
 40
0
 40
0
 40
1
 40
1
 40
1
 10
65.1972
 20
-40.7264
 30
0
 10
65.322
 20
-40.4926
 30
0
 10
65.5826
 20
-40.3536
 30
0
  0
SPLINE
  5
A7F
330
A02
100
AcDbEntity
  8
Shape2DView002
100
AcDbSpline
210
0
220
0
230
1
 70
8
 71
2
 72
6
 73
3
 74
0
 40
0
 40
0
 40
0
 40
1
 40
1
 40
1
 10
66.5416
 20
-41.9081
 30
0
 10
66.7675
 20
-41.8828
 30
0
 10
66.9381
 20
-41.796
 30
0
  0
SPLINE
  5
A80
330
A02
100
AcDbEntity
  8
Shape2DView002
100
AcDbSpline
210
0
220
0
230
1
 70
8
 71
2
 72
6
 73
3
 74
0
 40
0
 40
0
 40
0
 40
1
 40
1
 40
1
 10
65.5826
 20
-40.3536
 30
0
 10
65.8433
 20
-40.2146
 30
0
 10
66.2509
 20
-40.2146
 30
0
  0
LINE
  5
A81
330
A02
100
AcDbEntity
  8
Shape2DView002
100
AcDbLine
 10
66.5416
 20
-40.2288
 30
0
 11
66.5416
 21
-41.9081
 31
0
  0
SPLINE
  5
A82
330
A02
100
AcDbEntity
  8
Shape2DView002
100
AcDbSpline
210
0
220
0
230
1
 70
8
 71
2
 72
6
 73
3
 74
0
 40
0
 40
0
 40
0
 40
1
 40
1
 40
1
 10
66.2509
 20
-40.2146
 30
0
 10
66.3093
 20
-40.2146
 30
0
 10
66.3852
 20
-40.2178
 30
0
  0
SPLINE
  5
A83
330
A02
100
AcDbEntity
  8
Shape2DView002
100
AcDbSpline
210
0
220
0
230
1
 70
8
 71
2
 72
6
 73
3
 74
0
 40
0
 40
0
 40
0
 40
1
 40
1
 40
1
 10
66.3852
 20
-40.2178
 30
0
 10
66.461
 20
-40.2209
 30
0
 10
66.5416
 20
-40.2288
 30
0
  0
SPLINE
  5
A84
330
A02
100
AcDbEntity
  8
Shape2DView002
100
AcDbSpline
210
0
220
0
230
1
 70
8
 71
2
 72
6
 73
3
 74
0
 40
0
 40
0
 40
0
 40
1
 40
1
 40
1
 10
64.679
 20
-46.935
 30
0
 10
64.679
 20
-47.044
 30
0
 10
64.6032
 20
-47.1214
 30
0
  0
SPLINE
  5
A85
330
A02
100
AcDbEntity
  8
Shape2DView002
100
AcDbSpline
210
0
220
0
230
1
 70
8
 71
2
 72
6
 73
3
 74
0
 40
0
 40
0
 40
0
 40
1
 40
1
 40
1
 10
64.6032
 20
-46.7454
 30
0
 10
64.679
 20
-46.8212
 30
0
 10
64.679
 20
-46.935
 30
0
  0
SPLINE
  5
A86
330
A02
100
AcDbEntity
  8
Shape2DView002
100
AcDbSpline
210
0
220
0
230
1
 70
8
 71
2
 72
6
 73
3
 74
0
 40
0
 40
0
 40
0
 40
1
 40
1
 40
1
 10
64.6032
 20
-47.1214
 30
0
 10
64.5258
 20
-47.1972
 30
0
 10
64.4168
 20
-47.1972
 30
0
  0
SPLINE
  5
A87
330
A02
100
AcDbEntity
  8
Shape2DView002
100
AcDbSpline
210
0
220
0
230
1
 70
8
 71
2
 72
6
 73
3
 74
0
 40
0
 40
0
 40
0
 40
1
 40
1
 40
1
 10
64.4168
 20
-46.668
 30
0
 10
64.5258
 20
-46.668
 30
0
 10
64.6032
 20
-46.7454
 30
0
  0
SPLINE
  5
A88
330
A02
100
AcDbEntity
  8
Shape2DView002
100
AcDbSpline
210
0
220
0
230
1
 70
8
 71
2
 72
6
 73
3
 74
0
 40
0
 40
0
 40
0
 40
1
 40
1
 40
1
 10
64.4168
 20
-47.1972
 30
0
 10
64.3014
 20
-47.1972
 30
0
 10
64.224
 20
-47.1214
 30
0
  0
SPLINE
  5
A89
330
A02
100
AcDbEntity
  8
Shape2DView002
100
AcDbSpline
210
0
220
0
230
1
 70
8
 71
2
 72
6
 73
3
 74
0
 40
0
 40
0
 40
0
 40
1
 40
1
 40
1
 10
64.224
 20
-46.7454
 30
0
 10
64.3014
 20
-46.668
 30
0
 10
64.4168
 20
-46.668
 30
0
  0
SPLINE
  5
A8A
330
A02
100
AcDbEntity
  8
Shape2DView002
100
AcDbSpline
210
0
220
0
230
1
 70
8
 71
2
 72
6
 73
3
 74
0
 40
0
 40
0
 40
0
 40
1
 40
1
 40
1
 10
64.224
 20
-47.1214
 30
0
 10
64.145
 20
-47.044
 30
0
 10
64.145
 20
-46.935
 30
0
  0
SPLINE
  5
A8B
330
A02
100
AcDbEntity
  8
Shape2DView002
100
AcDbSpline
210
0
220
0
230
1
 70
8
 71
2
 72
6
 73
3
 74
0
 40
0
 40
0
 40
0
 40
1
 40
1
 40
1
 10
64.145
 20
-46.935
 30
0
 10
64.145
 20
-46.8212
 30
0
 10
64.224
 20
-46.7454
 30
0
  0
LINE
  5
A8C
330
A02
100
AcDbEntity
  8
Shape2DView002
100
AcDbLine
 10
-45.5
 20
-78.5
 30
0
 11
-45.5
 21
-70.5
 31
0
  0
ARC
  5
A8D
330
A02
100
AcDbEntity
  8
Shape2DView002
100
AcDbCircle
 10
-37.5
 20
-78.5
 30
0
 40
8
100
AcDbArc
 50
180
 51
-90
  0
ARC
  5
A8E
330
A02
100
AcDbEntity
  8
Shape2DView002
100
AcDbCircle
 10
-37.5
 20
-70.5
 30
0
 40
8
100
AcDbArc
 50
90
 51
180
  0
LINE
  5
A8F
330
A02
100
AcDbEntity
  8
Shape2DView002
100
AcDbLine
 10
37.5
 20
-86.5
 30
0
 11
-37.5
 21
-86.5
 31
0
  0
LINE
  5
A90
330
A02
100
AcDbEntity
  8
Shape2DView002
100
AcDbLine
 10
-37.5
 20
-62.5
 30
0
 11
37.5
 21
-62.5
 31
0
  0
ARC
  5
A91
330
A02
100
AcDbEntity
  8
Shape2DView002
100
AcDbCircle
 10
37.5
 20
-78.5
 30
0
 40
8
100
AcDbArc
 50
-90
 51
0
  0
ARC
  5
A92
330
A02
100
AcDbEntity
  8
Shape2DView002
100
AcDbCircle
 10
37.5
 20
-70.5
 30
0
 40
8
100
AcDbArc
 50
0
 51
90
  0
LINE
  5
A93
330
A02
100
AcDbEntity
  8
Shape2DView002
100
AcDbLine
 10
45.5
 20
-70.5
 30
0
 11
45.5
 21
-78.5
 31
0
  0
SPLINE
  5
A94
330
A02
100
AcDbEntity
  8
Shape2DView002
100
AcDbSpline
210
0
220
0
230
1
 70
8
 71
2
 72
6
 73
3
 74
0
 40
0
 40
0
 40
0
 40
1
 40
1
 40
1
 10
67.6727
 20
-39.4247
 30
0
 10
67.6727
 20
-39.5653
 30
0
 10
67.5732
 20
-39.6633
 30
0
  0
SPLINE
  5
A95
330
A02
100
AcDbEntity
  8
Shape2DView002
100
AcDbSpline
210
0
220
0
230
1
 70
8
 71
2
 72
6
 73
3
 74
0
 40
0
 40
0
 40
0
 40
1
 40
1
 40
1
 10
67.5732
 20
-39.183
 30
0
 10
67.6727
 20
-39.2809
 30
0
 10
67.6727
 20
-39.4247
 30
0
  0
SPLINE
  5
A96
330
A02
100
AcDbEntity
  8
Shape2DView002
100
AcDbSpline
210
0
220
0
230
1
 70
8
 71
2
 72
6
 73
3
 74
0
 40
0
 40
0
 40
0
 40
1
 40
1
 40
1
 10
67.5732
 20
-39.6633
 30
0
 10
67.4736
 20
-39.7596
 30
0
 10
67.3425
 20
-39.7596
 30
0
  0
SPLINE
  5
A97
330
A02
100
AcDbEntity
  8
Shape2DView002
100
AcDbSpline
210
0
220
0
230
1
 70
8
 71
2
 72
6
 73
3
 74
0
 40
0
 40
0
 40
0
 40
1
 40
1
 40
1
 10
67.3425
 20
-39.0851
 30
0
 10
67.4736
 20
-39.0851
 30
0
 10
67.5732
 20
-39.183
 30
0
  0
SPLINE
  5
A98
330
A02
100
AcDbEntity
  8
Shape2DView002
100
AcDbSpline
210
0
220
0
230
1
 70
8
 71
2
 72
6
 73
3
 74
0
 40
0
 40
0
 40
0
 40
1
 40
1
 40
1
 10
67.3425
 20
-39.7596
 30
0
 10
67.2114
 20
-39.7596
 30
0
 10
67.1103
 20
-39.6633
 30
0
  0
SPLINE
  5
A99
330
A02
100
AcDbEntity
  8
Shape2DView002
100
AcDbSpline
210
0
220
0
230
1
 70
8
 71
2
 72
6
 73
3
 74
0
 40
0
 40
0
 40
0
 40
1
 40
1
 40
1
 10
67.1103
 20
-39.183
 30
0
 10
67.2114
 20
-39.0851
 30
0
 10
67.3425
 20
-39.0851
 30
0
  0
SPLINE
  5
A9A
330
A02
100
AcDbEntity
  8
Shape2DView002
100
AcDbSpline
210
0
220
0
230
1
 70
8
 71
2
 72
6
 73
3
 74
0
 40
0
 40
0
 40
0
 40
1
 40
1
 40
1
 10
67.1103
 20
-39.6633
 30
0
 10
67.0076
 20
-39.5653
 30
0
 10
67.0076
 20
-39.4247
 30
0
  0
SPLINE
  5
A9B
330
A02
100
AcDbEntity
  8
Shape2DView002
100
AcDbSpline
210
0
220
0
230
1
 70
8
 71
2
 72
6
 73
3
 74
0
 40
0
 40
0
 40
0
 40
1
 40
1
 40
1
 10
67.0076
 20
-39.4247
 30
0
 10
67.0076
 20
-39.2809
 30
0
 10
67.1103
 20
-39.183
 30
0
  0
SPLINE
  5
A9C
330
A02
100
AcDbEntity
  8
Shape2DView002
100
AcDbSpline
210
0
220
0
230
1
 70
8
 71
2
 72
6
 73
3
 74
0
 40
0
 40
0
 40
0
 40
1
 40
1
 40
1
 10
67.668
 20
-37.5021
 30
0
 10
67.668
 20
-38.0108
 30
0
 10
67.3204
 20
-38.3046
 30
0
  0
SPLINE
  5
A9D
330
A02
100
AcDbEntity
  8
Shape2DView002
100
AcDbSpline
210
0
220
0
230
1
 70
8
 71
2
 72
6
 73
3
 74
0
 40
0
 40
0
 40
0
 40
1
 40
1
 40
1
 10
67.51
 20
-36.9192
 30
0
 10
67.668
 20
-37.164
 30
0
 10
67.668
 20
-37.5021
 30
0
  0
SPLINE
  5
A9E
330
A02
100
AcDbEntity
  8
Shape2DView002
100
AcDbSpline
210
0
220
0
230
1
 70
8
 71
2
 72
6
 73
3
 74
0
 40
0
 40
0
 40
0
 40
1
 40
1
 40
1
 10
67.3204
 20
-38.3046
 30
0
 10
66.9713
 20
-38.5985
 30
0
 10
66.3725
 20
-38.5985
 30
0
  0
SPLINE
  5
A9F
330
A02
100
AcDbEntity
  8
Shape2DView002
100
AcDbSpline
210
0
220
0
230
1
 70
8
 71
2
 72
6
 73
3
 74
0
 40
0
 40
0
 40
0
 40
1
 40
1
 40
1
 10
67.0597
 20
-36.54
 30
0
 10
67.352
 20
-36.6727
 30
0
 10
67.51
 20
-36.9192
 30
0
  0
SPLINE
  5
AA0
330
A02
100
AcDbEntity
  8
Shape2DView002
100
AcDbSpline
210
0
220
0
230
1
 70
8
 71
2
 72
6
 73
3
 74
0
 40
0
 40
0
 40
0
 40
1
 40
1
 40
1
 10
66.3725
 20
-38.5985
 30
0
 10
65.9713
 20
-38.5985
 30
0
 10
65.6806
 20
-38.4658
 30
0
  0
SPLINE
  5
AA1
330
A02
100
AcDbEntity
  8
Shape2DView002
100
AcDbSpline
210
0
220
0
230
1
 70
8
 71
2
 72
6
 73
3
 74
0
 40
0
 40
0
 40
0
 40
1
 40
1
 40
1
 10
66.3678
 20
-36.4058
 30
0
 10
66.7675
 20
-36.4058
 30
0
 10
67.0597
 20
-36.54
 30
0
  0
SPLINE
  5
AA2
330
A02
100
AcDbEntity
  8
Shape2DView002
100
AcDbSpline
210
0
220
0
230
1
 70
8
 71
2
 72
6
 73
3
 74
0
 40
0
 40
0
 40
0
 40
1
 40
1
 40
1
 10
65.6806
 20
-38.4658
 30
0
 10
65.3899
 20
-38.3315
 30
0
 10
65.2304
 20
-38.0851
 30
0
  0
SPLINE
  5
AA3
330
A02
100
AcDbEntity
  8
Shape2DView002
100
AcDbSpline
210
0
220
0
230
1
 70
8
 71
2
 72
6
 73
3
 74
0
 40
0
 40
0
 40
0
 40
1
 40
1
 40
1
 10
65.6758
 20
-36.5385
 30
0
 10
65.9665
 20
-36.4058
 30
0
 10
66.3678
 20
-36.4058
 30
0
  0
SPLINE
  5
AA4
330
A02
100
AcDbEntity
  8
Shape2DView002
100
AcDbSpline
210
0
220
0
230
1
 70
8
 71
2
 72
6
 73
3
 74
0
 40
0
 40
0
 40
0
 40
1
 40
1
 40
1
 10
65.2304
 20
-38.0851
 30
0
 10
65.0708
 20
-37.8386
 30
0
 10
65.0708
 20
-37.5021
 30
0
  0
SPLINE
  5
AA5
330
A02
100
AcDbEntity
  8
Shape2DView002
100
AcDbSpline
210
0
220
0
230
1
 70
8
 71
2
 72
6
 73
3
 74
0
 40
0
 40
0
 40
0
 40
1
 40
1
 40
1
 10
65.2272
 20
-36.916
 30
0
 10
65.3836
 20
-36.6696
 30
0
 10
65.6758
 20
-36.5385
 30
0
  0
SPLINE
  5
AA6
330
A02
100
AcDbEntity
  8
Shape2DView002
100
AcDbSpline
210
0
220
0
230
1
 70
8
 71
2
 72
6
 73
3
 74
0
 40
0
 40
0
 40
0
 40
1
 40
1
 40
1
 10
65.0708
 20
-37.5021
 30
0
 10
65.0708
 20
-37.1625
 30
0
 10
65.2272
 20
-36.916
 30
0
  0
CIRCLE
  5
AA7
330
A02
100
AcDbEntity
  8
Shape2DView002
100
AcDbCircle
 10
72.5
 20
-34.48
 40
1.6
  0
LINE
  5
AA8
330
A02
100
AcDbEntity
  8
Shape2DView002
100
AcDbLine
 10
67.6095
 20
-35.7233
 30
0
 11
65.1292
 21
-35.7233
 31
0
  0
LINE
  5
AA9
330
A02
100
AcDbEntity
  8
Shape2DView002
100
AcDbLine
 10
67.6095
 20
-35.3015
 30
0
 11
67.6095
 21
-35.7233
 31
0
  0
LINE
  5
AAA
330
A02
100
AcDbEntity
  8
Shape2DView002
100
AcDbLine
 10
65.1292
 20
-35.7233
 30
0
 11
65.1292
 21
-35.3015
 31
0
  0
LINE
  5
AAB
330
A02
100
AcDbEntity
  8
Shape2DView002
100
AcDbLine
 10
66.2114
 20
-35.3015
 30
0
 11
67.6095
 21
-35.3015
 31
0
  0
LINE
  5
AAC
330
A02
100
AcDbEntity
  8
Shape2DView002
100
AcDbLine
 10
65.1292
 20
-35.3015
 30
0
 11
65.4547
 21
-35.3015
 31
0
  0
SPLINE
  5
AAD
330
A02
100
AcDbEntity
  8
Shape2DView002
100
AcDbSpline
210
0
220
0
230
1
 70
8
 71
2
 72
6
 73
3
 74
0
 40
0
 40
0
 40
0
 40
1
 40
1
 40
1
 10
65.8307
 20
-35.232
 30
0
 10
65.9934
 20
-35.3015
 30
0
 10
66.2114
 20
-35.3015
 30
0
  0
SPLINE
  5
AAE
330
A02
100
AcDbEntity
  8
Shape2DView002
100
AcDbSpline
210
0
220
0
230
1
 70
8
 71
2
 72
6
 73
3
 74
0
 40
0
 40
0
 40
0
 40
1
 40
1
 40
1
 10
65.4547
 20
-35.3015
 30
0
 10
65.2651
 20
-35.2162
 30
0
 10
65.1687
 20
-35.0677
 30
0
  0
SPLINE
  5
AAF
330
A02
100
AcDbEntity
  8
Shape2DView002
100
AcDbSpline
210
0
220
0
230
1
 70
8
 71
2
 72
6
 73
3
 74
0
 40
0
 40
0
 40
0
 40
1
 40
1
 40
1
 10
65.5795
 20
-35.0392
 30
0
 10
65.668
 20
-35.1625
 30
0
 10
65.8307
 20
-35.232
 30
0
  0
SPLINE
  5
AB0
330
A02
100
AcDbEntity
  8
Shape2DView002
100
AcDbSpline
210
0
220
0
230
1
 70
8
 71
2
 72
6
 73
3
 74
0
 40
0
 40
0
 40
0
 40
1
 40
1
 40
1
 10
65.1687
 20
-35.0677
 30
0
 10
65.0708
 20
-34.9176
 30
0
 10
65.0708
 20
-34.7138
 30
0
  0
SPLINE
  5
AB1
330
A02
100
AcDbEntity
  8
Shape2DView002
100
AcDbSpline
210
0
220
0
230
1
 70
8
 71
2
 72
6
 73
3
 74
0
 40
0
 40
0
 40
0
 40
1
 40
1
 40
1
 10
65.4894
 20
-34.7486
 30
0
 10
65.4894
 20
-34.916
 30
0
 10
65.5795
 20
-35.0392
 30
0
  0
SPLINE
  5
AB2
330
A02
100
AcDbEntity
  8
Shape2DView002
100
AcDbSpline
210
0
220
0
230
1
 70
8
 71
2
 72
6
 73
3
 74
0
 40
0
 40
0
 40
0
 40
1
 40
1
 40
1
 10
65.0708
 20
-34.7138
 30
0
 10
65.0708
 20
-34.4879
 30
0
 10
65.1972
 20
-34.3299
 30
0
  0
SPLINE
  5
AB3
330
A02
100
AcDbEntity
  8
Shape2DView002
100
AcDbSpline
210
0
220
0
230
1
 70
8
 71
2
 72
6
 73
3
 74
0
 40
0
 40
0
 40
0
 40
1
 40
1
 40
1
 10
65.5147
 20
-34.5606
 30
0
 10
65.4894
 20
-34.6459
 30
0
 10
65.4894
 20
-34.7486
 30
0
  0
LINE
  5
AB4
330
A02
100
AcDbEntity
  8
Shape2DView002
100
AcDbLine
 10
65.1972
 20
-34.3299
 30
0
 11
65.5953
 21
-34.3931
 31
0
  0
SPLINE
  5
AB5
330
A02
100
AcDbEntity
  8
Shape2DView002
100
AcDbSpline
210
0
220
0
230
1
 70
8
 71
2
 72
6
 73
3
 74
0
 40
0
 40
0
 40
0
 40
1
 40
1
 40
1
 10
65.5953
 20
-34.3931
 30
0
 10
65.54
 20
-34.4737
 30
0
 10
65.5147
 20
-34.5606
 30
0
  0
LINE
  5
AB6
330
A02
100
AcDbEntity
  8
Shape2DView002
100
AcDbLine
 10
68.6427
 20
-33.0408
 30
0
 11
68.3125
 21
-33.2446
 31
0
  0
SPLINE
  5
AB7
330
A02
100
AcDbEntity
  8
Shape2DView002
100
AcDbSpline
210
0
220
0
230
1
 70
8
 71
2
 72
6
 73
3
 74
0
 40
0
 40
0
 40
0
 40
1
 40
1
 40
1
 10
68.5526
 20
-32.5227
 30
0
 10
68.6269
 20
-32.7422
 30
0
 10
68.6427
 20
-33.0408
 30
0
  0
SPLINE
  5
AB8
330
A02
100
AcDbEntity
  8
Shape2DView002
100
AcDbSpline
210
0
220
0
230
1
 70
8
 71
2
 72
6
 73
3
 74
0
 40
0
 40
0
 40
0
 40
1
 40
1
 40
1
 10
68.3125
 20
-33.2446
 30
0
 10
68.2935
 20
-32.9144
 30
0
 10
68.2225
 20
-32.7043
 30
0
  0
SPLINE
  5
AB9
330
A02
100
AcDbEntity
  8
Shape2DView002
100
AcDbSpline
210
0
220
0
230
1
 70
8
 71
2
 72
6
 73
3
 74
0
 40
0
 40
0
 40
0
 40
1
 40
1
 40
1
 10
68.3425
 20
-32.1577
 30
0
 10
68.4784
 20
-32.3031
 30
0
 10
68.5526
 20
-32.5227
 30
0
  0
SPLINE
  5
ABA
330
A02
100
AcDbEntity
  8
Shape2DView002
100
AcDbSpline
210
0
220
0
230
1
 70
8
 71
2
 72
6
 73
3
 74
0
 40
0
 40
0
 40
0
 40
1
 40
1
 40
1
 10
68.2225
 20
-32.7043
 30
0
 10
68.1529
 20
-32.4942
 30
0
 10
68.0234
 20
-32.3947
 30
0
  0
SPLINE
  5
ABB
330
A02
100
AcDbEntity
  8
Shape2DView002
100
AcDbSpline
210
0
220
0
230
1
 70
8
 71
2
 72
6
 73
3
 74
0
 40
0
 40
0
 40
0
 40
1
 40
1
 40
1
 10
68.006
 20
-31.9413
 30
0
 10
68.2067
 20
-32.0108
 30
0
 10
68.3425
 20
-32.1577
 30
0
  0
SPLINE
  5
ABC
330
A02
100
AcDbEntity
  8
Shape2DView002
100
AcDbSpline
210
0
220
0
230
1
 70
8
 71
2
 72
6
 73
3
 74
0
 40
0
 40
0
 40
0
 40
1
 40
1
 40
1
 10
68.0234
 20
-32.3947
 30
0
 10
67.8954
 20
-32.2936
 30
0
 10
67.7011
 20
-32.2936
 30
0
  0
SPLINE
  5
ABD
330
A02
100
AcDbEntity
  8
Shape2DView002
100
AcDbSpline
210
0
220
0
230
1
 70
8
 71
2
 72
6
 73
3
 74
0
 40
0
 40
0
 40
0
 40
1
 40
1
 40
1
 10
67.5416
 20
-31.8702
 30
0
 10
67.8054
 20
-31.8702
 30
0
 10
68.006
 20
-31.9413
 30
0
  0
LINE
  5
ABE
330
A02
100
AcDbEntity
  8
Shape2DView002
100
AcDbLine
 10
67.7011
 20
-32.2936
 30
0
 11
67.3662
 21
-32.2936
 31
0
  0
LINE
  5
ABF
330
A02
100
AcDbEntity
  8
Shape2DView002
100
AcDbLine
 10
65.1292
 20
-31.8702
 30
0
 11
67.5416
 21
-31.8702
 31
0
  0
SPLINE
  5
AC0
330
A02
100
AcDbEntity
  8
Shape2DView002
100
AcDbSpline
210
0
220
0
230
1
 70
8
 71
2
 72
6
 73
3
 74
0
 40
0
 40
0
 40
0
 40
1
 40
1
 40
1
 10
67.3662
 20
-32.2936
 30
0
 10
67.668
 20
-32.5163
 30
0
 10
67.668
 20
-32.9334
 30
0
  0
LINE
  5
AC1
330
A02
100
AcDbEntity
  8
Shape2DView002
100
AcDbLine
 10
65.1292
 20
-32.2936
 30
0
 11
65.1292
 21
-31.8702
 31
0
  0
SPLINE
  5
AC2
330
A02
100
AcDbEntity
  8
Shape2DView002
100
AcDbSpline
210
0
220
0
230
1
 70
8
 71
2
 72
6
 73
3
 74
0
 40
0
 40
0
 40
0
 40
1
 40
1
 40
1
 10
67.668
 20
-32.9334
 30
0
 10
67.668
 20
-33.2399
 30
0
 10
67.5052
 20
-33.4674
 30
0
  0
LINE
  5
AC3
330
A02
100
AcDbEntity
  8
Shape2DView002
100
AcDbLine
 10
65.333
 20
-32.2936
 30
0
 11
65.1292
 21
-32.2936
 31
0
  0
SPLINE
  5
AC4
330
A02
100
AcDbEntity
  8
Shape2DView002
100
AcDbSpline
210
0
220
0
230
1
 70
8
 71
2
 72
6
 73
3
 74
0
 40
0
 40
0
 40
0
 40
1
 40
1
 40
1
 10
67.5052
 20
-33.4674
 30
0
 10
67.3425
 20
-33.6949
 30
0
 10
67.0503
 20
-33.8212
 30
0
  0
SPLINE
  5
AC5
330
A02
100
AcDbEntity
  8
Shape2DView002
100
AcDbSpline
210
0
220
0
230
1
 70
8
 71
2
 72
6
 73
3
 74
0
 40
0
 40
0
 40
0
 40
1
 40
1
 40
1
 10
65.1403
 20
-32.5685
 30
0
 10
65.2098
 20
-32.4042
 30
0
 10
65.333
 20
-32.2936
 30
0
  0
SPLINE
  5
AC6
330
A02
100
AcDbEntity
  8
Shape2DView002
100
AcDbSpline
210
0
220
0
230
1
 70
8
 71
2
 72
6
 73
3
 74
0
 40
0
 40
0
 40
0
 40
1
 40
1
 40
1
 10
67.0503
 20
-33.8212
 30
0
 10
66.758
 20
-33.9476
 30
0
 10
66.3678
 20
-33.9476
 30
0
  0
SPLINE
  5
AC7
330
A02
100
AcDbEntity
  8
Shape2DView002
100
AcDbSpline
210
0
220
0
230
1
 70
8
 71
2
 72
6
 73
3
 74
0
 40
0
 40
0
 40
0
 40
1
 40
1
 40
1
 10
65.0708
 20
-32.9192
 30
0
 10
65.0708
 20
-32.7328
 30
0
 10
65.1403
 20
-32.5685
 30
0
  0
SPLINE
  5
AC8
330
A02
100
AcDbEntity
  8
Shape2DView002
100
AcDbSpline
210
0
220
0
230
1
 70
8
 71
2
 72
6
 73
3
 74
0
 40
0
 40
0
 40
0
 40
1
 40
1
 40
1
 10
66.3678
 20
-33.9476
 30
0
 10
65.9713
 20
-33.9476
 30
0
 10
65.6806
 20
-33.8212
 30
0
  0
SPLINE
  5
AC9
330
A02
100
AcDbEntity
  8
Shape2DView002
100
AcDbSpline
210
0
220
0
230
1
 70
8
 71
2
 72
6
 73
3
 74
0
 40
0
 40
0
 40
0
 40
1
 40
1
 40
1
 10
65.2304
 20
-33.4626
 30
0
 10
65.0708
 20
-33.232
 30
0
 10
65.0708
 20
-32.9192
 30
0
  0
SPLINE
  5
ACA
330
A02
100
AcDbEntity
  8
Shape2DView002
100
AcDbSpline
210
0
220
0
230
1
 70
8
 71
2
 72
6
 73
3
 74
0
 40
0
 40
0
 40
0
 40
1
 40
1
 40
1
 10
65.6806
 20
-33.8212
 30
0
 10
65.3899
 20
-33.6933
 30
0
 10
65.2304
 20
-33.4626
 30
0
  0
CIRCLE
  5
ACB
330
A02
100
AcDbEntity
  8
Shape2DView002
100
AcDbCircle
 10
72.5
 20
-26.5
 40
2.35
  0
LINE
  5
ACC
330
A02
100
AcDbEntity
  8
Shape2DView002
100
AcDbLine
 10
21.499
 20
-22.9415
 30
0
 11
22.4216
 21
-25.0869
 31
0
  0
LINE
  5
ACD
330
A02
100
AcDbEntity
  8
Shape2DView002
100
AcDbLine
 10
20.5874
 20
-25.0774
 30
0
 11
21.499
 21
-22.9415
 31
0
  0
SPLINE
  5
ACE
330
A02
100
AcDbEntity
  8
Shape2DView002
100
AcDbSpline
210
0
220
0
230
1
 70
8
 71
2
 72
6
 73
3
 74
0
 40
0
 40
0
 40
0
 40
1
 40
1
 40
1
 10
22.4216
 20
-25.0869
 30
0
 10
22.4579
 20
-25.1722
 30
0
 10
22.4974
 20
-25.2717
 30
0
  0
SPLINE
  5
ACF
330
A02
100
AcDbEntity
  8
Shape2DView002
100
AcDbSpline
210
0
220
0
230
1
 70
8
 71
2
 72
6
 73
3
 74
0
 40
0
 40
0
 40
0
 40
1
 40
1
 40
1
 10
20.5085
 20
-25.2701
 30
0
 10
20.5495
 20
-25.1643
 30
0
 10
20.5874
 20
-25.0774
 30
0
  0
SPLINE
  5
AD0
330
A02
100
AcDbEntity
  8
Shape2DView002
100
AcDbSpline
210
0
220
0
230
1
 70
8
 71
2
 72
6
 73
3
 74
0
 40
0
 40
0
 40
0
 40
1
 40
1
 40
1
 10
22.4974
 20
-25.2717
 30
0
 10
22.5369
 20
-25.3728
 30
0
 10
22.5669
 20
-25.455
 30
0
  0
SPLINE
  5
AD1
330
A02
100
AcDbEntity
  8
Shape2DView002
100
AcDbSpline
210
0
220
0
230
1
 70
8
 71
2
 72
6
 73
3
 74
0
 40
0
 40
0
 40
0
 40
1
 40
1
 40
1
 10
20.4358
 20
-25.4597
 30
0
 10
20.4658
 20
-25.3776
 30
0
 10
20.5085
 20
-25.2701
 30
0
  0
SPLINE
  5
AD2
330
A02
100
AcDbEntity
  8
Shape2DView002
100
AcDbSpline
210
0
220
0
230
1
 70
8
 71
2
 72
6
 73
3
 74
0
 40
0
 40
0
 40
0
 40
1
 40
1
 40
1
 10
22.5669
 20
-25.455
 30
0
 10
22.559
 20
-25.3902
 30
0
 10
22.5558
 20
-25.2812
 30
0
  0
SPLINE
  5
AD3
330
A02
100
AcDbEntity
  8
Shape2DView002
100
AcDbSpline
210
0
220
0
230
1
 70
8
 71
2
 72
6
 73
3
 74
0
 40
0
 40
0
 40
0
 40
1
 40
1
 40
1
 10
20.4421
 20
-25.2844
 30
0
 10
20.4389
 20
-25.3949
 30
0
 10
20.4358
 20
-25.4597
 30
0
  0
SPLINE
  5
AD4
330
A02
100
AcDbEntity
  8
Shape2DView002
100
AcDbSpline
210
0
220
0
230
1
 70
8
 71
2
 72
6
 73
3
 74
0
 40
0
 40
0
 40
0
 40
1
 40
1
 40
1
 10
22.5558
 20
-25.2812
 30
0
 10
22.5527
 20
-25.1738
 30
0
 10
22.5527
 20
-25.0869
 30
0
  0
SPLINE
  5
AD5
330
A02
100
AcDbEntity
  8
Shape2DView002
100
AcDbSpline
210
0
220
0
230
1
 70
8
 71
2
 72
6
 73
3
 74
0
 40
0
 40
0
 40
0
 40
1
 40
1
 40
1
 10
20.4453
 20
-25.0869
 30
0
 10
20.4453
 20
-25.1738
 30
0
 10
20.4421
 20
-25.2844
 30
0
  0
LINE
  5
AD6
330
A02
100
AcDbEntity
  8
Shape2DView002
100
AcDbLine
 10
22.5527
 20
-25.0869
 30
0
 11
22.5527
 21
-23
 31
0
  0
LINE
  5
AD7
330
A02
100
AcDbEntity
  8
Shape2DView002
100
AcDbLine
 10
20.4453
 20
-23
 30
0
 11
20.4453
 21
-25.0869
 31
0
  0
LINE
  5
AD8
330
A02
100
AcDbEntity
  8
Shape2DView002
100
AcDbLine
 10
22.5527
 20
-23
 30
0
 11
22.9745
 21
-23
 31
0
  0
LINE
  5
AD9
330
A02
100
AcDbEntity
  8
Shape2DView002
100
AcDbLine
 10
20.0235
 20
-23
 30
0
 11
20.4453
 21
-23
 31
0
  0
LINE
  5
ADA
330
A02
100
AcDbEntity
  8
Shape2DView002
100
AcDbLine
 10
22.9745
 20
-23
 30
0
 11
22.9745
 21
-26.3965
 31
0
  0
LINE
  5
ADB
330
A02
100
AcDbEntity
  8
Shape2DView002
100
AcDbLine
 10
20.0235
 20
-26.3965
 30
0
 11
20.0235
 21
-23
 31
0
  0
LINE
  5
ADC
330
A02
100
AcDbEntity
  8
Shape2DView002
100
AcDbLine
 10
22.9745
 20
-26.3965
 30
0
 11
22.5764
 21
-26.3965
 31
0
  0
LINE
  5
ADD
330
A02
100
AcDbEntity
  8
Shape2DView002
100
AcDbLine
 10
20.4263
 20
-26.3965
 30
0
 11
20.0235
 21
-26.3965
 31
0
  0
LINE
  5
ADE
330
A02
100
AcDbEntity
  8
Shape2DView002
100
AcDbLine
 10
22.5764
 20
-26.3965
 30
0
 11
21.5859
 21
-24.1106
 31
0
  0
LINE
  5
ADF
330
A02
100
AcDbEntity
  8
Shape2DView002
100
AcDbLine
 10
21.4121
 20
-24.1106
 30
0
 11
20.4263
 21
-26.3965
 31
0
  0
SPLINE
  5
AE0
330
A02
100
AcDbEntity
  8
Shape2DView002
100
AcDbSpline
210
0
220
0
230
1
 70
8
 71
2
 72
6
 73
3
 74
0
 40
0
 40
0
 40
0
 40
1
 40
1
 40
1
 10
21.5859
 20
-24.1106
 30
0
 10
21.5653
 20
-24.0585
 30
0
 10
21.5432
 20
-24
 30
0
  0
SPLINE
  5
AE1
330
A02
100
AcDbEntity
  8
Shape2DView002
100
AcDbSpline
210
0
220
0
230
1
 70
8
 71
1
 72
4
 73
2
 74
0
 40
0
 40
0
 40
1
 40
1
 10
21.4579
 20
-23.9953
 30
0
 10
21.4121
 20
-24.1106
 30
0
  0
SPLINE
  5
AE2
330
A02
100
AcDbEntity
  8
Shape2DView002
100
AcDbSpline
210
0
220
0
230
1
 70
8
 71
1
 72
4
 73
2
 74
0
 40
0
 40
0
 40
1
 40
1
 10
21.5432
 20
-24
 30
0
 10
21.499
 20
-23.8831
 30
0
  0
SPLINE
  5
AE3
330
A02
100
AcDbEntity
  8
Shape2DView002
100
AcDbSpline
210
0
220
0
230
1
 70
8
 71
1
 72
4
 73
2
 74
0
 40
0
 40
0
 40
1
 40
1
 10
21.499
 20
-23.8831
 30
0
 10
21.4579
 20
-23.9953
 30
0
  0
LINE
  5
AE4
330
A02
100
AcDbEntity
  8
Shape2DView002
100
AcDbLine
 10
19.0314
 20
-23
 30
0
 11
19.0314
 21
-26.3965
 31
0
  0
LINE
  5
AE5
330
A02
100
AcDbEntity
  8
Shape2DView002
100
AcDbLine
 10
18.6096
 20
-23
 30
0
 11
19.0314
 21
-23
 31
0
  0
LINE
  5
AE6
330
A02
100
AcDbEntity
  8
Shape2DView002
100
AcDbLine
 10
19.0314
 20
-26.3965
 30
0
 11
18.6096
 21
-26.3965
 31
0
  0
LINE
  5
AE7
330
A02
100
AcDbEntity
  8
Shape2DView002
100
AcDbLine
 10
18.6096
 20
-26.3965
 30
0
 11
18.6096
 21
-23
 31
0
  0
SPLINE
  5
AE8
330
A02
100
AcDbEntity
  8
Shape2DView002
100
AcDbSpline
210
0
220
0
230
1
 70
8
 71
2
 72
6
 73
3
 74
0
 40
0
 40
0
 40
0
 40
1
 40
1
 40
1
 10
16.3536
 20
-22.9415
 30
0
 10
16.7391
 20
-22.9415
 30
0
 10
17.0092
 20
-23.0916
 30
0
  0
SPLINE
  5
AE9
330
A02
100
AcDbEntity
  8
Shape2DView002
100
AcDbSpline
210
0
220
0
230
1
 70
8
 71
2
 72
6
 73
3
 74
0
 40
0
 40
0
 40
0
 40
1
 40
1
 40
1
 10
15.8355
 20
-23.0332
 30
0
 10
16.0551
 20
-22.9415
 30
0
 10
16.3536
 20
-22.9415
 30
0
  0
SPLINE
  5
AEA
330
A02
100
AcDbEntity
  8
Shape2DView002
100
AcDbSpline
210
0
220
0
230
1
 70
8
 71
2
 72
6
 73
3
 74
0
 40
0
 40
0
 40
0
 40
1
 40
1
 40
1
 10
17.0092
 20
-23.0916
 30
0
 10
17.2778
 20
-23.2433
 30
0
 10
17.4437
 20
-23.4961
 30
0
  0
SPLINE
  5
AEB
330
A02
100
AcDbEntity
  8
Shape2DView002
100
AcDbSpline
210
0
220
0
230
1
 70
8
 71
2
 72
6
 73
3
 74
0
 40
0
 40
0
 40
0
 40
1
 40
1
 40
1
 10
15.4658
 20
-23.2812
 30
0
 10
15.6159
 20
-23.1264
 30
0
 10
15.8355
 20
-23.0332
 30
0
  0
SPLINE
  5
AEC
330
A02
100
AcDbEntity
  8
Shape2DView002
100
AcDbSpline
210
0
220
0
230
1
 70
8
 71
2
 72
6
 73
3
 74
0
 40
0
 40
0
 40
0
 40
1
 40
1
 40
1
 10
17.4437
 20
-23.4961
 30
0
 10
17.608
 20
-23.7504
 30
0
 10
17.6854
 20
-24.0632
 30
0
  0
SPLINE
  5
AED
330
A02
100
AcDbEntity
  8
Shape2DView002
100
AcDbSpline
210
0
220
0
230
1
 70
8
 71
2
 72
6
 73
3
 74
0
 40
0
 40
0
 40
0
 40
1
 40
1
 40
1
 10
15.2288
 20
-23.6256
 30
0
 10
15.3157
 20
-23.436
 30
0
 10
15.4658
 20
-23.2812
 30
0
  0
SPLINE
  5
AEE
330
A02
100
AcDbEntity
  8
Shape2DView002
100
AcDbSpline
210
0
220
0
230
1
 70
8
 71
2
 72
6
 73
3
 74
0
 40
0
 40
0
 40
0
 40
1
 40
1
 40
1
 10
17.6854
 20
-24.0632
 30
0
 10
17.7612
 20
-24.376
 30
0
 10
17.7612
 20
-24.6983
 30
0
  0
LINE
  5
AEF
330
A02
100
AcDbEntity
  8
Shape2DView002
100
AcDbLine
 10
15.6159
 20
-23.7709
 30
0
 11
15.2288
 21
-23.6256
 31
0
  0
SPLINE
  5
AF0
330
A02
100
AcDbEntity
  8
Shape2DView002
100
AcDbSpline
210
0
220
0
230
1
 70
8
 71
2
 72
6
 73
3
 74
0
 40
0
 40
0
 40
0
 40
1
 40
1
 40
1
 10
17.7612
 20
-24.6983
 30
0
 10
17.7612
 20
-25.019
 30
0
 10
17.6822
 20
-25.3302
 30
0
  0
SPLINE
  5
AF1
330
A02
100
AcDbEntity
  8
Shape2DView002
100
AcDbSpline
210
0
220
0
230
1
 70
8
 71
2
 72
6
 73
3
 74
0
 40
0
 40
0
 40
0
 40
1
 40
1
 40
1
 10
15.9034
 20
-23.4597
 30
0
 10
15.7328
 20
-23.5798
 30
0
 10
15.6159
 20
-23.7709
 30
0
  0
SPLINE
  5
AF2
330
A02
100
AcDbEntity
  8
Shape2DView002
100
AcDbSpline
210
0
220
0
230
1
 70
8
 71
2
 72
6
 73
3
 74
0
 40
0
 40
0
 40
0
 40
1
 40
1
 40
1
 10
17.6822
 20
-25.3302
 30
0
 10
17.6032
 20
-25.643
 30
0
 10
17.4358
 20
-25.8973
 30
0
  0
SPLINE
  5
AF3
330
A02
100
AcDbEntity
  8
Shape2DView002
100
AcDbSpline
210
0
220
0
230
1
 70
8
 71
2
 72
6
 73
3
 74
0
 40
0
 40
0
 40
0
 40
1
 40
1
 40
1
 10
16.3536
 20
-23.3397
 30
0
 10
16.0724
 20
-23.3397
 30
0
 10
15.9034
 20
-23.4597
 30
0
  0
SPLINE
  5
AF4
330
A02
100
AcDbEntity
  8
Shape2DView002
100
AcDbSpline
210
0
220
0
230
1
 70
8
 71
2
 72
6
 73
3
 74
0
 40
0
 40
0
 40
0
 40
1
 40
1
 40
1
 10
17.4358
 20
-25.8973
 30
0
 10
17.2683
 20
-26.1517
 30
0
 10
17.0013
 20
-26.3033
 30
0
  0
SPLINE
  5
AF5
330
A02
100
AcDbEntity
  8
Shape2DView002
100
AcDbSpline
210
0
220
0
230
1
 70
8
 71
2
 72
6
 73
3
 74
0
 40
0
 40
0
 40
0
 40
1
 40
1
 40
1
 10
16.7928
 20
-23.455
 30
0
 10
16.6096
 20
-23.3397
 30
0
 10
16.3536
 20
-23.3397
 30
0
  0
SPLINE
  5
AF6
330
A02
100
AcDbEntity
  8
Shape2DView002
100
AcDbSpline
210
0
220
0
230
1
 70
8
 71
2
 72
6
 73
3
 74
0
 40
0
 40
0
 40
0
 40
1
 40
1
 40
1
 10
17.0013
 20
-26.3033
 30
0
 10
16.7328
 20
-26.455
 30
0
 10
16.3536
 20
-26.455
 30
0
  0
SPLINE
  5
AF7
330
A02
100
AcDbEntity
  8
Shape2DView002
100
AcDbSpline
210
0
220
0
230
1
 70
8
 71
2
 72
6
 73
3
 74
0
 40
0
 40
0
 40
0
 40
1
 40
1
 40
1
 10
17.0945
 20
-23.7646
 30
0
 10
16.9745
 20
-23.5703
 30
0
 10
16.7928
 20
-23.455
 30
0
  0
SPLINE
  5
AF8
330
A02
100
AcDbEntity
  8
Shape2DView002
100
AcDbSpline
210
0
220
0
230
1
 70
8
 71
2
 72
6
 73
3
 74
0
 40
0
 40
0
 40
0
 40
1
 40
1
 40
1
 10
16.3536
 20
-26.455
 30
0
 10
16.0408
 20
-26.455
 30
0
 10
15.8244
 20
-26.3649
 30
0
  0
SPLINE
  5
AF9
330
A02
100
AcDbEntity
  8
Shape2DView002
100
AcDbSpline
210
0
220
0
230
1
 70
8
 71
2
 72
6
 73
3
 74
0
 40
0
 40
0
 40
0
 40
1
 40
1
 40
1
 10
17.2699
 20
-24.2022
 30
0
 10
17.213
 20
-23.9605
 30
0
 10
17.0945
 20
-23.7646
 30
0
  0
SPLINE
  5
AFA
330
A02
100
AcDbEntity
  8
Shape2DView002
100
AcDbSpline
210
0
220
0
230
1
 70
8
 71
2
 72
6
 73
3
 74
0
 40
0
 40
0
 40
0
 40
1
 40
1
 40
1
 10
15.8244
 20
-26.3649
 30
0
 10
15.6064
 20
-26.2765
 30
0
 10
15.4705
 20
-26.1359
 30
0
  0
SPLINE
  5
AFB
330
A02
100
AcDbEntity
  8
Shape2DView002
100
AcDbSpline
210
0
220
0
230
1
 70
8
 71
2
 72
6
 73
3
 74
0
 40
0
 40
0
 40
0
 40
1
 40
1
 40
1
 10
17.3252
 20
-24.6983
 30
0
 10
17.3252
 20
-24.4455
 30
0
 10
17.2699
 20
-24.2022
 30
0
  0
SPLINE
  5
AFC
330
A02
100
AcDbEntity
  8
Shape2DView002
100
AcDbSpline
210
0
220
0
230
1
 70
8
 71
2
 72
6
 73
3
 74
0
 40
0
 40
0
 40
0
 40
1
 40
1
 40
1
 10
15.4705
 20
-26.1359
 30
0
 10
15.3331
 20
-25.9968
 30
0
 10
15.2573
 20
-25.8436
 30
0
  0
SPLINE
  5
AFD
330
A02
100
AcDbEntity
  8
Shape2DView002
100
AcDbSpline
210
0
220
0
230
1
 70
8
 71
2
 72
6
 73
3
 74
0
 40
0
 40
0
 40
0
 40
1
 40
1
 40
1
 10
17.2762
 20
-25.1722
 30
0
 10
17.3252
 20
-24.9321
 30
0
 10
17.3252
 20
-24.6983
 30
0
  0
LINE
  5
AFE
330
A02
100
AcDbEntity
  8
Shape2DView002
100
AcDbLine
 10
15.2573
 20
-25.8436
 30
0
 11
15.6364
 21
-25.6493
 31
0
  0
SPLINE
  5
AFF
330
A02
100
AcDbEntity
  8
Shape2DView002
100
AcDbSpline
210
0
220
0
230
1
 70
8
 71
2
 72
6
 73
3
 74
0
 40
0
 40
0
 40
0
 40
1
 40
1
 40
1
 10
17.1135
 20
-25.613
 30
0
 10
17.2257
 20
-25.4123
 30
0
 10
17.2762
 20
-25.1722
 30
0
  0
SPLINE
  5
B00
330
A02
100
AcDbEntity
  8
Shape2DView002
100
AcDbSpline
210
0
220
0
230
1
 70
8
 71
2
 72
6
 73
3
 74
0
 40
0
 40
0
 40
0
 40
1
 40
1
 40
1
 10
15.6364
 20
-25.6493
 30
0
 10
15.7154
 20
-25.7694
 30
0
 10
15.8102
 20
-25.8626
 30
0
  0
SPLINE
  5
B01
330
A02
100
AcDbEntity
  8
Shape2DView002
100
AcDbSpline
210
0
220
0
230
1
 70
8
 71
2
 72
6
 73
3
 74
0
 40
0
 40
0
 40
0
 40
1
 40
1
 40
1
 10
16.8133
 20
-25.9384
 30
0
 10
16.9998
 20
-25.8152
 30
0
 10
17.1135
 20
-25.613
 30
0
  0
SPLINE
  5
B02
330
A02
100
AcDbEntity
  8
Shape2DView002
100
AcDbSpline
210
0
220
0
230
1
 70
8
 71
2
 72
6
 73
3
 74
0
 40
0
 40
0
 40
0
 40
1
 40
1
 40
1
 10
15.8102
 20
-25.8626
 30
0
 10
15.905
 20
-25.9558
 30
0
 10
16.0361
 20
-26.0079
 30
0
  0
SPLINE
  5
B03
330
A02
100
AcDbEntity
  8
Shape2DView002
100
AcDbSpline
210
0
220
0
230
1
 70
8
 71
2
 72
6
 73
3
 74
0
 40
0
 40
0
 40
0
 40
1
 40
1
 40
1
 10
16.3536
 20
-26.0616
 30
0
 10
16.6254
 20
-26.0616
 30
0
 10
16.8133
 20
-25.9384
 30
0
  0
SPLINE
  5
B04
330
A02
100
AcDbEntity
  8
Shape2DView002
100
AcDbSpline
210
0
220
0
230
1
 70
8
 71
2
 72
6
 73
3
 74
0
 40
0
 40
0
 40
0
 40
1
 40
1
 40
1
 10
16.0361
 20
-26.0079
 30
0
 10
16.1672
 20
-26.0616
 30
0
 10
16.3536
 20
-26.0616
 30
0
  0
LINE
  5
B05
330
A02
100
AcDbEntity
  8
Shape2DView002
100
AcDbLine
 10
14.4816
 20
-23
 30
0
 11
14.4816
 21
-26.3965
 31
0
  0
LINE
  5
B06
330
A02
100
AcDbEntity
  8
Shape2DView002
100
AcDbLine
 10
14.0598
 20
-23
 30
0
 11
14.4816
 21
-23
 31
0
  0
LINE
  5
B07
330
A02
100
AcDbEntity
  8
Shape2DView002
100
AcDbLine
 10
14.4816
 20
-26.3965
 30
0
 11
13.1419
 21
-26.3965
 31
0
  0
LINE
  5
B08
330
A02
100
AcDbEntity
  8
Shape2DView002
100
AcDbLine
 10
14.0598
 20
-24.4566
 30
0
 11
14.0598
 21
-23
 31
0
  0
SPLINE
  5
B09
330
A02
100
AcDbEntity
  8
Shape2DView002
100
AcDbSpline
210
0
220
0
230
1
 70
8
 71
2
 72
6
 73
3
 74
0
 40
0
 40
0
 40
0
 40
1
 40
1
 40
1
 10
13.1419
 20
-26.3965
 30
0
 10
12.7344
 20
-26.3965
 30
0
 10
12.5006
 20
-26.2559
 30
0
  0
LINE
  5
B0A
330
A02
100
AcDbEntity
  8
Shape2DView002
100
AcDbLine
 10
13.3078
 20
-24.4566
 30
0
 11
14.0598
 21
-24.4566
 31
0
  0
SPLINE
  5
B0B
330
A02
100
AcDbEntity
  8
Shape2DView002
100
AcDbSpline
210
0
220
0
230
1
 70
8
 71
2
 72
6
 73
3
 74
0
 40
0
 40
0
 40
0
 40
1
 40
1
 40
1
 10
12.5006
 20
-26.2559
 30
0
 10
12.2667
 20
-26.1153
 30
0
 10
12.1688
 20
-25.8926
 30
0
  0
LINE
  5
B0C
330
A02
100
AcDbEntity
  8
Shape2DView002
100
AcDbLine
 10
12.608
 20
-23
 30
0
 11
13.3078
 21
-24.4566
 31
0
  0
SPLINE
  5
B0D
330
A02
100
AcDbEntity
  8
Shape2DView002
100
AcDbSpline
210
0
220
0
230
1
 70
8
 71
2
 72
6
 73
3
 74
0
 40
0
 40
0
 40
0
 40
1
 40
1
 40
1
 10
12.1688
 20
-25.8926
 30
0
 10
12.0693
 20
-25.6714
 30
0
 10
12.0693
 20
-25.4313
 30
0
  0
LINE
  5
B0E
330
A02
100
AcDbEntity
  8
Shape2DView002
100
AcDbLine
 10
12.1325
 20
-23
 30
0
 11
12.608
 21
-23
 31
0
  0
SPLINE
  5
B0F
330
A02
100
AcDbEntity
  8
Shape2DView002
100
AcDbSpline
210
0
220
0
230
1
 70
8
 71
2
 72
6
 73
3
 74
0
 40
0
 40
0
 40
0
 40
1
 40
1
 40
1
 10
12.0693
 20
-25.4313
 30
0
 10
12.0693
 20
-25.2306
 30
0
 10
12.1483
 20
-25.0348
 30
0
  0
LINE
  5
B10
330
A02
100
AcDbEntity
  8
Shape2DView002
100
AcDbLine
 10
12.8607
 20
-24.485
 30
0
 11
12.1325
 21
-23
 31
0
  0
SPLINE
  5
B11
330
A02
100
AcDbEntity
  8
Shape2DView002
100
AcDbSpline
210
0
220
0
230
1
 70
8
 71
2
 72
6
 73
3
 74
0
 40
0
 40
0
 40
0
 40
1
 40
1
 40
1
 10
12.1483
 20
-25.0348
 30
0
 10
12.2273
 20
-24.8389
 30
0
 10
12.4026
 20
-24.6904
 30
0
  0
SPLINE
  5
B12
330
A02
100
AcDbEntity
  8
Shape2DView002
100
AcDbSpline
210
0
220
0
230
1
 70
8
 71
2
 72
6
 73
3
 74
0
 40
0
 40
0
 40
0
 40
1
 40
1
 40
1
 10
12.4026
 20
-24.6904
 30
0
 10
12.5764
 20
-24.5434
 30
0
 10
12.8607
 20
-24.485
 30
0
  0
SPLINE
  5
B13
330
A02
100
AcDbEntity
  8
Shape2DView002
100
AcDbSpline
210
0
220
0
230
1
 70
8
 71
2
 72
6
 73
3
 74
0
 40
0
 40
0
 40
0
 40
1
 40
1
 40
1
 10
9.95079
 20
-22.9415
 30
0
 10
10.3505
 20
-22.9415
 30
0
 10
10.6269
 20
-23.0948
 30
0
  0
SPLINE
  5
B14
330
A02
100
AcDbEntity
  8
Shape2DView002
100
AcDbSpline
210
0
220
0
230
1
 70
8
 71
2
 72
6
 73
3
 74
0
 40
0
 40
0
 40
0
 40
1
 40
1
 40
1
 10
9.27148
 20
-23.0948
 30
0
 10
9.54795
 20
-22.9415
 30
0
 10
9.95079
 20
-22.9415
 30
0
  0
SPLINE
  5
B15
330
A02
100
AcDbEntity
  8
Shape2DView002
100
AcDbSpline
210
0
220
0
230
1
 70
8
 71
2
 72
6
 73
3
 74
0
 40
0
 40
0
 40
0
 40
1
 40
1
 40
1
 10
10.6269
 20
-23.0948
 30
0
 10
10.9034
 20
-23.2496
 30
0
 10
11.0709
 20
-23.5055
 30
0
  0
SPLINE
  5
B16
330
A02
100
AcDbEntity
  8
Shape2DView002
100
AcDbSpline
210
0
220
0
230
1
 70
8
 71
2
 72
6
 73
3
 74
0
 40
0
 40
0
 40
0
 40
1
 40
1
 40
1
 10
8.82757
 20
-23.5055
 30
0
 10
8.99502
 20
-23.2496
 30
0
 10
9.27148
 20
-23.0948
 30
0
  0
SPLINE
  5
B17
330
A02
100
AcDbEntity
  8
Shape2DView002
100
AcDbSpline
210
0
220
0
230
1
 70
8
 71
2
 72
6
 73
3
 74
0
 40
0
 40
0
 40
0
 40
1
 40
1
 40
1
 10
11.0709
 20
-23.5055
 30
0
 10
11.2383
 20
-23.7615
 30
0
 10
11.3157
 20
-24.0727
 30
0
  0
SPLINE
  5
B18
330
A02
100
AcDbEntity
  8
Shape2DView002
100
AcDbSpline
210
0
220
0
230
1
 70
8
 71
2
 72
6
 73
3
 74
0
 40
0
 40
0
 40
0
 40
1
 40
1
 40
1
 10
8.58428
 20
-24.0727
 30
0
 10
8.66011
 20
-23.7615
 30
0
 10
8.82757
 20
-23.5055
 30
0
  0
SPLINE
  5
B19
330
A02
100
AcDbEntity
  8
Shape2DView002
100
AcDbSpline
210
0
220
0
230
1
 70
8
 71
2
 72
6
 73
3
 74
0
 40
0
 40
0
 40
0
 40
1
 40
1
 40
1
 10
11.3157
 20
-24.0727
 30
0
 10
11.3915
 20
-24.3839
 30
0
 10
11.3915
 20
-24.6983
 30
0
  0
SPLINE
  5
B1A
330
A02
100
AcDbEntity
  8
Shape2DView002
100
AcDbSpline
210
0
220
0
230
1
 70
8
 71
2
 72
6
 73
3
 74
0
 40
0
 40
0
 40
0
 40
1
 40
1
 40
1
 10
8.50845
 20
-24.6983
 30
0
 10
8.50845
 20
-24.3839
 30
0
 10
8.58428
 20
-24.0727
 30
0
  0
SPLINE
  5
B1B
330
A02
100
AcDbEntity
  8
Shape2DView002
100
AcDbSpline
210
0
220
0
230
1
 70
8
 71
2
 72
6
 73
3
 74
0
 40
0
 40
0
 40
0
 40
1
 40
1
 40
1
 10
11.3915
 20
-24.6983
 30
0
 10
11.3915
 20
-25.0142
 30
0
 10
11.3157
 20
-25.3239
 30
0
  0
SPLINE
  5
B1C
330
A02
100
AcDbEntity
  8
Shape2DView002
100
AcDbSpline
210
0
220
0
230
1
 70
8
 71
2
 72
6
 73
3
 74
0
 40
0
 40
0
 40
0
 40
1
 40
1
 40
1
 10
8.58428
 20
-25.3239
 30
0
 10
8.50845
 20
-25.0142
 30
0
 10
8.50845
 20
-24.6983
 30
0
  0
SPLINE
  5
B1D
330
A02
100
AcDbEntity
  8
Shape2DView002
100
AcDbSpline
210
0
220
0
230
1
 70
8
 71
2
 72
6
 73
3
 74
0
 40
0
 40
0
 40
0
 40
1
 40
1
 40
1
 10
11.3157
 20
-25.3239
 30
0
 10
11.2383
 20
-25.6351
 30
0
 10
11.0709
 20
-25.891
 30
0
  0
SPLINE
  5
B1E
330
A02
100
AcDbEntity
  8
Shape2DView002
100
AcDbSpline
210
0
220
0
230
1
 70
8
 71
2
 72
6
 73
3
 74
0
 40
0
 40
0
 40
0
 40
1
 40
1
 40
1
 10
8.82757
 20
-25.891
 30
0
 10
8.66011
 20
-25.6351
 30
0
 10
8.58428
 20
-25.3239
 30
0
  0
SPLINE
  5
B1F
330
A02
100
AcDbEntity
  8
Shape2DView002
100
AcDbSpline
210
0
220
0
230
1
 70
8
 71
2
 72
6
 73
3
 74
0
 40
0
 40
0
 40
0
 40
1
 40
1
 40
1
 10
11.0709
 20
-25.891
 30
0
 10
10.9034
 20
-26.1469
 30
0
 10
10.6269
 20
-26.3002
 30
0
  0
SPLINE
  5
B20
330
A02
100
AcDbEntity
  8
Shape2DView002
100
AcDbSpline
210
0
220
0
230
1
 70
8
 71
2
 72
6
 73
3
 74
0
 40
0
 40
0
 40
0
 40
1
 40
1
 40
1
 10
9.27148
 20
-26.3002
 30
0
 10
8.99502
 20
-26.1469
 30
0
 10
8.82757
 20
-25.891
 30
0
  0
SPLINE
  5
B21
330
A02
100
AcDbEntity
  8
Shape2DView002
100
AcDbSpline
210
0
220
0
230
1
 70
8
 71
2
 72
6
 73
3
 74
0
 40
0
 40
0
 40
0
 40
1
 40
1
 40
1
 10
10.6269
 20
-26.3002
 30
0
 10
10.3505
 20
-26.455
 30
0
 10
9.95079
 20
-26.455
 30
0
  0
SPLINE
  5
B22
330
A02
100
AcDbEntity
  8
Shape2DView002
100
AcDbSpline
210
0
220
0
230
1
 70
8
 71
2
 72
6
 73
3
 74
0
 40
0
 40
0
 40
0
 40
1
 40
1
 40
1
 10
9.95079
 20
-26.455
 30
0
 10
9.54795
 20
-26.455
 30
0
 10
9.27148
 20
-26.3002
 30
0
  0
SPLINE
  5
B23
330
A02
100
AcDbEntity
  8
Shape2DView002
100
AcDbSpline
210
0
220
0
230
1
 70
8
 71
2
 72
6
 73
3
 74
0
 40
0
 40
0
 40
0
 40
1
 40
1
 40
1
 10
5.3331
 20
-22.9415
 30
0
 10
5.71856
 20
-22.9415
 30
0
 10
5.9887
 20
-23.0916
 30
0
  0
SPLINE
  5
B24
330
A02
100
AcDbEntity
  8
Shape2DView002
100
AcDbSpline
210
0
220
0
230
1
 70
8
 71
2
 72
6
 73
3
 74
0
 40
0
 40
0
 40
0
 40
1
 40
1
 40
1
 10
4.81493
 20
-23.0332
 30
0
 10
5.03452
 20
-22.9415
 30
0
 10
5.3331
 20
-22.9415
 30
0
  0
SPLINE
  5
B25
330
A02
100
AcDbEntity
  8
Shape2DView002
100
AcDbSpline
210
0
220
0
230
1
 70
8
 71
2
 72
6
 73
3
 74
0
 40
0
 40
0
 40
0
 40
1
 40
1
 40
1
 10
5.9887
 20
-23.0916
 30
0
 10
6.25727
 20
-23.2433
 30
0
 10
6.42314
 20
-23.4961
 30
0
  0
SPLINE
  5
B26
330
A02
100
AcDbEntity
  8
Shape2DView002
100
AcDbSpline
210
0
220
0
230
1
 70
8
 71
2
 72
6
 73
3
 74
0
 40
0
 40
0
 40
0
 40
1
 40
1
 40
1
 10
4.44526
 20
-23.2812
 30
0
 10
4.59534
 20
-23.1264
 30
0
 10
4.81493
 20
-23.0332
 30
0
  0
SPLINE
  5
B27
330
A02
100
AcDbEntity
  8
Shape2DView002
100
AcDbSpline
210
0
220
0
230
1
 70
8
 71
2
 72
6
 73
3
 74
0
 40
0
 40
0
 40
0
 40
1
 40
1
 40
1
 10
6.42314
 20
-23.4961
 30
0
 10
6.58744
 20
-23.7504
 30
0
 10
6.66485
 20
-24.0632
 30
0
  0
SPLINE
  5
B28
330
A02
100
AcDbEntity
  8
Shape2DView002
100
AcDbSpline
210
0
220
0
230
1
 70
8
 71
2
 72
6
 73
3
 74
0
 40
0
 40
0
 40
0
 40
1
 40
1
 40
1
 10
4.20829
 20
-23.6256
 30
0
 10
4.29518
 20
-23.436
 30
0
 10
4.44526
 20
-23.2812
 30
0
  0
SPLINE
  5
B29
330
A02
100
AcDbEntity
  8
Shape2DView002
100
AcDbSpline
210
0
220
0
230
1
 70
8
 71
2
 72
6
 73
3
 74
0
 40
0
 40
0
 40
0
 40
1
 40
1
 40
1
 10
6.66485
 20
-24.0632
 30
0
 10
6.74068
 20
-24.376
 30
0
 10
6.74068
 20
-24.6983
 30
0
  0
LINE
  5
B2A
330
A02
100
AcDbEntity
  8
Shape2DView002
100
AcDbLine
 10
4.59534
 20
-23.7709
 30
0
 11
4.20829
 21
-23.6256
 31
0
  0
SPLINE
  5
B2B
330
A02
100
AcDbEntity
  8
Shape2DView002
100
AcDbSpline
210
0
220
0
230
1
 70
8
 71
2
 72
6
 73
3
 74
0
 40
0
 40
0
 40
0
 40
1
 40
1
 40
1
 10
6.74068
 20
-24.6983
 30
0
 10
6.74068
 20
-25.019
 30
0
 10
6.66169
 20
-25.3302
 30
0
  0
SPLINE
  5
B2C
330
A02
100
AcDbEntity
  8
Shape2DView002
100
AcDbSpline
210
0
220
0
230
1
 70
8
 71
2
 72
6
 73
3
 74
0
 40
0
 40
0
 40
0
 40
1
 40
1
 40
1
 10
4.88286
 20
-23.4597
 30
0
 10
4.71224
 20
-23.5798
 30
0
 10
4.59534
 20
-23.7709
 30
0
  0
SPLINE
  5
B2D
330
A02
100
AcDbEntity
  8
Shape2DView002
100
AcDbSpline
210
0
220
0
230
1
 70
8
 71
2
 72
6
 73
3
 74
0
 40
0
 40
0
 40
0
 40
1
 40
1
 40
1
 10
6.66169
 20
-25.3302
 30
0
 10
6.5827
 20
-25.643
 30
0
 10
6.41524
 20
-25.8973
 30
0
  0
SPLINE
  5
B2E
330
A02
100
AcDbEntity
  8
Shape2DView002
100
AcDbSpline
210
0
220
0
230
1
 70
8
 71
2
 72
6
 73
3
 74
0
 40
0
 40
0
 40
0
 40
1
 40
1
 40
1
 10
5.3331
 20
-23.3397
 30
0
 10
5.0519
 20
-23.3397
 30
0
 10
4.88286
 20
-23.4597
 30
0
  0
SPLINE
  5
B2F
330
A02
100
AcDbEntity
  8
Shape2DView002
100
AcDbSpline
210
0
220
0
230
1
 70
8
 71
2
 72
6
 73
3
 74
0
 40
0
 40
0
 40
0
 40
1
 40
1
 40
1
 10
6.41524
 20
-25.8973
 30
0
 10
6.24779
 20
-26.1517
 30
0
 10
5.98081
 20
-26.3033
 30
0
  0
SPLINE
  5
B30
330
A02
100
AcDbEntity
  8
Shape2DView002
100
AcDbSpline
210
0
220
0
230
1
 70
8
 71
2
 72
6
 73
3
 74
0
 40
0
 40
0
 40
0
 40
1
 40
1
 40
1
 10
5.77227
 20
-23.455
 30
0
 10
5.58902
 20
-23.3397
 30
0
 10
5.3331
 20
-23.3397
 30
0
  0
SPLINE
  5
B31
330
A02
100
AcDbEntity
  8
Shape2DView002
100
AcDbSpline
210
0
220
0
230
1
 70
8
 71
2
 72
6
 73
3
 74
0
 40
0
 40
0
 40
0
 40
1
 40
1
 40
1
 10
5.98081
 20
-26.3033
 30
0
 10
5.71224
 20
-26.455
 30
0
 10
5.3331
 20
-26.455
 30
0
  0
SPLINE
  5
B32
330
A02
100
AcDbEntity
  8
Shape2DView002
100
AcDbSpline
210
0
220
0
230
1
 70
8
 71
2
 72
6
 73
3
 74
0
 40
0
 40
0
 40
0
 40
1
 40
1
 40
1
 10
6.07401
 20
-23.7646
 30
0
 10
5.95395
 20
-23.5703
 30
0
 10
5.77227
 20
-23.455
 30
0
  0
SPLINE
  5
B33
330
A02
100
AcDbEntity
  8
Shape2DView002
100
AcDbSpline
210
0
220
0
230
1
 70
8
 71
2
 72
6
 73
3
 74
0
 40
0
 40
0
 40
0
 40
1
 40
1
 40
1
 10
5.3331
 20
-26.455
 30
0
 10
5.0203
 20
-26.455
 30
0
 10
4.80387
 20
-26.3649
 30
0
  0
SPLINE
  5
B34
330
A02
100
AcDbEntity
  8
Shape2DView002
100
AcDbSpline
210
0
220
0
230
1
 70
8
 71
2
 72
6
 73
3
 74
0
 40
0
 40
0
 40
0
 40
1
 40
1
 40
1
 10
6.24937
 20
-24.2022
 30
0
 10
6.1925
 20
-23.9605
 30
0
 10
6.07401
 20
-23.7646
 30
0
  0
SPLINE
  5
B35
330
A02
100
AcDbEntity
  8
Shape2DView002
100
AcDbSpline
210
0
220
0
230
1
 70
8
 71
2
 72
6
 73
3
 74
0
 40
0
 40
0
 40
0
 40
1
 40
1
 40
1
 10
4.80387
 20
-26.3649
 30
0
 10
4.58586
 20
-26.2765
 30
0
 10
4.45
 20
-26.1359
 30
0
  0
SPLINE
  5
B36
330
A02
100
AcDbEntity
  8
Shape2DView002
100
AcDbSpline
210
0
220
0
230
1
 70
8
 71
2
 72
6
 73
3
 74
0
 40
0
 40
0
 40
0
 40
1
 40
1
 40
1
 10
6.30466
 20
-24.6983
 30
0
 10
6.30466
 20
-24.4455
 30
0
 10
6.24937
 20
-24.2022
 30
0
  0
SPLINE
  5
B37
330
A02
100
AcDbEntity
  8
Shape2DView002
100
AcDbSpline
210
0
220
0
230
1
 70
8
 71
2
 72
6
 73
3
 74
0
 40
0
 40
0
 40
0
 40
1
 40
1
 40
1
 10
4.45
 20
-26.1359
 30
0
 10
4.31256
 20
-25.9968
 30
0
 10
4.23673
 20
-25.8436
 30
0
  0
SPLINE
  5
B38
330
A02
100
AcDbEntity
  8
Shape2DView002
100
AcDbSpline
210
0
220
0
230
1
 70
8
 71
2
 72
6
 73
3
 74
0
 40
0
 40
0
 40
0
 40
1
 40
1
 40
1
 10
6.25569
 20
-25.1722
 30
0
 10
6.30466
 20
-24.9321
 30
0
 10
6.30466
 20
-24.6983
 30
0
  0
LINE
  5
B39
330
A02
100
AcDbEntity
  8
Shape2DView002
100
AcDbLine
 10
4.23673
 20
-25.8436
 30
0
 11
4.61588
 21
-25.6493
 31
0
  0
SPLINE
  5
B3A
330
A02
100
AcDbEntity
  8
Shape2DView002
100
AcDbSpline
210
0
220
0
230
1
 70
8
 71
2
 72
6
 73
3
 74
0
 40
0
 40
0
 40
0
 40
1
 40
1
 40
1
 10
6.09297
 20
-25.613
 30
0
 10
6.20513
 20
-25.4123
 30
0
 10
6.25569
 20
-25.1722
 30
0
  0
SPLINE
  5
B3B
330
A02
100
AcDbEntity
  8
Shape2DView002
100
AcDbSpline
210
0
220
0
230
1
 70
8
 71
2
 72
6
 73
3
 74
0
 40
0
 40
0
 40
0
 40
1
 40
1
 40
1
 10
4.61588
 20
-25.6493
 30
0
 10
4.69487
 20
-25.7694
 30
0
 10
4.78965
 20
-25.8626
 30
0
  0
SPLINE
  5
B3C
330
A02
100
AcDbEntity
  8
Shape2DView002
100
AcDbSpline
210
0
220
0
230
1
 70
8
 71
2
 72
6
 73
3
 74
0
 40
0
 40
0
 40
0
 40
1
 40
1
 40
1
 10
5.79281
 20
-25.9384
 30
0
 10
5.97923
 20
-25.8152
 30
0
 10
6.09297
 20
-25.613
 30
0
  0
SPLINE
  5
B3D
330
A02
100
AcDbEntity
  8
Shape2DView002
100
AcDbSpline
210
0
220
0
230
1
 70
8
 71
2
 72
6
 73
3
 74
0
 40
0
 40
0
 40
0
 40
1
 40
1
 40
1
 10
4.78965
 20
-25.8626
 30
0
 10
4.88444
 20
-25.9558
 30
0
 10
5.01556
 20
-26.0079
 30
0
  0
SPLINE
  5
B3E
330
A02
100
AcDbEntity
  8
Shape2DView002
100
AcDbSpline
210
0
220
0
230
1
 70
8
 71
2
 72
6
 73
3
 74
0
 40
0
 40
0
 40
0
 40
1
 40
1
 40
1
 10
5.3331
 20
-26.0616
 30
0
 10
5.60482
 20
-26.0616
 30
0
 10
5.79281
 20
-25.9384
 30
0
  0
SPLINE
  5
B3F
330
A02
100
AcDbEntity
  8
Shape2DView002
100
AcDbSpline
210
0
220
0
230
1
 70
8
 71
2
 72
6
 73
3
 74
0
 40
0
 40
0
 40
0
 40
1
 40
1
 40
1
 10
5.01556
 20
-26.0079
 30
0
 10
5.14668
 20
-26.0616
 30
0
 10
5.3331
 20
-26.0616
 30
0
  0
SPLINE
  5
B40
330
A02
100
AcDbEntity
  8
Shape2DView002
100
AcDbSpline
210
0
220
0
230
1
 70
8
 71
2
 72
6
 73
3
 74
0
 40
0
 40
0
 40
0
 40
1
 40
1
 40
1
 10
2.16564
 20
-22.9415
 30
0
 10
2.56532
 20
-22.9415
 30
0
 10
2.84179
 20
-23.0948
 30
0
  0
SPLINE
  5
B41
330
A02
100
AcDbEntity
  8
Shape2DView002
100
AcDbSpline
210
0
220
0
230
1
 70
8
 71
2
 72
6
 73
3
 74
0
 40
0
 40
0
 40
0
 40
1
 40
1
 40
1
 10
1.48633
 20
-23.0948
 30
0
 10
1.7628
 20
-22.9415
 30
0
 10
2.16564
 20
-22.9415
 30
0
  0
SPLINE
  5
B42
330
A02
100
AcDbEntity
  8
Shape2DView002
100
AcDbSpline
210
0
220
0
230
1
 70
8
 71
2
 72
6
 73
3
 74
0
 40
0
 40
0
 40
0
 40
1
 40
1
 40
1
 10
2.84179
 20
-23.0948
 30
0
 10
3.11825
 20
-23.2496
 30
0
 10
3.2857
 20
-23.5055
 30
0
  0
SPLINE
  5
B43
330
A02
100
AcDbEntity
  8
Shape2DView002
100
AcDbSpline
210
0
220
0
230
1
 70
8
 71
2
 72
6
 73
3
 74
0
 40
0
 40
0
 40
0
 40
1
 40
1
 40
1
 10
1.04242
 20
-23.5055
 30
0
 10
1.20987
 20
-23.2496
 30
0
 10
1.48633
 20
-23.0948
 30
0
  0
SPLINE
  5
B44
330
A02
100
AcDbEntity
  8
Shape2DView002
100
AcDbSpline
210
0
220
0
230
1
 70
8
 71
2
 72
6
 73
3
 74
0
 40
0
 40
0
 40
0
 40
1
 40
1
 40
1
 10
3.2857
 20
-23.5055
 30
0
 10
3.45316
 20
-23.7615
 30
0
 10
3.53057
 20
-24.0727
 30
0
  0
SPLINE
  5
B45
330
A02
100
AcDbEntity
  8
Shape2DView002
100
AcDbSpline
210
0
220
0
230
1
 70
8
 71
2
 72
6
 73
3
 74
0
 40
0
 40
0
 40
0
 40
1
 40
1
 40
1
 10
0.799131
 20
-24.0727
 30
0
 10
0.874961
 20
-23.7615
 30
0
 10
1.04242
 20
-23.5055
 30
0
  0
SPLINE
  5
B46
330
A02
100
AcDbEntity
  8
Shape2DView002
100
AcDbSpline
210
0
220
0
230
1
 70
8
 71
2
 72
6
 73
3
 74
0
 40
0
 40
0
 40
0
 40
1
 40
1
 40
1
 10
3.53057
 20
-24.0727
 30
0
 10
3.6064
 20
-24.3839
 30
0
 10
3.6064
 20
-24.6983
 30
0
  0
SPLINE
  5
B47
330
A02
100
AcDbEntity
  8
Shape2DView002
100
AcDbSpline
210
0
220
0
230
1
 70
8
 71
2
 72
6
 73
3
 74
0
 40
0
 40
0
 40
0
 40
1
 40
1
 40
1
 10
0.723302
 20
-24.6983
 30
0
 10
0.723302
 20
-24.3839
 30
0
 10
0.799131
 20
-24.0727
 30
0
  0
SPLINE
  5
B48
330
A02
100
AcDbEntity
  8
Shape2DView002
100
AcDbSpline
210
0
220
0
230
1
 70
8
 71
2
 72
6
 73
3
 74
0
 40
0
 40
0
 40
0
 40
1
 40
1
 40
1
 10
3.6064
 20
-24.6983
 30
0
 10
3.6064
 20
-25.0142
 30
0
 10
3.53057
 20
-25.3239
 30
0
  0
SPLINE
  5
B49
330
A02
100
AcDbEntity
  8
Shape2DView002
100
AcDbSpline
210
0
220
0
230
1
 70
8
 71
2
 72
6
 73
3
 74
0
 40
0
 40
0
 40
0
 40
1
 40
1
 40
1
 10
0.799131
 20
-25.3239
 30
0
 10
0.723302
 20
-25.0142
 30
0
 10
0.723302
 20
-24.6983
 30
0
  0
SPLINE
  5
B4A
330
A02
100
AcDbEntity
  8
Shape2DView002
100
AcDbSpline
210
0
220
0
230
1
 70
8
 71
2
 72
6
 73
3
 74
0
 40
0
 40
0
 40
0
 40
1
 40
1
 40
1
 10
3.53057
 20
-25.3239
 30
0
 10
3.45316
 20
-25.6351
 30
0
 10
3.2857
 20
-25.891
 30
0
  0
SPLINE
  5
B4B
330
A02
100
AcDbEntity
  8
Shape2DView002
100
AcDbSpline
210
0
220
0
230
1
 70
8
 71
2
 72
6
 73
3
 74
0
 40
0
 40
0
 40
0
 40
1
 40
1
 40
1
 10
1.04242
 20
-25.891
 30
0
 10
0.874961
 20
-25.6351
 30
0
 10
0.799131
 20
-25.3239
 30
0
  0
SPLINE
  5
B4C
330
A02
100
AcDbEntity
  8
Shape2DView002
100
AcDbSpline
210
0
220
0
230
1
 70
8
 71
2
 72
6
 73
3
 74
0
 40
0
 40
0
 40
0
 40
1
 40
1
 40
1
 10
3.2857
 20
-25.891
 30
0
 10
3.11825
 20
-26.1469
 30
0
 10
2.84179
 20
-26.3002
 30
0
  0
SPLINE
  5
B4D
330
A02
100
AcDbEntity
  8
Shape2DView002
100
AcDbSpline
210
0
220
0
230
1
 70
8
 71
2
 72
6
 73
3
 74
0
 40
0
 40
0
 40
0
 40
1
 40
1
 40
1
 10
1.48633
 20
-26.3002
 30
0
 10
1.20987
 20
-26.1469
 30
0
 10
1.04242
 20
-25.891
 30
0
  0
SPLINE
  5
B4E
330
A02
100
AcDbEntity
  8
Shape2DView002
100
AcDbSpline
210
0
220
0
230
1
 70
8
 71
2
 72
6
 73
3
 74
0
 40
0
 40
0
 40
0
 40
1
 40
1
 40
1
 10
2.84179
 20
-26.3002
 30
0
 10
2.56532
 20
-26.455
 30
0
 10
2.16564
 20
-26.455
 30
0
  0
SPLINE
  5
B4F
330
A02
100
AcDbEntity
  8
Shape2DView002
100
AcDbSpline
210
0
220
0
230
1
 70
8
 71
2
 72
6
 73
3
 74
0
 40
0
 40
0
 40
0
 40
1
 40
1
 40
1
 10
2.16564
 20
-26.455
 30
0
 10
1.7628
 20
-26.455
 30
0
 10
1.48633
 20
-26.3002
 30
0
  0
CIRCLE
  5
B50
330
A02
100
AcDbEntity
  8
Shape2DView002
100
AcDbCircle
 10
36
 20
-12.41
 40
1.6
  0
LINE
  5
B51
330
A02
100
AcDbEntity
  8
Shape2DView002
100
AcDbLine
 10
-46
 20
-58
 30
0
 11
-46
 21
-33
 31
0
  0
LINE
  5
B52
330
A02
100
AcDbEntity
  8
Shape2DView002
100
AcDbLine
 10
46
 20
-58
 30
0
 11
-46
 21
-58
 31
0
  0
LINE
  5
B53
330
A02
100
AcDbEntity
  8
Shape2DView002
100
AcDbLine
 10
-46
 20
-33
 30
0
 11
46
 21
-33
 31
0
  0
LINE
  5
B54
330
A02
100
AcDbEntity
  8
Shape2DView002
100
AcDbLine
 10
46
 20
-33
 30
0
 11
46
 21
-58
 31
0
  0
LINE
  5
B55
330
A02
100
AcDbEntity
  8
Shape2DView002
100
AcDbLine
 10
-67.4166
 20
-66.9328
 30
0
 11
-64.5392
 21
-69.7115
 31
0
  0
LINE
  5
B56
330
A02
100
AcDbEntity
  8
Shape2DView002
100
AcDbLine
 10
-60.47
 20
-59.7394
 30
0
 11
-67.4166
 21
-66.9328
 31
0
  0
LINE
  5
B57
330
A02
100
AcDbEntity
  8
Shape2DView002
100
AcDbLine
 10
-64.5392
 20
-69.7115
 30
0
 11
-57.5927
 21
-62.5181
 31
0
  0
LINE
  5
B58
330
A02
100
AcDbEntity
  8
Shape2DView002
100
AcDbLine
 10
-57.5927
 20
-62.5181
 30
0
 11
-60.47
 21
-59.7394
 31
0
  0
CIRCLE
  5
B59
330
A02
100
AcDbEntity
  8
Shape2DView002
100
AcDbCircle
 10
-72.5
 20
-58.42
 40
2.35
  0
CIRCLE
  5
B5A
330
A02
100
AcDbEntity
  8
Shape2DView002
100
AcDbCircle
 10
-72.5
 20
-50.44
 40
1.6
  0
CIRCLE
  5
B5B
330
A02
100
AcDbEntity
  8
Shape2DView002
100
AcDbCircle
 10
-72.5
 20
-42.46
 40
2.35
  0
LINE
  5
B5C
330
A02
100
AcDbEntity
  8
Shape2DView002
100
AcDbLine
 10
-0.0776461
 20
-23
 30
0
 11
-0.0776461
 21
-26.3965
 31
0
  0
LINE
  5
B5D
330
A02
100
AcDbEntity
  8
Shape2DView002
100
AcDbLine
 10
-0.499447
 20
-23
 30
0
 11
-0.0776461
 21
-23
 31
0
  0
LINE
  5
B5E
330
A02
100
AcDbEntity
  8
Shape2DView002
100
AcDbLine
 10
-0.0776461
 20
-26.3965
 30
0
 11
-0.504186
 21
-26.3965
 31
0
  0
LINE
  5
B5F
330
A02
100
AcDbEntity
  8
Shape2DView002
100
AcDbLine
 10
-0.499447
 20
-25.4265
 30
0
 11
-0.499447
 21
-23
 31
0
  0
LINE
  5
B60
330
A02
100
AcDbEntity
  8
Shape2DView002
100
AcDbLine
 10
-0.504186
 20
-26.3965
 30
0
 11
-2.00972
 21
-23.981
 31
0
  0
SPLINE
  5
B61
330
A02
100
AcDbEntity
  8
Shape2DView002
100
AcDbSpline
210
0
220
0
230
1
 70
8
 71
2
 72
6
 73
3
 74
0
 40
0
 40
0
 40
0
 40
1
 40
1
 40
1
 10
-0.496288
 20
-25.5482
 30
0
 10
-0.499447
 20
-25.485
 30
0
 10
-0.499447
 20
-25.4265
 30
0
  0
SPLINE
  5
B62
330
A02
100
AcDbEntity
  8
Shape2DView002
100
AcDbSpline
210
0
220
0
230
1
 70
8
 71
1
 72
4
 73
2
 74
0
 40
0
 40
0
 40
1
 40
1
 10
-2.00972
 20
-23.981
 30
0
 10
-2.07923
 20
-23.8578
 30
0
  0
SPLINE
  5
B63
330
A02
100
AcDbEntity
  8
Shape2DView002
100
AcDbSpline
210
0
220
0
230
1
 70
8
 71
2
 72
6
 73
3
 74
0
 40
0
 40
0
 40
0
 40
1
 40
1
 40
1
 10
-0.489968
 20
-25.6651
 30
0
 10
-0.494708
 20
-25.6114
 30
0
 10
-0.496288
 20
-25.5482
 30
0
  0
SPLINE
  5
B64
330
A02
100
AcDbEntity
  8
Shape2DView002
100
AcDbSpline
210
0
220
0
230
1
 70
8
 71
2
 72
6
 73
3
 74
0
 40
0
 40
0
 40
0
 40
1
 40
1
 40
1
 10
-2.07923
 20
-23.8578
 30
0
 10
-2.11398
 20
-23.7978
 30
0
 10
-2.15032
 20
-23.7283
 30
0
  0
SPLINE
  5
B65
330
A02
100
AcDbEntity
  8
Shape2DView002
100
AcDbSpline
210
0
220
0
230
1
 70
8
 71
1
 72
4
 73
2
 74
0
 40
0
 40
0
 40
1
 40
1
 10
-0.559479
 20
-25.5419
 30
0
 10
-0.489968
 20
-25.6651
 30
0
  0
SPLINE
  5
B66
330
A02
100
AcDbEntity
  8
Shape2DView002
100
AcDbSpline
210
0
220
0
230
1
 70
8
 71
1
 72
4
 73
2
 74
0
 40
0
 40
0
 40
1
 40
1
 10
-2.15032
 20
-23.7283
 30
0
 10
-2.144
 20
-23.8547
 30
0
  0
SPLINE
  5
B67
330
A02
100
AcDbEntity
  8
Shape2DView002
100
AcDbSpline
210
0
220
0
230
1
 70
8
 71
2
 72
6
 73
3
 74
0
 40
0
 40
0
 40
0
 40
1
 40
1
 40
1
 10
-0.625829
 20
-25.4265
 30
0
 10
-0.594234
 20
-25.4818
 30
0
 10
-0.559479
 20
-25.5419
 30
0
  0
SPLINE
  5
B68
330
A02
100
AcDbEntity
  8
Shape2DView002
100
AcDbSpline
210
0
220
0
230
1
 70
8
 71
2
 72
6
 73
3
 74
0
 40
0
 40
0
 40
0
 40
1
 40
1
 40
1
 10
-2.144
 20
-23.8547
 30
0
 10
-2.14084
 20
-23.9179
 30
0
 10
-2.14084
 20
-23.9747
 30
0
  0
LINE
  5
B69
330
A02
100
AcDbEntity
  8
Shape2DView002
100
AcDbLine
 10
-2.15506
 20
-23
 30
0
 11
-0.625829
 21
-25.4265
 31
0
  0
LINE
  5
B6A
330
A02
100
AcDbEntity
  8
Shape2DView002
100
AcDbLine
 10
-2.14084
 20
-23.9747
 30
0
 11
-2.14084
 21
-26.3965
 31
0
  0
LINE
  5
B6B
330
A02
100
AcDbEntity
  8
Shape2DView002
100
AcDbLine
 10
-2.56264
 20
-23
 30
0
 11
-2.15506
 21
-23
 31
0
  0
LINE
  5
B6C
330
A02
100
AcDbEntity
  8
Shape2DView002
100
AcDbLine
 10
-2.14084
 20
-26.3965
 30
0
 11
-2.56264
 21
-26.3965
 31
0
  0
LINE
  5
B6D
330
A02
100
AcDbEntity
  8
Shape2DView002
100
AcDbLine
 10
-2.56264
 20
-26.3965
 30
0
 11
-2.56264
 21
-23
 31
0
  0
LINE
  5
B6E
330
A02
100
AcDbEntity
  8
Shape2DView002
100
AcDbLine
 10
-4.24352
 20
-23
 30
0
 11
-4.24352
 21
-25.9937
 31
0
  0
LINE
  5
B6F
330
A02
100
AcDbEntity
  8
Shape2DView002
100
AcDbLine
 10
-4.66532
 20
-23
 30
0
 11
-4.24352
 21
-23
 31
0
  0
LINE
  5
B70
330
A02
100
AcDbEntity
  8
Shape2DView002
100
AcDbLine
 10
-4.24352
 20
-25.9937
 30
0
 11
-3.29724
 21
-25.9937
 31
0
  0
LINE
  5
B71
330
A02
100
AcDbEntity
  8
Shape2DView002
100
AcDbLine
 10
-4.66532
 20
-25.9937
 30
0
 11
-4.66532
 21
-23
 31
0
  0
LINE
  5
B72
330
A02
100
AcDbEntity
  8
Shape2DView002
100
AcDbLine
 10
-3.29724
 20
-25.9937
 30
0
 11
-3.29724
 21
-26.3965
 31
0
  0
LINE
  5
B73
330
A02
100
AcDbEntity
  8
Shape2DView002
100
AcDbLine
 10
-5.61161
 20
-25.9937
 30
0
 11
-4.66532
 21
-25.9937
 31
0
  0
LINE
  5
B74
330
A02
100
AcDbEntity
  8
Shape2DView002
100
AcDbLine
 10
-3.29724
 20
-26.3965
 30
0
 11
-5.61161
 21
-26.3965
 31
0
  0
LINE
  5
B75
330
A02
100
AcDbEntity
  8
Shape2DView002
100
AcDbLine
 10
-5.61161
 20
-26.3965
 30
0
 11
-5.61161
 21
-25.9937
 31
0
  0
LINE
  5
B76
330
A02
100
AcDbEntity
  8
Shape2DView002
100
AcDbLine
 10
-6.34621
 20
-23
 30
0
 11
-6.34621
 21
-26.3965
 31
0
  0
LINE
  5
B77
330
A02
100
AcDbEntity
  8
Shape2DView002
100
AcDbLine
 10
-6.76801
 20
-23
 30
0
 11
-6.34621
 21
-23
 31
0
  0
LINE
  5
B78
330
A02
100
AcDbEntity
  8
Shape2DView002
100
AcDbLine
 10
-6.34621
 20
-26.3965
 30
0
 11
-7.68586
 21
-26.3965
 31
0
  0
LINE
  5
B79
330
A02
100
AcDbEntity
  8
Shape2DView002
100
AcDbLine
 10
-6.76801
 20
-24.4566
 30
0
 11
-6.76801
 21
-23
 31
0
  0
SPLINE
  5
B7A
330
A02
100
AcDbEntity
  8
Shape2DView002
100
AcDbSpline
210
0
220
0
230
1
 70
8
 71
2
 72
6
 73
3
 74
0
 40
0
 40
0
 40
0
 40
1
 40
1
 40
1
 10
-7.68586
 20
-26.3965
 30
0
 10
-8.09344
 20
-26.3965
 30
0
 10
-8.32725
 20
-26.2559
 30
0
  0
LINE
  5
B7B
330
A02
100
AcDbEntity
  8
Shape2DView002
100
AcDbLine
 10
-7.51998
 20
-24.4566
 30
0
 11
-6.76801
 21
-24.4566
 31
0
  0
SPLINE
  5
B7C
330
A02
100
AcDbEntity
  8
Shape2DView002
100
AcDbSpline
210
0
220
0
230
1
 70
8
 71
2
 72
6
 73
3
 74
0
 40
0
 40
0
 40
0
 40
1
 40
1
 40
1
 10
-8.32725
 20
-26.2559
 30
0
 10
-8.56106
 20
-26.1153
 30
0
 10
-8.659
 20
-25.8926
 30
0
  0
LINE
  5
B7D
330
A02
100
AcDbEntity
  8
Shape2DView002
100
AcDbLine
 10
-8.21983
 20
-23
 30
0
 11
-7.51998
 21
-24.4566
 31
0
  0
SPLINE
  5
B7E
330
A02
100
AcDbEntity
  8
Shape2DView002
100
AcDbSpline
210
0
220
0
230
1
 70
8
 71
2
 72
6
 73
3
 74
0
 40
0
 40
0
 40
0
 40
1
 40
1
 40
1
 10
-8.659
 20
-25.8926
 30
0
 10
-8.75853
 20
-25.6714
 30
0
 10
-8.75853
 20
-25.4313
 30
0
  0
LINE
  5
B7F
330
A02
100
AcDbEntity
  8
Shape2DView002
100
AcDbLine
 10
-8.69534
 20
-23
 30
0
 11
-8.21983
 21
-23
 31
0
  0
SPLINE
  5
B80
330
A02
100
AcDbEntity
  8
Shape2DView002
100
AcDbSpline
210
0
220
0
230
1
 70
8
 71
2
 72
6
 73
3
 74
0
 40
0
 40
0
 40
0
 40
1
 40
1
 40
1
 10
-8.75853
 20
-25.4313
 30
0
 10
-8.75853
 20
-25.2306
 30
0
 10
-8.67954
 20
-25.0348
 30
0
  0
LINE
  5
B81
330
A02
100
AcDbEntity
  8
Shape2DView002
100
AcDbLine
 10
-7.96706
 20
-24.485
 30
0
 11
-8.69534
 21
-23
 31
0
  0
SPLINE
  5
B82
330
A02
100
AcDbEntity
  8
Shape2DView002
100
AcDbSpline
210
0
220
0
230
1
 70
8
 71
2
 72
6
 73
3
 74
0
 40
0
 40
0
 40
0
 40
1
 40
1
 40
1
 10
-8.67954
 20
-25.0348
 30
0
 10
-8.60055
 20
-24.8389
 30
0
 10
-8.4252
 20
-24.6904
 30
0
  0
SPLINE
  5
B83
330
A02
100
AcDbEntity
  8
Shape2DView002
100
AcDbSpline
210
0
220
0
230
1
 70
8
 71
2
 72
6
 73
3
 74
0
 40
0
 40
0
 40
0
 40
1
 40
1
 40
1
 10
-8.4252
 20
-24.6904
 30
0
 10
-8.25142
 20
-24.5434
 30
0
 10
-7.96706
 20
-24.485
 30
0
  0
SPLINE
  5
B84
330
A02
100
AcDbEntity
  8
Shape2DView002
100
AcDbSpline
210
0
220
0
230
1
 70
8
 71
2
 72
6
 73
3
 74
0
 40
0
 40
0
 40
0
 40
1
 40
1
 40
1
 10
-10.877
 20
-22.9415
 30
0
 10
-10.4773
 20
-22.9415
 30
0
 10
-10.2009
 20
-23.0948
 30
0
  0
SPLINE
  5
B85
330
A02
100
AcDbEntity
  8
Shape2DView002
100
AcDbSpline
210
0
220
0
230
1
 70
8
 71
2
 72
6
 73
3
 74
0
 40
0
 40
0
 40
0
 40
1
 40
1
 40
1
 10
-11.5563
 20
-23.0948
 30
0
 10
-11.2799
 20
-22.9415
 30
0
 10
-10.877
 20
-22.9415
 30
0
  0
SPLINE
  5
B86
330
A02
100
AcDbEntity
  8
Shape2DView002
100
AcDbSpline
210
0
220
0
230
1
 70
8
 71
2
 72
6
 73
3
 74
0
 40
0
 40
0
 40
0
 40
1
 40
1
 40
1
 10
-10.2009
 20
-23.0948
 30
0
 10
-9.92441
 20
-23.2496
 30
0
 10
-9.75695
 20
-23.5055
 30
0
  0
SPLINE
  5
B87
330
A02
100
AcDbEntity
  8
Shape2DView002
100
AcDbSpline
210
0
220
0
230
1
 70
8
 71
2
 72
6
 73
3
 74
0
 40
0
 40
0
 40
0
 40
1
 40
1
 40
1
 10
-12.0002
 20
-23.5055
 30
0
 10
-11.8328
 20
-23.2496
 30
0
 10
-11.5563
 20
-23.0948
 30
0
  0
SPLINE
  5
B88
330
A02
100
AcDbEntity
  8
Shape2DView002
100
AcDbSpline
210
0
220
0
230
1
 70
8
 71
2
 72
6
 73
3
 74
0
 40
0
 40
0
 40
0
 40
1
 40
1
 40
1
 10
-9.75695
 20
-23.5055
 30
0
 10
-9.58949
 20
-23.7615
 30
0
 10
-9.51209
 20
-24.0727
 30
0
  0
SPLINE
  5
B89
330
A02
100
AcDbEntity
  8
Shape2DView002
100
AcDbSpline
210
0
220
0
230
1
 70
8
 71
2
 72
6
 73
3
 74
0
 40
0
 40
0
 40
0
 40
1
 40
1
 40
1
 10
-12.2435
 20
-24.0727
 30
0
 10
-12.1677
 20
-23.7615
 30
0
 10
-12.0002
 20
-23.5055
 30
0
  0
SPLINE
  5
B8A
330
A02
100
AcDbEntity
  8
Shape2DView002
100
AcDbSpline
210
0
220
0
230
1
 70
8
 71
2
 72
6
 73
3
 74
0
 40
0
 40
0
 40
0
 40
1
 40
1
 40
1
 10
-9.51209
 20
-24.0727
 30
0
 10
-9.43626
 20
-24.3839
 30
0
 10
-9.43626
 20
-24.6983
 30
0
  0
SPLINE
  5
B8B
330
A02
100
AcDbEntity
  8
Shape2DView002
100
AcDbSpline
210
0
220
0
230
1
 70
8
 71
2
 72
6
 73
3
 74
0
 40
0
 40
0
 40
0
 40
1
 40
1
 40
1
 10
-12.3194
 20
-24.6983
 30
0
 10
-12.3194
 20
-24.3839
 30
0
 10
-12.2435
 20
-24.0727
 30
0
  0
SPLINE
  5
B8C
330
A02
100
AcDbEntity
  8
Shape2DView002
100
AcDbSpline
210
0
220
0
230
1
 70
8
 71
2
 72
6
 73
3
 74
0
 40
0
 40
0
 40
0
 40
1
 40
1
 40
1
 10
-9.43626
 20
-24.6983
 30
0
 10
-9.43626
 20
-25.0142
 30
0
 10
-9.51209
 20
-25.3239
 30
0
  0
SPLINE
  5
B8D
330
A02
100
AcDbEntity
  8
Shape2DView002
100
AcDbSpline
210
0
220
0
230
1
 70
8
 71
2
 72
6
 73
3
 74
0
 40
0
 40
0
 40
0
 40
1
 40
1
 40
1
 10
-12.2435
 20
-25.3239
 30
0
 10
-12.3194
 20
-25.0142
 30
0
 10
-12.3194
 20
-24.6983
 30
0
  0
SPLINE
  5
B8E
330
A02
100
AcDbEntity
  8
Shape2DView002
100
AcDbSpline
210
0
220
0
230
1
 70
8
 71
2
 72
6
 73
3
 74
0
 40
0
 40
0
 40
0
 40
1
 40
1
 40
1
 10
-9.51209
 20
-25.3239
 30
0
 10
-9.58949
 20
-25.6351
 30
0
 10
-9.75695
 20
-25.891
 30
0
  0
SPLINE
  5
B8F
330
A02
100
AcDbEntity
  8
Shape2DView002
100
AcDbSpline
210
0
220
0
230
1
 70
8
 71
2
 72
6
 73
3
 74
0
 40
0
 40
0
 40
0
 40
1
 40
1
 40
1
 10
-12.0002
 20
-25.891
 30
0
 10
-12.1677
 20
-25.6351
 30
0
 10
-12.2435
 20
-25.3239
 30
0
  0
SPLINE
  5
B90
330
A02
100
AcDbEntity
  8
Shape2DView002
100
AcDbSpline
210
0
220
0
230
1
 70
8
 71
2
 72
6
 73
3
 74
0
 40
0
 40
0
 40
0
 40
1
 40
1
 40
1
 10
-9.75695
 20
-25.891
 30
0
 10
-9.92441
 20
-26.1469
 30
0
 10
-10.2009
 20
-26.3002
 30
0
  0
SPLINE
  5
B91
330
A02
100
AcDbEntity
  8
Shape2DView002
100
AcDbSpline
210
0
220
0
230
1
 70
8
 71
2
 72
6
 73
3
 74
0
 40
0
 40
0
 40
0
 40
1
 40
1
 40
1
 10
-11.5563
 20
-26.3002
 30
0
 10
-11.8328
 20
-26.1469
 30
0
 10
-12.0002
 20
-25.891
 30
0
  0
SPLINE
  5
B92
330
A02
100
AcDbEntity
  8
Shape2DView002
100
AcDbSpline
210
0
220
0
230
1
 70
8
 71
2
 72
6
 73
3
 74
0
 40
0
 40
0
 40
0
 40
1
 40
1
 40
1
 10
-10.2009
 20
-26.3002
 30
0
 10
-10.4773
 20
-26.455
 30
0
 10
-10.877
 20
-26.455
 30
0
  0
SPLINE
  5
B93
330
A02
100
AcDbEntity
  8
Shape2DView002
100
AcDbSpline
210
0
220
0
230
1
 70
8
 71
2
 72
6
 73
3
 74
0
 40
0
 40
0
 40
0
 40
1
 40
1
 40
1
 10
-10.877
 20
-26.455
 30
0
 10
-11.2799
 20
-26.455
 30
0
 10
-11.5563
 20
-26.3002
 30
0
  0
LINE
  5
B94
330
A02
100
AcDbEntity
  8
Shape2DView002
100
AcDbLine
 10
-13.1203
 20
-23
 30
0
 11
-13.1203
 21
-26.3965
 31
0
  0
LINE
  5
B95
330
A02
100
AcDbEntity
  8
Shape2DView002
100
AcDbLine
 10
-15.2119
 20
-23
 30
0
 11
-13.1203
 21
-23
 31
0
  0
LINE
  5
B96
330
A02
100
AcDbEntity
  8
Shape2DView002
100
AcDbLine
 10
-13.1203
 20
-26.3965
 30
0
 11
-13.5421
 21
-26.3965
 31
0
  0
LINE
  5
B97
330
A02
100
AcDbEntity
  8
Shape2DView002
100
AcDbLine
 10
-15.2119
 20
-23.4076
 30
0
 11
-15.2119
 21
-23
 31
0
  0
LINE
  5
B98
330
A02
100
AcDbEntity
  8
Shape2DView002
100
AcDbLine
 10
-13.5421
 20
-26.3965
 30
0
 11
-13.5421
 21
-23.4076
 31
0
  0
LINE
  5
B99
330
A02
100
AcDbEntity
  8
Shape2DView002
100
AcDbLine
 10
-13.5421
 20
-23.4076
 30
0
 11
-15.2119
 21
-23.4076
 31
0
  0
LINE
  5
B9A
330
A02
100
AcDbEntity
  8
Shape2DView002
100
AcDbLine
 10
-15.8502
 20
-23
 30
0
 11
-15.8502
 21
-26.3965
 31
0
  0
LINE
  5
B9B
330
A02
100
AcDbEntity
  8
Shape2DView002
100
AcDbLine
 10
-17.9418
 20
-23
 30
0
 11
-15.8502
 21
-23
 31
0
  0
LINE
  5
B9C
330
A02
100
AcDbEntity
  8
Shape2DView002
100
AcDbLine
 10
-15.8502
 20
-26.3965
 30
0
 11
-16.272
 21
-26.3965
 31
0
  0
LINE
  5
B9D
330
A02
100
AcDbEntity
  8
Shape2DView002
100
AcDbLine
 10
-17.9418
 20
-23.4076
 30
0
 11
-17.9418
 21
-23
 31
0
  0
LINE
  5
B9E
330
A02
100
AcDbEntity
  8
Shape2DView002
100
AcDbLine
 10
-16.272
 20
-26.3965
 30
0
 11
-16.272
 21
-23.4076
 31
0
  0
LINE
  5
B9F
330
A02
100
AcDbEntity
  8
Shape2DView002
100
AcDbLine
 10
-16.272
 20
-23.4076
 30
0
 11
-17.9418
 21
-23.4076
 31
0
  0
LINE
  5
BA0
330
A02
100
AcDbEntity
  8
Shape2DView002
100
AcDbLine
 10
-18.58
 20
-23
 30
0
 11
-18.58
 21
-26.3965
 31
0
  0
LINE
  5
BA1
330
A02
100
AcDbEntity
  8
Shape2DView002
100
AcDbLine
 10
-20.7064
 20
-23
 30
0
 11
-18.58
 21
-23
 31
0
  0
LINE
  5
BA2
330
A02
100
AcDbEntity
  8
Shape2DView002
100
AcDbLine
 10
-18.58
 20
-26.3965
 30
0
 11
-20.599
 21
-26.3965
 31
0
  0
LINE
  5
BA3
330
A02
100
AcDbEntity
  8
Shape2DView002
100
AcDbLine
 10
-20.7064
 20
-23.4028
 30
0
 11
-20.7064
 21
-23
 31
0
  0
LINE
  5
BA4
330
A02
100
AcDbEntity
  8
Shape2DView002
100
AcDbLine
 10
-20.599
 20
-26.3965
 30
0
 11
-20.599
 21
-25.9984
 31
0
  0
LINE
  5
BA5
330
A02
100
AcDbEntity
  8
Shape2DView002
100
AcDbLine
 10
-19.0018
 20
-23.4028
 30
0
 11
-20.7064
 21
-23.4028
 31
0
  0
LINE
  5
BA6
330
A02
100
AcDbEntity
  8
Shape2DView002
100
AcDbLine
 10
-20.599
 20
-25.9984
 30
0
 11
-19.0018
 21
-25.9984
 31
0
  0
LINE
  5
BA7
330
A02
100
AcDbEntity
  8
Shape2DView002
100
AcDbLine
 10
-19.0018
 20
-24.5577
 30
0
 11
-19.0018
 21
-23.4028
 31
0
  0
LINE
  5
BA8
330
A02
100
AcDbEntity
  8
Shape2DView002
100
AcDbLine
 10
-19.0018
 20
-25.9984
 30
0
 11
-19.0018
 21
-24.9558
 31
0
  0
LINE
  5
BA9
330
A02
100
AcDbEntity
  8
Shape2DView002
100
AcDbLine
 10
-20.0555
 20
-24.5577
 30
0
 11
-19.0018
 21
-24.5577
 31
0
  0
LINE
  5
BAA
330
A02
100
AcDbEntity
  8
Shape2DView002
100
AcDbLine
 10
-19.0018
 20
-24.9558
 30
0
 11
-20.0555
 21
-24.9558
 31
0
  0
LINE
  5
BAB
330
A02
100
AcDbEntity
  8
Shape2DView002
100
AcDbLine
 10
-20.0555
 20
-24.9558
 30
0
 11
-20.0555
 21
-24.5577
 31
0
  0
LINE
  5
BAC
330
A02
100
AcDbEntity
  8
Shape2DView002
100
AcDbLine
 10
-21.5121
 20
-23
 30
0
 11
-21.5121
 21
-26.3965
 31
0
  0
LINE
  5
BAD
330
A02
100
AcDbEntity
  8
Shape2DView002
100
AcDbLine
 10
-21.9339
 20
-23
 30
0
 11
-21.5121
 21
-23
 31
0
  0
LINE
  5
BAE
330
A02
100
AcDbEntity
  8
Shape2DView002
100
AcDbLine
 10
-21.5121
 20
-26.3965
 30
0
 11
-22.8517
 21
-26.3965
 31
0
  0
LINE
  5
BAF
330
A02
100
AcDbEntity
  8
Shape2DView002
100
AcDbLine
 10
-21.9339
 20
-24.4566
 30
0
 11
-21.9339
 21
-23
 31
0
  0
SPLINE
  5
BB0
330
A02
100
AcDbEntity
  8
Shape2DView002
100
AcDbSpline
210
0
220
0
230
1
 70
8
 71
2
 72
6
 73
3
 74
0
 40
0
 40
0
 40
0
 40
1
 40
1
 40
1
 10
-22.8517
 20
-26.3965
 30
0
 10
-23.2593
 20
-26.3965
 30
0
 10
-23.4931
 20
-26.2559
 30
0
  0
LINE
  5
BB1
330
A02
100
AcDbEntity
  8
Shape2DView002
100
AcDbLine
 10
-22.6859
 20
-24.4566
 30
0
 11
-21.9339
 21
-24.4566
 31
0
  0
SPLINE
  5
BB2
330
A02
100
AcDbEntity
  8
Shape2DView002
100
AcDbSpline
210
0
220
0
230
1
 70
8
 71
2
 72
6
 73
3
 74
0
 40
0
 40
0
 40
0
 40
1
 40
1
 40
1
 10
-23.4931
 20
-26.2559
 30
0
 10
-23.7269
 20
-26.1153
 30
0
 10
-23.8249
 20
-25.8926
 30
0
  0
LINE
  5
BB3
330
A02
100
AcDbEntity
  8
Shape2DView002
100
AcDbLine
 10
-23.3857
 20
-23
 30
0
 11
-22.6859
 21
-24.4566
 31
0
  0
SPLINE
  5
BB4
330
A02
100
AcDbEntity
  8
Shape2DView002
100
AcDbSpline
210
0
220
0
230
1
 70
8
 71
2
 72
6
 73
3
 74
0
 40
0
 40
0
 40
0
 40
1
 40
1
 40
1
 10
-23.8249
 20
-25.8926
 30
0
 10
-23.9244
 20
-25.6714
 30
0
 10
-23.9244
 20
-25.4313
 30
0
  0
LINE
  5
BB5
330
A02
100
AcDbEntity
  8
Shape2DView002
100
AcDbLine
 10
-23.8612
 20
-23
 30
0
 11
-23.3857
 21
-23
 31
0
  0
SPLINE
  5
BB6
330
A02
100
AcDbEntity
  8
Shape2DView002
100
AcDbSpline
210
0
220
0
230
1
 70
8
 71
2
 72
6
 73
3
 74
0
 40
0
 40
0
 40
0
 40
1
 40
1
 40
1
 10
-23.9244
 20
-25.4313
 30
0
 10
-23.9244
 20
-25.2306
 30
0
 10
-23.8454
 20
-25.0348
 30
0
  0
LINE
  5
BB7
330
A02
100
AcDbEntity
  8
Shape2DView002
100
AcDbLine
 10
-23.1329
 20
-24.485
 30
0
 11
-23.8612
 21
-23
 31
0
  0
SPLINE
  5
BB8
330
A02
100
AcDbEntity
  8
Shape2DView002
100
AcDbSpline
210
0
220
0
230
1
 70
8
 71
2
 72
6
 73
3
 74
0
 40
0
 40
0
 40
0
 40
1
 40
1
 40
1
 10
-23.8454
 20
-25.0348
 30
0
 10
-23.7664
 20
-24.8389
 30
0
 10
-23.5911
 20
-24.6904
 30
0
  0
SPLINE
  5
BB9
330
A02
100
AcDbEntity
  8
Shape2DView002
100
AcDbSpline
210
0
220
0
230
1
 70
8
 71
2
 72
6
 73
3
 74
0
 40
0
 40
0
 40
0
 40
1
 40
1
 40
1
 10
-23.5911
 20
-24.6904
 30
0
 10
-23.4173
 20
-24.5434
 30
0
 10
-23.1329
 20
-24.485
 30
0
  0
LINE
  5
BBA
330
A02
100
AcDbEntity
  8
Shape2DView002
100
AcDbLine
 10
-17.5
 20
-3.7
 30
0
 11
-17.5
 21
0.3
 31
0
  0
LINE
  5
BBB
330
A02
100
AcDbEntity
  8
Shape2DView002
100
AcDbLine
 10
-2
 20
-3.7
 30
0
 11
-17.5
 21
-3.7
 31
0
  0
LINE
  5
BBC
330
A02
100
AcDbEntity
  8
Shape2DView002
100
AcDbLine
 10
-17.5
 20
0.3
 30
0
 11
17.5
 21
0.3
 31
0
  0
LINE
  5
BBD
330
A02
100
AcDbEntity
  8
Shape2DView002
100
AcDbLine
 10
-2
 20
-10.2
 30
0
 11
-2
 21
-3.7
 31
0
  0
LINE
  5
BBE
330
A02
100
AcDbEntity
  8
Shape2DView002
100
AcDbLine
 10
17.5
 20
0.3
 30
0
 11
17.5
 21
-3.7
 31
0
  0
LINE
  5
BBF
330
A02
100
AcDbEntity
  8
Shape2DView002
100
AcDbLine
 10
2
 20
-10.2
 30
0
 11
-2
 21
-10.2
 31
0
  0
LINE
  5
BC0
330
A02
100
AcDbEntity
  8
Shape2DView002
100
AcDbLine
 10
17.5
 20
-3.7
 30
0
 11
2
 21
-3.7
 31
0
  0
LINE
  5
BC1
330
A02
100
AcDbEntity
  8
Shape2DView002
100
AcDbLine
 10
2
 20
-3.7
 30
0
 11
2
 21
-10.2
 31
0
  0
CIRCLE
  5
BC2
330
A02
100
AcDbEntity
  8
Shape2DView002
100
AcDbCircle
 10
-36
 20
-12.41
 40
1.6
  0
CIRCLE
  5
BC3
330
A02
100
AcDbEntity
  8
Shape2DView002
100
AcDbCircle
 10
-72.5
 20
-34.48
 40
1.6
  0
CIRCLE
  5
BC4
330
A02
100
AcDbEntity
  8
Shape2DView002
100
AcDbCircle
 10
-72.5
 20
-26.5
 40
2.35
  0
CIRCLE
  5
BC5
330
A02
100
AcDbEntity
  8
Shape2DView002
100
AcDbCircle
 10
72.5
 20
45.32
 40
2.35
  0
LINE
  5
BC6
330
A02
100
AcDbEntity
  8
Shape2DView002
100
AcDbLine
 10
41.049
 20
33.0585
 30
0
 11
41.9716
 21
30.9131
 31
0
  0
LINE
  5
BC7
330
A02
100
AcDbEntity
  8
Shape2DView002
100
AcDbLine
 10
40.1374
 20
30.9226
 30
0
 11
41.049
 21
33.0585
 31
0
  0
SPLINE
  5
BC8
330
A02
100
AcDbEntity
  8
Shape2DView002
100
AcDbSpline
210
0
220
0
230
1
 70
8
 71
2
 72
6
 73
3
 74
0
 40
0
 40
0
 40
0
 40
1
 40
1
 40
1
 10
41.9716
 20
30.9131
 30
0
 10
42.0079
 20
30.8278
 30
0
 10
42.0474
 20
30.7283
 30
0
  0
SPLINE
  5
BC9
330
A02
100
AcDbEntity
  8
Shape2DView002
100
AcDbSpline
210
0
220
0
230
1
 70
8
 71
2
 72
6
 73
3
 74
0
 40
0
 40
0
 40
0
 40
1
 40
1
 40
1
 10
40.0585
 20
30.7299
 30
0
 10
40.0995
 20
30.8357
 30
0
 10
40.1374
 20
30.9226
 30
0
  0
SPLINE
  5
BCA
330
A02
100
AcDbEntity
  8
Shape2DView002
100
AcDbSpline
210
0
220
0
230
1
 70
8
 71
2
 72
6
 73
3
 74
0
 40
0
 40
0
 40
0
 40
1
 40
1
 40
1
 10
42.0474
 20
30.7283
 30
0
 10
42.0869
 20
30.6272
 30
0
 10
42.1169
 20
30.545
 30
0
  0
SPLINE
  5
BCB
330
A02
100
AcDbEntity
  8
Shape2DView002
100
AcDbSpline
210
0
220
0
230
1
 70
8
 71
2
 72
6
 73
3
 74
0
 40
0
 40
0
 40
0
 40
1
 40
1
 40
1
 10
39.9858
 20
30.5403
 30
0
 10
40.0158
 20
30.6224
 30
0
 10
40.0585
 20
30.7299
 30
0
  0
SPLINE
  5
BCC
330
A02
100
AcDbEntity
  8
Shape2DView002
100
AcDbSpline
210
0
220
0
230
1
 70
8
 71
2
 72
6
 73
3
 74
0
 40
0
 40
0
 40
0
 40
1
 40
1
 40
1
 10
42.1169
 20
30.545
 30
0
 10
42.109
 20
30.6098
 30
0
 10
42.1058
 20
30.7188
 30
0
  0
SPLINE
  5
BCD
330
A02
100
AcDbEntity
  8
Shape2DView002
100
AcDbSpline
210
0
220
0
230
1
 70
8
 71
2
 72
6
 73
3
 74
0
 40
0
 40
0
 40
0
 40
1
 40
1
 40
1
 10
39.9921
 20
30.7156
 30
0
 10
39.9889
 20
30.6051
 30
0
 10
39.9858
 20
30.5403
 30
0
  0
SPLINE
  5
BCE
330
A02
100
AcDbEntity
  8
Shape2DView002
100
AcDbSpline
210
0
220
0
230
1
 70
8
 71
2
 72
6
 73
3
 74
0
 40
0
 40
0
 40
0
 40
1
 40
1
 40
1
 10
42.1058
 20
30.7188
 30
0
 10
42.1027
 20
30.8262
 30
0
 10
42.1027
 20
30.9131
 30
0
  0
SPLINE
  5
BCF
330
A02
100
AcDbEntity
  8
Shape2DView002
100
AcDbSpline
210
0
220
0
230
1
 70
8
 71
2
 72
6
 73
3
 74
0
 40
0
 40
0
 40
0
 40
1
 40
1
 40
1
 10
39.9953
 20
30.9131
 30
0
 10
39.9953
 20
30.8262
 30
0
 10
39.9921
 20
30.7156
 30
0
  0
LINE
  5
BD0
330
A02
100
AcDbEntity
  8
Shape2DView002
100
AcDbLine
 10
42.1027
 20
30.9131
 30
0
 11
42.1027
 21
33
 31
0
  0
LINE
  5
BD1
330
A02
100
AcDbEntity
  8
Shape2DView002
100
AcDbLine
 10
39.9953
 20
33
 30
0
 11
39.9953
 21
30.9131
 31
0
  0
LINE
  5
BD2
330
A02
100
AcDbEntity
  8
Shape2DView002
100
AcDbLine
 10
42.1027
 20
33
 30
0
 11
42.5245
 21
33
 31
0
  0
LINE
  5
BD3
330
A02
100
AcDbEntity
  8
Shape2DView002
100
AcDbLine
 10
39.5735
 20
33
 30
0
 11
39.9953
 21
33
 31
0
  0
LINE
  5
BD4
330
A02
100
AcDbEntity
  8
Shape2DView002
100
AcDbLine
 10
42.5245
 20
33
 30
0
 11
42.5245
 21
29.6035
 31
0
  0
LINE
  5
BD5
330
A02
100
AcDbEntity
  8
Shape2DView002
100
AcDbLine
 10
39.5735
 20
29.6035
 30
0
 11
39.5735
 21
33
 31
0
  0
LINE
  5
BD6
330
A02
100
AcDbEntity
  8
Shape2DView002
100
AcDbLine
 10
42.5245
 20
29.6035
 30
0
 11
42.1264
 21
29.6035
 31
0
  0
LINE
  5
BD7
330
A02
100
AcDbEntity
  8
Shape2DView002
100
AcDbLine
 10
39.9763
 20
29.6035
 30
0
 11
39.5735
 21
29.6035
 31
0
  0
LINE
  5
BD8
330
A02
100
AcDbEntity
  8
Shape2DView002
100
AcDbLine
 10
42.1264
 20
29.6035
 30
0
 11
41.1359
 21
31.8894
 31
0
  0
LINE
  5
BD9
330
A02
100
AcDbEntity
  8
Shape2DView002
100
AcDbLine
 10
40.9621
 20
31.8894
 30
0
 11
39.9763
 21
29.6035
 31
0
  0
SPLINE
  5
BDA
330
A02
100
AcDbEntity
  8
Shape2DView002
100
AcDbSpline
210
0
220
0
230
1
 70
8
 71
2
 72
6
 73
3
 74
0
 40
0
 40
0
 40
0
 40
1
 40
1
 40
1
 10
41.1359
 20
31.8894
 30
0
 10
41.1153
 20
31.9415
 30
0
 10
41.0932
 20
32
 30
0
  0
SPLINE
  5
BDB
330
A02
100
AcDbEntity
  8
Shape2DView002
100
AcDbSpline
210
0
220
0
230
1
 70
8
 71
1
 72
4
 73
2
 74
0
 40
0
 40
0
 40
1
 40
1
 10
41.0079
 20
32.0047
 30
0
 10
40.9621
 20
31.8894
 30
0
  0
SPLINE
  5
BDC
330
A02
100
AcDbEntity
  8
Shape2DView002
100
AcDbSpline
210
0
220
0
230
1
 70
8
 71
1
 72
4
 73
2
 74
0
 40
0
 40
0
 40
1
 40
1
 10
41.0932
 20
32
 30
0
 10
41.049
 20
32.1169
 30
0
  0
SPLINE
  5
BDD
330
A02
100
AcDbEntity
  8
Shape2DView002
100
AcDbSpline
210
0
220
0
230
1
 70
8
 71
1
 72
4
 73
2
 74
0
 40
0
 40
0
 40
1
 40
1
 10
41.049
 20
32.1169
 30
0
 10
41.0079
 20
32.0047
 30
0
  0
LINE
  5
BDE
330
A02
100
AcDbEntity
  8
Shape2DView002
100
AcDbLine
 10
38.2954
 20
33
 30
0
 11
38.2954
 21
30.2923
 31
0
  0
LINE
  5
BDF
330
A02
100
AcDbEntity
  8
Shape2DView002
100
AcDbLine
 10
37.872
 20
33
 30
0
 11
38.2954
 21
33
 31
0
  0
LINE
  5
BE0
330
A02
100
AcDbEntity
  8
Shape2DView002
100
AcDbLine
 10
38.2954
 20
30.2923
 30
0
 11
38.8626
 21
30.2923
 31
0
  0
LINE
  5
BE1
330
A02
100
AcDbEntity
  8
Shape2DView002
100
AcDbLine
 10
37.872
 20
29.6035
 30
0
 11
37.872
 21
33
 31
0
  0
LINE
  5
BE2
330
A02
100
AcDbEntity
  8
Shape2DView002
100
AcDbLine
 10
38.8626
 20
30.2923
 30
0
 11
38.8626
 21
30.0063
 31
0
  0
LINE
  5
BE3
330
A02
100
AcDbEntity
  8
Shape2DView002
100
AcDbLine
 10
38.1785
 20
29.6035
 30
0
 11
37.872
 21
29.6035
 31
0
  0
SPLINE
  5
BE4
330
A02
100
AcDbEntity
  8
Shape2DView002
100
AcDbSpline
210
0
220
0
230
1
 70
8
 71
2
 72
6
 73
3
 74
0
 40
0
 40
0
 40
0
 40
1
 40
1
 40
1
 10
38.8626
 20
30.0063
 30
0
 10
38.6951
 20
30.0063
 30
0
 10
38.5592
 20
29.9684
 30
0
  0
SPLINE
  5
BE5
330
A02
100
AcDbEntity
  8
Shape2DView002
100
AcDbSpline
210
0
220
0
230
1
 70
8
 71
2
 72
6
 73
3
 74
0
 40
0
 40
0
 40
0
 40
1
 40
1
 40
1
 10
38.327
 20
29.8436
 30
0
 10
38.2291
 20
29.7551
 30
0
 10
38.1785
 20
29.6035
 30
0
  0
SPLINE
  5
BE6
330
A02
100
AcDbEntity
  8
Shape2DView002
100
AcDbSpline
210
0
220
0
230
1
 70
8
 71
2
 72
6
 73
3
 74
0
 40
0
 40
0
 40
0
 40
1
 40
1
 40
1
 10
38.5592
 20
29.9684
 30
0
 10
38.4234
 20
29.9305
 30
0
 10
38.327
 20
29.8436
 30
0
  0
LINE
  5
BE7
330
A02
100
AcDbEntity
  8
Shape2DView002
100
AcDbLine
 10
43.752
 20
47
 30
0
 11
42.5482
 21
43.6035
 31
0
  0
LINE
  5
BE8
330
A02
100
AcDbEntity
  8
Shape2DView002
100
AcDbLine
 10
43.3112
 20
47
 30
0
 11
43.752
 21
47
 31
0
  0
LINE
  5
BE9
330
A02
100
AcDbEntity
  8
Shape2DView002
100
AcDbLine
 10
42.5482
 20
43.6035
 30
0
 11
42.1564
 21
43.6035
 31
0
  0
LINE
  5
BEA
330
A02
100
AcDbEntity
  8
Shape2DView002
100
AcDbLine
 10
43.0253
 20
46.1706
 30
0
 11
43.3112
 21
47
 31
0
  0
LINE
  5
BEB
330
A02
100
AcDbEntity
  8
Shape2DView002
100
AcDbLine
 10
42.1564
 20
43.6035
 30
0
 11
40.9526
 21
47
 31
0
  0
LINE
  5
BEC
330
A02
100
AcDbEntity
  8
Shape2DView002
100
AcDbLine
 10
41.6761
 20
46.1706
 30
0
 11
43.0253
 21
46.1706
 31
0
  0
LINE
  5
BED
330
A02
100
AcDbEntity
  8
Shape2DView002
100
AcDbLine
 10
40.9526
 20
47
 30
0
 11
41.3839
 21
47
 31
0
  0
LINE
  5
BEE
330
A02
100
AcDbEntity
  8
Shape2DView002
100
AcDbLine
 10
41.3839
 20
47
 30
0
 11
41.6761
 21
46.1706
 31
0
  0
CIRCLE
  5
BEF
330
A02
100
AcDbEntity
  8
Shape2DView002
100
AcDbCircle
 10
30.5
 20
46.3
 40
1.6
  0
CIRCLE
  5
BF0
330
A02
100
AcDbEntity
  8
Shape2DView002
100
AcDbCircle
 10
72.5
 20
53.3
 40
1.6
  0
LINE
  5
BF1
330
A02
100
AcDbEntity
  8
Shape2DView002
100
AcDbLine
 10
63
 20
53.8044
 30
0
 11
63
 21
63.8044
 31
0
  0
LINE
  5
BF2
330
A02
100
AcDbEntity
  8
Shape2DView002
100
AcDbLine
 10
67
 20
53.8044
 30
0
 11
63
 21
53.8044
 31
0
  0
LINE
  5
BF3
330
A02
100
AcDbEntity
  8
Shape2DView002
100
AcDbLine
 10
63
 20
63.8044
 30
0
 11
67
 21
63.8044
 31
0
  0
LINE
  5
BF4
330
A02
100
AcDbEntity
  8
Shape2DView002
100
AcDbLine
 10
67
 20
63.8044
 30
0
 11
67
 21
53.8044
 31
0
  0
CIRCLE
  5
BF5
330
A02
100
AcDbEntity
  8
Shape2DView002
100
AcDbCircle
 10
72.5
 20
61.28
 40
2.35
  0
CIRCLE
  5
BF6
330
A02
100
AcDbEntity
  8
Shape2DView002
100
AcDbCircle
 10
43
 20
59.3
 40
9
  0
LINE
  5
BF7
330
A02
100
AcDbEntity
  8
Shape2DView002
100
AcDbLine
 10
52.8394
 20
78.9493
 30
0
 11
50.5451
 21
75.6727
 31
0
  0
LINE
  5
BF8
330
A02
100
AcDbEntity
  8
Shape2DView002
100
AcDbLine
 10
56.116
 20
76.655
 30
0
 11
52.8394
 21
78.9493
 31
0
  0
LINE
  5
BF9
330
A02
100
AcDbEntity
  8
Shape2DView002
100
AcDbLine
 10
50.5451
 20
75.6727
 30
0
 11
53.8217
 21
73.3784
 31
0
  0
LINE
  5
BFA
330
A02
100
AcDbEntity
  8
Shape2DView002
100
AcDbLine
 10
53.8217
 20
73.3784
 30
0
 11
56.116
 21
76.655
 31
0
  0
LINE
  5
BFB
330
A02
100
AcDbEntity
  8
Shape2DView002
100
AcDbLine
 10
45.7574
 20
83.2542
 30
0
 11
43.7574
 21
79.7901
 31
0
  0
LINE
  5
BFC
330
A02
100
AcDbEntity
  8
Shape2DView002
100
AcDbLine
 10
49.2215
 20
81.2542
 30
0
 11
45.7574
 21
83.2542
 31
0
  0
LINE
  5
BFD
330
A02
100
AcDbEntity
  8
Shape2DView002
100
AcDbLine
 10
43.7574
 20
79.7901
 30
0
 11
47.2215
 21
77.7901
 31
0
  0
LINE
  5
BFE
330
A02
100
AcDbEntity
  8
Shape2DView002
100
AcDbLine
 10
47.2215
 20
77.7901
 30
0
 11
49.2215
 21
81.2542
 31
0
  0
LINE
  5
BFF
330
A02
100
AcDbEntity
  8
Shape2DView002
100
AcDbLine
 10
38.3272
 20
86.9254
 30
0
 11
36.6367
 21
83.3002
 31
0
  0
LINE
  5
C00
330
A02
100
AcDbEntity
  8
Shape2DView002
100
AcDbLine
 10
41.9525
 20
85.2349
 30
0
 11
38.3272
 21
86.9254
 31
0
  0
LINE
  5
C01
330
A02
100
AcDbEntity
  8
Shape2DView002
100
AcDbLine
 10
36.6367
 20
83.3002
 30
0
 11
40.262
 21
81.6097
 31
0
  0
LINE
  5
C02
330
A02
100
AcDbEntity
  8
Shape2DView002
100
AcDbLine
 10
40.262
 20
81.6097
 30
0
 11
41.9525
 21
85.2349
 31
0
  0
CIRCLE
  5
C03
330
A02
100
AcDbEntity
  8
Shape2DView002
100
AcDbCircle
 10
30.5
 20
72.3
 40
1.6
  0
LINE
  5
C04
330
A02
100
AcDbEntity
  8
Shape2DView002
100
AcDbLine
 10
30.6053
 20
89.9351
 30
0
 11
29.2372
 21
86.1763
 31
0
  0
LINE
  5
C05
330
A02
100
AcDbEntity
  8
Shape2DView002
100
AcDbLine
 10
34.3641
 20
88.567
 30
0
 11
30.6053
 21
89.9351
 31
0
  0
LINE
  5
C06
330
A02
100
AcDbEntity
  8
Shape2DView002
100
AcDbLine
 10
29.2372
 20
86.1763
 30
0
 11
32.996
 21
84.8082
 31
0
  0
LINE
  5
C07
330
A02
100
AcDbEntity
  8
Shape2DView002
100
AcDbLine
 10
32.996
 20
84.8082
 30
0
 11
34.3641
 21
88.567
 31
0
  0
LINE
  5
C08
330
A02
100
AcDbEntity
  8
Shape2DView002
100
AcDbLine
 10
22.6505
 20
92.2603
 30
0
 11
21.6152
 21
88.3966
 31
0
  0
LINE
  5
C09
330
A02
100
AcDbEntity
  8
Shape2DView002
100
AcDbLine
 10
26.5142
 20
91.225
 30
0
 11
22.6505
 21
92.2603
 31
0
  0
LINE
  5
C0A
330
A02
100
AcDbEntity
  8
Shape2DView002
100
AcDbLine
 10
21.6152
 20
88.3966
 30
0
 11
25.4789
 21
87.3613
 31
0
  0
LINE
  5
C0B
330
A02
100
AcDbEntity
  8
Shape2DView002
100
AcDbLine
 10
25.4789
 20
87.3613
 30
0
 11
26.5142
 21
91.225
 31
0
  0
LINE
  5
C0C
330
A02
100
AcDbEntity
  8
Shape2DView002
100
AcDbLine
 10
14.5233
 20
93.8833
 30
0
 11
13.8287
 21
89.9441
 31
0
  0
LINE
  5
C0D
330
A02
100
AcDbEntity
  8
Shape2DView002
100
AcDbLine
 10
18.4625
 20
93.1887
 30
0
 11
14.5233
 21
93.8833
 31
0
  0
LINE
  5
C0E
330
A02
100
AcDbEntity
  8
Shape2DView002
100
AcDbLine
 10
13.8287
 20
89.9441
 30
0
 11
17.7679
 21
89.2495
 31
0
  0
LINE
  5
C0F
330
A02
100
AcDbEntity
  8
Shape2DView002
100
AcDbLine
 10
17.7679
 20
89.2495
 30
0
 11
18.4625
 21
93.1887
 31
0
  0
LINE
  5
C10
330
A02
100
AcDbEntity
  8
Shape2DView002
100
AcDbLine
 10
6.28557
 20
94.7918
 30
0
 11
5.93695
 21
90.8071
 31
0
  0
LINE
  5
C11
330
A02
100
AcDbEntity
  8
Shape2DView002
100
AcDbLine
 10
10.2703
 20
94.4432
 30
0
 11
6.28557
 21
94.7918
 31
0
  0
LINE
  5
C12
330
A02
100
AcDbEntity
  8
Shape2DView002
100
AcDbLine
 10
5.93695
 20
90.8071
 30
0
 11
9.92173
 21
90.4584
 31
0
  0
LINE
  5
C13
330
A02
100
AcDbEntity
  8
Shape2DView002
100
AcDbLine
 10
9.92173
 20
90.4584
 30
0
 11
10.2703
 21
94.4432
 31
0
  0
LINE
  5
C14
330
A02
100
AcDbEntity
  8
Shape2DView002
100
AcDbLine
 10
-2
 20
94.9789
 30
0
 11
-2
 21
90.9789
 31
0
  0
LINE
  5
C15
330
A02
100
AcDbEntity
  8
Shape2DView002
100
AcDbLine
 10
2
 20
94.9789
 30
0
 11
-2
 21
94.9789
 31
0
  0
LINE
  5
C16
330
A02
100
AcDbEntity
  8
Shape2DView002
100
AcDbLine
 10
-2
 20
90.9789
 30
0
 11
2
 21
90.9789
 31
0
  0
LINE
  5
C17
330
A02
100
AcDbEntity
  8
Shape2DView002
100
AcDbLine
 10
2
 20
90.9789
 30
0
 11
2
 21
94.9789
 31
0
  0
CIRCLE
  5
C18
330
A02
100
AcDbEntity
  8
Shape2DView002
100
AcDbCircle
 10
-8.88178e-16
 20
11.3
 40
8.5
  0
LINE
  5
C19
330
A02
100
AcDbEntity
  8
Shape2DView002
100
AcDbLine
 10
2
 20
26.3
 30
0
 11
17.5
 21
26.3
 31
0
  0
LINE
  5
C1A
330
A02
100
AcDbEntity
  8
Shape2DView002
100
AcDbLine
 10
2
 20
26.3
 30
0
 11
2
 21
32.8
 31
0
  0
LINE
  5
C1B
330
A02
100
AcDbEntity
  8
Shape2DView002
100
AcDbLine
 10
17.5
 20
26.3
 30
0
 11
17.5
 21
22.3
 31
0
  0
LINE
  5
C1C
330
A02
100
AcDbEntity
  8
Shape2DView002
100
AcDbLine
 10
2
 20
32.8
 30
0
 11
-2
 21
32.8
 31
0
  0
LINE
  5
C1D
330
A02
100
AcDbEntity
  8
Shape2DView002
100
AcDbLine
 10
17.5
 20
22.3
 30
0
 11
-17.5
 21
22.3
 31
0
  0
LINE
  5
C1E
330
A02
100
AcDbEntity
  8
Shape2DView002
100
AcDbLine
 10
-2
 20
32.8
 30
0
 11
-2
 21
26.3
 31
0
  0
LINE
  5
C1F
330
A02
100
AcDbEntity
  8
Shape2DView002
100
AcDbLine
 10
-17.5
 20
22.3
 30
0
 11
-17.5
 21
26.3
 31
0
  0
LINE
  5
C20
330
A02
100
AcDbEntity
  8
Shape2DView002
100
AcDbLine
 10
-17.5
 20
26.3
 30
0
 11
-2
 21
26.3
 31
0
  0
CIRCLE
  5
C21
330
A02
100
AcDbEntity
  8
Shape2DView002
100
AcDbCircle
 10
-30.5
 20
46.3
 40
1.6
  0
LINE
  5
C22
330
A02
100
AcDbEntity
  8
Shape2DView002
100
AcDbLine
 10
-37.951
 20
33.0585
 30
0
 11
-37.0284
 21
30.9131
 31
0
  0
LINE
  5
C23
330
A02
100
AcDbEntity
  8
Shape2DView002
100
AcDbLine
 10
-38.8626
 20
30.9226
 30
0
 11
-37.951
 21
33.0585
 31
0
  0
SPLINE
  5
C24
330
A02
100
AcDbEntity
  8
Shape2DView002
100
AcDbSpline
210
0
220
0
230
1
 70
8
 71
2
 72
6
 73
3
 74
0
 40
0
 40
0
 40
0
 40
1
 40
1
 40
1
 10
-37.0284
 20
30.9131
 30
0
 10
-36.9921
 20
30.8278
 30
0
 10
-36.9526
 20
30.7283
 30
0
  0
SPLINE
  5
C25
330
A02
100
AcDbEntity
  8
Shape2DView002
100
AcDbSpline
210
0
220
0
230
1
 70
8
 71
2
 72
6
 73
3
 74
0
 40
0
 40
0
 40
0
 40
1
 40
1
 40
1
 10
-38.9415
 20
30.7299
 30
0
 10
-38.9005
 20
30.8357
 30
0
 10
-38.8626
 20
30.9226
 30
0
  0
SPLINE
  5
C26
330
A02
100
AcDbEntity
  8
Shape2DView002
100
AcDbSpline
210
0
220
0
230
1
 70
8
 71
2
 72
6
 73
3
 74
0
 40
0
 40
0
 40
0
 40
1
 40
1
 40
1
 10
-36.9526
 20
30.7283
 30
0
 10
-36.9131
 20
30.6272
 30
0
 10
-36.8831
 20
30.545
 30
0
  0
SPLINE
  5
C27
330
A02
100
AcDbEntity
  8
Shape2DView002
100
AcDbSpline
210
0
220
0
230
1
 70
8
 71
2
 72
6
 73
3
 74
0
 40
0
 40
0
 40
0
 40
1
 40
1
 40
1
 10
-39.0142
 20
30.5403
 30
0
 10
-38.9842
 20
30.6224
 30
0
 10
-38.9415
 20
30.7299
 30
0
  0
SPLINE
  5
C28
330
A02
100
AcDbEntity
  8
Shape2DView002
100
AcDbSpline
210
0
220
0
230
1
 70
8
 71
2
 72
6
 73
3
 74
0
 40
0
 40
0
 40
0
 40
1
 40
1
 40
1
 10
-36.8831
 20
30.545
 30
0
 10
-36.891
 20
30.6098
 30
0
 10
-36.8942
 20
30.7188
 30
0
  0
SPLINE
  5
C29
330
A02
100
AcDbEntity
  8
Shape2DView002
100
AcDbSpline
210
0
220
0
230
1
 70
8
 71
2
 72
6
 73
3
 74
0
 40
0
 40
0
 40
0
 40
1
 40
1
 40
1
 10
-39.0079
 20
30.7156
 30
0
 10
-39.0111
 20
30.6051
 30
0
 10
-39.0142
 20
30.5403
 30
0
  0
SPLINE
  5
C2A
330
A02
100
AcDbEntity
  8
Shape2DView002
100
AcDbSpline
210
0
220
0
230
1
 70
8
 71
2
 72
6
 73
3
 74
0
 40
0
 40
0
 40
0
 40
1
 40
1
 40
1
 10
-36.8942
 20
30.7188
 30
0
 10
-36.8973
 20
30.8262
 30
0
 10
-36.8973
 20
30.9131
 30
0
  0
SPLINE
  5
C2B
330
A02
100
AcDbEntity
  8
Shape2DView002
100
AcDbSpline
210
0
220
0
230
1
 70
8
 71
2
 72
6
 73
3
 74
0
 40
0
 40
0
 40
0
 40
1
 40
1
 40
1
 10
-39.0047
 20
30.9131
 30
0
 10
-39.0047
 20
30.8262
 30
0
 10
-39.0079
 20
30.7156
 30
0
  0
LINE
  5
C2C
330
A02
100
AcDbEntity
  8
Shape2DView002
100
AcDbLine
 10
-36.8973
 20
30.9131
 30
0
 11
-36.8973
 21
33
 31
0
  0
LINE
  5
C2D
330
A02
100
AcDbEntity
  8
Shape2DView002
100
AcDbLine
 10
-39.0047
 20
33
 30
0
 11
-39.0047
 21
30.9131
 31
0
  0
LINE
  5
C2E
330
A02
100
AcDbEntity
  8
Shape2DView002
100
AcDbLine
 10
-36.8973
 20
33
 30
0
 11
-36.4755
 21
33
 31
0
  0
LINE
  5
C2F
330
A02
100
AcDbEntity
  8
Shape2DView002
100
AcDbLine
 10
-39.4265
 20
33
 30
0
 11
-39.0047
 21
33
 31
0
  0
LINE
  5
C30
330
A02
100
AcDbEntity
  8
Shape2DView002
100
AcDbLine
 10
-36.4755
 20
33
 30
0
 11
-36.4755
 21
29.6035
 31
0
  0
LINE
  5
C31
330
A02
100
AcDbEntity
  8
Shape2DView002
100
AcDbLine
 10
-39.4265
 20
29.6035
 30
0
 11
-39.4265
 21
33
 31
0
  0
LINE
  5
C32
330
A02
100
AcDbEntity
  8
Shape2DView002
100
AcDbLine
 10
-36.4755
 20
29.6035
 30
0
 11
-36.8736
 21
29.6035
 31
0
  0
LINE
  5
C33
330
A02
100
AcDbEntity
  8
Shape2DView002
100
AcDbLine
 10
-39.0237
 20
29.6035
 30
0
 11
-39.4265
 21
29.6035
 31
0
  0
LINE
  5
C34
330
A02
100
AcDbEntity
  8
Shape2DView002
100
AcDbLine
 10
-36.8736
 20
29.6035
 30
0
 11
-37.8641
 21
31.8894
 31
0
  0
LINE
  5
C35
330
A02
100
AcDbEntity
  8
Shape2DView002
100
AcDbLine
 10
-38.0379
 20
31.8894
 30
0
 11
-39.0237
 21
29.6035
 31
0
  0
SPLINE
  5
C36
330
A02
100
AcDbEntity
  8
Shape2DView002
100
AcDbSpline
210
0
220
0
230
1
 70
8
 71
2
 72
6
 73
3
 74
0
 40
0
 40
0
 40
0
 40
1
 40
1
 40
1
 10
-37.8641
 20
31.8894
 30
0
 10
-37.8847
 20
31.9415
 30
0
 10
-37.9068
 20
32
 30
0
  0
SPLINE
  5
C37
330
A02
100
AcDbEntity
  8
Shape2DView002
100
AcDbSpline
210
0
220
0
230
1
 70
8
 71
1
 72
4
 73
2
 74
0
 40
0
 40
0
 40
1
 40
1
 10
-37.9921
 20
32.0047
 30
0
 10
-38.0379
 20
31.8894
 30
0
  0
SPLINE
  5
C38
330
A02
100
AcDbEntity
  8
Shape2DView002
100
AcDbSpline
210
0
220
0
230
1
 70
8
 71
1
 72
4
 73
2
 74
0
 40
0
 40
0
 40
1
 40
1
 10
-37.9068
 20
32
 30
0
 10
-37.951
 20
32.1169
 30
0
  0
SPLINE
  5
C39
330
A02
100
AcDbEntity
  8
Shape2DView002
100
AcDbSpline
210
0
220
0
230
1
 70
8
 71
1
 72
4
 73
2
 74
0
 40
0
 40
0
 40
1
 40
1
 10
-37.951
 20
32.1169
 30
0
 10
-37.9921
 20
32.0047
 30
0
  0
SPLINE
  5
C3A
330
A02
100
AcDbEntity
  8
Shape2DView002
100
AcDbSpline
210
0
220
0
230
1
 70
8
 71
2
 72
6
 73
3
 74
0
 40
0
 40
0
 40
0
 40
1
 40
1
 40
1
 10
-40.2828
 20
33
 30
0
 10
-40.2828
 20
32.6651
 30
0
 10
-40.3776
 20
32.4092
 30
0
  0
LINE
  5
C3B
330
A02
100
AcDbEntity
  8
Shape2DView002
100
AcDbLine
 10
-42.5687
 20
33
 30
0
 11
-40.2828
 21
33
 31
0
  0
SPLINE
  5
C3C
330
A02
100
AcDbEntity
  8
Shape2DView002
100
AcDbSpline
210
0
220
0
230
1
 70
8
 71
2
 72
6
 73
3
 74
0
 40
0
 40
0
 40
0
 40
1
 40
1
 40
1
 10
-40.3776
 20
32.4092
 30
0
 10
-40.4739
 20
32.1532
 30
0
 10
-40.6351
 20
31.9589
 30
0
  0
LINE
  5
C3D
330
A02
100
AcDbEntity
  8
Shape2DView002
100
AcDbLine
 10
-42.5687
 20
32.5877
 30
0
 11
-42.5687
 21
33
 31
0
  0
SPLINE
  5
C3E
330
A02
100
AcDbEntity
  8
Shape2DView002
100
AcDbSpline
210
0
220
0
230
1
 70
8
 71
2
 72
6
 73
3
 74
0
 40
0
 40
0
 40
0
 40
1
 40
1
 40
1
 10
-40.6351
 20
31.9589
 30
0
 10
-40.7978
 20
31.763
 30
0
 10
-40.9984
 20
31.613
 30
0
  0
LINE
  5
C3F
330
A02
100
AcDbEntity
  8
Shape2DView002
100
AcDbLine
 10
-40.7725
 20
32.5877
 30
0
 11
-42.5687
 21
32.5877
 31
0
  0
SPLINE
  5
C40
330
A02
100
AcDbEntity
  8
Shape2DView002
100
AcDbSpline
210
0
220
0
230
1
 70
8
 71
2
 72
6
 73
3
 74
0
 40
0
 40
0
 40
0
 40
1
 40
1
 40
1
 10
-40.9984
 20
31.613
 30
0
 10
-41.2006
 20
31.4613
 30
0
 10
-41.4092
 20
31.3397
 30
0
  0
SPLINE
  5
C41
330
A02
100
AcDbEntity
  8
Shape2DView002
100
AcDbSpline
210
0
220
0
230
1
 70
8
 71
2
 72
6
 73
3
 74
0
 40
0
 40
0
 40
0
 40
1
 40
1
 40
1
 10
-40.9273
 20
32.2354
 30
0
 10
-40.812
 20
32.3902
 30
0
 10
-40.7725
 20
32.5877
 30
0
  0
SPLINE
  5
C42
330
A02
100
AcDbEntity
  8
Shape2DView002
100
AcDbSpline
210
0
220
0
230
1
 70
8
 71
2
 72
6
 73
3
 74
0
 40
0
 40
0
 40
0
 40
1
 40
1
 40
1
 10
-41.4092
 20
31.3397
 30
0
 10
-41.5908
 20
31.2338
 30
0
 10
-41.7488
 20
31.1169
 30
0
  0
SPLINE
  5
C43
330
A02
100
AcDbEntity
  8
Shape2DView002
100
AcDbSpline
210
0
220
0
230
1
 70
8
 71
2
 72
6
 73
3
 74
0
 40
0
 40
0
 40
0
 40
1
 40
1
 40
1
 10
-41.2164
 20
31.951
 30
0
 10
-41.0442
 20
32.0806
 30
0
 10
-40.9273
 20
32.2354
 30
0
  0
SPLINE
  5
C44
330
A02
100
AcDbEntity
  8
Shape2DView002
100
AcDbSpline
210
0
220
0
230
1
 70
8
 71
2
 72
6
 73
3
 74
0
 40
0
 40
0
 40
0
 40
1
 40
1
 40
1
 10
-41.7488
 20
31.1169
 30
0
 10
-41.9068
 20
30.9984
 30
0
 10
-42.0047
 20
30.8531
 30
0
  0
SPLINE
  5
C45
330
A02
100
AcDbEntity
  8
Shape2DView002
100
AcDbSpline
210
0
220
0
230
1
 70
8
 71
2
 72
6
 73
3
 74
0
 40
0
 40
0
 40
0
 40
1
 40
1
 40
1
 10
-41.5987
 20
31.6998
 30
0
 10
-41.3886
 20
31.8215
 30
0
 10
-41.2164
 20
31.951
 30
0
  0
SPLINE
  5
C46
330
A02
100
AcDbEntity
  8
Shape2DView002
100
AcDbSpline
210
0
220
0
230
1
 70
8
 71
2
 72
6
 73
3
 74
0
 40
0
 40
0
 40
0
 40
1
 40
1
 40
1
 10
-42.0047
 20
30.8531
 30
0
 10
-42.1027
 20
30.7062
 30
0
 10
-42.1027
 20
30.515
 30
0
  0
SPLINE
  5
C47
330
A02
100
AcDbEntity
  8
Shape2DView002
100
AcDbSpline
210
0
220
0
230
1
 70
8
 71
2
 72
6
 73
3
 74
0
 40
0
 40
0
 40
0
 40
1
 40
1
 40
1
 10
-42.0632
 20
31.3965
 30
0
 10
-41.8483
 20
31.5545
 30
0
 10
-41.5987
 20
31.6998
 30
0
  0
SPLINE
  5
C48
330
A02
100
AcDbEntity
  8
Shape2DView002
100
AcDbSpline
210
0
220
0
230
1
 70
8
 71
2
 72
6
 73
3
 74
0
 40
0
 40
0
 40
0
 40
1
 40
1
 40
1
 10
-42.1027
 20
30.515
 30
0
 10
-42.1027
 20
30.2701
 30
0
 10
-41.9226
 20
30.1043
 30
0
  0
SPLINE
  5
C49
330
A02
100
AcDbEntity
  8
Shape2DView002
100
AcDbSpline
210
0
220
0
230
1
 70
8
 71
2
 72
6
 73
3
 74
0
 40
0
 40
0
 40
0
 40
1
 40
1
 40
1
 10
-42.4092
 20
31.0316
 30
0
 10
-42.278
 20
31.2385
 30
0
 10
-42.0632
 20
31.3965
 30
0
  0
SPLINE
  5
C4A
330
A02
100
AcDbEntity
  8
Shape2DView002
100
AcDbSpline
210
0
220
0
230
1
 70
8
 71
2
 72
6
 73
3
 74
0
 40
0
 40
0
 40
0
 40
1
 40
1
 40
1
 10
-41.9226
 20
30.1043
 30
0
 10
-41.7441
 20
29.9384
 30
0
 10
-41.4376
 20
29.9384
 30
0
  0
SPLINE
  5
C4B
330
A02
100
AcDbEntity
  8
Shape2DView002
100
AcDbSpline
210
0
220
0
230
1
 70
8
 71
2
 72
6
 73
3
 74
0
 40
0
 40
0
 40
0
 40
1
 40
1
 40
1
 10
-42.5403
 20
30.5245
 30
0
 10
-42.5403
 20
30.8231
 30
0
 10
-42.4092
 20
31.0316
 30
0
  0
SPLINE
  5
C4C
330
A02
100
AcDbEntity
  8
Shape2DView002
100
AcDbSpline
210
0
220
0
230
1
 70
8
 71
2
 72
6
 73
3
 74
0
 40
0
 40
0
 40
0
 40
1
 40
1
 40
1
 10
-41.4376
 20
29.9384
 30
0
 10
-41.1248
 20
29.9384
 30
0
 10
-40.9558
 20
30.0758
 30
0
  0
SPLINE
  5
C4D
330
A02
100
AcDbEntity
  8
Shape2DView002
100
AcDbSpline
210
0
220
0
230
1
 70
8
 71
2
 72
6
 73
3
 74
0
 40
0
 40
0
 40
0
 40
1
 40
1
 40
1
 10
-42.4092
 20
30.0126
 30
0
 10
-42.5403
 20
30.2338
 30
0
 10
-42.5403
 20
30.5245
 30
0
  0
SPLINE
  5
C4E
330
A02
100
AcDbEntity
  8
Shape2DView002
100
AcDbSpline
210
0
220
0
230
1
 70
8
 71
2
 72
6
 73
3
 74
0
 40
0
 40
0
 40
0
 40
1
 40
1
 40
1
 10
-40.9558
 20
30.0758
 30
0
 10
-40.7883
 20
30.2117
 30
0
 10
-40.7141
 20
30.4376
 30
0
  0
SPLINE
  5
C4F
330
A02
100
AcDbEntity
  8
Shape2DView002
100
AcDbSpline
210
0
220
0
230
1
 70
8
 71
2
 72
6
 73
3
 74
0
 40
0
 40
0
 40
0
 40
1
 40
1
 40
1
 10
-42.0348
 20
29.6682
 30
0
 10
-42.2796
 20
29.7915
 30
0
 10
-42.4092
 20
30.0126
 30
0
  0
LINE
  5
C50
330
A02
100
AcDbEntity
  8
Shape2DView002
100
AcDbLine
 10
-40.7141
 20
30.4376
 30
0
 11
-40.3365
 21
30.267
 31
0
  0
SPLINE
  5
C51
330
A02
100
AcDbEntity
  8
Shape2DView002
100
AcDbSpline
210
0
220
0
230
1
 70
8
 71
2
 72
6
 73
3
 74
0
 40
0
 40
0
 40
0
 40
1
 40
1
 40
1
 10
-41.4518
 20
29.545
 30
0
 10
-41.7915
 20
29.545
 30
0
 10
-42.0348
 20
29.6682
 30
0
  0
SPLINE
  5
C52
330
A02
100
AcDbEntity
  8
Shape2DView002
100
AcDbSpline
210
0
220
0
230
1
 70
8
 71
2
 72
6
 73
3
 74
0
 40
0
 40
0
 40
0
 40
1
 40
1
 40
1
 10
-40.3365
 20
30.267
 30
0
 10
-40.436
 20
29.9542
 30
0
 10
-40.733
 20
29.7504
 30
0
  0
SPLINE
  5
C53
330
A02
100
AcDbEntity
  8
Shape2DView002
100
AcDbSpline
210
0
220
0
230
1
 70
8
 71
2
 72
6
 73
3
 74
0
 40
0
 40
0
 40
0
 40
1
 40
1
 40
1
 10
-40.733
 20
29.7504
 30
0
 10
-41.03
 20
29.545
 30
0
 10
-41.4518
 20
29.545
 30
0
  0
LINE
  5
C54
330
A02
100
AcDbEntity
  8
Shape2DView002
100
AcDbLine
 10
-41.9755
 20
47
 30
0
 11
-41.9755
 21
43.6035
 31
0
  0
LINE
  5
C55
330
A02
100
AcDbEntity
  8
Shape2DView002
100
AcDbLine
 10
-41.9755
 20
43.6035
 30
0
 11
-43.1793
 21
43.6035
 31
0
  0
SPLINE
  5
C56
330
A02
100
AcDbEntity
  8
Shape2DView002
100
AcDbSpline
210
0
220
0
230
1
 70
8
 71
2
 72
6
 73
3
 74
0
 40
0
 40
0
 40
0
 40
1
 40
1
 40
1
 10
-43.1793
 20
43.6035
 30
0
 10
-43.5821
 20
43.6035
 30
0
 10
-43.8128
 20
43.733
 30
0
  0
SPLINE
  5
C57
330
A02
100
AcDbEntity
  8
Shape2DView002
100
AcDbSpline
210
0
220
0
230
1
 70
8
 71
2
 72
6
 73
3
 74
0
 40
0
 40
0
 40
0
 40
1
 40
1
 40
1
 10
-43.8128
 20
43.733
 30
0
 10
-44.0434
 20
43.8626
 30
0
 10
-44.1398
 20
44.0695
 30
0
  0
SPLINE
  5
C58
330
A02
100
AcDbEntity
  8
Shape2DView002
100
AcDbSpline
210
0
220
0
230
1
 70
8
 71
2
 72
6
 73
3
 74
0
 40
0
 40
0
 40
0
 40
1
 40
1
 40
1
 10
-44.1398
 20
44.0695
 30
0
 10
-44.2378
 20
44.2749
 30
0
 10
-44.2378
 20
44.5008
 30
0
  0
SPLINE
  5
C59
330
A02
100
AcDbEntity
  8
Shape2DView002
100
AcDbSpline
210
0
220
0
230
1
 70
8
 71
2
 72
6
 73
3
 74
0
 40
0
 40
0
 40
0
 40
1
 40
1
 40
1
 10
-44.2378
 20
44.5008
 30
0
 10
-44.2378
 20
44.733
 30
0
 10
-44.1066
 20
44.921
 30
0
  0
SPLINE
  5
C5A
330
A02
100
AcDbEntity
  8
Shape2DView002
100
AcDbSpline
210
0
220
0
230
1
 70
8
 71
2
 72
6
 73
3
 74
0
 40
0
 40
0
 40
0
 40
1
 40
1
 40
1
 10
-44.1066
 20
44.921
 30
0
 10
-43.9755
 20
45.1074
 30
0
 10
-43.737
 20
45.2085
 30
0
  0
SPLINE
  5
C5B
330
A02
100
AcDbEntity
  8
Shape2DView002
100
AcDbSpline
210
0
220
0
230
1
 70
8
 71
2
 72
6
 73
3
 74
0
 40
0
 40
0
 40
0
 40
1
 40
1
 40
1
 10
-43.737
 20
45.2085
 30
0
 10
-43.9344
 20
45.2701
 30
0
 10
-44.0735
 20
45.3886
 30
0
  0
SPLINE
  5
C5C
330
A02
100
AcDbEntity
  8
Shape2DView002
100
AcDbSpline
210
0
220
0
230
1
 70
8
 71
2
 72
6
 73
3
 74
0
 40
0
 40
0
 40
0
 40
1
 40
1
 40
1
 10
-44.0735
 20
45.3886
 30
0
 10
-44.2125
 20
45.5055
 30
0
 10
-44.2852
 20
45.6682
 30
0
  0
SPLINE
  5
C5D
330
A02
100
AcDbEntity
  8
Shape2DView002
100
AcDbSpline
210
0
220
0
230
1
 70
8
 71
2
 72
6
 73
3
 74
0
 40
0
 40
0
 40
0
 40
1
 40
1
 40
1
 10
-44.2852
 20
45.6682
 30
0
 10
-44.3578
 20
45.831
 30
0
 10
-44.3578
 20
46.0253
 30
0
  0
SPLINE
  5
C5E
330
A02
100
AcDbEntity
  8
Shape2DView002
100
AcDbSpline
210
0
220
0
230
1
 70
8
 71
2
 72
6
 73
3
 74
0
 40
0
 40
0
 40
0
 40
1
 40
1
 40
1
 10
-44.3578
 20
46.0253
 30
0
 10
-44.3578
 20
46.1975
 30
0
 10
-44.3025
 20
46.3697
 30
0
  0
SPLINE
  5
C5F
330
A02
100
AcDbEntity
  8
Shape2DView002
100
AcDbSpline
210
0
220
0
230
1
 70
8
 71
2
 72
6
 73
3
 74
0
 40
0
 40
0
 40
0
 40
1
 40
1
 40
1
 10
-44.3025
 20
46.3697
 30
0
 10
-44.2472
 20
46.5419
 30
0
 10
-44.1193
 20
46.6856
 30
0
  0
SPLINE
  5
C60
330
A02
100
AcDbEntity
  8
Shape2DView002
100
AcDbSpline
210
0
220
0
230
1
 70
8
 71
2
 72
6
 73
3
 74
0
 40
0
 40
0
 40
0
 40
1
 40
1
 40
1
 10
-44.1193
 20
46.6856
 30
0
 10
-43.9913
 20
46.8278
 30
0
 10
-43.7796
 20
46.9147
 30
0
  0
SPLINE
  5
C61
330
A02
100
AcDbEntity
  8
Shape2DView002
100
AcDbSpline
210
0
220
0
230
1
 70
8
 71
2
 72
6
 73
3
 74
0
 40
0
 40
0
 40
0
 40
1
 40
1
 40
1
 10
-43.7796
 20
46.9147
 30
0
 10
-43.5679
 20
47
 30
0
 10
-43.2567
 20
47
 30
0
  0
LINE
  5
C62
330
A02
100
AcDbEntity
  8
Shape2DView002
100
AcDbLine
 10
-43.2567
 20
47
 30
0
 11
-41.9755
 21
47
 31
0
  0
CIRCLE
  5
C63
330
A02
100
AcDbEntity
  8
Shape2DView002
100
AcDbCircle
 10
-72.5
 20
45.32
 40
2.35
  0
LINE
  5
C64
330
A02
100
AcDbEntity
  8
Shape2DView002
100
AcDbLine
 10
-21.9
 20
61.3
 30
0
 11
-21.9
 21
70.75
 31
0
  0
LINE
  5
C65
330
A02
100
AcDbEntity
  8
Shape2DView002
100
AcDbLine
 10
-21.9
 20
61.3
 30
0
 11
-25.1
 21
61.3
 31
0
  0
LINE
  5
C66
330
A02
100
AcDbEntity
  8
Shape2DView002
100
AcDbLine
 10
-21.9
 20
70.75
 30
0
 11
-2
 21
70.75
 31
0
  0
LINE
  5
C67
330
A02
100
AcDbEntity
  8
Shape2DView002
100
AcDbLine
 10
-25.1
 20
61.3
 30
0
 11
-25.1
 21
57.3
 31
0
  0
LINE
  5
C68
330
A02
100
AcDbEntity
  8
Shape2DView002
100
AcDbLine
 10
-2
 20
70.75
 30
0
 11
-2
 21
72.25
 31
0
  0
LINE
  5
C69
330
A02
100
AcDbEntity
  8
Shape2DView002
100
AcDbLine
 10
-25.1
 20
57.3
 30
0
 11
-21.9
 21
57.3
 31
0
  0
LINE
  5
C6A
330
A02
100
AcDbEntity
  8
Shape2DView002
100
AcDbLine
 10
-2
 20
72.25
 30
0
 11
2
 21
72.25
 31
0
  0
LINE
  5
C6B
330
A02
100
AcDbEntity
  8
Shape2DView002
100
AcDbLine
 10
-21.9
 20
47.85
 30
0
 11
-21.9
 21
57.3
 31
0
  0
LINE
  5
C6C
330
A02
100
AcDbEntity
  8
Shape2DView002
100
AcDbLine
 10
2
 20
72.25
 30
0
 11
2
 21
70.75
 31
0
  0
LINE
  5
C6D
330
A02
100
AcDbEntity
  8
Shape2DView002
100
AcDbLine
 10
21.9
 20
47.85
 30
0
 11
-21.9
 21
47.85
 31
0
  0
LINE
  5
C6E
330
A02
100
AcDbEntity
  8
Shape2DView002
100
AcDbLine
 10
2
 20
70.75
 30
0
 11
21.9
 21
70.75
 31
0
  0
LINE
  5
C6F
330
A02
100
AcDbEntity
  8
Shape2DView002
100
AcDbLine
 10
21.9
 20
57.3
 30
0
 11
21.9
 21
47.85
 31
0
  0
LINE
  5
C70
330
A02
100
AcDbEntity
  8
Shape2DView002
100
AcDbLine
 10
21.9
 20
70.75
 30
0
 11
21.9
 21
61.3
 31
0
  0
LINE
  5
C71
330
A02
100
AcDbEntity
  8
Shape2DView002
100
AcDbLine
 10
25.1
 20
57.3
 30
0
 11
21.9
 21
57.3
 31
0
  0
LINE
  5
C72
330
A02
100
AcDbEntity
  8
Shape2DView002
100
AcDbLine
 10
21.9
 20
61.3
 30
0
 11
25.1
 21
61.3
 31
0
  0
LINE
  5
C73
330
A02
100
AcDbEntity
  8
Shape2DView002
100
AcDbLine
 10
25.1
 20
61.3
 30
0
 11
25.1
 21
57.3
 31
0
  0
LINE
  5
C74
330
A02
100
AcDbEntity
  8
Shape2DView002
100
AcDbLine
 10
-10.2703
 20
94.4432
 30
0
 11
-9.92173
 21
90.4584
 31
0
  0
LINE
  5
C75
330
A02
100
AcDbEntity
  8
Shape2DView002
100
AcDbLine
 10
-6.28557
 20
94.7918
 30
0
 11
-10.2703
 21
94.4432
 31
0
  0
LINE
  5
C76
330
A02
100
AcDbEntity
  8
Shape2DView002
100
AcDbLine
 10
-9.92173
 20
90.4584
 30
0
 11
-5.93695
 21
90.8071
 31
0
  0
LINE
  5
C77
330
A02
100
AcDbEntity
  8
Shape2DView002
100
AcDbLine
 10
-5.93695
 20
90.8071
 30
0
 11
-6.28557
 21
94.7918
 31
0
  0
LINE
  5
C78
330
A02
100
AcDbEntity
  8
Shape2DView002
100
AcDbLine
 10
-18.4625
 20
93.1887
 30
0
 11
-17.7679
 21
89.2495
 31
0
  0
LINE
  5
C79
330
A02
100
AcDbEntity
  8
Shape2DView002
100
AcDbLine
 10
-14.5233
 20
93.8833
 30
0
 11
-18.4625
 21
93.1887
 31
0
  0
LINE
  5
C7A
330
A02
100
AcDbEntity
  8
Shape2DView002
100
AcDbLine
 10
-17.7679
 20
89.2495
 30
0
 11
-13.8287
 21
89.9441
 31
0
  0
LINE
  5
C7B
330
A02
100
AcDbEntity
  8
Shape2DView002
100
AcDbLine
 10
-13.8287
 20
89.9441
 30
0
 11
-14.5233
 21
93.8833
 31
0
  0
CIRCLE
  5
C7C
330
A02
100
AcDbEntity
  8
Shape2DView002
100
AcDbCircle
 10
-30.5
 20
72.3
 40
1.6
  0
LINE
  5
C7D
330
A02
100
AcDbEntity
  8
Shape2DView002
100
AcDbLine
 10
-26.5142
 20
91.225
 30
0
 11
-25.4789
 21
87.3613
 31
0
  0
LINE
  5
C7E
330
A02
100
AcDbEntity
  8
Shape2DView002
100
AcDbLine
 10
-22.6505
 20
92.2603
 30
0
 11
-26.5142
 21
91.225
 31
0
  0
LINE
  5
C7F
330
A02
100
AcDbEntity
  8
Shape2DView002
100
AcDbLine
 10
-25.4789
 20
87.3613
 30
0
 11
-21.6152
 21
88.3966
 31
0
  0
LINE
  5
C80
330
A02
100
AcDbEntity
  8
Shape2DView002
100
AcDbLine
 10
-21.6152
 20
88.3966
 30
0
 11
-22.6505
 21
92.2603
 31
0
  0
LINE
  5
C81
330
A02
100
AcDbEntity
  8
Shape2DView002
100
AcDbLine
 10
-34.3641
 20
88.567
 30
0
 11
-32.996
 21
84.8082
 31
0
  0
LINE
  5
C82
330
A02
100
AcDbEntity
  8
Shape2DView002
100
AcDbLine
 10
-30.6053
 20
89.9351
 30
0
 11
-34.3641
 21
88.567
 31
0
  0
LINE
  5
C83
330
A02
100
AcDbEntity
  8
Shape2DView002
100
AcDbLine
 10
-32.996
 20
84.8082
 30
0
 11
-29.2372
 21
86.1763
 31
0
  0
LINE
  5
C84
330
A02
100
AcDbEntity
  8
Shape2DView002
100
AcDbLine
 10
-29.2372
 20
86.1763
 30
0
 11
-30.6053
 21
89.9351
 31
0
  0
CIRCLE
  5
C85
330
A02
100
AcDbEntity
  8
Shape2DView002
100
AcDbCircle
 10
-43
 20
59.3
 40
9
  0
LINE
  5
C86
330
A02
100
AcDbEntity
  8
Shape2DView002
100
AcDbLine
 10
-67
 20
53.8044
 30
0
 11
-67
 21
63.8044
 31
0
  0
LINE
  5
C87
330
A02
100
AcDbEntity
  8
Shape2DView002
100
AcDbLine
 10
-63
 20
53.8044
 30
0
 11
-67
 21
53.8044
 31
0
  0
LINE
  5
C88
330
A02
100
AcDbEntity
  8
Shape2DView002
100
AcDbLine
 10
-67
 20
63.8044
 30
0
 11
-63
 21
63.8044
 31
0
  0
LINE
  5
C89
330
A02
100
AcDbEntity
  8
Shape2DView002
100
AcDbLine
 10
-63
 20
63.8044
 30
0
 11
-63
 21
53.8044
 31
0
  0
CIRCLE
  5
C8A
330
A02
100
AcDbEntity
  8
Shape2DView002
100
AcDbCircle
 10
-72.5
 20
53.3
 40
1.6
  0
CIRCLE
  5
C8B
330
A02
100
AcDbEntity
  8
Shape2DView002
100
AcDbCircle
 10
-72.5
 20
61.28
 40
2.35
  0
LINE
  5
C8C
330
A02
100
AcDbEntity
  8
Shape2DView002
100
AcDbLine
 10
-49.2215
 20
81.2542
 30
0
 11
-47.2215
 21
77.7901
 31
0
  0
LINE
  5
C8D
330
A02
100
AcDbEntity
  8
Shape2DView002
100
AcDbLine
 10
-45.7574
 20
83.2542
 30
0
 11
-49.2215
 21
81.2542
 31
0
  0
LINE
  5
C8E
330
A02
100
AcDbEntity
  8
Shape2DView002
100
AcDbLine
 10
-47.2215
 20
77.7901
 30
0
 11
-43.7574
 21
79.7901
 31
0
  0
LINE
  5
C8F
330
A02
100
AcDbEntity
  8
Shape2DView002
100
AcDbLine
 10
-43.7574
 20
79.7901
 30
0
 11
-45.7574
 21
83.2542
 31
0
  0
LINE
  5
C90
330
A02
100
AcDbEntity
  8
Shape2DView002
100
AcDbLine
 10
-56.116
 20
76.655
 30
0
 11
-53.8217
 21
73.3784
 31
0
  0
LINE
  5
C91
330
A02
100
AcDbEntity
  8
Shape2DView002
100
AcDbLine
 10
-52.8394
 20
78.9493
 30
0
 11
-56.116
 21
76.655
 31
0
  0
LINE
  5
C92
330
A02
100
AcDbEntity
  8
Shape2DView002
100
AcDbLine
 10
-53.8217
 20
73.3784
 30
0
 11
-50.5451
 21
75.6727
 31
0
  0
LINE
  5
C93
330
A02
100
AcDbEntity
  8
Shape2DView002
100
AcDbLine
 10
-50.5451
 20
75.6727
 30
0
 11
-52.8394
 21
78.9493
 31
0
  0
LINE
  5
C94
330
A02
100
AcDbEntity
  8
Shape2DView002
100
AcDbLine
 10
-41.9525
 20
85.2349
 30
0
 11
-40.262
 21
81.6097
 31
0
  0
LINE
  5
C95
330
A02
100
AcDbEntity
  8
Shape2DView002
100
AcDbLine
 10
-38.3272
 20
86.9254
 30
0
 11
-41.9525
 21
85.2349
 31
0
  0
LINE
  5
C96
330
A02
100
AcDbEntity
  8
Shape2DView002
100
AcDbLine
 10
-40.262
 20
81.6097
 30
0
 11
-36.6367
 21
83.3002
 31
0
  0
LINE
  5
C97
330
A02
100
AcDbEntity
  8
Shape2DView002
100
AcDbLine
 10
-36.6367
 20
83.3002
 30
0
 11
-38.3272
 21
86.9254
 31
0
  0
LINE
  5
C98
330
A02
100
AcDbEntity
  8
Shape2DView002
100
AcDbLine
 10
65.1292
 20
-51.2936
 30
0
 11
65.1292
 21
-50.8718
 31
0
  0
SPLINE
  5
C99
330
A02
100
AcDbEntity
  8
Shape2DView002
100
AcDbSpline
210
0
220
0
230
1
 70
8
 71
2
 72
6
 73
3
 74
0
 40
0
 40
0
 40
0
 40
1
 40
1
 40
1
 10
65.3631
 20
-50.8718
 30
0
 10
65.2193
 20
-50.7644
 30
0
 10
65.145
 20
-50.5969
 30
0
  0
SPLINE
  5
C9A
330
A02
100
AcDbEntity
  8
Shape2DView002
100
AcDbSpline
210
0
220
0
230
1
 70
8
 71
2
 72
6
 73
3
 74
0
 40
0
 40
0
 40
0
 40
1
 40
1
 40
1
 10
65.145
 20
-50.5969
 30
0
 10
65.0708
 20
-50.4279
 30
0
 10
65.0708
 20
-50.2209
 30
0
  0
SPLINE
  5
C9B
330
A02
100
AcDbEntity
  8
Shape2DView002
100
AcDbSpline
210
0
220
0
230
1
 70
8
 71
2
 72
6
 73
3
 74
0
 40
0
 40
0
 40
0
 40
1
 40
1
 40
1
 10
65.0708
 20
-50.2209
 30
0
 10
65.0708
 20
-50.0045
 30
0
 10
65.1672
 20
-49.8291
 30
0
  0
SPLINE
  5
C9C
330
A02
100
AcDbEntity
  8
Shape2DView002
100
AcDbSpline
210
0
220
0
230
1
 70
8
 71
2
 72
6
 73
3
 74
0
 40
0
 40
0
 40
0
 40
1
 40
1
 40
1
 10
65.1672
 20
-49.8291
 30
0
 10
65.2635
 20
-49.6538
 30
0
 10
65.4357
 20
-49.5558
 30
0
  0
SPLINE
  5
C9D
330
A02
100
AcDbEntity
  8
Shape2DView002
100
AcDbSpline
210
0
220
0
230
1
 70
8
 71
2
 72
6
 73
3
 74
0
 40
0
 40
0
 40
0
 40
1
 40
1
 40
1
 10
65.4357
 20
-49.5558
 30
0
 10
65.2604
 20
-49.4421
 30
0
 10
65.1656
 20
-49.2541
 30
0
  0
SPLINE
  5
C9E
330
A02
100
AcDbEntity
  8
Shape2DView002
100
AcDbSpline
210
0
220
0
230
1
 70
8
 71
2
 72
6
 73
3
 74
0
 40
0
 40
0
 40
0
 40
1
 40
1
 40
1
 10
65.1656
 20
-49.2541
 30
0
 10
65.0708
 20
-49.0661
 30
0
 10
65.0708
 20
-48.8386
 30
0
  0
SPLINE
  5
C9F
330
A02
100
AcDbEntity
  8
Shape2DView002
100
AcDbSpline
210
0
220
0
230
1
 70
8
 71
2
 72
6
 73
3
 74
0
 40
0
 40
0
 40
0
 40
1
 40
1
 40
1
 10
65.0708
 20
-48.8386
 30
0
 10
65.0708
 20
-48.4373
 30
0
 10
65.3172
 20
-48.202
 30
0
  0
LINE
  5
CA0
330
A02
100
AcDbEntity
  8
Shape2DView002
100
AcDbLine
 10
65.1292
 20
-47.1435
 30
0
 11
65.1292
 21
-46.7217
 31
0
  0
LINE
  5
CA1
330
A02
100
AcDbEntity
  8
Shape2DView002
100
AcDbLine
 10
65.1292
 20
-45.935
 30
0
 11
65.1292
 21
-45.5132
 31
0
  0
SPLINE
  5
CA2
330
A02
100
AcDbEntity
  8
Shape2DView002
100
AcDbSpline
210
0
220
0
230
1
 70
8
 71
2
 72
6
 73
3
 74
0
 40
0
 40
0
 40
0
 40
1
 40
1
 40
1
 10
65.4547
 20
-45.5132
 30
0
 10
65.2651
 20
-45.4279
 30
0
 10
65.1687
 20
-45.2794
 30
0
  0
SPLINE
  5
CA3
330
A02
100
AcDbEntity
  8
Shape2DView002
100
AcDbSpline
210
0
220
0
230
1
 70
8
 71
2
 72
6
 73
3
 74
0
 40
0
 40
0
 40
0
 40
1
 40
1
 40
1
 10
65.1687
 20
-45.2794
 30
0
 10
65.0708
 20
-45.1293
 30
0
 10
65.0708
 20
-44.9255
 30
0
  0
SPLINE
  5
CA4
330
A02
100
AcDbEntity
  8
Shape2DView002
100
AcDbSpline
210
0
220
0
230
1
 70
8
 71
2
 72
6
 73
3
 74
0
 40
0
 40
0
 40
0
 40
1
 40
1
 40
1
 10
65.0708
 20
-44.9255
 30
0
 10
65.0708
 20
-44.6996
 30
0
 10
65.1972
 20
-44.5416
 30
0
  0
SPLINE
  5
CA5
330
A02
100
AcDbEntity
  8
Shape2DView002
100
AcDbSpline
210
0
220
0
230
1
 70
8
 71
2
 72
6
 73
3
 74
0
 40
0
 40
0
 40
0
 40
1
 40
1
 40
1
 10
67.2746
 20
-43.1688
 30
0
 10
67.2746
 20
-42.9997
 30
0
 10
67.1435
 20
-42.8007
 30
0
  0
SPLINE
  5
CA6
330
A02
100
AcDbEntity
  8
Shape2DView002
100
AcDbSpline
210
0
220
0
230
1
 70
8
 71
2
 72
6
 73
3
 74
0
 40
0
 40
0
 40
0
 40
1
 40
1
 40
1
 10
67.194
 20
-43.3647
 30
0
 10
67.2746
 20
-43.3031
 30
0
 10
67.2746
 20
-43.1688
 30
0
  0
LINE
  5
CA7
330
A02
100
AcDbEntity
  8
Shape2DView002
100
AcDbLine
 10
65.1292
 20
-44.2525
 30
0
 11
65.1292
 21
-43.8497
 31
0
  0
SPLINE
  5
CA8
330
A02
100
AcDbEntity
  8
Shape2DView002
100
AcDbSpline
210
0
220
0
230
1
 70
8
 71
1
 72
4
 73
2
 74
0
 40
0.999951
 40
0.999951
 40
1
 40
1
 10
67.194
 20
-43.3647
 30
0
 10
67.194
 20
-43.3647
 30
0
  0
LINE
  5
CA9
330
A02
100
AcDbEntity
  8
Shape2DView002
100
AcDbLine
 10
64.3093
 20
-43.8497
 30
0
 11
64.1055
 21
-43.4263
 31
0
  0
LINE
  5
CAA
330
A02
100
AcDbEntity
  8
Shape2DView002
100
AcDbLine
 10
65.1292
 20
-43.4263
 30
0
 11
65.1292
 21
-42.8149
 31
0
  0
LINE
  5
CAB
330
A02
100
AcDbEntity
  8
Shape2DView002
100
AcDbLine
 10
67.0708
 20
-40.6854
 30
0
 11
67.3473
 21
-40.4373
 31
0
  0
SPLINE
  5
CAC
330
A02
100
AcDbEntity
  8
Shape2DView002
100
AcDbSpline
210
0
220
0
230
1
 70
8
 71
2
 72
6
 73
3
 74
0
 40
0
 40
0
 40
0
 40
1
 40
1
 40
1
 10
67.243
 20
-40.9366
 30
0
 10
67.1877
 20
-40.8007
 30
0
 10
67.0708
 20
-40.6854
 30
0
  0
SPLINE
  5
CAD
330
A02
100
AcDbEntity
  8
Shape2DView002
100
AcDbSpline
210
0
220
0
230
1
 70
8
 71
2
 72
6
 73
3
 74
0
 40
0
 40
0
 40
0
 40
1
 40
1
 40
1
 10
65.668
 20
-42.202
 30
0
 10
65.3773
 20
-42.0629
 30
0
 10
65.224
 20
-41.8165
 30
0
  0
SPLINE
  5
CAE
330
A02
100
AcDbEntity
  8
Shape2DView002
100
AcDbSpline
210
0
220
0
230
1
 70
8
 71
2
 72
6
 73
3
 74
0
 40
0
 40
0
 40
0
 40
1
 40
1
 40
1
 10
67.2983
 20
-41.2288
 30
0
 10
67.2983
 20
-41.0708
 30
0
 10
67.243
 20
-40.9366
 30
0
  0
SPLINE
  5
CAF
330
A02
100
AcDbEntity
  8
Shape2DView002
100
AcDbSpline
210
0
220
0
230
1
 70
8
 71
2
 72
6
 73
3
 74
0
 40
0
 40
0
 40
0
 40
1
 40
1
 40
1
 10
65.224
 20
-41.8165
 30
0
 10
65.0708
 20
-41.5685
 30
0
 10
65.0708
 20
-41.2383
 30
0
  0
SPLINE
  5
CB0
330
A02
100
AcDbEntity
  8
Shape2DView002
100
AcDbSpline
210
0
220
0
230
1
 70
8
 71
2
 72
6
 73
3
 74
0
 40
0
 40
0
 40
0
 40
1
 40
1
 40
1
 10
67.2035
 20
-41.5669
 30
0
 10
67.2983
 20
-41.4231
 30
0
 10
67.2983
 20
-41.2288
 30
0
  0
SPLINE
  5
CB1
330
A02
100
AcDbEntity
  8
Shape2DView002
100
AcDbSpline
210
0
220
0
230
1
 70
8
 71
2
 72
6
 73
3
 74
0
 40
0
 40
0
 40
0
 40
1
 40
1
 40
1
 10
65.0708
 20
-41.2383
 30
0
 10
65.0708
 20
-40.9587
 30
0
 10
65.1972
 20
-40.7264
 30
0
  0
SPLINE
  5
CB2
330
A02
100
AcDbEntity
  8
Shape2DView002
100
AcDbSpline
210
0
220
0
230
1
 70
8
 71
2
 72
6
 73
3
 74
0
 40
0
 40
0
 40
0
 40
1
 40
1
 40
1
 10
66.9381
 20
-41.796
 30
0
 10
67.1071
 20
-41.7091
 30
0
 10
67.2035
 20
-41.5669
 30
0
  0
SPLINE
  5
CB3
330
A02
100
AcDbEntity
  8
Shape2DView002
100
AcDbSpline
210
0
220
0
230
1
 70
8
 71
2
 72
6
 73
3
 74
0
 40
0
 40
0
 40
0
 40
1
 40
1
 40
1
 10
65.1972
 20
-40.7264
 30
0
 10
65.322
 20
-40.4926
 30
0
 10
65.5826
 20
-40.3536
 30
0
  0
SPLINE
  5
CB4
330
A02
100
AcDbEntity
  8
Shape2DView002
100
AcDbSpline
210
0
220
0
230
1
 70
8
 71
1
 72
4
 73
2
 74
0
 40
0
 40
0
 40
0.2
 40
0.2
 10
64.4168
 20
-46.668
 30
0
 10
64.4591
 20
-46.6711
 30
0
  0
SPLINE
  5
CB5
330
A02
100
AcDbEntity
  8
Shape2DView002
100
AcDbSpline
210
0
220
0
230
1
 70
8
 71
2
 72
6
 73
3
 74
0
 40
0.2
 40
0.2
 40
0.2
 40
1
 40
1
 40
1
 10
64.3722
 20
-47.1942
 30
0
 10
64.286
 20
-47.1821
 30
0
 10
64.224
 20
-47.1214
 30
0
  0
SPLINE
  5
CB6
330
A02
100
AcDbEntity
  8
Shape2DView002
100
AcDbSpline
210
0
220
0
230
1
 70
8
 71
2
 72
6
 73
3
 74
0
 40
0
 40
0
 40
0
 40
1
 40
1
 40
1
 10
64.224
 20
-47.1214
 30
0
 10
64.145
 20
-47.044
 30
0
 10
64.145
 20
-46.935
 30
0
  0
SPLINE
  5
CB7
330
A02
100
AcDbEntity
  8
Shape2DView002
100
AcDbSpline
210
0
220
0
230
1
 70
8
 71
2
 72
6
 73
3
 74
0
 40
0
 40
0
 40
0
 40
1
 40
1
 40
1
 10
64.145
 20
-46.935
 30
0
 10
64.145
 20
-46.8212
 30
0
 10
64.224
 20
-46.7454
 30
0
  0
SPLINE
  5
CB8
330
A02
100
AcDbEntity
  8
Shape2DView002
100
AcDbSpline
210
0
220
0
230
1
 70
8
 71
2
 72
6
 73
3
 74
0
 40
0
 40
0
 40
0
 40
1
 40
1
 40
1
 10
67.3425
 20
-39.7596
 30
0
 10
67.2114
 20
-39.7596
 30
0
 10
67.1103
 20
-39.6633
 30
0
  0
SPLINE
  5
CB9
330
A02
100
AcDbEntity
  8
Shape2DView002
100
AcDbSpline
210
0
220
0
230
1
 70
8
 71
2
 72
6
 73
3
 74
0
 40
0
 40
0
 40
0
 40
1
 40
1
 40
1
 10
67.1103
 20
-39.6633
 30
0
 10
67.0076
 20
-39.5653
 30
0
 10
67.0076
 20
-39.4247
 30
0
  0
SPLINE
  5
CBA
330
A02
100
AcDbEntity
  8
Shape2DView002
100
AcDbSpline
210
0
220
0
230
1
 70
8
 71
2
 72
6
 73
3
 74
0
 40
0
 40
0
 40
0
 40
1
 40
1
 40
1
 10
67.0076
 20
-39.4247
 30
0
 10
67.0076
 20
-39.2809
 30
0
 10
67.1103
 20
-39.183
 30
0
  0
SPLINE
  5
CBB
330
A02
100
AcDbEntity
  8
Shape2DView002
100
AcDbSpline
210
0
220
0
230
1
 70
8
 71
2
 72
6
 73
3
 74
0
 40
0
 40
0
 40
0
 40
1
 40
1
 40
1
 10
65.6806
 20
-38.4658
 30
0
 10
65.3899
 20
-38.3315
 30
0
 10
65.2304
 20
-38.0851
 30
0
  0
SPLINE
  5
CBC
330
A02
100
AcDbEntity
  8
Shape2DView002
100
AcDbSpline
210
0
220
0
230
1
 70
8
 71
2
 72
6
 73
3
 74
0
 40
0
 40
0
 40
0
 40
1
 40
1
 40
1
 10
65.2304
 20
-38.0851
 30
0
 10
65.0708
 20
-37.8386
 30
0
 10
65.0708
 20
-37.5021
 30
0
  0
SPLINE
  5
CBD
330
A02
100
AcDbEntity
  8
Shape2DView002
100
AcDbSpline
210
0
220
0
230
1
 70
8
 71
2
 72
6
 73
3
 74
0
 40
0
 40
0
 40
0
 40
1
 40
1
 40
1
 10
65.2272
 20
-36.916
 30
0
 10
65.3836
 20
-36.6696
 30
0
 10
65.6758
 20
-36.5385
 30
0
  0
SPLINE
  5
CBE
330
A02
100
AcDbEntity
  8
Shape2DView002
100
AcDbSpline
210
0
220
0
230
1
 70
8
 71
2
 72
6
 73
3
 74
0
 40
0
 40
0
 40
0
 40
1
 40
1
 40
1
 10
65.0708
 20
-37.5021
 30
0
 10
65.0708
 20
-37.1625
 30
0
 10
65.2272
 20
-36.916
 30
0
  0
LINE
  5
CBF
330
A02
100
AcDbEntity
  8
Shape2DView002
100
AcDbLine
 10
65.1292
 20
-35.7233
 30
0
 11
65.1292
 21
-35.3015
 31
0
  0
SPLINE
  5
CC0
330
A02
100
AcDbEntity
  8
Shape2DView002
100
AcDbSpline
210
0
220
0
230
1
 70
8
 71
2
 72
6
 73
3
 74
0
 40
0
 40
0
 40
0
 40
1
 40
1
 40
1
 10
65.4547
 20
-35.3015
 30
0
 10
65.2651
 20
-35.2162
 30
0
 10
65.1687
 20
-35.0677
 30
0
  0
SPLINE
  5
CC1
330
A02
100
AcDbEntity
  8
Shape2DView002
100
AcDbSpline
210
0
220
0
230
1
 70
8
 71
2
 72
6
 73
3
 74
0
 40
0
 40
0
 40
0
 40
1
 40
1
 40
1
 10
65.1687
 20
-35.0677
 30
0
 10
65.0708
 20
-34.9176
 30
0
 10
65.0708
 20
-34.7138
 30
0
  0
SPLINE
  5
CC2
330
A02
100
AcDbEntity
  8
Shape2DView002
100
AcDbSpline
210
0
220
0
230
1
 70
8
 71
2
 72
6
 73
3
 74
0
 40
0
 40
0
 40
0
 40
1
 40
1
 40
1
 10
65.0708
 20
-34.7138
 30
0
 10
65.0708
 20
-34.4879
 30
0
 10
65.1972
 20
-34.3299
 30
0
  0
SPLINE
  5
CC3
330
A02
100
AcDbEntity
  8
Shape2DView002
100
AcDbSpline
210
0
220
0
230
1
 70
8
 71
2
 72
6
 73
3
 74
0
 40
0
 40
0
 40
0
 40
1
 40
1
 40
1
 10
68.3125
 20
-33.2446
 30
0
 10
68.2935
 20
-32.9144
 30
0
 10
68.2225
 20
-32.7043
 30
0
  0
SPLINE
  5
CC4
330
A02
100
AcDbEntity
  8
Shape2DView002
100
AcDbSpline
210
0
220
0
230
1
 70
8
 71
2
 72
6
 73
3
 74
0
 40
0
 40
0
 40
0
 40
1
 40
1
 40
1
 10
68.2225
 20
-32.7043
 30
0
 10
68.1529
 20
-32.4942
 30
0
 10
68.0234
 20
-32.3947
 30
0
  0
LINE
  5
CC5
330
A02
100
AcDbEntity
  8
Shape2DView002
100
AcDbLine
 10
65.1292
 20
-32.2936
 30
0
 11
65.1292
 21
-31.8702
 31
0
  0
SPLINE
  5
CC6
330
A02
100
AcDbEntity
  8
Shape2DView002
100
AcDbSpline
210
0
220
0
230
1
 70
8
 71
2
 72
6
 73
3
 74
0
 40
0
 40
0
 40
0
 40
1
 40
1
 40
1
 10
65.1403
 20
-32.5685
 30
0
 10
65.2098
 20
-32.4042
 30
0
 10
65.333
 20
-32.2936
 30
0
  0
SPLINE
  5
CC7
330
A02
100
AcDbEntity
  8
Shape2DView002
100
AcDbSpline
210
0
220
0
230
1
 70
8
 71
2
 72
6
 73
3
 74
0
 40
0
 40
0
 40
0
 40
1
 40
1
 40
1
 10
65.0708
 20
-32.9192
 30
0
 10
65.0708
 20
-32.7328
 30
0
 10
65.1403
 20
-32.5685
 30
0
  0
SPLINE
  5
CC8
330
A02
100
AcDbEntity
  8
Shape2DView002
100
AcDbSpline
210
0
220
0
230
1
 70
8
 71
2
 72
6
 73
3
 74
0
 40
0
 40
0
 40
0
 40
1
 40
1
 40
1
 10
65.2304
 20
-33.4626
 30
0
 10
65.0708
 20
-33.232
 30
0
 10
65.0708
 20
-32.9192
 30
0
  0
SPLINE
  5
CC9
330
A02
100
AcDbEntity
  8
Shape2DView002
100
AcDbSpline
210
0
220
0
230
1
 70
8
 71
2
 72
6
 73
3
 74
0
 40
0
 40
0
 40
0
 40
1
 40
1
 40
1
 10
65.6806
 20
-33.8212
 30
0
 10
65.3899
 20
-33.6933
 30
0
 10
65.2304
 20
-33.4626
 30
0
  0
LINE
  5
CCA
330
A02
100
AcDbEntity
  8
Shape2DView002
100
AcDbLine
 10
66.1735
 20
-41.9129
 30
0
 11
66.1735
 21
-40.6411
 31
0
  0
SPLINE
  5
CCB
330
A02
100
AcDbEntity
  8
Shape2DView002
100
AcDbSpline
210
0
220
0
230
1
 70
8
 71
2
 72
6
 73
3
 74
0
 40
0
 40
0
 40
0
 40
1
 40
1
 40
1
 10
67.2746
 20
-37.5021
 30
0
 10
67.2746
 20
-37.1893
 30
0
 10
67.0329
 20
-37.0108
 30
0
  0
SPLINE
  5
CCC
330
A02
100
AcDbEntity
  8
Shape2DView002
100
AcDbSpline
210
0
220
0
230
1
 70
8
 71
2
 72
6
 73
3
 74
0
 40
0
 40
0
 40
0
 40
1
 40
1
 40
1
 10
67.036
 20
-37.995
 30
0
 10
67.2746
 20
-37.8181
 30
0
 10
67.2746
 20
-37.5021
 30
0
  0
SPLINE
  5
CCD
330
A02
100
AcDbEntity
  8
Shape2DView002
100
AcDbSpline
210
0
220
0
230
1
 70
8
 71
2
 72
6
 73
3
 74
0
 40
0
 40
0
 40
0
 40
1
 40
1
 40
1
 10
67.2746
 20
-32.8465
 30
0
 10
67.2746
 20
-32.6854
 30
0
 10
67.1782
 20
-32.5337
 30
0
  0
SPLINE
  5
CCE
330
A02
100
AcDbEntity
  8
Shape2DView002
100
AcDbSpline
210
0
220
0
230
1
 70
8
 71
2
 72
6
 73
3
 74
0
 40
0
 40
0
 40
0
 40
1
 40
1
 40
1
 10
67.164
 20
-33.202
 30
0
 10
67.2746
 20
-33.0503
 30
0
 10
67.2746
 20
-32.8465
 30
0
  0
SPLINE
  5
CCF
330
A02
100
AcDbEntity
  8
Shape2DView002
100
AcDbSpline
210
0
220
0
230
1
 70
8
 71
2
 72
6
 73
3
 74
0
 40
0
 40
0
 40
0
 40
1
 40
1
 40
1
 10
66.848
 20
-33.4373
 30
0
 10
67.0518
 20
-33.3536
 30
0
 10
67.164
 20
-33.202
 30
0
  0
SPLINE
  5
CD0
330
A02
100
AcDbEntity
  8
Shape2DView002
100
AcDbSpline
210
0
220
0
230
1
 70
8
 71
2
 72
6
 73
3
 74
0
 40
0
 40
0
 40
0
 40
1
 40
1
 40
1
 10
67.1782
 20
-32.5337
 30
0
 10
67.0803
 20
-32.3821
 30
0
 10
66.9255
 20
-32.2936
 30
0
  0
LINE
  5
CD1
330
A02
100
AcDbEntity
  8
Shape2DView002
100
AcDbLine
 10
66.1735
 20
-41.9129
 30
0
 11
66.1735
 21
-40.6411
 31
0
  0
SPLINE
  5
CD2
330
A02
100
AcDbEntity
  8
Shape2DView002
100
AcDbSpline
210
0
220
0
230
1
 70
8
 71
2
 72
6
 73
3
 74
0
 40
0
 40
0
 40
0
 40
1
 40
1
 40
1
 10
65.6158
 20
-41.7012
 30
0
 10
65.7896
 20
-41.8939
 30
0
 10
66.1735
 20
-41.9129
 30
0
  0
SPLINE
  5
CD3
330
A02
100
AcDbEntity
  8
Shape2DView002
100
AcDbSpline
210
0
220
0
230
1
 70
8
 71
2
 72
6
 73
3
 74
0
 40
0
 40
0
 40
0
 40
1
 40
1
 40
1
 10
65.4405
 20
-41.2383
 30
0
 10
65.4405
 20
-41.5069
 30
0
 10
65.6158
 20
-41.7012
 30
0
  0
SPLINE
  5
CD4
330
A02
100
AcDbEntity
  8
Shape2DView002
100
AcDbSpline
210
0
220
0
230
1
 70
8
 71
2
 72
6
 73
3
 74
0
 40
0
 40
0
 40
0
 40
1
 40
1
 40
1
 10
65.5352
 20
-40.9129
 30
0
 10
65.4405
 20
-41.0456
 30
0
 10
65.4405
 20
-41.2383
 30
0
  0
SPLINE
  5
CD5
330
A02
100
AcDbEntity
  8
Shape2DView002
100
AcDbSpline
210
0
220
0
230
1
 70
8
 71
2
 72
6
 73
3
 74
0
 40
0
 40
0
 40
0
 40
1
 40
1
 40
1
 10
65.7959
 20
-40.7106
 30
0
 10
65.63
 20
-40.7802
 30
0
 10
65.5352
 20
-40.9129
 30
0
  0
SPLINE
  5
CD6
330
A02
100
AcDbEntity
  8
Shape2DView002
100
AcDbSpline
210
0
220
0
230
1
 70
8
 71
2
 72
6
 73
3
 74
0
 40
0
 40
0
 40
0
 40
1
 40
1
 40
1
 10
66.1735
 20
-40.6411
 30
0
 10
65.9618
 20
-40.6411
 30
0
 10
65.7959
 20
-40.7106
 30
0
  0
SPLINE
  5
CD7
330
A02
100
AcDbEntity
  8
Shape2DView002
100
AcDbSpline
210
0
220
0
230
1
 70
8
 71
2
 72
6
 73
3
 74
0
 40
0
 40
0
 40
0
 40
1
 40
1
 40
1
 10
67.2746
 20
-37.5021
 30
0
 10
67.2746
 20
-37.1893
 30
0
 10
67.0329
 20
-37.0108
 30
0
  0
SPLINE
  5
CD8
330
A02
100
AcDbEntity
  8
Shape2DView002
100
AcDbSpline
210
0
220
0
230
1
 70
8
 71
2
 72
6
 73
3
 74
0
 40
0
 40
0
 40
0
 40
1
 40
1
 40
1
 10
67.036
 20
-37.995
 30
0
 10
67.2746
 20
-37.8181
 30
0
 10
67.2746
 20
-37.5021
 30
0
  0
SPLINE
  5
CD9
330
A02
100
AcDbEntity
  8
Shape2DView002
100
AcDbSpline
210
0
220
0
230
1
 70
8
 71
2
 72
6
 73
3
 74
0
 40
0
 40
0
 40
0
 40
1
 40
1
 40
1
 10
66.3725
 20
-38.1719
 30
0
 10
66.7959
 20
-38.1719
 30
0
 10
67.036
 20
-37.995
 30
0
  0
SPLINE
  5
CDA
330
A02
100
AcDbEntity
  8
Shape2DView002
100
AcDbSpline
210
0
220
0
230
1
 70
8
 71
2
 72
6
 73
3
 74
0
 40
0
 40
0
 40
0
 40
1
 40
1
 40
1
 10
65.6995
 20
-37.995
 30
0
 10
65.9381
 20
-38.1719
 30
0
 10
66.3725
 20
-38.1719
 30
0
  0
SPLINE
  5
CDB
330
A02
100
AcDbEntity
  8
Shape2DView002
100
AcDbSpline
210
0
220
0
230
1
 70
8
 71
2
 72
6
 73
3
 74
0
 40
0
 40
0
 40
0
 40
1
 40
1
 40
1
 10
65.4594
 20
-37.5021
 30
0
 10
65.4594
 20
-37.8181
 30
0
 10
65.6995
 20
-37.995
 30
0
  0
SPLINE
  5
CDC
330
A02
100
AcDbEntity
  8
Shape2DView002
100
AcDbSpline
210
0
220
0
230
1
 70
8
 71
2
 72
6
 73
3
 74
0
 40
0
 40
0
 40
0
 40
1
 40
1
 40
1
 10
65.6995
 20
-37.0108
 30
0
 10
65.4594
 20
-37.1893
 30
0
 10
65.4594
 20
-37.5021
 30
0
  0
SPLINE
  5
CDD
330
A02
100
AcDbEntity
  8
Shape2DView002
100
AcDbSpline
210
0
220
0
230
1
 70
8
 71
2
 72
6
 73
3
 74
0
 40
0
 40
0
 40
0
 40
1
 40
1
 40
1
 10
66.3678
 20
-36.8323
 30
0
 10
65.9397
 20
-36.8323
 30
0
 10
65.6995
 20
-37.0108
 30
0
  0
SPLINE
  5
CDE
330
A02
100
AcDbEntity
  8
Shape2DView002
100
AcDbSpline
210
0
220
0
230
1
 70
8
 71
2
 72
6
 73
3
 74
0
 40
0
 40
0
 40
0
 40
1
 40
1
 40
1
 10
67.0329
 20
-37.0108
 30
0
 10
66.7912
 20
-36.8323
 30
0
 10
66.3678
 20
-36.8323
 30
0
  0
SPLINE
  5
CDF
330
A02
100
AcDbEntity
  8
Shape2DView002
100
AcDbSpline
210
0
220
0
230
1
 70
8
 71
2
 72
6
 73
3
 74
0
 40
0
 40
0
 40
0
 40
1
 40
1
 40
1
 10
67.2746
 20
-32.8465
 30
0
 10
67.2746
 20
-32.6854
 30
0
 10
67.1782
 20
-32.5337
 30
0
  0
SPLINE
  5
CE0
330
A02
100
AcDbEntity
  8
Shape2DView002
100
AcDbSpline
210
0
220
0
230
1
 70
8
 71
2
 72
6
 73
3
 74
0
 40
0
 40
0
 40
0
 40
1
 40
1
 40
1
 10
67.164
 20
-33.202
 30
0
 10
67.2746
 20
-33.0503
 30
0
 10
67.2746
 20
-32.8465
 30
0
  0
SPLINE
  5
CE1
330
A02
100
AcDbEntity
  8
Shape2DView002
100
AcDbSpline
210
0
220
0
230
1
 70
8
 71
2
 72
6
 73
3
 74
0
 40
0
 40
0
 40
0
 40
1
 40
1
 40
1
 10
66.848
 20
-33.4373
 30
0
 10
67.0518
 20
-33.3536
 30
0
 10
67.164
 20
-33.202
 30
0
  0
SPLINE
  5
CE2
330
A02
100
AcDbEntity
  8
Shape2DView002
100
AcDbSpline
210
0
220
0
230
1
 70
8
 71
2
 72
6
 73
3
 74
0
 40
0
 40
0
 40
0
 40
1
 40
1
 40
1
 10
66.3678
 20
-33.5211
 30
0
 10
66.6443
 20
-33.5211
 30
0
 10
66.848
 20
-33.4373
 30
0
  0
SPLINE
  5
CE3
330
A02
100
AcDbEntity
  8
Shape2DView002
100
AcDbSpline
210
0
220
0
230
1
 70
8
 71
2
 72
6
 73
3
 74
0
 40
0
 40
0
 40
0
 40
1
 40
1
 40
1
 10
65.6932
 20
-33.3473
 30
0
 10
65.9255
 20
-33.5211
 30
0
 10
66.3678
 20
-33.5211
 30
0
  0
SPLINE
  5
CE4
330
A02
100
AcDbEntity
  8
Shape2DView002
100
AcDbSpline
210
0
220
0
230
1
 70
8
 71
2
 72
6
 73
3
 74
0
 40
0
 40
0
 40
0
 40
1
 40
1
 40
1
 10
65.4594
 20
-32.8465
 30
0
 10
65.4594
 20
-33.1735
 30
0
 10
65.6932
 20
-33.3473
 30
0
  0
SPLINE
  5
CE5
330
A02
100
AcDbEntity
  8
Shape2DView002
100
AcDbSpline
210
0
220
0
230
1
 70
8
 71
2
 72
6
 73
3
 74
0
 40
0
 40
0
 40
0
 40
1
 40
1
 40
1
 10
65.5526
 20
-32.5353
 30
0
 10
65.4594
 20
-32.6933
 30
0
 10
65.4594
 20
-32.8465
 30
0
  0
SPLINE
  5
CE6
330
A02
100
AcDbEntity
  8
Shape2DView002
100
AcDbSpline
210
0
220
0
230
1
 70
8
 71
2
 72
6
 73
3
 74
0
 40
0
 40
0
 40
0
 40
1
 40
1
 40
1
 10
65.7896
 20
-32.2936
 30
0
 10
65.6458
 20
-32.3757
 30
0
 10
65.5526
 20
-32.5353
 30
0
  0
LINE
  5
CE7
330
A02
100
AcDbEntity
  8
Shape2DView002
100
AcDbLine
 10
66.9255
 20
-32.2936
 30
0
 11
65.7896
 21
-32.2936
 31
0
  0
SPLINE
  5
CE8
330
A02
100
AcDbEntity
  8
Shape2DView002
100
AcDbSpline
210
0
220
0
230
1
 70
8
 71
2
 72
6
 73
3
 74
0
 40
0
 40
0
 40
0
 40
1
 40
1
 40
1
 10
67.1782
 20
-32.5337
 30
0
 10
67.0803
 20
-32.3821
 30
0
 10
66.9255
 20
-32.2936
 30
0
  0
LINE
  5
CE9
330
A02
100
AcDbEntity
  8
Shape2DView002
100
AcDbLine
 10
14.0598
 20
-24.8483
 30
0
 11
13.1325
 21
-24.8483
 31
0
  0
LINE
  5
CEA
330
A02
100
AcDbEntity
  8
Shape2DView002
100
AcDbLine
 10
14.0598
 20
-26.0047
 30
0
 11
14.0598
 21
-24.8483
 31
0
  0
LINE
  5
CEB
330
A02
100
AcDbEntity
  8
Shape2DView002
100
AcDbLine
 10
13.1325
 20
-26.0047
 30
0
 11
14.0598
 21
-26.0047
 31
0
  0
SPLINE
  5
CEC
330
A02
100
AcDbEntity
  8
Shape2DView002
100
AcDbSpline
210
0
220
0
230
1
 70
8
 71
2
 72
6
 73
3
 74
0
 40
0
 40
0
 40
0
 40
1
 40
1
 40
1
 10
12.7454
 20
-25.91
 30
0
 10
12.8829
 20
-26.0047
 30
0
 10
13.1325
 20
-26.0047
 30
0
  0
SPLINE
  5
CED
330
A02
100
AcDbEntity
  8
Shape2DView002
100
AcDbSpline
210
0
220
0
230
1
 70
8
 71
2
 72
6
 73
3
 74
0
 40
0
 40
0
 40
0
 40
1
 40
1
 40
1
 10
12.5527
 20
-25.6825
 30
0
 10
12.6064
 20
-25.8167
 30
0
 10
12.7454
 20
-25.91
 30
0
  0
SPLINE
  5
CEE
330
A02
100
AcDbEntity
  8
Shape2DView002
100
AcDbSpline
210
0
220
0
230
1
 70
8
 71
2
 72
6
 73
3
 74
0
 40
0
 40
0
 40
0
 40
1
 40
1
 40
1
 10
12.4974
 20
-25.4218
 30
0
 10
12.4974
 20
-25.5482
 30
0
 10
12.5527
 20
-25.6825
 30
0
  0
SPLINE
  5
CEF
330
A02
100
AcDbEntity
  8
Shape2DView002
100
AcDbSpline
210
0
220
0
230
1
 70
8
 71
2
 72
6
 73
3
 74
0
 40
0
 40
0
 40
0
 40
1
 40
1
 40
1
 10
12.5574
 20
-25.1501
 30
0
 10
12.4974
 20
-25.2812
 30
0
 10
12.4974
 20
-25.4218
 30
0
  0
SPLINE
  5
CF0
330
A02
100
AcDbEntity
  8
Shape2DView002
100
AcDbSpline
210
0
220
0
230
1
 70
8
 71
2
 72
6
 73
3
 74
0
 40
0
 40
0
 40
0
 40
1
 40
1
 40
1
 10
12.7549
 20
-24.9336
 30
0
 10
12.6159
 20
-25.019
 30
0
 10
12.5574
 20
-25.1501
 30
0
  0
SPLINE
  5
CF1
330
A02
100
AcDbEntity
  8
Shape2DView002
100
AcDbSpline
210
0
220
0
230
1
 70
8
 71
2
 72
6
 73
3
 74
0
 40
0
 40
0
 40
0
 40
1
 40
1
 40
1
 10
13.1325
 20
-24.8483
 30
0
 10
12.8939
 20
-24.8483
 30
0
 10
12.7549
 20
-24.9336
 30
0
  0
SPLINE
  5
CF2
330
A02
100
AcDbEntity
  8
Shape2DView002
100
AcDbSpline
210
0
220
0
230
1
 70
8
 71
2
 72
6
 73
3
 74
0
 40
0
 40
0
 40
0
 40
1
 40
1
 40
1
 10
9.95079
 20
-23.3397
 30
0
 10
9.66959
 20
-23.3397
 30
0
 10
9.47844
 20
-23.4629
 30
0
  0
SPLINE
  5
CF3
330
A02
100
AcDbEntity
  8
Shape2DView002
100
AcDbSpline
210
0
220
0
230
1
 70
8
 71
2
 72
6
 73
3
 74
0
 40
0
 40
0
 40
0
 40
1
 40
1
 40
1
 10
10.4216
 20
-23.455
 30
0
 10
10.2288
 20
-23.3397
 30
0
 10
9.95079
 20
-23.3397
 30
0
  0
SPLINE
  5
CF4
330
A02
100
AcDbEntity
  8
Shape2DView002
100
AcDbSpline
210
0
220
0
230
1
 70
8
 71
2
 72
6
 73
3
 74
0
 40
0
 40
0
 40
0
 40
1
 40
1
 40
1
 10
10.7312
 20
-23.7678
 30
0
 10
10.6127
 20
-23.5719
 30
0
 10
10.4216
 20
-23.455
 30
0
  0
SPLINE
  5
CF5
330
A02
100
AcDbEntity
  8
Shape2DView002
100
AcDbSpline
210
0
220
0
230
1
 70
8
 71
2
 72
6
 73
3
 74
0
 40
0
 40
0
 40
0
 40
1
 40
1
 40
1
 10
10.9018
 20
-24.207
 30
0
 10
10.8481
 20
-23.9652
 30
0
 10
10.7312
 20
-23.7678
 30
0
  0
SPLINE
  5
CF6
330
A02
100
AcDbEntity
  8
Shape2DView002
100
AcDbSpline
210
0
220
0
230
1
 70
8
 71
2
 72
6
 73
3
 74
0
 40
0
 40
0
 40
0
 40
1
 40
1
 40
1
 10
10.9555
 20
-24.6983
 30
0
 10
10.9555
 20
-24.4487
 30
0
 10
10.9018
 20
-24.207
 30
0
  0
SPLINE
  5
CF7
330
A02
100
AcDbEntity
  8
Shape2DView002
100
AcDbSpline
210
0
220
0
230
1
 70
8
 71
2
 72
6
 73
3
 74
0
 40
0
 40
0
 40
0
 40
1
 40
1
 40
1
 10
10.9018
 20
-25.169
 30
0
 10
10.9555
 20
-24.9289
 30
0
 10
10.9555
 20
-24.6983
 30
0
  0
SPLINE
  5
CF8
330
A02
100
AcDbEntity
  8
Shape2DView002
100
AcDbSpline
210
0
220
0
230
1
 70
8
 71
2
 72
6
 73
3
 74
0
 40
0
 40
0
 40
0
 40
1
 40
1
 40
1
 10
10.7312
 20
-25.6114
 30
0
 10
10.8481
 20
-25.4092
 30
0
 10
10.9018
 20
-25.169
 30
0
  0
SPLINE
  5
CF9
330
A02
100
AcDbEntity
  8
Shape2DView002
100
AcDbSpline
210
0
220
0
230
1
 70
8
 71
2
 72
6
 73
3
 74
0
 40
0
 40
0
 40
0
 40
1
 40
1
 40
1
 10
10.4216
 20
-25.9384
 30
0
 10
10.6127
 20
-25.8152
 30
0
 10
10.7312
 20
-25.6114
 30
0
  0
SPLINE
  5
CFA
330
A02
100
AcDbEntity
  8
Shape2DView002
100
AcDbSpline
210
0
220
0
230
1
 70
8
 71
2
 72
6
 73
3
 74
0
 40
0
 40
0
 40
0
 40
1
 40
1
 40
1
 10
9.95079
 20
-26.0616
 30
0
 10
10.2288
 20
-26.0616
 30
0
 10
10.4216
 20
-25.9384
 30
0
  0
SPLINE
  5
CFB
330
A02
100
AcDbEntity
  8
Shape2DView002
100
AcDbSpline
210
0
220
0
230
1
 70
8
 71
2
 72
6
 73
3
 74
0
 40
0
 40
0
 40
0
 40
1
 40
1
 40
1
 10
9.47844
 20
-25.9431
 30
0
 10
9.66959
 20
-26.0616
 30
0
 10
9.95079
 20
-26.0616
 30
0
  0
SPLINE
  5
CFC
330
A02
100
AcDbEntity
  8
Shape2DView002
100
AcDbSpline
210
0
220
0
230
1
 70
8
 71
2
 72
6
 73
3
 74
0
 40
0
 40
0
 40
0
 40
1
 40
1
 40
1
 10
9.1688
 20
-25.6288
 30
0
 10
9.2857
 20
-25.8262
 30
0
 10
9.47844
 20
-25.9431
 30
0
  0
SPLINE
  5
CFD
330
A02
100
AcDbEntity
  8
Shape2DView002
100
AcDbSpline
210
0
220
0
230
1
 70
8
 71
2
 72
6
 73
3
 74
0
 40
0
 40
0
 40
0
 40
1
 40
1
 40
1
 10
8.99818
 20
-25.1896
 30
0
 10
9.05032
 20
-25.4313
 30
0
 10
9.1688
 20
-25.6288
 30
0
  0
SPLINE
  5
CFE
330
A02
100
AcDbEntity
  8
Shape2DView002
100
AcDbSpline
210
0
220
0
230
1
 70
8
 71
2
 72
6
 73
3
 74
0
 40
0
 40
0
 40
0
 40
1
 40
1
 40
1
 10
8.94605
 20
-24.6983
 30
0
 10
8.94605
 20
-24.9479
 30
0
 10
8.99818
 20
-25.1896
 30
0
  0
SPLINE
  5
CFF
330
A02
100
AcDbEntity
  8
Shape2DView002
100
AcDbSpline
210
0
220
0
230
1
 70
8
 71
2
 72
6
 73
3
 74
0
 40
0
 40
0
 40
0
 40
1
 40
1
 40
1
 10
8.99818
 20
-24.2306
 30
0
 10
8.94605
 20
-24.4708
 30
0
 10
8.94605
 20
-24.6983
 30
0
  0
SPLINE
  5
D00
330
A02
100
AcDbEntity
  8
Shape2DView002
100
AcDbSpline
210
0
220
0
230
1
 70
8
 71
2
 72
6
 73
3
 74
0
 40
0
 40
0
 40
0
 40
1
 40
1
 40
1
 10
9.1688
 20
-23.7899
 30
0
 10
9.05032
 20
-23.9921
 30
0
 10
8.99818
 20
-24.2306
 30
0
  0
SPLINE
  5
D01
330
A02
100
AcDbEntity
  8
Shape2DView002
100
AcDbSpline
210
0
220
0
230
1
 70
8
 71
2
 72
6
 73
3
 74
0
 40
0
 40
0
 40
0
 40
1
 40
1
 40
1
 10
9.47844
 20
-23.4629
 30
0
 10
9.2857
 20
-23.5877
 30
0
 10
9.1688
 20
-23.7899
 30
0
  0
SPLINE
  5
D02
330
A02
100
AcDbEntity
  8
Shape2DView002
100
AcDbSpline
210
0
220
0
230
1
 70
8
 71
2
 72
6
 73
3
 74
0
 40
0
 40
0
 40
0
 40
1
 40
1
 40
1
 10
2.16564
 20
-23.3397
 30
0
 10
1.88444
 20
-23.3397
 30
0
 10
1.69329
 20
-23.4629
 30
0
  0
SPLINE
  5
D03
330
A02
100
AcDbEntity
  8
Shape2DView002
100
AcDbSpline
210
0
220
0
230
1
 70
8
 71
2
 72
6
 73
3
 74
0
 40
0
 40
0
 40
0
 40
1
 40
1
 40
1
 10
2.63641
 20
-23.455
 30
0
 10
2.44368
 20
-23.3397
 30
0
 10
2.16564
 20
-23.3397
 30
0
  0
SPLINE
  5
D04
330
A02
100
AcDbEntity
  8
Shape2DView002
100
AcDbSpline
210
0
220
0
230
1
 70
8
 71
2
 72
6
 73
3
 74
0
 40
0
 40
0
 40
0
 40
1
 40
1
 40
1
 10
2.94605
 20
-23.7678
 30
0
 10
2.82757
 20
-23.5719
 30
0
 10
2.63641
 20
-23.455
 30
0
  0
SPLINE
  5
D05
330
A02
100
AcDbEntity
  8
Shape2DView002
100
AcDbSpline
210
0
220
0
230
1
 70
8
 71
2
 72
6
 73
3
 74
0
 40
0
 40
0
 40
0
 40
1
 40
1
 40
1
 10
3.11667
 20
-24.207
 30
0
 10
3.06295
 20
-23.9652
 30
0
 10
2.94605
 20
-23.7678
 30
0
  0
SPLINE
  5
D06
330
A02
100
AcDbEntity
  8
Shape2DView002
100
AcDbSpline
210
0
220
0
230
1
 70
8
 71
2
 72
6
 73
3
 74
0
 40
0
 40
0
 40
0
 40
1
 40
1
 40
1
 10
3.17038
 20
-24.6983
 30
0
 10
3.17038
 20
-24.4487
 30
0
 10
3.11667
 20
-24.207
 30
0
  0
SPLINE
  5
D07
330
A02
100
AcDbEntity
  8
Shape2DView002
100
AcDbSpline
210
0
220
0
230
1
 70
8
 71
2
 72
6
 73
3
 74
0
 40
0
 40
0
 40
0
 40
1
 40
1
 40
1
 10
3.11667
 20
-25.169
 30
0
 10
3.17038
 20
-24.9289
 30
0
 10
3.17038
 20
-24.6983
 30
0
  0
SPLINE
  5
D08
330
A02
100
AcDbEntity
  8
Shape2DView002
100
AcDbSpline
210
0
220
0
230
1
 70
8
 71
2
 72
6
 73
3
 74
0
 40
0
 40
0
 40
0
 40
1
 40
1
 40
1
 10
2.94605
 20
-25.6114
 30
0
 10
3.06295
 20
-25.4092
 30
0
 10
3.11667
 20
-25.169
 30
0
  0
SPLINE
  5
D09
330
A02
100
AcDbEntity
  8
Shape2DView002
100
AcDbSpline
210
0
220
0
230
1
 70
8
 71
2
 72
6
 73
3
 74
0
 40
0
 40
0
 40
0
 40
1
 40
1
 40
1
 10
2.63641
 20
-25.9384
 30
0
 10
2.82757
 20
-25.8152
 30
0
 10
2.94605
 20
-25.6114
 30
0
  0
SPLINE
  5
D0A
330
A02
100
AcDbEntity
  8
Shape2DView002
100
AcDbSpline
210
0
220
0
230
1
 70
8
 71
2
 72
6
 73
3
 74
0
 40
0
 40
0
 40
0
 40
1
 40
1
 40
1
 10
2.16564
 20
-26.0616
 30
0
 10
2.44368
 20
-26.0616
 30
0
 10
2.63641
 20
-25.9384
 30
0
  0
SPLINE
  5
D0B
330
A02
100
AcDbEntity
  8
Shape2DView002
100
AcDbSpline
210
0
220
0
230
1
 70
8
 71
2
 72
6
 73
3
 74
0
 40
0
 40
0
 40
0
 40
1
 40
1
 40
1
 10
1.69329
 20
-25.9431
 30
0
 10
1.88444
 20
-26.0616
 30
0
 10
2.16564
 20
-26.0616
 30
0
  0
SPLINE
  5
D0C
330
A02
100
AcDbEntity
  8
Shape2DView002
100
AcDbSpline
210
0
220
0
230
1
 70
8
 71
2
 72
6
 73
3
 74
0
 40
0
 40
0
 40
0
 40
1
 40
1
 40
1
 10
1.38365
 20
-25.6288
 30
0
 10
1.50055
 20
-25.8262
 30
0
 10
1.69329
 20
-25.9431
 30
0
  0
SPLINE
  5
D0D
330
A02
100
AcDbEntity
  8
Shape2DView002
100
AcDbSpline
210
0
220
0
230
1
 70
8
 71
2
 72
6
 73
3
 74
0
 40
0
 40
0
 40
0
 40
1
 40
1
 40
1
 10
1.21303
 20
-25.1896
 30
0
 10
1.26517
 20
-25.4313
 30
0
 10
1.38365
 20
-25.6288
 30
0
  0
SPLINE
  5
D0E
330
A02
100
AcDbEntity
  8
Shape2DView002
100
AcDbSpline
210
0
220
0
230
1
 70
8
 71
2
 72
6
 73
3
 74
0
 40
0
 40
0
 40
0
 40
1
 40
1
 40
1
 10
1.1609
 20
-24.6983
 30
0
 10
1.1609
 20
-24.9479
 30
0
 10
1.21303
 20
-25.1896
 30
0
  0
SPLINE
  5
D0F
330
A02
100
AcDbEntity
  8
Shape2DView002
100
AcDbSpline
210
0
220
0
230
1
 70
8
 71
2
 72
6
 73
3
 74
0
 40
0
 40
0
 40
0
 40
1
 40
1
 40
1
 10
1.21303
 20
-24.2306
 30
0
 10
1.1609
 20
-24.4708
 30
0
 10
1.1609
 20
-24.6983
 30
0
  0
SPLINE
  5
D10
330
A02
100
AcDbEntity
  8
Shape2DView002
100
AcDbSpline
210
0
220
0
230
1
 70
8
 71
2
 72
6
 73
3
 74
0
 40
0
 40
0
 40
0
 40
1
 40
1
 40
1
 10
1.38365
 20
-23.7899
 30
0
 10
1.26517
 20
-23.9921
 30
0
 10
1.21303
 20
-24.2306
 30
0
  0
SPLINE
  5
D11
330
A02
100
AcDbEntity
  8
Shape2DView002
100
AcDbSpline
210
0
220
0
230
1
 70
8
 71
2
 72
6
 73
3
 74
0
 40
0
 40
0
 40
0
 40
1
 40
1
 40
1
 10
1.69329
 20
-23.4629
 30
0
 10
1.50055
 20
-23.5877
 30
0
 10
1.38365
 20
-23.7899
 30
0
  0
LINE
  5
D12
330
A02
100
AcDbEntity
  8
Shape2DView002
100
AcDbLine
 10
-6.76801
 20
-24.8483
 30
0
 11
-7.69534
 21
-24.8483
 31
0
  0
LINE
  5
D13
330
A02
100
AcDbEntity
  8
Shape2DView002
100
AcDbLine
 10
-6.76801
 20
-26.0047
 30
0
 11
-6.76801
 21
-24.8483
 31
0
  0
LINE
  5
D14
330
A02
100
AcDbEntity
  8
Shape2DView002
100
AcDbLine
 10
-7.69534
 20
-26.0047
 30
0
 11
-6.76801
 21
-26.0047
 31
0
  0
SPLINE
  5
D15
330
A02
100
AcDbEntity
  8
Shape2DView002
100
AcDbSpline
210
0
220
0
230
1
 70
8
 71
2
 72
6
 73
3
 74
0
 40
0
 40
0
 40
0
 40
1
 40
1
 40
1
 10
-8.08239
 20
-25.91
 30
0
 10
-7.94494
 20
-26.0047
 30
0
 10
-7.69534
 20
-26.0047
 30
0
  0
SPLINE
  5
D16
330
A02
100
AcDbEntity
  8
Shape2DView002
100
AcDbSpline
210
0
220
0
230
1
 70
8
 71
2
 72
6
 73
3
 74
0
 40
0
 40
0
 40
0
 40
1
 40
1
 40
1
 10
-8.27512
 20
-25.6825
 30
0
 10
-8.22141
 20
-25.8167
 30
0
 10
-8.08239
 20
-25.91
 30
0
  0
SPLINE
  5
D17
330
A02
100
AcDbEntity
  8
Shape2DView002
100
AcDbSpline
210
0
220
0
230
1
 70
8
 71
2
 72
6
 73
3
 74
0
 40
0
 40
0
 40
0
 40
1
 40
1
 40
1
 10
-8.33041
 20
-25.4218
 30
0
 10
-8.33041
 20
-25.5482
 30
0
 10
-8.27512
 20
-25.6825
 30
0
  0
SPLINE
  5
D18
330
A02
100
AcDbEntity
  8
Shape2DView002
100
AcDbSpline
210
0
220
0
230
1
 70
8
 71
2
 72
6
 73
3
 74
0
 40
0
 40
0
 40
0
 40
1
 40
1
 40
1
 10
-8.27038
 20
-25.1501
 30
0
 10
-8.33041
 20
-25.2812
 30
0
 10
-8.33041
 20
-25.4218
 30
0
  0
SPLINE
  5
D19
330
A02
100
AcDbEntity
  8
Shape2DView002
100
AcDbSpline
210
0
220
0
230
1
 70
8
 71
2
 72
6
 73
3
 74
0
 40
0
 40
0
 40
0
 40
1
 40
1
 40
1
 10
-8.07291
 20
-24.9336
 30
0
 10
-8.21193
 20
-25.019
 30
0
 10
-8.27038
 20
-25.1501
 30
0
  0
SPLINE
  5
D1A
330
A02
100
AcDbEntity
  8
Shape2DView002
100
AcDbSpline
210
0
220
0
230
1
 70
8
 71
2
 72
6
 73
3
 74
0
 40
0
 40
0
 40
0
 40
1
 40
1
 40
1
 10
-7.69534
 20
-24.8483
 30
0
 10
-7.93389
 20
-24.8483
 30
0
 10
-8.07291
 20
-24.9336
 30
0
  0
SPLINE
  5
D1B
330
A02
100
AcDbEntity
  8
Shape2DView002
100
AcDbSpline
210
0
220
0
230
1
 70
8
 71
2
 72
6
 73
3
 74
0
 40
0
 40
0
 40
0
 40
1
 40
1
 40
1
 10
-10.877
 20
-23.3397
 30
0
 10
-11.1582
 20
-23.3397
 30
0
 10
-11.3494
 20
-23.4629
 30
0
  0
SPLINE
  5
D1C
330
A02
100
AcDbEntity
  8
Shape2DView002
100
AcDbSpline
210
0
220
0
230
1
 70
8
 71
2
 72
6
 73
3
 74
0
 40
0
 40
0
 40
0
 40
1
 40
1
 40
1
 10
-10.4062
 20
-23.455
 30
0
 10
-10.599
 20
-23.3397
 30
0
 10
-10.877
 20
-23.3397
 30
0
  0
SPLINE
  5
D1D
330
A02
100
AcDbEntity
  8
Shape2DView002
100
AcDbSpline
210
0
220
0
230
1
 70
8
 71
2
 72
6
 73
3
 74
0
 40
0
 40
0
 40
0
 40
1
 40
1
 40
1
 10
-10.0966
 20
-23.7678
 30
0
 10
-10.2151
 20
-23.5719
 30
0
 10
-10.4062
 20
-23.455
 30
0
  0
SPLINE
  5
D1E
330
A02
100
AcDbEntity
  8
Shape2DView002
100
AcDbSpline
210
0
220
0
230
1
 70
8
 71
2
 72
6
 73
3
 74
0
 40
0
 40
0
 40
0
 40
1
 40
1
 40
1
 10
-9.92599
 20
-24.207
 30
0
 10
-9.9797
 20
-23.9652
 30
0
 10
-10.0966
 20
-23.7678
 30
0
  0
SPLINE
  5
D1F
330
A02
100
AcDbEntity
  8
Shape2DView002
100
AcDbSpline
210
0
220
0
230
1
 70
8
 71
2
 72
6
 73
3
 74
0
 40
0
 40
0
 40
0
 40
1
 40
1
 40
1
 10
-9.87227
 20
-24.6983
 30
0
 10
-9.87227
 20
-24.4487
 30
0
 10
-9.92599
 20
-24.207
 30
0
  0
SPLINE
  5
D20
330
A02
100
AcDbEntity
  8
Shape2DView002
100
AcDbSpline
210
0
220
0
230
1
 70
8
 71
2
 72
6
 73
3
 74
0
 40
0
 40
0
 40
0
 40
1
 40
1
 40
1
 10
-9.92599
 20
-25.169
 30
0
 10
-9.87227
 20
-24.9289
 30
0
 10
-9.87227
 20
-24.6983
 30
0
  0
SPLINE
  5
D21
330
A02
100
AcDbEntity
  8
Shape2DView002
100
AcDbSpline
210
0
220
0
230
1
 70
8
 71
2
 72
6
 73
3
 74
0
 40
0
 40
0
 40
0
 40
1
 40
1
 40
1
 10
-10.0966
 20
-25.6114
 30
0
 10
-9.9797
 20
-25.4092
 30
0
 10
-9.92599
 20
-25.169
 30
0
  0
SPLINE
  5
D22
330
A02
100
AcDbEntity
  8
Shape2DView002
100
AcDbSpline
210
0
220
0
230
1
 70
8
 71
2
 72
6
 73
3
 74
0
 40
0
 40
0
 40
0
 40
1
 40
1
 40
1
 10
-10.4062
 20
-25.9384
 30
0
 10
-10.2151
 20
-25.8152
 30
0
 10
-10.0966
 20
-25.6114
 30
0
  0
SPLINE
  5
D23
330
A02
100
AcDbEntity
  8
Shape2DView002
100
AcDbSpline
210
0
220
0
230
1
 70
8
 71
2
 72
6
 73
3
 74
0
 40
0
 40
0
 40
0
 40
1
 40
1
 40
1
 10
-10.877
 20
-26.0616
 30
0
 10
-10.599
 20
-26.0616
 30
0
 10
-10.4062
 20
-25.9384
 30
0
  0
SPLINE
  5
D24
330
A02
100
AcDbEntity
  8
Shape2DView002
100
AcDbSpline
210
0
220
0
230
1
 70
8
 71
2
 72
6
 73
3
 74
0
 40
0
 40
0
 40
0
 40
1
 40
1
 40
1
 10
-11.3494
 20
-25.9431
 30
0
 10
-11.1582
 20
-26.0616
 30
0
 10
-10.877
 20
-26.0616
 30
0
  0
SPLINE
  5
D25
330
A02
100
AcDbEntity
  8
Shape2DView002
100
AcDbSpline
210
0
220
0
230
1
 70
8
 71
2
 72
6
 73
3
 74
0
 40
0
 40
0
 40
0
 40
1
 40
1
 40
1
 10
-11.659
 20
-25.6288
 30
0
 10
-11.5421
 20
-25.8262
 30
0
 10
-11.3494
 20
-25.9431
 30
0
  0
SPLINE
  5
D26
330
A02
100
AcDbEntity
  8
Shape2DView002
100
AcDbSpline
210
0
220
0
230
1
 70
8
 71
2
 72
6
 73
3
 74
0
 40
0
 40
0
 40
0
 40
1
 40
1
 40
1
 10
-11.8296
 20
-25.1896
 30
0
 10
-11.7775
 20
-25.4313
 30
0
 10
-11.659
 20
-25.6288
 30
0
  0
SPLINE
  5
D27
330
A02
100
AcDbEntity
  8
Shape2DView002
100
AcDbSpline
210
0
220
0
230
1
 70
8
 71
2
 72
6
 73
3
 74
0
 40
0
 40
0
 40
0
 40
1
 40
1
 40
1
 10
-11.8818
 20
-24.6983
 30
0
 10
-11.8818
 20
-24.9479
 30
0
 10
-11.8296
 20
-25.1896
 30
0
  0
SPLINE
  5
D28
330
A02
100
AcDbEntity
  8
Shape2DView002
100
AcDbSpline
210
0
220
0
230
1
 70
8
 71
2
 72
6
 73
3
 74
0
 40
0
 40
0
 40
0
 40
1
 40
1
 40
1
 10
-11.8296
 20
-24.2306
 30
0
 10
-11.8818
 20
-24.4708
 30
0
 10
-11.8818
 20
-24.6983
 30
0
  0
SPLINE
  5
D29
330
A02
100
AcDbEntity
  8
Shape2DView002
100
AcDbSpline
210
0
220
0
230
1
 70
8
 71
2
 72
6
 73
3
 74
0
 40
0
 40
0
 40
0
 40
1
 40
1
 40
1
 10
-11.659
 20
-23.7899
 30
0
 10
-11.7775
 20
-23.9921
 30
0
 10
-11.8296
 20
-24.2306
 30
0
  0
SPLINE
  5
D2A
330
A02
100
AcDbEntity
  8
Shape2DView002
100
AcDbSpline
210
0
220
0
230
1
 70
8
 71
2
 72
6
 73
3
 74
0
 40
0
 40
0
 40
0
 40
1
 40
1
 40
1
 10
-11.3494
 20
-23.4629
 30
0
 10
-11.5421
 20
-23.5877
 30
0
 10
-11.659
 20
-23.7899
 30
0
  0
LINE
  5
D2B
330
A02
100
AcDbEntity
  8
Shape2DView002
100
AcDbLine
 10
-21.9339
 20
-24.8483
 30
0
 11
-22.8612
 21
-24.8483
 31
0
  0
LINE
  5
D2C
330
A02
100
AcDbEntity
  8
Shape2DView002
100
AcDbLine
 10
-21.9339
 20
-26.0047
 30
0
 11
-21.9339
 21
-24.8483
 31
0
  0
LINE
  5
D2D
330
A02
100
AcDbEntity
  8
Shape2DView002
100
AcDbLine
 10
-22.8612
 20
-26.0047
 30
0
 11
-21.9339
 21
-26.0047
 31
0
  0
SPLINE
  5
D2E
330
A02
100
AcDbEntity
  8
Shape2DView002
100
AcDbSpline
210
0
220
0
230
1
 70
8
 71
2
 72
6
 73
3
 74
0
 40
0
 40
0
 40
0
 40
1
 40
1
 40
1
 10
-23.2483
 20
-25.91
 30
0
 10
-23.1108
 20
-26.0047
 30
0
 10
-22.8612
 20
-26.0047
 30
0
  0
SPLINE
  5
D2F
330
A02
100
AcDbEntity
  8
Shape2DView002
100
AcDbSpline
210
0
220
0
230
1
 70
8
 71
2
 72
6
 73
3
 74
0
 40
0
 40
0
 40
0
 40
1
 40
1
 40
1
 10
-23.441
 20
-25.6825
 30
0
 10
-23.3873
 20
-25.8167
 30
0
 10
-23.2483
 20
-25.91
 30
0
  0
SPLINE
  5
D30
330
A02
100
AcDbEntity
  8
Shape2DView002
100
AcDbSpline
210
0
220
0
230
1
 70
8
 71
2
 72
6
 73
3
 74
0
 40
0
 40
0
 40
0
 40
1
 40
1
 40
1
 10
-23.4963
 20
-25.4218
 30
0
 10
-23.4963
 20
-25.5482
 30
0
 10
-23.441
 20
-25.6825
 30
0
  0
SPLINE
  5
D31
330
A02
100
AcDbEntity
  8
Shape2DView002
100
AcDbSpline
210
0
220
0
230
1
 70
8
 71
2
 72
6
 73
3
 74
0
 40
0
 40
0
 40
0
 40
1
 40
1
 40
1
 10
-23.4363
 20
-25.1501
 30
0
 10
-23.4963
 20
-25.2812
 30
0
 10
-23.4963
 20
-25.4218
 30
0
  0
SPLINE
  5
D32
330
A02
100
AcDbEntity
  8
Shape2DView002
100
AcDbSpline
210
0
220
0
230
1
 70
8
 71
2
 72
6
 73
3
 74
0
 40
0
 40
0
 40
0
 40
1
 40
1
 40
1
 10
-23.2388
 20
-24.9336
 30
0
 10
-23.3778
 20
-25.019
 30
0
 10
-23.4363
 20
-25.1501
 30
0
  0
SPLINE
  5
D33
330
A02
100
AcDbEntity
  8
Shape2DView002
100
AcDbSpline
210
0
220
0
230
1
 70
8
 71
2
 72
6
 73
3
 74
0
 40
0
 40
0
 40
0
 40
1
 40
1
 40
1
 10
-22.8612
 20
-24.8483
 30
0
 10
-23.0998
 20
-24.8483
 30
0
 10
-23.2388
 20
-24.9336
 30
0
  0
LINE
  5
D34
330
A02
100
AcDbEntity
  8
Shape2DView002
100
AcDbLine
 10
42.8989
 20
45.7962
 30
0
 11
41.8057
 21
45.7962
 31
0
  0
LINE
  5
D35
330
A02
100
AcDbEntity
  8
Shape2DView002
100
AcDbLine
 10
42.4566
 20
44.5403
 30
0
 11
42.8989
 21
45.7962
 31
0
  0
SPLINE
  5
D36
330
A02
100
AcDbEntity
  8
Shape2DView002
100
AcDbSpline
210
0
220
0
230
1
 70
8
 71
2
 72
6
 73
3
 74
0
 40
0
 40
0
 40
0
 40
1
 40
1
 40
1
 10
42.4186
 20
44.4265
 30
0
 10
42.4392
 20
44.4913
 30
0
 10
42.4566
 20
44.5403
 30
0
  0
SPLINE
  5
D37
330
A02
100
AcDbEntity
  8
Shape2DView002
100
AcDbSpline
210
0
220
0
230
1
 70
8
 71
2
 72
6
 73
3
 74
0
 40
0
 40
0
 40
0
 40
1
 40
1
 40
1
 10
42.3807
 20
44.3002
 30
0
 10
42.3981
 20
44.3618
 30
0
 10
42.4186
 20
44.4265
 30
0
  0
SPLINE
  5
D38
330
A02
100
AcDbEntity
  8
Shape2DView002
100
AcDbSpline
210
0
220
0
230
1
 70
8
 71
2
 72
6
 73
3
 74
0
 40
0
 40
0
 40
0
 40
1
 40
1
 40
1
 10
42.3507
 20
44.1943
 30
0
 10
42.3618
 20
44.2385
 30
0
 10
42.3807
 20
44.3002
 30
0
  0
SPLINE
  5
D39
330
A02
100
AcDbEntity
  8
Shape2DView002
100
AcDbSpline
210
0
220
0
230
1
 70
8
 71
2
 72
6
 73
3
 74
0
 40
0
 40
0
 40
0
 40
1
 40
1
 40
1
 10
42.3207
 20
44.3002
 30
0
 10
42.3397
 20
44.2385
 30
0
 10
42.3507
 20
44.1943
 30
0
  0
SPLINE
  5
D3A
330
A02
100
AcDbEntity
  8
Shape2DView002
100
AcDbSpline
210
0
220
0
230
1
 70
8
 71
1
 72
4
 73
2
 74
0
 40
0
 40
0
 40
1
 40
1
 10
42.2812
 20
44.4265
 30
0
 10
42.3207
 20
44.3002
 30
0
  0
SPLINE
  5
D3B
330
A02
100
AcDbEntity
  8
Shape2DView002
100
AcDbSpline
210
0
220
0
230
1
 70
8
 71
2
 72
6
 73
3
 74
0
 40
0
 40
0
 40
0
 40
1
 40
1
 40
1
 10
42.2433
 20
44.5403
 30
0
 10
42.2607
 20
44.4913
 30
0
 10
42.2812
 20
44.4265
 30
0
  0
LINE
  5
D3C
330
A02
100
AcDbEntity
  8
Shape2DView002
100
AcDbLine
 10
41.8057
 20
45.7962
 30
0
 11
42.2433
 21
44.5403
 31
0
  0
LINE
  5
D3D
330
A02
100
AcDbEntity
  8
Shape2DView002
100
AcDbLine
 10
-42.3973
 20
46.6114
 30
0
 11
-43.3057
 21
46.6114
 31
0
  0
LINE
  5
D3E
330
A02
100
AcDbEntity
  8
Shape2DView002
100
AcDbLine
 10
-42.3973
 20
45.4281
 30
0
 11
-42.3973
 21
46.6114
 31
0
  0
LINE
  5
D3F
330
A02
100
AcDbEntity
  8
Shape2DView002
100
AcDbLine
 10
-43.1493
 20
45.4281
 30
0
 11
-42.3973
 21
45.4281
 31
0
  0
SPLINE
  5
D40
330
A02
100
AcDbEntity
  8
Shape2DView002
100
AcDbSpline
210
0
220
0
230
1
 70
8
 71
2
 72
6
 73
3
 74
0
 40
0
 40
0
 40
0
 40
1
 40
1
 40
1
 10
-43.639
 20
45.5166
 30
0
 10
-43.4684
 20
45.4281
 30
0
 10
-43.1493
 20
45.4281
 30
0
  0
SPLINE
  5
D41
330
A02
100
AcDbEntity
  8
Shape2DView002
100
AcDbSpline
210
0
220
0
230
1
 70
8
 71
2
 72
6
 73
3
 74
0
 40
0
 40
0
 40
0
 40
1
 40
1
 40
1
 10
-43.8744
 20
45.7488
 30
0
 10
-43.8096
 20
45.6051
 30
0
 10
-43.639
 20
45.5166
 30
0
  0
SPLINE
  5
D42
330
A02
100
AcDbEntity
  8
Shape2DView002
100
AcDbSpline
210
0
220
0
230
1
 70
8
 71
2
 72
6
 73
3
 74
0
 40
0
 40
0
 40
0
 40
1
 40
1
 40
1
 10
-43.9408
 20
46.0537
 30
0
 10
-43.9408
 20
45.891
 30
0
 10
-43.8744
 20
45.7488
 30
0
  0
SPLINE
  5
D43
330
A02
100
AcDbEntity
  8
Shape2DView002
100
AcDbSpline
210
0
220
0
230
1
 70
8
 71
2
 72
6
 73
3
 74
0
 40
0
 40
0
 40
0
 40
1
 40
1
 40
1
 10
-43.8855
 20
46.3191
 30
0
 10
-43.9408
 20
46.1896
 30
0
 10
-43.9408
 20
46.0537
 30
0
  0
SPLINE
  5
D44
330
A02
100
AcDbEntity
  8
Shape2DView002
100
AcDbSpline
210
0
220
0
230
1
 70
8
 71
2
 72
6
 73
3
 74
0
 40
0
 40
0
 40
0
 40
1
 40
1
 40
1
 10
-43.6927
 20
46.5292
 30
0
 10
-43.8318
 20
46.4471
 30
0
 10
-43.8855
 20
46.3191
 30
0
  0
SPLINE
  5
D45
330
A02
100
AcDbEntity
  8
Shape2DView002
100
AcDbSpline
210
0
220
0
230
1
 70
8
 71
2
 72
6
 73
3
 74
0
 40
0
 40
0
 40
0
 40
1
 40
1
 40
1
 10
-43.3057
 20
46.6114
 30
0
 10
-43.5553
 20
46.6114
 30
0
 10
-43.6927
 20
46.5292
 30
0
  0
LINE
  5
D46
330
A02
100
AcDbEntity
  8
Shape2DView002
100
AcDbLine
 10
-42.3973
 20
45.0442
 30
0
 11
-43.0972
 21
45.0442
 31
0
  0
LINE
  5
D47
330
A02
100
AcDbEntity
  8
Shape2DView002
100
AcDbLine
 10
-42.3973
 20
43.9858
 30
0
 11
-42.3973
 21
45.0442
 31
0
  0
LINE
  5
D48
330
A02
100
AcDbEntity
  8
Shape2DView002
100
AcDbLine
 10
-43.203
 20
43.9858
 30
0
 11
-42.3973
 21
43.9858
 31
0
  0
SPLINE
  5
D49
330
A02
100
AcDbEntity
  8
Shape2DView002
100
AcDbSpline
210
0
220
0
230
1
 70
8
 71
2
 72
6
 73
3
 74
0
 40
0
 40
0
 40
0
 40
1
 40
1
 40
1
 10
-43.5916
 20
44.0648
 30
0
 10
-43.4589
 20
43.9858
 30
0
 10
-43.203
 20
43.9858
 30
0
  0
SPLINE
  5
D4A
330
A02
100
AcDbEntity
  8
Shape2DView002
100
AcDbSpline
210
0
220
0
230
1
 70
8
 71
2
 72
6
 73
3
 74
0
 40
0
 40
0
 40
0
 40
1
 40
1
 40
1
 10
-43.7717
 20
44.2622
 30
0
 10
-43.7259
 20
44.1422
 30
0
 10
-43.5916
 20
44.0648
 30
0
  0
SPLINE
  5
D4B
330
A02
100
AcDbEntity
  8
Shape2DView002
100
AcDbSpline
210
0
220
0
230
1
 70
8
 71
2
 72
6
 73
3
 74
0
 40
0
 40
0
 40
0
 40
1
 40
1
 40
1
 10
-43.8191
 20
44.5055
 30
0
 10
-43.8191
 20
44.3823
 30
0
 10
-43.7717
 20
44.2622
 30
0
  0
SPLINE
  5
D4C
330
A02
100
AcDbEntity
  8
Shape2DView002
100
AcDbSpline
210
0
220
0
230
1
 70
8
 71
2
 72
6
 73
3
 74
0
 40
0
 40
0
 40
0
 40
1
 40
1
 40
1
 10
-43.639
 20
44.8973
 30
0
 10
-43.8191
 20
44.7488
 30
0
 10
-43.8191
 20
44.5055
 30
0
  0
SPLINE
  5
D4D
330
A02
100
AcDbEntity
  8
Shape2DView002
100
AcDbSpline
210
0
220
0
230
1
 70
8
 71
2
 72
6
 73
3
 74
0
 40
0
 40
0
 40
0
 40
1
 40
1
 40
1
 10
-43.0972
 20
45.0442
 30
0
 10
-43.4589
 20
45.0442
 30
0
 10
-43.639
 20
44.8973
 30
0
  0
ENDSEC
  0
SECTION
  2
OBJECTS
  0
DICTIONARY
  5
F000
330
0
100
AcDbDictionary
  3
ACAD_GROUP
350
F001
  0
DICTIONARY
  5
F001
330
F000
100
AcDbDictionary
  0
ENDSEC
  0
EOF